<svg id="svga-svgcanvas" xmlns="http://www.w3.org/2000/svg" version="1.1" xlink="http://www.w3.org/1999/xlink"
     style="position:relative;overflow:hidden;left:-0.5px;top:0px;" class="svga-svg" viewBox="0 0 200 200"
     preserveAspectRatio="xMinYMin meet">
    <g id="svga-group-wrapper">
        <g id="svga-group-backs-single">
            <path id="SvgjsPath4898" d="M225 225H-25V-25h250V225z" data-colored="true" data-filltype="tone"
                  data-stroketype="none" fill="#ffffff" stroke-width="none" opacity="1"></path>
        </g>
        <g id="svga-group-subwrapper" data-updown="-1.6365788271696354e-16" data-leftright="-1.6365788271696354e-16"
           data-dist="0" data-scaleX="1" data-scaleY="1" data-rotate="0"
           transform="matrix(0.99999989 0 0 0.99999989 0.000010988890821295172 0.000012810917922934095) translate(-1.6365788271696354e-16 9.999999983634211e-8)">
            <g id="svga-group-hair-back" data-updown="0" data-leftright="0" data-dist="0" data-scaleX="0.97999979"
               data-scaleY="0.9998997900000001" data-rotate="0"
               transform="matrix(0.9799999 0 0 0.9998999000000001 0.6917934674949606 0.02105663588102402) rotate(-1e-7 100 150)">
                <path id="SvgjsPath7934"
                      d="M41.279 215.266c-0.033-0.044-0.063-0.094-0.095-0.14 3.872-1.418 107.984 7.4 115.031 6.323 -0.001 0.108-0.007 0.217-0.007 0.325 0.282-0.064 0.24-0.075 0.254-0.359 0.259-0.032 1.051-0.167 0.027-0.457 3.485-63.467 43.554-53.333 20.529-111.343 -5.448-13.536-5.042-26.26-6.357-42.117 -1.84 1.797-1.238 11.106-3.489 28.325 17.078 53.526 2.414 51.246-11.503 76.872 -4.604 8.467-8.295 17.095-9.091 26.65 -22.673-39.208-16.05-38.328-6.981-62.078 -1.56 2.201-7.898 6.916-13.709 8.025 14.211-10.797 22.683-10.831 22.98-76.708 -13.031-6.03-24.886-17.239-32.2-29.8 -9.476 19.65-26.281 27.875-47.75 31.14 -5.35 2.72-10.92 5-16.55 7.08 -0.476 27.679 6.753 46.579 21.26 66.64 -5.091-3.645-10.294-9.649-13.96-14.758 4.4 8.811 10.944 16.104 9.16 31.867 -1.972 17.313-18.629 29.105-18.629 51.372 -16.264-25.388-21.752-14.633-17.979-42.312 -6.177-10.806-9.18-18.142-11.68-25.979 -0.605-0.005-1.578 0.138-2.133 0.204C11.333 170.695 21.465 190.498 41.279 215.266z"
                      data-colored="true" data-filltype="sd1" data-stroketype="none" fill="#000000" stroke-width="none"
                      opacity="1"></path>
                <path id="SvgjsPath7935" d="M142.489 227.847h-90V97.24h90V227.847z" data-colored="true"
                      data-filltype="sd2" data-stroketype="none" fill="#000000" stroke-width="none" opacity="1"></path>
                <path id="SvgjsPath7936"
                      d="M156.49 220.958c3.485-63.467 43.554-53.333 20.529-111.343 -4.317-10.726-4.958-20.946-5.692-32.615 -0.213 0-0.427 0-0.641 0 0.342 11.384 0.54 21.512 3.883 31.266 20.946 61.4-17.667 48.849-18.343 112.635 -4.423-0.602-111.114-7.244-115.042-5.775 -14.061-20.667-24.449-40.831-22.283-63.372 -0.668-0.594-1.228-1.297-1.759-2.028 -4.286 23.862 5.757 42.566 24.137 65.541 -0.033-0.044-0.063-0.094-0.095-0.14 3.872-1.418 107.984 7.4 115.031 6.323 -0.001 0.108-0.007 0.217-0.007 0.325 0.282-0.064 0.24-0.075 0.254-0.359C156.722 221.383 157.514 221.248 156.49 220.958z"
                      data-colored="true" data-filltype="sd3" data-stroketype="none" fill="#000000" stroke-width="none"
                      opacity="1"></path>
            </g>
            <g id="svga-group-humanbody-single">
                <path id="SvgjsPath2761"
                      d="M190.858 199.866c-6.008-10.158-13.474-11.973-19.628-13.936 -6.323-2.016-19.346-3.178-26.449-4.6 -6.86-1.373-23.153-5.789-23.339-13.488 -0.192-8.066 4.291-40.09 4.291-40.09H74.005c0 0 4.487 32.023 4.294 40.09 -0.184 7.699-16.48 12.115-23.341 13.488 -7.104 1.422-20.125 2.584-26.448 4.6 -6.156 1.963-13.624 3.777-19.632 13.936 -3.644 6.16-6.008 16.133-6.008 27.133h194C196.869 215.999 194.509 206.026 190.858 199.866z"
                      data-colored="true" data-filltype="tone" data-stroketype="none" data-fromskin="true"
                      fill="#e9b995" stroke-width="none" opacity="1" stroke="none"></path>
                <path id="SvgjsPath2762"
                      d="M121.442 167.843c2.495 10.929 18.165 13.698 26.293 15.325 21.909 4.379 33.772 5.134 42.297 19.539 2.903 4.916 5.459 15.864 5.962 24.153 1.835 0.291 0.531-17.432-5.136-26.994 -9.742-16.472-29.089-15.135-46.077-18.535C137.921 179.958 121.628 175.542 121.442 167.843L121.442 167.843zM78.558 167.843c-0.186 7.699-16.479 12.115-23.339 13.488 -16.988 3.4-36.335 2.063-46.077 18.535 -5.667 9.563-6.971 27.285-5.136 26.994 0.503-8.289 3.059-19.237 5.962-24.153 8.524-14.405 20.388-15.16 42.297-19.539C60.393 181.541 76.063 178.771 78.558 167.843L78.558 167.843z"
                      data-colored="true" data-filltype="hl1" data-stroketype="none" data-fromskin="true" fill="#f8d3b8"
                      stroke-width="none" opacity="1" stroke="none"></path>
                <path id="SvgjsPath2763"
                      d="M51.206 189.513c0 0 28.641 0.299 33.473 1.885 2.314 0.758 8.372 5.633 8.372 5.633s-6.556-3.17-8.658-3.758C79.51 191.909 51.206 189.513 51.206 189.513zM99.795 199.999c2.053-0.041 7.887-3.799 7.887-3.799s-5.574 2.059-7.342 2.16c-1.491 0.086-6.366-1.238-6.366-1.238S98.112 200.032 99.795 199.999zM117.008 192.757c6.75-1.818 29.786-3.23 29.786-3.23s-23.791-0.516-30.51 1.725c-2.252 0.752-7.562 5.16-7.562 5.16S114.786 193.354 117.008 192.757z"
                      data-colored="true" data-filltype="sd1" data-stroketype="none" data-fromskin="true" fill="#daa075"
                      stroke-width="none" opacity="1" stroke="none"></path>
                <path id="SvgjsPath2764"
                      d="M190.858 199.866c-9.741-16.471-29.122-15.142-46.077-18.535 -6.86-1.373-23.153-5.789-23.339-13.488 -0.192-8.066 4.291-40.09 4.291-40.09H74.005c0 0 4.487 32.023 4.294 40.09 -0.184 7.699-16.48 12.115-23.341 13.488 -7.104 1.422-20.125 2.584-26.448 4.6 -6.156 1.963-13.624 3.777-19.632 13.936 -3.644 6.16-6.008 16.133-6.008 27.133h194C196.869 215.999 194.509 206.026 190.858 199.866z"
                      data-colored="true" data-filltype="none" data-stroketype="sd3" data-fromskin="true" fill="none"
                      stroke="#bb7440" stroke-width="1.5" opacity="1"></path>
            </g>
            <g id="svga-group-chinshadow-single">
                <path id="SvgjsPath8052"
                      d="M100.002 171.27c11.208 0 16.588-3.813 20.938-7.778 0.582-8.897 2.669-24.918 3.646-32.155 -14.784-1.753-34.708-1.742-49.43 0.032 0.971 7.183 3.024 22.934 3.628 31.864C83.185 167.29 88.551 171.27 100.002 171.27z"
                      data-colored="false" data-filltype="gradient" data-stroketype="none" data-fromskin="true"
                      fill="url(#SvgjsLinearGradient8053)" opacity="1"></path>
            </g>
            <g id="svga-group-clothes-single" data-updown="0" data-leftright="0" data-dist="0" data-scaleX="1"
               data-scaleY="1" data-rotate="0">
                <path id="SvgjsPath8217"
                      d="M176.662 239.205c-4.731-0.031-142.126-1.232-153.208-1.823 1.595-10.032 4.924-15.048 10.136-20.336 0.397-10.141-3-24.685-4.583-31.951 1.592-4.057 4.741 0.357 20.731-4.584 4.066-1.013 8.65-7.315 14.947-2.354 -2.199 0.903-4.148 1.319-5.923 1.756 -2.657 14.611 31.716 40.78 40.839 45.67 11.181-5.065 44.953-33.159 41.373-45.645 -0.346-0.158-4.268-1.11-5.551-1.71 2.176-1.919 5.892-2.672 9.589-0.353 4.431 2.771 12.578 5.406 22.848 5.406 1.323 0 2.337 0.34 2.986 1.999 -1.114 5.095-4.727 22.604-4.667 31.635C174.006 224.707 175.121 229.664 176.662 239.205z"
                      data-colored="true" data-filltype="tone" data-stroketype="none" fill="#92002a" stroke-width="none"
                      opacity="1"></path>
                <path id="SvgjsPath8218"
                      d="M150.077 185.14c-3.109 8.592-5.631 11.417-7.907 14.465 -2.618 3.506-3.455 5.129-2.205 2.785C144.613 193.068 145.855 193.511 150.077 185.14zM147.508 213.521c-0.232 1.071-0.375 1.72-0.344 1.593 2.81-9.574 9.184-26.459 9.184-26.459C154.178 195.795 151.241 196.15 147.508 213.521zM55.885 200c14.044 17.188-2.303-2.73-7.432-12.774C50.601 192.177 52.189 195.138 55.885 200zM54.307 216.992c-0.395-1-6.421-22.676-11.549-26.604C45.151 192.344 54.679 217.992 54.307 216.992z"
                      data-colored="true" data-filltype="sd1" data-stroketype="none" fill="#830026" stroke-width="none"
                      opacity="1"></path>
                <path id="SvgjsPath8219"
                      d="M170.847 185.281c-0.14 0.637-0.436 1.843-0.642 2.827 -2.355-0.396-5.961-1.215-5.961-0.373 -0.866 9.101-1.283 8.2-2.025 16.167 0.073-10.926 2.019-11.629-0.219-16.902 -6.053-1.017-11.768-2.581-17.019-4.186 -2.151 8.861-12.232 20.261-8.525 15.445 3.343-4.392 6.313-10.895 7.528-15.751 -0.939-0.29-1.867-0.581-2.774-0.869 -0.021-0.591-0.082-1.165-0.235-1.701 -0.346-0.158-4.268-1.11-5.551-1.71 2.176-1.919 5.892-2.672 9.589-0.353 4.431 2.771 12.578 5.406 22.848 5.406C169.184 183.282 170.197 183.622 170.847 185.281zM29.153 185.281c0.14 0.637 0.436 1.843 0.642 2.827 2.355-0.396 5.895-0.783 5.895-0.783 -0.26 5.06 1.35 7.61 2.092 15.577C37.708 191.977 36.014 192.189 37 187c6.053-1.017 12.768-2.581 18.019-4.186 2.151 8.861 13.232 22.001 9.525 17.186 -3.343-4.392-7.313-12.635-8.528-17.491 0.939-0.29 1.867-0.581 2.774-0.869 0.021-0.591 0.082-1.165 0.235-1.701 0.346-0.158 4.268-1.11 5.551-1.71 -2.176-1.919-5.892-2.672-9.589-0.353 -4.431 2.771-12.578 5.406-22.848 5.406C30.816 183.282 29.803 183.622 29.153 185.281z"
                      data-colored="true" data-filltype="hl1" data-stroketype="none" fill="#a1103a" stroke-width="none"
                      opacity="1"></path>
                <path id="SvgjsPath8220"
                      d="M58.769 179.936c0-0.801 0.47-1.651 1.339-1.651 0.476 0 1.025 0.247 1.633 0.733l0.146 0.117 -0.178 0.057c-0.73 0.23-1.982 0.597-2.722 0.813l-0.128 0.038L58.769 179.936zM140.869 179.995c-0.016 0-0.016 0-1.14-0.35l-1.301-0.402 0.162-0.119c0.529-0.385 0.955-0.572 1.3-0.572 0.533 0 0.885 0.433 1.076 1.323l0.026 0.12H140.869z"
                      data-colored="true" data-filltype="sd2" data-stroketype="none" fill="#730021" stroke-width="none"
                      opacity="1"></path>
                <path id="SvgjsPath8221"
                      d="M166.279 216.915c-0.055-8.281 2.988-23.902 4.66-31.67 -1.18-3.017-3.58-1.753-6.03-2.02 -15.956-1.477-19.064-5.281-21.12-6.16 -2.655-1.258-6.253-0.91-8.479 1.13 -0.021 0.01-0.04 0.03-0.061 0.06 1.22 0.625 4.63 1.429 5.63 1.711 3.549 12.378-29.553 40.193-41.23 45.529 -9.231-4.947-43.363-30.894-40.8-45.5 0.113-0.027 2.995-0.729 3.1-0.779 0.039 0 2.487-0.819 2.92-1.03 -0.02-0.01-0.04-0.03-0.05-0.05 -6.392-5.112-11.061 1.27-15.11 2.279 -16.079 4.97-19.171 0.454-20.8 4.7 0.213 1 5.017 20.344 4.61 31.86 -5.072 5.146-8.551 10.14-10.16 20.399 -0.01 0.04-0.02 0.07-0.02 0.101 10.231 0.588 152.439 1.83 153.44 1.83C175.204 229.537 174.033 224.594 166.279 216.915zM138.649 179.205c1.198-0.872 1.907-0.766 2.22 0.69C140.868 179.896 138.65 179.205 138.649 179.205zM58.869 179.936c0-1 0.825-2.429 2.81-0.84C60.919 179.336 59.593 179.724 58.869 179.936zM23.899 237.365c3.735-15.164 12.067-23.607 14.47-23.68 -1.422 0-3.53 1.973-4.53 2.96 0.941-11.17-2.007-22.558-4.63-31.54 1.216-2.388 3.067-1.38 5.53-1.38 22.481 0 21.745-12.367 29.94-5.54 -0.409 0.163-2.524 0.757-2.9 0.88 -3.441-3.277-3.946 2.577-2.91 7.54 5.004 16.15 35.575 39.59 40.71 39.59 15.945-6.354 44.861-31.908 41.59-46.16 0.01-0.02 0-0.04-0.01-0.06 -0.188-1.347-1.059-2.112-2.62-0.811 -0.904-0.285-1.897-0.549-3.09-0.92 5.239-4.381 10.854 1.216 12.77 2.19 4.607 2.536 12.876 3.43 16.681 3.43 2.626 0.086 4.562-1.097 5.739 1.351 -2.909 9.728-5.29 21.217-4.67 31.39 -1.057-1.004-2.635-2.41-4.05-2.76 6.852 2.486 13.144 17.17 14.4 25.26C108.784 236.728 100.525 237.005 23.899 237.365z"
                      data-colored="true" data-filltype="sd3" data-stroketype="none" fill="#64001d" stroke-width="none"
                      opacity="1"></path>
            </g>
            <g id="svga-group-head" data-updown="0" data-leftright="0" data-dist="0" data-scaleX="1" data-scaleY="1"
               data-rotate="0" transform="rotate(-1e-7 100 150)">
                <g id="svga-group-ears-left" data-updown="0" data-leftright="1.5000001" data-dist="0" data-scaleX="1"
                   data-scaleY="1" data-rotate="0" transform="translate(1.5 0)" style="display:none;">
                    <path id="SvgjsPath8202"
                          d="M47.34 82.049c-1.378-2.352-9.403-6.527-11.855-6.357 -4.229 0.292-5.137 5.152-5.446 7.479 -0.609 4.591 0.645 9.778 1.485 12.908 0.687 2.557 2.874 7.41 4.214 9.664 1.197 2.016 4.145 5.663 5.733 7.358 1.398 1.495 4.73 4.215 7.248 3.551 2.769-0.728 6.015-3.857 6.239-5.193C56.165 104.212 50.926 88.167 47.34 82.049z"
                          data-colored="true" data-filltype="tone" data-stroketype="sd3" fill="#e9b995" stroke="#bb7440"
                          stroke-width="1.5" opacity="1"></path>
                    <path id="SvgjsPath8203"
                          d="M42.903 98.548c-0.142-0.572 0.007-1.535 0.151-2.465 0.131-0.848 0.255-1.648 0.18-2.214 -0.284-2.121-1.888-6.15-2.936-8.334 -1.206-2.511-3.157-5.674-5.602-6.492 -1.011-0.338-2.073-0.511-2.145-0.236 -0.611 1.9-0.563 7.178-0.212 11.086 0.987 10.992 10.375 18.911 11.872 20.578 0.276 0.308 0.566 0.49 0.637 0.416 0.072-0.074-0.1-0.379-0.375-0.688 -1.477-1.654-8.314-8.49-9.27-12.807 -1.012-4.581 3-12.111 3.776-13.548 0.397 0.675 0.732 1.322 0.991 1.862 0.204 0.424 0.429 0.92 0.66 1.456 -0.456 0.75-3.656 6.219-2.489 10.596 0.431 1.615 2.379 3.695 3.67 4.266 0.71 0.314 0.978 0.783 1.287 1.325 0.359 0.63 0.765 1.343 1.946 1.861 0.24 0.106 0.457 0.148 0.649 0.148 0.333 0 0.586-0.132 0.773-0.288 0.019 0.275-0.349 2.463-0.357 2.789 -0.012 0.421 0.045 0.77 0.146 0.778 0.101 0.008 0.207-0.327 0.221-0.749 0.016-0.518 0.379-2.992 0.289-3.297 -0.264-0.902-1.073-1.921-1.93-3C43.994 100.53 43.122 99.432 42.903 98.548zM34.428 94.672c-2.316-7.025 1.456-13.179 1.977-14.144 0.906 0.808 1.704 1.89 2.354 2.948C38.286 84.321 34.526 89.947 34.428 94.672zM45.187 104.856c-1.069-0.469-1.427-1.096-1.774-1.704 -0.313-0.549-0.637-1.118-1.458-1.481 -0.179-0.08-0.375-0.199-0.576-0.338 -2.646-6.164 0.289-8.857 1.025-9.411 0.226 0.754 0.394 1.445 0.468 2 0.067 0.509-0.058 1.317-0.179 2.1 -0.149 0.97-0.305 1.973-0.144 2.621 0.239 0.967 1.137 2.098 2.005 3.191 0.771 0.971 1.562 1.97 1.832 2.786C46.271 104.783 45.905 105.173 45.187 104.856z"
                          data-colored="true" data-filltype="sd3" data-stroketype="none" fill="#bb7440"
                          stroke-width="none" opacity="1"></path>
                </g>
                <g id="svga-group-ears-right" data-updown="0" data-leftright="-1.5000001" data-dist="0" data-scaleX="1"
                   data-scaleY="1" data-rotate="0" transform="translate(-1.5 0)" style="display:none;">
                    <path id="SvgjsPath8204"
                          d="M152.398 82.049c1.377-2.352 9.402-6.527 11.855-6.357 4.229 0.292 5.137 5.152 5.445 7.479 0.609 4.591-0.645 9.778-1.484 12.908 -0.688 2.557-2.875 7.41-4.215 9.664 -1.197 2.016-4.145 5.663-5.732 7.358 -1.398 1.495-4.73 4.215-7.248 3.551 -2.77-0.728-6.016-3.857-6.238-5.193C143.574 104.212 148.813 88.167 152.398 82.049z"
                          data-colored="true" data-filltype="tone" data-stroketype="sd3" fill="#e9b995" stroke="#bb7440"
                          stroke-width="1.5" opacity="1"></path>
                    <path id="SvgjsPath8205"
                          d="M154.902 101.59c-0.855 1.08-1.666 2.098-1.93 3 -0.09 0.305 0.273 2.779 0.289 3.297 0.014 0.422 0.119 0.757 0.221 0.749 0.102-0.009 0.158-0.357 0.146-0.778 -0.01-0.326-0.377-2.514-0.357-2.789 0.188 0.156 0.439 0.288 0.771 0.288 0.193 0 0.41-0.042 0.65-0.148 1.182-0.518 1.588-1.23 1.945-1.861 0.311-0.542 0.578-1.011 1.287-1.325 1.291-0.571 3.24-2.651 3.67-4.266 1.168-4.376-2.031-9.846-2.488-10.596 0.23-0.536 0.457-1.032 0.66-1.456 0.26-0.54 0.594-1.188 0.99-1.862 0.777 1.437 4.789 8.967 3.777 13.548 -0.955 4.317-7.793 11.153-9.27 12.807 -0.275 0.31-0.447 0.614-0.375 0.688s0.361-0.108 0.637-0.416c1.498-1.667 10.885-9.585 11.873-20.578 0.35-3.908 0.396-9.187-0.213-11.086 -0.072-0.274-1.135-0.102-2.145 0.236 -2.445 0.817-4.396 3.98-5.604 6.492 -1.047 2.185-2.65 6.213-2.936 8.334 -0.076 0.566 0.049 1.366 0.18 2.214 0.145 0.93 0.293 1.893 0.15 2.465C156.617 99.432 155.744 100.53 154.902 101.59zM160.979 83.476c0.65-1.058 1.449-2.14 2.355-2.948 0.52 0.964 4.291 7.119 1.977 14.144C165.211 89.947 161.453 84.321 160.979 83.476zM153.352 104.62c0.271-0.815 1.063-1.814 1.832-2.786 0.869-1.093 1.766-2.224 2.006-3.191 0.16-0.648 0.006-1.651-0.145-2.621 -0.121-0.783-0.246-1.591-0.178-2.1 0.074-0.555 0.242-1.245 0.467-2 0.736 0.553 3.672 3.247 1.025 9.411 -0.201 0.139-0.396 0.258-0.576 0.338 -0.82 0.363-1.145 0.932-1.457 1.481 -0.348 0.608-0.705 1.235-1.775 1.704C153.834 105.173 153.467 104.783 153.352 104.62z"
                          data-colored="true" data-filltype="sd3" data-stroketype="none" fill="#bb7440"
                          stroke-width="none" opacity="1"></path>
                </g>
                <g id="svga-group-faceshape-wrap" data-updown="0" data-leftright="0" data-dist="0"
                   data-scaleX="0.97999979" data-scaleY="0.9998997900000001" data-rotate="0"
                   transform="matrix(0.9799999 0 0 0.9998999000000001 2.000060049078371 0.008014806443867428)">
                    <g id="svga-group-faceshape-single" data-updown="0" data-leftright="0" data-dist="0" data-scaleX="1"
                       data-scaleY="1" data-rotate="0">
                        <path id="SvgjsPath8049"
                              d="M100.002 0.867C66.384 0.919 39.082 28.09 39.134 61.564c0.008 5.316 0.704 10.471 2.002 15.382h0.001C41.15 77 52.68 114.915 55.158 127.369c1.382 6.945 9.796 13.203 17.265 18.313 6.967 4.767 10.529 13.588 27.58 13.588s20.613-8.821 27.58-13.588c7.468-5.109 15.883-11.367 17.265-18.313 2.479-12.454 14.009-50.37 14.02-50.423h0.002c1.298-4.911 1.994-10.066 2.002-15.382C160.923 28.09 133.62 0.919 100.002 0.867z"
                              data-colored="true" data-filltype="tone" data-stroketype="none" fill="#e9b995"
                              stroke-width="none" opacity="1"></path>
                        <path id="SvgjsPath8050"
                              d="M146.772 22.738c7.478 10.183 11.917 22.87 11.898 36.626 -0.009 5.316-0.679 10.471-1.93 15.382h-0.002c-0.011 0.053-11.124 37.969-13.512 50.423 -1.335 6.945-9.471 13.203-16.668 18.313 -6.718 4.767-10.121 13.588-26.557 13.588 -16.434 0-19.842-8.821-26.557-13.588 -7.197-5.109-15.335-11.367-16.665-18.313 -2.391-12.454-13.504-50.37-13.515-50.423h0c-1.252-4.911-1.922-10.066-1.931-15.382 -0.021-13.752 4.416-26.435 11.889-36.617 -8.812 10.525-14.112 24.056-14.089 38.817 0.008 5.316 0.704 10.471 2.002 15.382h0.001C41.15 77 52.68 114.915 55.158 127.369c1.382 6.945 9.796 13.203 17.265 18.313 6.967 4.767 10.529 13.588 27.58 13.588s20.613-8.821 27.58-13.588c7.468-5.109 15.883-11.367 17.265-18.313 2.479-12.454 14.009-50.37 14.02-50.423h0.002c1.298-4.911 1.994-10.066 2.002-15.382C160.894 46.799 155.589 33.264 146.772 22.738z"
                              data-colored="true" data-filltype="sd05" data-stroketype="none" fill="#e1ac85"
                              stroke-width="none" opacity="1"></path>
                        <path id="SvgjsPath8051"
                              d="M100.002 0.867C66.384 0.919 39.082 28.09 39.134 61.564c0.008 5.316 0.704 10.471 2.002 15.382h0.001C41.15 77 52.68 114.915 55.158 127.369c1.382 6.945 9.796 13.203 17.265 18.313 6.967 4.767 10.529 13.588 27.58 13.588s20.613-8.821 27.58-13.588c7.468-5.109 15.883-11.367 17.265-18.313 2.479-12.454 14.009-50.37 14.02-50.423h0.002c1.298-4.911 1.994-10.066 2.002-15.382C160.923 28.09 133.62 0.919 100.002 0.867z"
                              data-colored="true" data-filltype="none" data-stroketype="sd3" fill="none"
                              stroke="#bb7440" stroke-width="1.5" opacity="1"></path>
                    </g>
                </g>
                <g id="svga-group-mouth-single" data-updown="1.0000001" data-leftright="0.5000001" data-dist="0"
                   data-scaleX="1.05000021" data-scaleY="1.05000021" data-rotate="0"
                   transform="matrix(1.0500001 0 0 1.0500001 -4.913684949842931 -6.833863584621241) translate(0.5000001 1.0000002000000001)">
                    <path id="SvgjsPath8187"
                          d="M100.263 141.54c-4.719-0.009-6.612-4.209-6.612-4.209 5.683 2.58 12.793 0.279 12.793 0.279S105.001 141.549 100.263 141.54z"
                          data-colored="false" data-filltype="gradient" data-stroketype="none" data-fromskin="true"
                          fill="url(#SvgjsLinearGradient8188)" opacity="1"></path>
                    <path id="SvgjsPath8191"
                          d="M84.579 130.51c2.964-0.119 8.822-0.646 10.971-0.483 1.11 0.083 2.931 1.055 4.128 1.386 0.833 0.232 3.999-0.863 4.85-0.868 2.231-0.017 7.069 1.347 9.668 1.884 0.144 0.029 0 0 0 0s-6.394 6.945-14.582 6.487C90.345 138.398 84.579 130.51 84.579 130.51S84.431 130.515 84.579 130.51z"
                          data-colored="true" data-filltype="tone" data-stroketype="sd1" fill="#d58776" stroke="#c66d5a"
                          stroke-width="0.75" opacity="1"></path>
                    <path id="SvgjsPath8192"
                          d="M114.438 132.221c-0.069-0.135-0.53-0.26-0.702-0.234 -0.31 0.047-0.533 0.41-1.182 0.484 -0.752 0.088-4.73 0.86-5.815 0.826 -2.183-0.069-4.689 0.593-6.774 0.477 -2.085-0.117-5.367-1.225-7.536-1.421 -1.078-0.097-5.5-1.407-6.232-1.592 -0.631-0.159-0.681-0.533-0.935-0.642 -0.178-0.076-0.691-0.023-0.83 0.097 -0.119 0.104-0.083 0.588 0.001 0.72 0.206 0.321 0.969 0.462 1.527 0.601 0.773 0.195 5.261 1.52 6.369 1.62 2.147 0.196 5.472 1.376 7.575 1.493 2.103 0.118 4.657-0.62 6.818-0.551 1.112 0.037 5.147-0.737 5.943-0.829 0.575-0.066 1.292-0.189 1.557-0.422C114.349 132.735 114.509 132.359 114.438 132.221z"
                          data-colored="true" data-filltype="sd3" data-stroketype="none" fill="#a7412a"
                          stroke-width="none" opacity="1"></path>
                    <path id="SvgjsPath8193"
                          d="M99.704 137.573c-3.663-0.204-9.44-2.02-11.651-4.388 1.353 0.208 4.28 0.509 5.624 0.734 1.657 0.279 3.953 1.059 5.642 1.258 1.824 0.215 4.317-0.25 6.098-0.446 1.485-0.162 3.788-0.698 5.271-0.758C108.192 135.866 103.241 137.77 99.704 137.573zM105.648 132.674c1.33-0.085 3.404-0.664 4.729-0.713 -1.492-0.52-3.736-0.521-5.32-0.737 -1.366-0.184-3.451 0.729-4.804 0.85 -1.527 0.138-3.341-1.272-4.761-1.408 -1.542-0.146-4.761 0.299-6.273 0.641 1.292 0.177 4.103 0.455 5.375 0.718 1.559 0.321 3.797 1.021 5.416 1.111C101.665 133.227 104.008 132.781 105.648 132.674z"
                          data-colored="true" data-filltype="hl1" data-stroketype="none" fill="#e4a395"
                          stroke-width="none" opacity="1"></path>
                    <path id="SvgjsPath8194"
                          d="M99.711 136.739c-2.181-0.124-5.804-1.12-7.369-2.499 0.401 0.025 1.565 0.154 1.95 0.201 0.122 0.016 0.243 0.032 0.363 0.053 0.629 0.104 1.237 0.32 1.886 0.543 0.63 0.219 2.061 0.496 2.764 0.588 0.138 0.02 0.277 0.029 0.416 0.037 0.867 0.05 2.478-0.064 3.274-0.223 0.505-0.1 0.98-0.203 1.469-0.262 0.267-0.033 0.555-0.049 0.881-0.051 0.28-0.003 0.572 0.005 0.861 0.018C104.739 136.09 101.957 136.865 99.711 136.739z"
                          data-colored="true" data-filltype="hl2" data-stroketype="none" fill="#f4c2b8"
                          stroke-width="none" opacity="1"></path>
                    <path id="SvgjsPath8195"
                          d="M82.599 131.485c0 0-0.561-1.254-0.482-1.724 0.11-0.655 1.521-1.956 1.521-1.956s-0.854 1.497-0.986 1.969C82.523 130.231 82.599 131.485 82.599 131.485z"
                          data-colored="true" data-filltype="sd3" data-stroketype="none" data-fromskin="true"
                          fill="#bb7440" stroke-width="none" opacity="1"></path>
                </g>
                <g id="svga-group-eyes-left" data-updown="2.0000001999999992" data-leftright="3.0000003" data-dist="0"
                   data-scaleX="0.89999958" data-scaleY="0.89999958" data-rotate="0"
                   transform="matrix(0.89999969 0 0 0.89999969 7.715423880601207 8.59992670462178) translate(3.0000003 2.0000000999999994)">
                    <g id="svga-group-eyesback-left">
                        <path id="SvgjsPath8127"
                              d="M79.063 92.229c-4.31 0.755-7.656 0.71-10.688-0.204 -3.127-0.943-7.188-4.825-8.596-8.495 3.715-0.277 11.349-0.597 14.89-0.154 4.688 0.586 9.474 2.406 12.305 5.236 -0.016 0.294-0.053 0.583-0.087 0.872C84.602 91.031 81.366 91.825 79.063 92.229z"
                              data-colored="false" data-filltype="gradient" data-stroketype="none"
                              fill="url(#SvgjsRadialGradient8128)" opacity="1"></path>
                    </g>
                    <g id="svga-group-eyesiriswrapper-left" transform="translate(-1 0.5)">
                        <g id="svga-group-eyesiriscontrol-left" data-updown="-1.6365788271696354e-16" data-leftright="0"
                           data-dist="0" data-scaleX="1" data-scaleY="1" data-rotate="0"
                           transform="translate(0 9.999999983634211e-8)">
                            <g id="svga-group-eyesiris-left" data-updown="0" data-leftright="0" data-dist="0"
                               data-scaleX="0.79999916" data-scaleY="0.79999916" data-rotate="0"
                               transform="matrix(0.79999927 0 0 0.79999927 15.0013548035733 17.399962801624596)">
                                <path id="SvgjsPath8035"
                                      d="M83.199 89.25c-1.231 4.522-5.896 7.187-10.429 5.944 -4.528-1.241-7.203-5.918-5.97-10.442 1.23-4.526 5.905-7.19 10.434-5.947C81.761 80.045 84.433 84.723 83.199 89.25z"
                                      data-colored="true" data-filltype="tone" data-stroketype="sd3" fill="#341e0c"
                                      stroke="#060300" stroke-width="0.5" opacity="1"></path>
                                <path id="SvgjsPath8036"
                                      d="M81.878 89.354c-1.202 3.473-4.827 5.499-8.357 4.531 -3.258-0.894-5.315-4.02-5.048-7.325 1.209-0.096 2.532-0.124 3.904-0.056 -0.014 0.047-0.039 0.087-0.051 0.136 -0.434 1.594 0.576 3.265 2.256 3.726 1.685 0.461 3.401-0.462 3.835-2.056 0.055-0.208 0.085-0.417 0.093-0.623C79.66 88.108 80.792 88.651 81.878 89.354z"
                                      data-colored="true" data-filltype="hl1" data-stroketype="none" fill="#432b16"
                                      stroke-width="none" opacity="1"></path>
                                <path id="SvgjsPath8037"
                                      d="M76.151 84.464c-1.703-0.487-3.44 0.485-3.88 2.181 -0.44 1.687 0.584 3.454 2.286 3.942 1.705 0.489 3.443-0.484 3.884-2.173C78.884 86.719 77.855 84.953 76.151 84.464zM76.523 90.46c-0.708 0.22-1.441-0.072-1.636-0.655 -0.188-0.582 0.231-1.228 0.945-1.443 0.712-0.22 1.442 0.073 1.639 0.651C77.665 89.593 77.241 90.24 76.523 90.46z"
                                      data-colored="false" data-filltype="#000000" data-stroketype="none" fill="#000000"
                                      stroke-width="none" opacity="0.9"></path>
                                <path id="SvgjsPath8038"
                                      d="M70.482 91.476c-0.523 0.314-1.307 0.034-1.754-0.633 -0.448-0.66-0.381-1.451 0.145-1.767 0.521-0.311 1.311-0.03 1.755 0.632C71.07 90.37 71.006 91.162 70.482 91.476z"
                                      data-colored="false" data-filltype="#ffffff" data-stroketype="none" fill="#ffffff"
                                      stroke-width="none" opacity="0.6"></path>
                                <path id="SvgjsPath8039"
                                      d="M81.673 86.632c-1.198 0.718-2.999 0.072-4.02-1.445 -1.02-1.518-0.867-3.331 0.332-4.047 1.196-0.721 3-0.074 4.015 1.444C83.019 84.101 82.871 85.913 81.673 86.632z"
                                      data-colored="false" data-filltype="#ffffff" data-stroketype="none" fill="#ffffff"
                                      stroke-width="none" opacity="0.9"></path>
                            </g>
                        </g>
                    </g>
                    <g id="svga-group-eyesfront-left">
                        <path id="SvgjsPath8152"
                              d="M56 88c0 13.808 8.06 24.999 18 24.999S92 101.808 92 88c0-13.809-8.06-25.001-18-25.001S56 74.191 56 88zM59.78 83.53c3.715-0.277 11.349-0.597 14.89-0.154 4.952 0.619 10.04 2.6 12.788 5.71 -2.289 1.82-5.897 2.705-8.395 3.143 -4.31 0.755-7.656 0.71-10.688-0.204C65.249 91.083 61.188 87.2 59.78 83.53z"
                              data-colored="true" data-filltype="tone" data-stroketype="none" data-fromskin="true"
                              fill="#e9b995" stroke-width="none" opacity="1"></path>
                        <path id="SvgjsPath8153"
                              d="M56.143 86.915c0.027 8.284 8.484 14.962 18.902 14.919 10.414-0.047 18.836-6.796 18.813-15.08 -0.027-8.285-8.486-14.963-18.902-14.92C64.539 71.881 56.119 78.63 56.143 86.915zM59.78 83.53c3.715-0.277 11.349-0.597 14.89-0.154 4.952 0.619 10.04 2.6 12.788 5.71 -2.289 1.82-5.897 2.705-8.395 3.143 -4.31 0.755-7.656 0.71-10.688-0.204C65.249 91.083 61.188 87.2 59.78 83.53z"
                              data-colored="false" data-filltype="gradient" data-stroketype="none" data-fromskin="true"
                              fill="url(#SvgjsRadialGradient8154)" opacity="1"></path>
                        <path id="SvgjsPath8158"
                              d="M59.78 83.53c3.715-0.277 11.349-0.597 14.89-0.154 4.952 0.619 10.04 2.6 12.788 5.71 -2.289 1.82-5.897 2.705-8.395 3.143 -4.31 0.755-7.656 0.71-10.688-0.204C65.249 91.083 61.188 87.2 59.78 83.53z"
                              data-colored="false" data-filltype="gradient" data-stroketype="none"
                              fill="url(#SvgjsRadialGradient8159)" opacity="1"></path>
                        <path id="SvgjsPath8162"
                              d="M67.363 79.695c6.133-0.278 8.613 0.088 12.986 1.384 1.662 0.602 1.852 0.772 2.555 1.214C79.119 80.256 68.83 79.641 67.363 79.695zM59.396 86.752c2.854 5.494 4.797 4.894 7.531 6.058 0.025 0.009-1.51-0.579-2.664-1.196C61.273 89.895 60.908 89.163 59.396 86.752z"
                              data-colored="true" data-filltype="sd3" data-stroketype="none" data-fromskin="true"
                              fill="#bb7440" stroke-width="none" opacity="1"></path>
                        <path id="SvgjsPath8163"
                              d="M56 81.734c3.096 2.525 4.363 5.953 7.398 8.529 2.037 1.729 5.877 2.717 9.602 2.773 3.844 0.058 8.59-0.434 10.258-0.855 2.838-0.718 3.539-1.278 6.742-1.472 -1.986-3.039-3.836-4.399-6.268-5.841 -2.977-1.764-5.074-2.279-8.719-2.564C70.16 81.924 56 81.734 56 81.734zM60.705 83.826c3.467-0.258 10.59-0.557 13.895-0.144 4.621 0.577 9.369 2.426 11.934 5.328 -2.137 1.699-5.504 2.524-7.834 2.933 -4.021 0.705-7.145 0.663-9.973-0.19C65.809 90.874 62.02 87.251 60.705 83.826z"
                              data-colored="true" data-filltype="tone" data-stroketype="none" fill="#000000"
                              stroke-width="none" opacity="1"></path>
                    </g>
                </g>
                <g id="svga-group-eyes-right" data-updown="2.0000001999999992" data-leftright="-3.0000003" data-dist="0"
                   data-scaleX="0.89999958" data-scaleY="0.89999958" data-rotate="0"
                   transform="matrix(0.89999969 0 0 0.89999969 12.284686947675155 8.59992670462178) translate(-3.0000003 2.0000000999999994)">
                    <g id="svga-group-eyesback-right">
                        <path id="SvgjsPath8135"
                              d="M120.937 92.229c4.31 0.755 7.656 0.71 10.688-0.204 3.127-0.943 7.188-4.825 8.596-8.495 -3.715-0.277-11.349-0.597-14.89-0.154 -4.688 0.586-9.474 2.406-12.305 5.236 0.016 0.294 0.053 0.583 0.087 0.872C115.398 91.031 118.634 91.825 120.937 92.229z"
                              data-colored="false" data-filltype="gradient" data-stroketype="none"
                              fill="url(#SvgjsRadialGradient8136)" opacity="1"></path>
                    </g>
                    <g id="svga-group-eyesiriswrapper-right" transform="translate(1 0.5)">
                        <g id="svga-group-eyesiriscontrol-right" data-updown="-1.6365788271696354e-16"
                           data-leftright="0" data-dist="0" data-scaleX="1" data-scaleY="1" data-rotate="0"
                           transform="translate(0 9.999999983634211e-8)">
                            <g id="svga-group-eyesiris-right" data-updown="0" data-leftright="0" data-dist="0"
                               data-scaleX="0.79999916" data-scaleY="0.79999916" data-rotate="0"
                               transform="matrix(0.79999927 0 0 0.79999927 25.000091249999997 17.399962801624596)">
                                <path id="SvgjsPath8040"
                                      d="M133.199 89.25c-1.231 4.522-5.896 7.187-10.429 5.944 -4.528-1.241-7.203-5.918-5.97-10.442 1.23-4.526 5.905-7.19 10.434-5.947C131.761 80.045 134.433 84.723 133.199 89.25z"
                                      data-colored="true" data-filltype="tone" data-stroketype="sd3" fill="#341e0c"
                                      stroke="#060300" stroke-width="0.5" opacity="1"></path>
                                <path id="SvgjsPath8041"
                                      d="M131.878 89.354c-1.202 3.473-4.827 5.499-8.357 4.531 -3.258-0.894-5.315-4.02-5.048-7.325 1.209-0.096 2.532-0.124 3.904-0.056 -0.014 0.047-0.039 0.087-0.051 0.136 -0.434 1.594 0.576 3.265 2.256 3.726 1.685 0.461 3.401-0.462 3.835-2.056 0.055-0.208 0.085-0.417 0.093-0.623C129.66 88.108 130.792 88.651 131.878 89.354z"
                                      data-colored="true" data-filltype="hl1" data-stroketype="none" fill="#432b16"
                                      stroke-width="none" opacity="1"></path>
                                <path id="SvgjsPath8042"
                                      d="M126.151 84.464c-1.703-0.487-3.44 0.485-3.88 2.181 -0.44 1.687 0.584 3.454 2.286 3.942 1.705 0.489 3.443-0.484 3.884-2.173C128.884 86.719 127.855 84.953 126.151 84.464zM126.523 90.46c-0.708 0.22-1.441-0.072-1.636-0.655 -0.188-0.582 0.231-1.228 0.945-1.443 0.712-0.22 1.442 0.073 1.639 0.651C127.665 89.593 127.241 90.24 126.523 90.46z"
                                      data-colored="false" data-filltype="#000000" data-stroketype="none" fill="#000000"
                                      stroke-width="none" opacity="0.9"></path>
                                <path id="SvgjsPath8043"
                                      d="M120.482 91.476c-0.523 0.314-1.307 0.034-1.754-0.633 -0.448-0.66-0.381-1.451 0.145-1.767 0.521-0.311 1.311-0.03 1.755 0.632C121.07 90.37 121.006 91.162 120.482 91.476z"
                                      data-colored="false" data-filltype="#ffffff" data-stroketype="none" fill="#ffffff"
                                      stroke-width="none" opacity="0.6"></path>
                                <path id="SvgjsPath8044"
                                      d="M131.673 86.632c-1.198 0.718-2.999 0.072-4.02-1.445 -1.02-1.518-0.867-3.331 0.332-4.047 1.196-0.721 3-0.074 4.015 1.444C133.019 84.101 132.871 85.913 131.673 86.632z"
                                      data-colored="false" data-filltype="#ffffff" data-stroketype="none" fill="#ffffff"
                                      stroke-width="none" opacity="0.9"></path>
                            </g>
                        </g>
                    </g>
                    <g id="svga-group-eyesfront-right">
                        <path id="SvgjsPath8173"
                              d="M126 62.999c-9.94 0-18 11.193-18 25.001 0 13.808 8.06 24.999 18 24.999S144 101.808 144 88C144 74.191 135.94 62.999 126 62.999zM131.624 92.025c-3.031 0.914-6.378 0.959-10.688 0.204 -2.497-0.438-6.105-1.323-8.395-3.143 2.748-3.11 7.836-5.091 12.788-5.71 3.541-0.443 11.175-0.123 14.89 0.154C138.812 87.2 134.751 91.083 131.624 92.025z"
                              data-colored="true" data-filltype="tone" data-stroketype="none" data-fromskin="true"
                              fill="#e9b995" stroke-width="none" opacity="1"></path>
                        <path id="SvgjsPath8174"
                              d="M125.045 71.834c-10.416-0.043-18.875 6.635-18.902 14.92 -0.023 8.284 8.398 15.033 18.813 15.08 10.418 0.043 18.875-6.635 18.902-14.919C143.881 78.63 135.461 71.881 125.045 71.834zM131.624 92.025c-3.031 0.914-6.378 0.959-10.688 0.204 -2.497-0.438-6.105-1.323-8.395-3.143 2.748-3.11 7.836-5.091 12.788-5.71 3.541-0.443 11.175-0.123 14.89 0.154C138.812 87.2 134.751 91.083 131.624 92.025z"
                              data-colored="false" data-filltype="gradient" data-stroketype="none" data-fromskin="true"
                              fill="url(#SvgjsRadialGradient8175)" opacity="1"></path>
                        <path id="SvgjsPath8179"
                              d="M140.22 83.53c-3.715-0.277-11.349-0.597-14.89-0.154 -4.952 0.619-10.04 2.6-12.788 5.71 2.289 1.82 5.897 2.705 8.395 3.143 4.31 0.755 7.656 0.71 10.688-0.204C134.751 91.083 138.812 87.2 140.22 83.53z"
                              data-colored="false" data-filltype="gradient" data-stroketype="none"
                              fill="url(#SvgjsRadialGradient8180)" opacity="1"></path>
                        <path id="SvgjsPath8183"
                              d="M117.096 82.293c0.703-0.442 0.893-0.613 2.555-1.214 4.373-1.295 6.854-1.662 12.986-1.384C131.17 79.641 120.881 80.256 117.096 82.293zM135.736 91.614c-1.154 0.617-2.689 1.205-2.664 1.196 2.734-1.164 4.678-0.564 7.531-6.058C139.092 89.163 138.727 89.895 135.736 91.614z"
                              data-colored="true" data-filltype="sd3" data-stroketype="none" data-fromskin="true"
                              fill="#bb7440" stroke-width="none" opacity="1"></path>
                        <path id="SvgjsPath8184"
                              d="M124.986 82.304c-3.645 0.285-5.742 0.8-8.719 2.564 -2.432 1.441-4.281 2.802-6.268 5.841 3.203 0.193 3.904 0.754 6.742 1.472 1.668 0.421 6.414 0.913 10.258 0.855 3.725-0.056 7.564-1.044 9.602-2.773 3.035-2.576 4.303-6.003 7.398-8.529C144 81.734 129.84 81.924 124.986 82.304zM131.273 91.753c-2.828 0.853-5.951 0.895-9.973 0.19 -2.33-0.409-5.697-1.234-7.834-2.933 2.564-2.902 7.313-4.751 11.934-5.328 3.305-0.413 10.428-0.114 13.895 0.144C137.98 87.251 134.191 90.874 131.273 91.753z"
                              data-colored="true" data-filltype="tone" data-stroketype="none" fill="#000000"
                              stroke-width="none" opacity="1"></path>
                    </g>
                </g>
                <g id="svga-group-facehighlight-single" data-updown="0" data-leftright="0" data-dist="0" data-scaleX="1"
                   data-scaleY="1" data-rotate="0">
                    <path id="SvgjsPath2753"
                          d="M140.204 113.007c0.035 22.275-17.995 40.365-40.273 40.396 -22.274 0.036-40.361-17.993-40.396-40.272C59.501 90.857 77.53 72.77 99.808 72.735 122.083 72.701 140.171 90.73 140.204 113.007z"
                          data-colored="false" data-filltype="gradient" data-stroketype="none" data-fromskin="true"
                          fill="url(#SvgjsRadialGradient2754)" opacity="1"></path>
                    <path id="SvgjsPath2757"
                          d="M135,55.999c0,19.329-15.671,35-35,35c-19.329,0-35-15.671-35-35s15.671-35,35-35C119.329,20.999,135,36.67,135,55.999z"
                          data-colored="false" data-filltype="gradient" data-stroketype="none" data-fromskin="true"
                          fill="url(#SvgjsRadialGradient2758)" opacity="1"></path>
                </g>
                <g id="svga-group-eyebrows-left" data-updown="4.0000004" data-leftright="1.0000001000000005"
                   data-dist="0" data-scaleX="1.05000021" data-scaleY="1.05000021" data-rotate="1e-7"
                   transform="matrix(1.05000032 0 0 1.05000032 -3.6754987389532516 -3.650648602883379) rotate(1e-7 74.5095043182373 74.01250497763672) translate(1.0000000000000004 4.0000004)">
                    <path id="SvgjsPath8125"
                          d="M54.351 74.996c9.743-15.115 36.491 5.148 38.018-1.191 0.299-1.271-0.407-2.015-1.564-2.492C77.184 65.807 59.156 61.18 54.351 74.996z"
                          data-colored="true" data-filltype="#000000" data-stroketype="none" fill="#080806"
                          stroke-width="none" opacity="1"></path>
                </g>
                <g id="svga-group-eyebrows-right" data-updown="4.0000004" data-leftright="-1.0000001000000005"
                   data-dist="0" data-scaleX="1.05000021" data-scaleY="1.05000021" data-rotate="1e-7"
                   transform="matrix(1.05000032 0 0 1.05000032 -6.3245653564148085 -3.650648602883379) rotate(1e-7 125.49049758911133 74.01250497763672) translate(-1.0000000000000004 4.0000004)">
                    <path id="SvgjsPath8126"
                          d="M145.649 74.996c-9.743-15.115-36.491 5.148-38.018-1.191 -0.299-1.271 0.407-2.015 1.564-2.492C122.816 65.807 140.844 61.18 145.649 74.996z"
                          data-colored="true" data-filltype="#000000" data-stroketype="none" fill="#080806"
                          stroke-width="none" opacity="1"></path>
                </g>
                <g id="svga-group-nose-single" data-updown="4.0000004" data-leftright="5.2635580254447884e-17"
                   data-dist="0" data-scaleX="1.05000021" data-scaleY="1.05000021" data-rotate="0"
                   transform="matrix(1.05000032 0 0 1.05000032 -4.81760590072264 -5.399959806455186) translate(5.2635580254447884e-17 4.0000003)">
                    <path id="SvgjsPath8196"
                          d="M98.485 91.065c0 0-1.589 10.607-2.333 13.427 -0.748 2.832-3.989 8.281-3.788 10.985 0.208 2.784 3.374 3.455 5.208 3.455 2.967 0 2.967 0 2.967 0l-3.449-4.153c0 0 1.612-7.073 1.779-9.78C99.046 102.143 98.485 91.065 98.485 91.065z"
                          data-colored="true" data-filltype="sd1" data-stroketype="none" data-fromskin="true"
                          fill="#daa075" stroke-width="none" opacity="1"></path>
                    <path id="SvgjsPath8197"
                          d="M98.485 91.065c0 0-0.01 10.791-0.697 14.299 -0.489 2.494-3.631 6.922-3.139 9.415 0.35 1.77 5.891 4.153 5.891 4.153s-1.589-2.796-1.636-4.153c-0.084-2.397 0.652-6.889 0.802-9.284C99.934 101.862 98.485 91.065 98.485 91.065z"
                          data-colored="true" data-filltype="sd3" data-stroketype="none" data-fromskin="true"
                          fill="#bb7440" stroke-width="none" opacity="1"></path>
                </g>
                <g id="svga-group-hair-front" data-updown="0" data-leftright="0" data-dist="0" data-scaleX="0.97999979"
                   data-scaleY="0.9998997900000001" data-rotate="0"
                   transform="matrix(0.9799999 0 0 0.9998999000000001 1.9104592478356324 0.007090833711814071)">
                    <path id="SvgjsPath7938"
                          d="M51.396 214.38c-15.723-25.105-21.321-14.91-17.672-42.457 -5.209-9.411-9.375-18.77-12.191-28.824 -5.598-21.481 0.132-35.265 5.142-50.948C21.889 26.813 59.341-9.001 100.71-9.001c32.28 0 67.16 23.47 67.471 75.221 -0.514 9.459-1.932 25.343-3.003 32.165 17.769 55.029 2.501 50.649-11.07 76.357 -3.681 6.968-8.012 17.267-8.919 27.573 -18.66-33.246-16.96-38.325-10.676-53.39 7.504-17.985 4.547-4.07-10.03-2.422 13.563-10.49 22.717-10.462 23.003-75.823 0.001-0.039-0.021-0.075-0.054-0.091 -12.352-5.881-24.037-17.006-31.256-29.76 -0.018-0.031-0.047-0.05-0.082-0.05 -0.001 0-0.003 0-0.003 0 -0.037 0.001-0.07 0.023-0.085 0.057 -8.335 17.787-22.626 27.374-46.336 31.084 -4.629 2.417-9.738 4.666-16.104 7.085 -0.037 0.014-0.063 0.051-0.063 0.092 -0.428 25.658 5.466 43.881 20.327 65.193 -7.085-3.254-12.746-12.711-12.746-12.711 -0.355 0 2.484 4.965 2.662 5.281C83.555 172.154 51.627 183.483 51.396 214.38z"
                          data-colored="true" data-filltype="tone" data-stroketype="none" fill="#080806"
                          stroke-width="none" opacity="0.1"></path>
                    <path id="SvgjsPath7939"
                          d="M50.101 212.286c-16.177-25.105-21.937-14.91-18.182-42.457 -5.36-9.411-9.647-18.77-12.543-28.824 -5.76-21.481 0.135-35.265 5.29-50.948C19.741 24.72 58.275-11.095 100.841-11.095c33.21 0 69.099 23.47 69.419 75.221 -0.527 9.459-1.984 25.343-3.089 32.165 18.283 55.029 2.573 50.649-11.39 76.357 -3.789 6.968-8.242 17.267-9.175 27.573 -19.202-33.246-17.451-38.325-10.984-53.39 7.718-17.985 2.953-4.116-10.321-1.223 13.954-10.49 23.373-11.661 23.668-77.022 0.001-0.039-0.022-0.075-0.058-0.091 -12.709-5.881-24.729-17.006-32.156-29.76 -0.018-0.031-0.051-0.05-0.086-0.05 -0.001 0-0.003 0-0.004 0 -0.037 0.001-0.07 0.023-0.086 0.057 -8.577 17.787-23.281 27.374-47.675 31.084 -4.764 2.417-10.02 4.666-16.569 7.085 -0.039 0.014-0.064 0.051-0.065 0.092 -0.441 25.657 5.624 44.881 20.914 66.193 -7.322-5.419-13.113-13.711-13.113-13.711 -0.366 0 2.556 4.965 2.738 5.281C83.189 170.061 50.338 181.39 50.101 212.286z"
                          data-colored="true" data-filltype="tone" data-stroketype="none" fill="#080806"
                          stroke-width="none" opacity="1"></path>
                    <path id="SvgjsPath7940"
                          d="M27.34 109.853c-0.751-7.729-12.676-57.451 16.781-93.862C30.129 43.148 26.056 79.801 27.34 109.853zM167.521 94.041c4.414-30.432 5.609-63.063-19.443-86.74C160.453 31.492 169.091 49.191 167.521 94.041zM143.14 22.856c-2.382 11.089 1.711 25.652 3.052 35.713C139.202 52.934 135.036 45 130.23 33.973c1.055 6.228 3.485 17.428 16.972 31.263 -21.798-19.468-26.475-29.291-22.914-52.455 -0.198 0.877-0.389 1.705-0.573 2.49C124.192 12.729 124.628 9.983 125 7c-3.201 18-27.117 50.049-47.061 56.902 -3.01 3.013-5.737 3.154-8.993 5.917 27.231-4.152 44.396-19.706 48.078-30.866 7.436 12.238 20.931 23.546 33.167 29.331C152.039 52.092 146.191 42.142 143.14 22.856zM101.536 23.569c-9 15-14.354 24.5-28.354 33.5 4.545-3.637 7.687-9.667 9.531-14.927C77.203 50.297 68.565 55.381 61 62c7.516-8.268 17.645-19.858 24.036-30.931 -6.442 8.582-16.813 15.337-26.036 23 7.256-6.029 13-13.667 17-21.667 -2.775 3.7-7.862 6.459-14 12.598 8.972-11.966 9.88-17.484 12.419-22.405 -6.216 10.474-11.655 14.106-17.794 19.295 -4.221 17.702-4.461 25.388-5.256 35.113 -0.039 0.469 17.113-6.963 17.535-7.177 0.014-0.002 0.028-0.005 0.042-0.007C84.938 56.249 91.502 42.094 101.536 23.569zM60 137c2.788 11.151 1.226 21.095-2.464 32.735 -0.488-10.761-8.475-21.806-14.417-31.462 1.364 20.726 3.566 30.364 0.083 46.129 -1.866-28.597-7.833-38.269-16.583-59.417 -3.527 13.393-2.659 30.866 5.299 44.844 -3.755 27.547 2.005 17.352 18.182 42.457 0.238-30.896 33.088-42.226 12.707-77.52 -0.183-0.316-3.104-5.281-2.738-5.281 0 0 5.792 8.292 13.113 13.711 -22.233-24.211-28.063-54.711-28.7-87.711C39.495 95.233 54 117 60 137zM169.126 101.456c0.865 16.928 5.439 38.169-9.257 51.947 6-10 3.131-23.403 0.131-33.403 0.376 26.762-10.812 42.834-13.809 60.402 -0.456-8.086-2.304-17.859 1.473-31.015 -3.663 6.402-7.795 13.848-9.388 22.723 -5.241-9.827-2.367-17.266-0.533-26.834 7.778-8.19 13.157-23.839 14.294-33.894 -0.935 8.266-6.287 20.703-12.478 25.897 -0.001 0.009-0.536 1.809-1.124 3.782 0.044-0.333 0.086-0.668 0.125-1.008 -8.928 21.01-13.345 23.131 8.046 60.166 0.845-9.357 4.724-19.388 9.175-27.573C169.236 147.874 184.401 150.477 169.126 101.456z"
                          data-colored="true" data-filltype="sd1" data-stroketype="none" fill="#000000"
                          stroke-width="none" opacity="1"></path>
                    <path id="SvgjsPath7941"
                          d="M155.339 79.777c4.269-17.414-2.295-44.215-5.664-49.444C154.928 38.481 161.974 60.465 155.339 79.777zM159.441 87.699c0.458-2.363 14.095-28.735-8.994-65.914C171.332 59.802 159.905 85.303 159.441 87.699zM34.086 55.382c1-0.447 7.361-47.259 48.429-56.088C39.446 6.883 35.086 54.937 34.086 55.382zM39.756 99.767c-0.024-1.003-8.152-47.383 14.691-77.104C27.996 53.967 39.732 98.767 39.756 99.767zM43.013 131.156c-1.428-1.897-13.106-33.317-7.671-69.134C25.286 99.584 42.261 130.156 43.013 131.156zM153.395 30.807c-1-0.295-13.057-35.017-37.847-31.593C137.232-2.015 152.395 30.509 153.395 30.807zM132.763 48.797c0 0-9.419-14.771-6.004-39.082C123.607 24.555 123.938 34.813 132.763 48.797zM135.424 37.302c2.568 7.16 8.104 14.888 9.026 15.499 -1.001-0.663-9.66-13.341-11.684-34.227C132.946 24.843 133.284 31.334 135.424 37.302zM88.142 57.415c7.993-7.77 25.836-15.403 35.973-52.374C113.238 39.193 96.597 49.196 88.142 57.415zM88.167 27.009c6.991-6.677 9.494-13.522 9.407-19.946C96.858 13.51 93.367 22.043 88.167 27.009zM78.146 30.338c0.377-0.013 1.333-1.137 1.603-1.373 7.977-6.959 11.625-12.581 12.388-22.236C90.966 17.738 79.148 30.304 78.146 30.338zM76.803 28.359c0 0 8.23-9.662 11.186-23.308C84.859 15.938 76.803 28.359 76.803 28.359zM56.403 153.735c0.581-1 1.925-20.274-7.62-28.24C54.788 131.589 56.983 152.734 56.403 153.735zM56.42 153.725c-0.46-7.765-7.55-13.918-8.99-23.647C47.966 142.486 55.625 146.906 56.42 153.725zM41.095 160.402c-0.959-2.241 3.723-12.528-10.313-34.283C42.215 146.698 40.633 159.322 41.095 160.402zM41.115 159.081c-1.186-4.379 0.906-13.748-4.325-28.989C39.524 140.203 39.581 153.409 41.115 159.081zM150.024 131.289c-4.108 8.074-12.523 13.667-10.338 33.775 -0.201-1.853 0.16-3.941 0.305-5.79 1.957-24.953 8.672-5.729 16.046-52.242C154.253 114.17 152.895 125.648 150.024 131.289zM147.729 167.729c0.371-1.456 0.345-3.097 0.603-4.586 2.182-12.614 6.991-19.381 7.411-39.744C154.781 139.88 147.521 153.505 147.729 167.729zM165.107 141.027c0.469-3.128 6.825-7.942 1.996-32.945C169.849 133.741 165.568 137.951 165.107 141.027zM165.108 141.058c0.438-1 3.109-17.928-3.651-30.616C166.176 120.715 165.547 140.058 165.108 141.058z"
                          data-colored="true" data-filltype="hl1" data-stroketype="none" fill="#171714"
                          stroke-width="none" opacity="1"></path>
                    <path id="SvgjsPath7942"
                          d="M18.901 151.753c0.248-2.574 0.649-5.177 1.238-7.817 2.5 7.838 5.503 15.074 11.68 25.88 -3.773 27.679 2.116 17.422 18.38 42.81 0-22.267 17.058-34.558 19.03-51.87 1.784-15.764-4.759-22.359-9.16-31.17 3.666 5.108 8.469 10.416 13.56 14.061 -14.507-20.062-21.735-38.961-21.26-66.64 5.63-2.08 11.2-4.36 16.55-7.08 21.469-3.266 38.274-11.49 47.75-31.14 7.314 12.562 19.169 23.77 32.2 29.8 -0.298 65.876-9.77 66.413-23.98 77.209 5.811-1.109 12.751-5.729 14.311-7.93 -9.068 23.75-15.193 23.472 7.479 62.68 0.796-9.556 4.586-19.383 9.19-27.85 13.917-25.626 29.741-22.284 11.45-77.29 1.544-9.539 2.827-18.686 3-27.83 0.175 3.245 0.276 6.377 0.367 9.425 0.214 0 0.428 0 0.641 0 -0.257-4.086-0.525-8.347-0.968-12.875 -0.657-106.408-155.465-102.179-145.79 25.9 -5.227 15.913-11.063 29.484-5.29 50.95 -0.926 3.002-1.626 5.909-2.137 8.749C17.674 150.456 18.233 151.159 18.901 151.753zM24.959 94.285c0.095 1 3.72 27.654 1.32 8.13C8.536-41.931 192.536-51.931 166.139 101.896c-1.794 10.454-0.768 5.549 0.961-5.12 17.259 58.25-3.75 45.563-18.32 87.37 -1.37 3.939-2.34 9-2.74 13.13 -21.623-38.089-11.207-41.533-5.64-60.7 6.599-7.292 10.615-15.871 11.71-26.52 -2.591 17.989-14.384 30.05-24.181 34.06 5.116-3.371 10.438-6.975 13.601-12.39 2.034-2.136 11.762-26.173 8.12-72.03 -1.673-20.141-8.437-26.107-6.931-34.66 -1.396 6.717 2.429 11.257 4.71 25.08 1.055 6.458 1.431 15.847 1.431 17.57 -10.923-5.965-24.91-18.89-31.76-29.79 4.461-9.145 6.782-23.075 8.6-31.87 -5.416 22.088-9.213 52.515-53.76 62.3 7.232-3.953 22.987-12.243 39.25-45.36 0.02-0.01 0.029-0.02 0.029-0.04 8.711-17.095 0.602-2.034-0.09-0.8 -0.013-0.026-0.01-0.103-0.01 0.01 -20.156 36.093-36.387 45.333-58.75 54.6 0.01-0.68 0.02-1.36 0.05-2.04 27.481-8.941 44.618-41.674 39.07-33.58 -8.877 13.02-24.155 28.015-39.06 33.34 0.017-1 0.183-4.32 0.46-7.14 19.215-13.644 23.448-20.838 30.89-33.8 0.556-0.979 1.037-1.813 1.454-2.526C80.75 37.814 68.93 54.19 52.939 66.715c0.44-4.62 1.1-9.22 1.89-13.79 0.921-1.218 8.834-7.552 15.32-20.74 3.094-6.249 4.27-9.59 4.27-9.59 -0.871 1.578-6.035 13.404-19.31 28.78 2.19-12.138 5.188-23.076 8.57-35.03 -5.756 17.895-11.357 37.272-13.01 56.8 -0.488 1-1.416 37.987 17.235 63.969 -28.77-30.95-24.066-68.987-23.885-81.719 -0.09 0-0.75 10.35-0.8 11.05 -3.867 51.415 25.597 63.853 24 90.61 -1.172 19.548-17.347 30.422-17.49 53.89 -12.637-21.956-19.809-15.55-16.85-39.3 0.077-1 1.134-8.253 0.08-15.33 -1.696-11.256-4.121-14.498-3.766-16.86 -0.269 1.428 0.351 2.886 1.417 6.7 1.909 6.668 2.163 15.704 1.33 22.73C15.417 136.337 17.729 119.042 24.959 94.285z"
                          data-colored="true" data-filltype="sd3" data-stroketype="none" fill="#000000"
                          stroke-width="none" opacity="1"></path>
                </g>
                <g id="svga-group-glasses-single" data-updown="0" data-leftright="0" data-dist="0" data-scaleX="1"
                   data-scaleY="1" data-rotate="0">
                    <path id="SvgjsPath4973" d="M100,18.13L100,18.13L100,18.13L100,18.13z" data-colored="true"
                          data-filltype="tone" data-stroketype="none" fill="#26120b" stroke-width="none"
                          opacity="1"></path>
                </g>
            </g>
        </g>
        <rect id="SvgjsRect1033" width="200" height="15" x="0" y="185" fill="#ecf0f1" opacity="0.5"
              style="display:none;"></rect>
        <text id="SvgjsText1034"
              font-family="&quot;Roboto&quot;, &quot;Helvetica Neue&quot;, Helvetica, Arial, sans-serif"
              style="font-size:0.84em;font-family:&quot;Roboto&quot;, &quot;Helvetica Neue&quot;, Helvetica, Arial, sans-serif;text-anchor:middle;font-weight:400;display:none;"
              font-size="0.84em" text-anchor="middle" font-weight="400" fill="#000000" x="100" y="185">
            <tspan id="SvgjsTspan1035" dy="1.2em" x="100"
                   style="font-size:0.84em;font-family:&quot;Roboto&quot;, &quot;Helvetica Neue&quot;, Helvetica, Arial, sans-serif;text-anchor:middle;font-weight:400;">
                Created on svgAvatars.com
            </tspan>
        </text>
    </g>
    <defs id="SvgjsDefs1001">
        <radialGradient id="SvgjsRadialGradient2754" cx="100" cy="113" r="40" gradientUnits="userSpaceOnUse"
                        class="svga-on-canvas-facehighlight-gradient-single-0">
            <stop id="SvgjsStop2755" stop-opacity="0.5" stop-color="#f8d3b8" offset="0" data-stoptype="hl1"></stop>
            <stop id="SvgjsStop2756" stop-opacity="0" stop-color="#e9b995" offset="0.9" data-stoptype="tone"></stop>
        </radialGradient>
        <radialGradient id="SvgjsRadialGradient2758" cx="100" cy="57" r="36" gradientUnits="userSpaceOnUse"
                        class="svga-on-canvas-facehighlight-gradient-single-1">
            <stop id="SvgjsStop2759" stop-opacity="0.5" stop-color="#f8d3b8" offset="0" data-stoptype="hl1"></stop>
            <stop id="SvgjsStop2760" stop-opacity="0" stop-color="#e9b995" offset="0.9" data-stoptype="tone"></stop>
        </radialGradient>
        <radialGradient id="SvgjsRadialGradient3277" cx="100" cy="100" r="150" gradientUnits="userSpaceOnUse"
                        class="svga-on-canvas-backs-gradient-single-1">
            <stop id="SvgjsStop3278" stop-opacity="0" stop-color="#ffffff" offset="0" data-stoptype="tone"></stop>
            <stop id="SvgjsStop3279" stop-opacity="1" stop-color="#f0d8d8" offset="0.2" data-stoptype="sd1"></stop>
            <stop id="SvgjsStop3280" stop-opacity="0" stop-color="#f0d8d8" offset="1" data-stoptype="sd1"></stop>
        </radialGradient>
        <radialGradient id="SvgjsRadialGradient5494" cx="-558.588" cy="-490.918" r="84.646"
                        gradientTransform="matrix(0.096 -0.0248 0.0245 0.0961 140.5478 120.3577)"
                        gradientUnits="userSpaceOnUse" class="svga-on-canvas-eyesiris-gradient-left-1">
            <stop id="SvgjsStop5495" stop-opacity="0.8" stop-color="#ffffff" offset="0" data-stoptype="#ffffff"></stop>
            <stop id="SvgjsStop5496" stop-opacity="0" stop-color="#ffffff" offset="1" data-stoptype="#ffffff"></stop>
        </radialGradient>
        <radialGradient id="SvgjsRadialGradient5498" cx="-565.337" cy="-492.691" r="84.644"
                        gradientTransform="matrix(0.0991 8.856325e-004 -0.0011 0.0991 130.3774 136.3533)"
                        gradientUnits="userSpaceOnUse" class="svga-on-canvas-eyesiris-gradient-left-2">
            <stop id="SvgjsStop5499" stop-opacity="0.8" stop-color="#ffffff" offset="0" data-stoptype="#ffffff"></stop>
            <stop id="SvgjsStop5500" stop-opacity="0" stop-color="#ffffff" offset="1" data-stoptype="#ffffff"></stop>
        </radialGradient>
        <linearGradient id="SvgjsLinearGradient5504" x1="122.283" y1="93.047" x2="123.61" y2="91.466"
                        gradientTransform="matrix(1 0 0 1 -52 0)" gradientUnits="userSpaceOnUse"
                        class="svga-on-canvas-eyesiris-gradient-left-5">
            <stop id="SvgjsStop5505" stop-opacity="1" stop-color="#ffffff" offset="0" data-stoptype="#ffffff"></stop>
            <stop id="SvgjsStop5506" stop-opacity="0" stop-color="#ffffff" offset="1" data-stoptype="#ffffff"></stop>
        </linearGradient>
        <linearGradient id="SvgjsLinearGradient5512" x1="130" y1="81" x2="126" y2="85"
                        gradientTransform="matrix(1 0 0 1 -50 0)" gradientUnits="userSpaceOnUse"
                        class="svga-on-canvas-eyesiris-gradient-left-7">
            <stop id="SvgjsStop5513" stop-opacity="1" stop-color="#ffffff" offset="0" data-stoptype="#ffffff"></stop>
            <stop id="SvgjsStop5514" stop-opacity="0" stop-color="#ffffff" offset="1" data-stoptype="#ffffff"></stop>
        </linearGradient>
        <radialGradient id="SvgjsRadialGradient5517" cx="-578.76" cy="-490.73" r="84.646"
                        gradientTransform="matrix(0.096 -0.0248 0.0245 0.0961 192.4794 119.8404)"
                        gradientUnits="userSpaceOnUse" class="svga-on-canvas-eyesiris-gradient-right-1">
            <stop id="SvgjsStop5518" stop-opacity="0.8" stop-color="#ffffff" offset="0" data-stoptype="#ffffff"></stop>
            <stop id="SvgjsStop5519" stop-opacity="0" stop-color="#ffffff" offset="1" data-stoptype="#ffffff"></stop>
        </radialGradient>
        <radialGradient id="SvgjsRadialGradient5521" cx="-584.778" cy="-487.329" r="84.644"
                        gradientTransform="matrix(0.0991 8.856325e-004 -0.0011 0.0991 182.3104 135.839)"
                        gradientUnits="userSpaceOnUse" class="svga-on-canvas-eyesiris-gradient-right-2">
            <stop id="SvgjsStop5522" stop-opacity="0.8" stop-color="#ffffff" offset="0" data-stoptype="#ffffff"></stop>
            <stop id="SvgjsStop5523" stop-opacity="0" stop-color="#ffffff" offset="1" data-stoptype="#ffffff"></stop>
        </radialGradient>
        <linearGradient id="SvgjsLinearGradient5527" x1="120.284" y1="93.047" x2="121.611" y2="91.467"
                        gradientUnits="userSpaceOnUse" class="svga-on-canvas-eyesiris-gradient-right-5">
            <stop id="SvgjsStop5528" stop-opacity="1" stop-color="#ffffff" offset="0" data-stoptype="#ffffff"></stop>
            <stop id="SvgjsStop5529" stop-opacity="0" stop-color="#ffffff" offset="1" data-stoptype="#ffffff"></stop>
        </linearGradient>
        <linearGradient id="SvgjsLinearGradient5535" x1="130" y1="81" x2="126" y2="85" gradientUnits="userSpaceOnUse"
                        class="svga-on-canvas-eyesiris-gradient-right-7">
            <stop id="SvgjsStop5536" stop-opacity="1" stop-color="#ffffff" offset="0" data-stoptype="#ffffff"></stop>
            <stop id="SvgjsStop5537" stop-opacity="0" stop-color="#ffffff" offset="1" data-stoptype="#ffffff"></stop>
        </linearGradient>
        <linearGradient id="SvgjsLinearGradient8022" x1="130" y1="81" x2="126" y2="85"
                        gradientTransform="matrix(1 0 0 1 -50 0)" gradientUnits="userSpaceOnUse"
                        class="svga-on-canvas-eyesiris-gradient-left-6">
            <stop id="SvgjsStop8023" stop-opacity="1" stop-color="#ffffff" offset="0" data-stoptype="#ffffff"></stop>
            <stop id="SvgjsStop8024" stop-opacity="0" stop-color="#ffffff" offset="1" data-stoptype="#ffffff"></stop>
        </linearGradient>
        <linearGradient id="SvgjsLinearGradient8032" x1="130" y1="81" x2="126" y2="85" gradientUnits="userSpaceOnUse"
                        class="svga-on-canvas-eyesiris-gradient-right-6">
            <stop id="SvgjsStop8033" stop-opacity="1" stop-color="#ffffff" offset="0" data-stoptype="#ffffff"></stop>
            <stop id="SvgjsStop8034" stop-opacity="0" stop-color="#ffffff" offset="1" data-stoptype="#ffffff"></stop>
        </linearGradient>
        <linearGradient id="SvgjsLinearGradient8053" x1="99.98" y1="171.27" x2="99.98" y2="136.351"
                        gradientUnits="userSpaceOnUse" class="svga-on-canvas-chinshadow-gradient-single-0">
            <stop id="SvgjsStop8054" stop-opacity="0.8" stop-color="#daa075" offset="0" data-stoptype="sd1"></stop>
            <stop id="SvgjsStop8055" stop-opacity="1" stop-color="#bb7440" offset="0.7" data-stoptype="sd3"></stop>
        </linearGradient>
        <radialGradient id="SvgjsRadialGradient8128" cx="127" cy="87.834" r="14"
                        gradientTransform="matrix(-1 0 0 1 200 0)" gradientUnits="userSpaceOnUse"
                        class="svga-on-canvas-eyesback-gradient-left-0">
            <stop id="SvgjsStop8129" stop-opacity="1" stop-color="#ffffff" offset="0" data-stoptype="#ffffff"></stop>
            <stop id="SvgjsStop8130" stop-opacity="1" stop-color="#fdfefe" offset="0.544"
                  data-stoptype="#fdfefe"></stop>
            <stop id="SvgjsStop8131" stop-opacity="1" stop-color="#f6f8f9" offset="0.74" data-stoptype="#f6f8f9"></stop>
            <stop id="SvgjsStop8132" stop-opacity="1" stop-color="#eaeff2" offset="0.879"
                  data-stoptype="#eaeff2"></stop>
            <stop id="SvgjsStop8133" stop-opacity="1" stop-color="#d9e3e8" offset="0.992"
                  data-stoptype="#d9e3e8"></stop>
            <stop id="SvgjsStop8134" stop-opacity="1" stop-color="#d8e2e7" offset="1" data-stoptype="#d8e2e7"></stop>
        </radialGradient>
        <radialGradient id="SvgjsRadialGradient8136" cx="127" cy="87.834" r="14" gradientUnits="userSpaceOnUse"
                        class="svga-on-canvas-eyesback-gradient-right-0">
            <stop id="SvgjsStop8137" stop-opacity="1" stop-color="#ffffff" offset="0" data-stoptype="#ffffff"></stop>
            <stop id="SvgjsStop8138" stop-opacity="1" stop-color="#fdfefe" offset="0.544"
                  data-stoptype="#fdfefe"></stop>
            <stop id="SvgjsStop8139" stop-opacity="1" stop-color="#f6f8f9" offset="0.74" data-stoptype="#f6f8f9"></stop>
            <stop id="SvgjsStop8140" stop-opacity="1" stop-color="#eaeff2" offset="0.879"
                  data-stoptype="#eaeff2"></stop>
            <stop id="SvgjsStop8141" stop-opacity="1" stop-color="#d9e3e8" offset="0.992"
                  data-stoptype="#d9e3e8"></stop>
            <stop id="SvgjsStop8142" stop-opacity="1" stop-color="#d8e2e7" offset="1" data-stoptype="#d8e2e7"></stop>
        </radialGradient>
        <radialGradient id="SvgjsRadialGradient8144" cx="127" cy="87.834" r="14"
                        gradientTransform="matrix(-1 0 0 1 200 0)" gradientUnits="userSpaceOnUse"
                        class="svga-on-canvas-eyesfront-gradient-left-0">
            <stop id="SvgjsStop8145" stop-opacity="1" stop-color="#ffffff" offset="0" data-stoptype="#ffffff"></stop>
            <stop id="SvgjsStop8146" stop-opacity="1" stop-color="#fdfefe" offset="0.544"
                  data-stoptype="#fdfefe"></stop>
            <stop id="SvgjsStop8147" stop-opacity="1" stop-color="#f6f8f9" offset="0.74" data-stoptype="#f6f8f9"></stop>
            <stop id="SvgjsStop8148" stop-opacity="1" stop-color="#eaeff2" offset="0.879"
                  data-stoptype="#eaeff2"></stop>
            <stop id="SvgjsStop8149" stop-opacity="1" stop-color="#d9e3e8" offset="0.992"
                  data-stoptype="#d9e3e8"></stop>
            <stop id="SvgjsStop8150" stop-opacity="1" stop-color="#d8e2e7" offset="1" data-stoptype="#d8e2e7"></stop>
        </radialGradient>
        <radialGradient id="SvgjsRadialGradient8154" cx="125.16" cy="86.942" fx="138.734" fy="85.449" r="18.705"
                        gradientTransform="matrix(0.9998 0.0208 0.0131 -0.6281 -51.4298 138.9481)"
                        gradientUnits="userSpaceOnUse" class="svga-on-canvas-eyesfront-gradient-left-3">
            <stop id="SvgjsStop8155" stop-opacity="1" stop-color="#daa075" offset="0" data-stoptype="sd1"></stop>
            <stop id="SvgjsStop8156" stop-opacity="0.3" stop-color="#daa075" offset="0.7" data-stoptype="sd1"></stop>
            <stop id="SvgjsStop8157" stop-opacity="0" stop-color="#e9b995" offset="1" data-stoptype="tone"></stop>
        </radialGradient>
        <radialGradient id="SvgjsRadialGradient8159" cx="67.721" cy="109.165" r="29.505"
                        gradientTransform="matrix(1.0322 -0.0541 0.0541 1.0322 -5.8613 6.0176)"
                        gradientUnits="userSpaceOnUse" class="svga-on-canvas-eyesfront-gradient-left-4">
            <stop id="SvgjsStop8160" stop-opacity="0" stop-color="#000000" offset="0.95" data-stoptype="#000000"></stop>
            <stop id="SvgjsStop8161" stop-opacity="0.3" stop-color="#000000" offset="1" data-stoptype="#000000"></stop>
        </radialGradient>
        <radialGradient id="SvgjsRadialGradient8165" cx="127" cy="87.834" r="14" gradientUnits="userSpaceOnUse"
                        class="svga-on-canvas-eyesfront-gradient-right-0">
            <stop id="SvgjsStop8166" stop-opacity="1" stop-color="#ffffff" offset="0" data-stoptype="#ffffff"></stop>
            <stop id="SvgjsStop8167" stop-opacity="1" stop-color="#fdfefe" offset="0.544"
                  data-stoptype="#fdfefe"></stop>
            <stop id="SvgjsStop8168" stop-opacity="1" stop-color="#f6f8f9" offset="0.74" data-stoptype="#f6f8f9"></stop>
            <stop id="SvgjsStop8169" stop-opacity="1" stop-color="#eaeff2" offset="0.879"
                  data-stoptype="#eaeff2"></stop>
            <stop id="SvgjsStop8170" stop-opacity="1" stop-color="#d9e3e8" offset="0.992"
                  data-stoptype="#d9e3e8"></stop>
            <stop id="SvgjsStop8171" stop-opacity="1" stop-color="#d8e2e7" offset="1" data-stoptype="#d8e2e7"></stop>
        </radialGradient>
        <radialGradient id="SvgjsRadialGradient8175" cx="125.16" cy="86.942" fx="138.734" fy="85.449" r="18.705"
                        gradientTransform="matrix(-0.9998 0.0208 -0.0131 -0.6281 251.4298 138.9481)"
                        gradientUnits="userSpaceOnUse" class="svga-on-canvas-eyesfront-gradient-right-3">
            <stop id="SvgjsStop8176" stop-opacity="1" stop-color="#daa075" offset="0" data-stoptype="sd1"></stop>
            <stop id="SvgjsStop8177" stop-opacity="0.3" stop-color="#daa075" offset="0.7" data-stoptype="sd1"></stop>
            <stop id="SvgjsStop8178" stop-opacity="0" stop-color="#e9b995" offset="1" data-stoptype="tone"></stop>
        </radialGradient>
        <radialGradient id="SvgjsRadialGradient8180" cx="67.721" cy="109.165" r="29.506"
                        gradientTransform="matrix(-1.0322 -0.0541 -0.0541 1.0322 205.8613 6.0176)"
                        gradientUnits="userSpaceOnUse" class="svga-on-canvas-eyesfront-gradient-right-4">
            <stop id="SvgjsStop8181" stop-opacity="0" stop-color="#000000" offset="0.95" data-stoptype="#000000"></stop>
            <stop id="SvgjsStop8182" stop-opacity="0.3" stop-color="#000000" offset="1" data-stoptype="#000000"></stop>
        </radialGradient>
        <linearGradient id="SvgjsLinearGradient8188" x1="100" y1="141" x2="100" y2="138" gradientUnits="userSpaceOnUse"
                        class="svga-on-canvas-mouth-gradient-single-0">
            <stop id="SvgjsStop8189" stop-opacity="1" stop-color="#e1ac85" offset="0.1" data-stoptype="sd05"></stop>
            <stop id="SvgjsStop8190" stop-opacity="1" stop-color="#daa075" offset="1" data-stoptype="sd1"></stop>
        </linearGradient>
    </defs>
</svg>