<svg id="svga-svgcanvas" xmlns="http://www.w3.org/2000/svg" version="1.1" xlink="http://www.w3.org/1999/xlink"
     style="position:relative;overflow:hidden;left:0px;top:0px;" class="svga-svg" viewBox="0 0 200 200"
     preserveAspectRatio="xMinYMin meet">
    <g id="svga-group-wrapper">
        <g id="svga-group-backs-single"></g>
        <g id="svga-group-subwrapper" data-updown="0" data-leftright="0" data-dist="0" data-scaleX="1" data-scaleY="1"
           data-rotate="0">
            <g id="svga-group-hair-back" data-updown="0" data-leftright="0" data-dist="0"
               data-scaleX="0.9599995800000001" data-scaleY="0.9997995800000001" data-rotate="0"
               transform="matrix(0.9599996900000001 0 0 0.9997996900000001 4.000030999999993 0.020030999999988808)">
                <path id="SvgjsPath3495" d="M100.5,100.5h-1v-1h1V100.5z" data-colored="true" data-filltype="tone"
                      data-stroketype="none" fill="#080806" stroke-width="none" opacity="1" stroke="none"></path>
            </g>
            <g id="svga-group-humanbody-single">
                <path id="SvgjsPath2893"
                      d="M195.417 199.778c-2.196-4.746-8.195-11.779-14.86-13.722 -8.239-2.403-26.837-5.308-33.733-6.923 -5.528-1.296-16.662-11.294-20.564-14.65 -0.7-0.6-1.273-1.839-1.287-2.76 -0.139-10.864 4.195-39.724 4.195-39.724H100 70.833c0 0 4.334 28.859 4.193 39.724 -0.011 0.921-0.587 2.16-1.285 2.76 -3.902 3.356-15.036 13.354-20.564 14.65 -6.897 1.615-25.495 4.619-33.733 7.022 -6.667 1.942-12.664 8.876-14.86 13.622 -3.708 8.008-4.584 22.5-4.584 35h100 100C200 222.278 199.123 207.786 195.417 199.778z"
                      data-colored="true" data-filltype="tone" data-stroketype="none" data-fromskin="true"
                      fill="#704633" stroke-width="none" opacity="1" stroke="none"></path>
                <path id="SvgjsPath2894"
                      d="M159.156 184.058c24.342 3.542 34.586 8.708 37.794 50.721H200c0-12.5-0.877-26.992-4.583-35 -2.196-4.746-8.195-11.779-14.86-13.722 -8.239-2.403-26.837-5.308-33.733-6.923 -5.528-1.296-18.242-12.069-21.643-16.35 3.36 4.704 12.791 15.605 21.054 18.46C150.188 182.61 153.48 183.232 159.156 184.058zM53.766 181.244c8.263-2.854 17.693-13.756 21.054-18.46 -3.4 4.28-16.114 15.054-21.643 16.35 -6.896 1.615-25.494 4.619-33.733 7.022 -6.665 1.942-12.664 8.876-14.86 13.622 -3.706 8.008-4.583 22.5-4.583 35h3.05c3.188-41.744 13.475-47.183 37.794-50.721C46.52 183.232 49.813 182.61 53.766 181.244z"
                      data-colored="true" data-filltype="hl1" data-stroketype="none" data-fromskin="true" fill="#7f5847"
                      stroke-width="none" opacity="1" stroke="none"></path>
                <path id="SvgjsPath2895"
                      d="M95.646 197.62c0 0-5.074-1.609-7.083-2.379 -10.449-4.009-44.395-6.607-44.395-6.607s35.754 1.419 43.644 2.779c-0.458-4.767-3.017-20.004-3.017-20.004s5.149 16.815 6.409 21.057C91.878 194.734 95.646 197.62 95.646 197.62zM106.445 196.278c-0.089 0.073-0.191 0.168-0.302 0.268C106.256 196.461 106.358 196.372 106.445 196.278zM95.646 197.62c0 0 2.893 2.992 4.347 3.03 1.91 0.051 4.828-2.899 6.151-4.104 -1.265 0.957-4.159 1.391-5.31 1.436C99.504 198.033 95.646 197.62 95.646 197.62zM116.664 190.101c-1.545 0.248-4.386 0.789-4.386 0.789l2.287-14.89c-0.646 3.071-4.474 16.211-8.12 20.278 1.91-1.616 6.158-2.391 8.324-2.704 10.236-1.484 10.232-1.483 41.062-4.94C155.831 188.634 126.76 188.479 116.664 190.101z"
                      data-colored="true" data-filltype="sd1" data-stroketype="none" data-fromskin="true" fill="#613622"
                      stroke-width="none" opacity="1" stroke="none"></path>
                <path id="SvgjsPath2896"
                      d="M195.417 199.778c-2.196-4.746-8.195-11.779-14.86-13.722 -8.239-2.403-26.837-5.308-33.733-6.923 -5.528-1.296-16.662-11.294-20.564-14.65 -0.7-0.6-1.273-1.839-1.287-2.76 -0.139-10.864 4.195-39.724 4.195-39.724H100 70.833c0 0 4.334 28.859 4.193 39.724 -0.011 0.921-0.587 2.16-1.285 2.76 -3.902 3.356-15.036 13.354-20.564 14.65 -6.897 1.615-25.495 4.619-33.733 7.022 -6.667 1.942-12.664 8.876-14.86 13.622 -3.708 8.008-4.584 22.5-4.584 35h100 100C200 222.278 199.123 207.786 195.417 199.778z"
                      data-colored="true" data-filltype="none" data-stroketype="sd3" data-fromskin="true" fill="none"
                      stroke="#421c0a" stroke-width="1.5" opacity="1"></path>
            </g>
            <g id="svga-group-chinshadow-single">
                <path id="SvgjsPath3970"
                      d="M117.136 169.742c2.515-1.069 5.217-3.028 7.927-5.519 -0.494-0.746-0.828-1.684-0.841-2.49 -0.093-7.296 1.775-22.369 3.054-31.753 -15.779-1.925-38.771-1.917-54.549 0.014 1.278 9.384 3.145 24.446 3.05 31.738 -0.01 0.789-0.348 1.735-0.84 2.485 2.712 2.493 5.416 4.454 7.932 5.524C90.312 172.907 109.693 172.907 117.136 169.742z"
                      data-colored="false" data-filltype="gradient" data-stroketype="none" data-fromskin="true"
                      fill="url(#SvgjsLinearGradient3971)" opacity="1"></path>
            </g>
            <g id="svga-group-clothes-single" data-updown="0" data-leftright="0" data-dist="0" data-scaleX="1"
               data-scaleY="1" data-rotate="0">
                <path id="SvgjsPath4194"
                      d="M83.208 235.787c-42.755 0-73.116-0.341-83.557-0.936 -3.228-41.46 17.049-50.314 25.922-52.197 5.111-1.218 9.139-1.593 12.692-1.923 8.462-0.786 15.16-1.409 30.099-12.227 0.523 0.666 1.8 2.359 4.153 5.55 6.948 9.244 17.385 14.505 28.689 14.505 0.001 0 0.002 0 0.004 0 12.805-0.002 24.814-6.654 33.019-18.271 15.056 9.254 18.229 9.549 25.801 10.25 2.497 0.231 5.604 0.52 9.799 1.21 11.838 1.591 20.825 8.087 26.003 18.786 4.405 9.103 6.021 21.193 4.56 34.087 -11.646 0.646-63.764 1.166-117.175 1.166C83.212 235.787 83.211 235.787 83.208 235.787z"
                      data-colored="false" data-filltype="#f3f1f4" data-stroketype="none" fill="#f3f1f4"
                      stroke-width="none" opacity="1"></path>
                <path id="SvgjsPath4195"
                      d="M170.909 182.255c-16.76-2.76-17.282-1.24-36.82-12.64 -16.477 23.799-46.336 23.876-61.12 4.21 -0.313-0.425-4.146-5.627-4.52-6 -21.537 15.697-25.967 10.671-43.18 14.539 -17.198 3.865-28.875 17.4-26.11 52.611 0.01 0.12 0.01 0.229 0.03 0.35 26.152 1.595 181.717 0.986 201.65-0.229C202.268 210.162 200.249 187.03 170.909 182.255zM-0.331 234.966c-0.458-22.065 2.924-46.19 26.26-50.9 17.291-3.49 21.274 1.1 42.39-15.7 1.11 1.66 2.4 3.72 3.84 5.98 13.218 20.3 44.471 23.502 62.05-4 1.851 1.43 4.03 3.02 6.47 4.59 23.186 15.306 60.738-4.709 59.65 59.89C134.92 233.624 65.973 233.646-0.331 234.966z"
                      data-colored="false" data-filltype="#cfc8d7" data-stroketype="none" fill="#cfc8d7"
                      stroke-width="none" opacity="1"></path>
                <path id="SvgjsPath4196"
                      d="M107.44 237.709c-2.775 0-10.727 0.208-16.512-0.23l-0.01-0.171c-0.818-18.658 1.129-30.719 4.537-39.288l0.048-0.123 -0.093-0.093c-0.905-0.904-2.425-1.935-4.034-3.025 -1.611-1.093-3.275-2.221-4.336-3.246 0.625-0.732 1.395-1.454 2.348-2.201 0.245-0.125 1.162-0.843 5.974-4.971 0.214-0.184 0.345-0.296 0.362-0.31 0.818-0.178 2.138-0.293 3.738-0.293 2.183 0 4.731 0.221 6.512 0.563 1.561 1.458 3.451 5.329 4.158 7.17 -0.976 2.291-2.128 3.129-3.717 4.284 -0.774 0.563-1.652 1.201-2.652 2.112l-0.083 0.075 0.021 0.111c4.026 20.31 4.027 25.054 4.027 29.642 0.001 2.021 0.001 6.609 0.339 9.985C107.917 237.707 107.704 237.709 107.44 237.709z"
                      data-colored="false" data-filltype="#131111" data-stroketype="none" fill="#131111"
                      stroke-width="none" opacity="1"></path>
                <path id="SvgjsPath4197"
                      d="M110.35 191.495c-0.754-1.995-2.71-5.93-4.28-7.359 -2.876-0.563-7.983-0.843-10.47-0.24 -0.108 0.088-6.248 5.383-6.31 5.26 -0.906 0.708-1.788 1.504-2.52 2.39 2.061 2.076 6.655 4.556 8.5 6.4 -3.65 9.18-5.33 21.59-4.55 39.38 0.01 0.11 0.01 0.23 0.02 0.34 6.756 0.52 16.55 0.331 17.55 0.223 -1.16-11.307 1.438-10.455-4.39-39.853C106.968 195.241 108.865 195.04 110.35 191.495zM105.1 210.535c-0.021-0.05-0.04-0.1-0.051-0.13 2 10.55 1.38 18.632 2.891 26.972 -4.736-0.318-12.014-0.052-16.771-0.052 0.369-7.198 1.188-31.684 4.74-39.74 0.17-0.046 0.339-0.084 0.509-0.125l-1.032 34.736 2.747-35.066c0.02-0.002 0.04-0.005 0.06-0.008l1.801 32.605 0.417-32.734c0.026 0.001 0.051-0.001 0.077 0l4.199 36.355 -2.3-36.137c0.314 0.063 0.629 0.141 0.942 0.233 0.03 0 0.07 0.01 0.1 0.03C103.533 198.476 104.365 205.876 105.1 210.535zM104.219 196.726c-2.774-1.251-6.363-1.026-9.129 0.24 -1.681-1.813-4.08-3.077-7.53-5.391 0.55-0.479 1.26-1.07 2.21-1.81 0.08 0 3.48-2.771 3.54-2.83 0.92-0.84 1.74-1.79 2.52-2.62 2.93-0.12 7.23 0.02 9.82 0.14 1.5 1.876 2.931 4.696 4.01 6.94C107.699 194.266 105.759 195.545 104.219 196.726z"
                      data-colored="false" data-filltype="#000000" data-stroketype="none" fill="#000000"
                      stroke-width="none" opacity="1"></path>
                <path id="SvgjsPath4198"
                      d="M78.196 213.077c-11.534-40.071-9.954-27.403-13.027-43.143 2.028-4.813 7.587-12.618 8.67-13.775l0.08-0.086c2.292 24.007 8.958 13.636 23.784 27.722C89.228 189.449 81.372 204.127 78.196 213.077zM135.364 170.3c-1.448-3.702-8.248-11.669-9.386-12.873 1.424 20.678-15.146 16.551-24.35 26.2 8.812 5.713 17.173 20.66 20.172 29.455C134.653 176.403 132.021 191.215 135.364 170.3z"
                      data-colored="false" data-filltype="#f3f1f4" data-stroketype="none" fill="#f3f1f4"
                      stroke-width="none" opacity="1"></path>
                <path id="SvgjsPath4199"
                      d="M125.801 156.967c0 5.137-0.42 9.162-1.262 10.339 -2.443 5.809-13.103 9.853-16.39 11.51 -2.495 1.227-4.942 2.809-6.83 4.85 3.813 2.476 5.705 3.383 12.93 14.44 4.246 7.109 6.539 12.448 7.561 15.64 12.922-35.152 10.657-23.062 13.793-43.507C134.018 166.153 126.801 157.885 125.801 156.967zM121.709 210.676c-2.716-8.644-11.075-22.913-19.43-27.091 3.937-2.957 5.031-3.131 9.729-5.279 14.396-6.42 14.985-12.385 14.138-20.271 1.207 1.423 7.328 8.664 8.896 12.023C131.034 193.116 126.945 192.299 121.709 210.676zM79.199 171.896c-4.408-3.649-3.16-8.162-5.189-16.215 -0.902 1-7.741 8.882-10.016 14.305 7.125 24.375 7.375 22.5 14.185 43.75 3.031-8.905 11.558-24.37 20.24-30.009C91.489 177.401 82.765 174.999 79.199 171.896zM84.659 197.405c-2.221 3.666-4.517 7.48-6.37 13.28 -1.17-7.95-11.17-32.296-12.92-40.95 1.638-3.588 7.771-12.451 8.521-13.165 1.366 7.078 0.066 13.462 5.669 16.995 2.621 1.996 11.104 5.32 17.52 10.36C93.188 186.235 91.094 187.596 84.659 197.405z"
                      data-colored="false" data-filltype="#cfc8d7" data-stroketype="none" fill="#cfc8d7"
                      stroke-width="none" opacity="1"></path>
                <path id="SvgjsPath4200"
                      d="M49.857 234.908c-8.87 0-16.864-0.137-23.156-0.396 -0.07-0.556-0.155-1.27-0.257-2.121 -1.053-8.829-3.834-32.147-9.695-47.528 9.497-3.835 25.02-6.691 36.643-8.118 7.833 16.249 26.729 42.336 39.987 57.234 -14.945 0.607-29.971 0.929-43.519 0.929C49.86 234.908 49.859 234.908 49.857 234.908zM150.143 234.908c8.87 0 16.863-0.137 23.156-0.396 0.07-0.556 0.154-1.27 0.256-2.121 1.054-8.829 3.835-32.147 9.695-47.528 -9.497-3.835-25.02-6.691-36.643-8.118 -7.833 16.249-26.729 42.336-39.987 57.234 14.945 0.607 29.971 0.929 43.519 0.929C150.141 234.908 150.141 234.908 150.143 234.908z"
                      data-colored="true" data-filltype="tone" data-stroketype="none" fill="#dcc96b" stroke-width="none"
                      opacity="1"></path>
                <path id="SvgjsPath4201"
                      d="M32.153 211.959l-10.48-12.96 2.43-16.078 9.723 12.804L32.153 211.959zM47.384 192.569l-11.591-12.686 -1.968 15.841 11.61 12.397L47.384 192.569zM58.817 188.148l-11.708-10.331 0.275 14.752 12.322 11.557L58.817 188.148zM42.32 223.673l-10.167-11.714 -5.018 15.35 11.118 12.987L42.32 223.673zM58.107 219.842l-12.671-11.72 -3.116 15.551 14.234 11.113L58.107 219.842zM73.379 213.533l-13.673-9.407 -1.599 15.716 14.288 11.107L73.379 213.533zM166.174 195.725l9.724-12.804 2.43 16.078 -10.48 12.96L166.174 195.725zM154.564 208.122l11.609-12.397 -1.967-15.841 -11.592 12.686L154.564 208.122zM140.294 204.126l12.321-11.557 0.275-14.752 -11.708 10.331L140.294 204.126zM161.746 240.296l11.119-12.987 -5.019-15.35 -10.167 11.714L161.746 240.296zM143.445 234.786l14.234-11.113 -3.115-15.551 -12.672 11.72L143.445 234.786zM127.605 230.949l14.287-11.107 -1.599-15.716 -13.673 9.407L127.605 230.949z"
                      data-colored="true" data-filltype="hl1" data-stroketype="none" fill="#ebdb8a" stroke-width="none"
                      opacity="1"></path>
                <path id="SvgjsPath4202"
                      d="M53.689 176.205c-10.802 1.308-27.48 4.184-37.58 8.38 0 0.011 0.01 0.021 0.01 0.03 6.68 17.19 9.418 44.907 10.14 50.38 13.662 0.58 38.444 0.678 68.2-0.56C81.652 220.216 61.683 192.972 53.689 176.205zM26.929 234.266c0-8.767-2.644-33.854-9.81-49.33 14.354-4.252 24.106-5.545 36.1-7.931 8.677 20.651 22.083 40.424 38.45 56.45C70.854 232.966 47.735 233.228 26.929 234.266zM105.541 234.436c29.756 1.237 54.538 1.14 68.199 0.56 0.723-5.473 3.461-33.189 10.141-50.38 0-0.01 0.01-0.02 0.01-0.03 -10.1-4.196-26.777-7.072-37.58-8.38C138.317 192.972 118.348 220.216 105.541 234.436zM108.331 233.455c16.367-16.026 29.772-35.799 38.45-56.45 11.993 2.386 21.746 3.679 36.1 7.931 -7.166 15.477-9.811 40.563-9.811 49.33C152.266 233.228 129.146 232.966 108.331 233.455z"
                      data-colored="true" data-filltype="sd3" data-stroketype="none" fill="#ae9620" stroke-width="none"
                      opacity="1"></path>
            </g>
            <g id="svga-group-head" data-updown="0" data-leftright="0" data-dist="0" data-scaleX="1" data-scaleY="1"
               data-rotate="0">
                <g id="svga-group-ears-left" data-updown="0" data-leftright="3.0000002" data-dist="0" data-scaleX="1"
                   data-scaleY="1" data-rotate="0" transform="translate(3.0000001000000003 0)">
                    <path id="SvgjsPath4008"
                          d="M45.671 84.344c-1.485-2.462-6.327-9.199-10.031-8.254 -3.012 0.772-2.973 4.971-3.206 7.455 -0.34 3.644-0.464 9.992 0.525 12.568 0.951 2.473 3.96 7.252 5.828 9.075 2.299 2.235 5.97 9.358 6.422 10.097 0.711 1.168 2.137 2.84 4.325 2.708 3.071-0.185 5.724-3.087 5.965-4.485C56.8 105.918 49.536 90.75 45.671 84.344z"
                          data-colored="true" data-filltype="tone" data-stroketype="sd3" fill="#704633" stroke="#421c0a"
                          stroke-width="1.5" opacity="1"></path>
                    <path id="SvgjsPath4009"
                          d="M44.2 99.341c-0.143-0.563 0.007-1.513 0.154-2.429 0.133-0.835 0.258-1.624 0.182-2.182 -0.289-2.09-1.915-6.06-2.976-8.212 -1.223-2.476-3.199-5.595-5.679-6.399 -1.024-0.333-1.699 0.065-2.089 0.468 -0.288 0.296-0.353 0.645-0.259 0.687 0.095 0.041 0.307-0.248 0.617-0.519 0.254-0.222-0.508-0.04 0 0 -0.205 1.04-0.865 6.302-0.41 10.143 0.358 3.022 1.05 5.279 1.263 5.617 0.031 0.356 0.083 0.705 0.16 1.043 1.002 4.41 7.518 10.177 9.034 11.82 0.28 0.303 0.574 0.483 0.646 0.409s-0.101-0.373-0.379-0.678c-1.498-1.632-7.971-7.381-8.939-11.635 -1.027-4.514 3.912-11.207 4.699-12.623 0.401 0.665 0.742 1.303 1.004 1.835 0.207 0.417 0.434 0.906 0.67 1.435 -0.463 0.738-5.118 6.127-3.934 10.441 0.438 1.591 3.822 3.642 5.131 4.203 0.72 0.31 0.99 0.772 1.304 1.306 0.364 0.624 0.033 2.229 1.23 2.739 0.244 0.104 0.464 0.146 0.659 0.146 0.338 0 0.594-0.13 0.783-0.284 0.02 0.271 0.019 0.619 0.009 0.941 -0.012 0.418 0.047 0.609 0.148 0.617 0.103 0.009 0.21-0.174 0.223-0.587 0.017-0.51 0.014-1.141-0.077-1.444 -0.269-0.889-1.088-1.894-1.957-2.957C44.563 102.197 44.422 100.213 44.2 99.341zM34.969 95.432c-2.348-6.923 1.283-13.229 1.81-14.179 1.012 0.399 2.562 2.193 3.221 3.235C39.52 85.321 35.067 90.775 34.969 95.432zM45.772 106.464c-1.084-0.462-0.706-1.984-1.056-2.584 -0.318-0.542-0.646-1.102-1.479-1.46 -0.18-0.078-0.379-0.196-0.583-0.332 -2.682-6.075 0.293-8.73 1.039-9.273 0.229 0.742 0.399 1.423 0.476 1.97 0.068 0.5-0.059 1.298-0.181 2.068 -0.153 0.955-0.31 1.944-0.147 2.584 0.244 0.953 0.411 2.97 1.291 4.048 0.781 0.956 1.583 1.942 1.857 2.746C46.871 106.391 46.5 106.775 45.772 106.464z"
                          data-colored="true" data-filltype="sd3" data-stroketype="none" fill="#421c0a"
                          stroke-width="none" opacity="1" stroke="none"></path>
                </g>
                <g id="svga-group-ears-right" data-updown="0" data-leftright="-3.0000002" data-dist="0" data-scaleX="1"
                   data-scaleY="1" data-rotate="0" transform="translate(-3.0000001000000003 0)">
                    <path id="SvgjsPath4010"
                          d="M154.066 84.344c1.486-2.462 6.328-9.199 10.031-8.254 3.012 0.772 2.973 4.971 3.207 7.455 0.34 3.644 0.463 9.992-0.525 12.568 -0.951 2.473-3.961 7.252-5.828 9.075 -2.299 2.235-5.971 9.358-6.422 10.097 -0.711 1.168-2.137 2.84-4.326 2.708 -3.07-0.185-5.723-3.087-5.965-4.485C142.938 105.918 150.203 90.75 154.066 84.344z"
                          data-colored="true" data-filltype="tone" data-stroketype="sd3" fill="#704633" stroke="#421c0a"
                          stroke-width="1.5" opacity="1"></path>
                    <path id="SvgjsPath4011"
                          d="M154.322 103.243c-0.869 1.063-1.688 2.068-1.957 2.957 -0.092 0.304-0.094 0.935-0.078 1.444 0.014 0.413 0.121 0.596 0.225 0.587 0.102-0.008 0.16-0.199 0.148-0.617 -0.01-0.322-0.012-0.67 0.008-0.941 0.189 0.154 0.445 0.284 0.783 0.284 0.195 0 0.416-0.042 0.66-0.146 1.195-0.511 0.865-2.116 1.229-2.739 0.314-0.534 0.584-0.997 1.305-1.306 1.309-0.561 4.693-2.611 5.131-4.203 1.184-4.314-3.471-9.704-3.934-10.441 0.234-0.529 0.463-1.018 0.668-1.435 0.264-0.532 0.604-1.171 1.006-1.835 0.787 1.416 5.725 8.108 4.699 12.623 -0.969 4.254-7.441 10.003-8.939 11.635 -0.279 0.305-0.453 0.604-0.381 0.678 0.074 0.074 0.367-0.106 0.646-0.409 1.516-1.643 8.031-7.41 9.033-11.82 0.078-0.338 0.131-0.687 0.162-1.043 0.211-0.337 0.904-2.594 1.262-5.617 0.455-3.841-0.205-9.103-0.41-10.143 0.508-0.04-0.254-0.222 0 0 0.311 0.271 0.523 0.56 0.617 0.519 0.094-0.042 0.029-0.39-0.258-0.687 -0.391-0.403-1.066-0.801-2.09-0.468 -2.48 0.804-4.457 3.923-5.68 6.399 -1.061 2.152-2.686 6.122-2.975 8.212 -0.076 0.558 0.049 1.347 0.182 2.182 0.146 0.916 0.297 1.866 0.154 2.429C155.316 100.213 155.176 102.197 154.322 103.243zM159.738 84.488c0.66-1.042 2.209-2.835 3.221-3.235 0.527 0.95 4.158 7.256 1.811 14.179C164.672 90.775 160.219 85.321 159.738 84.488zM152.75 106.229c0.273-0.804 1.076-1.79 1.857-2.746 0.879-1.078 1.047-3.095 1.291-4.048 0.162-0.64 0.006-1.629-0.146-2.584 -0.123-0.77-0.25-1.568-0.182-2.068 0.076-0.547 0.246-1.228 0.475-1.97 0.746 0.543 3.721 3.199 1.039 9.273 -0.203 0.136-0.402 0.254-0.584 0.332 -0.832 0.358-1.16 0.918-1.479 1.46 -0.35 0.6 0.029 2.123-1.055 2.584C153.238 106.775 152.867 106.391 152.75 106.229z"
                          data-colored="true" data-filltype="sd3" data-stroketype="none" fill="#421c0a"
                          stroke-width="none" opacity="1" stroke="none"></path>
                </g>
                <g id="svga-group-faceshape-wrap" data-updown="0" data-leftright="0" data-dist="0"
                   data-scaleX="0.9599995800000001" data-scaleY="0.9997995800000001" data-rotate="0"
                   transform="matrix(0.9599996900000001 0 0 0.9997996900000001 4.000030999999993 0.0164224147558798)">
                    <g id="svga-group-faceshape-single" data-updown="0" data-leftright="0" data-dist="0" data-scaleX="1"
                       data-scaleY="1" data-rotate="0">
                        <path id="SvgjsPath3967"
                              d="M144.736 127.176c-4.549 9.887-17.57 28.302-27.601 32.566 -7.442 3.165-26.824 3.165-34.267 0 -10.029-4.265-23.05-22.68-27.601-32.566 -5.29-11.491-14.118-48.623-14.13-48.677 -1.3-4.996-1.996-10.239-2.004-15.645C39.082 28.806 66.289 1.169 99.907 1.116c33.621-0.053 60.913 27.495 60.963 61.543 0.009 5.408-0.669 10.653-1.952 15.653C158.901 78.365 150.045 115.641 144.736 127.176z"
                              data-colored="true" data-filltype="tone" data-stroketype="none" fill="#704633"
                              stroke-width="none" opacity="1" stroke="none"></path>
                        <path id="SvgjsPath3968"
                              d="M110.152 1.984c26.994 6.347 47.097 30.857 47.052 60.124 -0.009 5.407-0.704 10.65-2.004 15.646 -0.012 0.054-9.158 37.218-14.396 48.677 -4.417 9.659-16.244 27.271-25.867 31.821 -3.169 1.499-11.439 1.855-14.935 1.855 -3.494 0-11.765-0.356-14.933-1.855 -9.623-4.55-21.451-22.162-25.867-31.821 -5.239-11.459-14.385-48.623-14.396-48.677 -1.3-4.995-1.996-10.239-2.004-15.646C42.756 32.841 62.857 8.331 89.853 1.984 61.03 6.885 39.087 32.276 39.134 62.854c0.008 5.406 0.704 10.649 2.004 15.645 0.012 0.054 8.781 37.213 14.13 48.677 4.602 9.862 17.738 27.917 27.601 32.566 3.671 1.732 13.088 2.374 17.134 2.374 4.043 0 13.464-0.643 17.133-2.374 9.862-4.649 23-22.704 27.601-32.566 5.35-11.464 14.119-48.623 14.13-48.677 1.3-4.996 1.996-10.239 2.004-15.645C160.918 32.276 138.975 6.885 110.152 1.984z"
                              data-colored="true" data-filltype="sd05" data-stroketype="none" fill="#683e2a"
                              stroke-width="none" opacity="1" stroke="none"></path>
                        <path id="SvgjsPath3969"
                              d="M144.736 127.176c-4.549 9.887-17.57 28.302-27.601 32.566 -7.442 3.165-26.824 3.165-34.267 0 -10.029-4.265-23.05-22.68-27.601-32.566 -5.29-11.491-14.118-48.623-14.13-48.677 -1.3-4.996-1.996-10.239-2.004-15.645C39.082 28.806 66.289 1.169 99.907 1.116c33.621-0.053 60.913 27.495 60.963 61.543 0.009 5.408-0.669 10.653-1.952 15.653C158.901 78.365 150.045 115.641 144.736 127.176z"
                              data-colored="true" data-filltype="none" data-stroketype="sd3" fill="none"
                              stroke="#421c0a" stroke-width="1.5" opacity="1"></path>
                    </g>
                </g>
                <g id="svga-group-mouth-single" data-updown="0" data-leftright="0" data-dist="0" data-scaleX="1"
                   data-scaleY="1" data-rotate="0">
                    <path id="SvgjsPath3159"
                          d="M100.2 142.947c-2.832 0.144-3.644-2.753-3.644-2.753s3.931 0.565 6.991-0.353C103.548 139.842 102.692 142.822 100.2 142.947z"
                          data-colored="false" data-filltype="gradient" data-stroketype="none" data-fromskin="true"
                          fill="url(#SvgjsLinearGradient3160)" opacity="1"></path>
                    <path id="SvgjsPath3163"
                          d="M100.488 140.76c-1.984 0.1-3.765-0.077-3.877-0.089 -0.138-0.014-0.238-0.136-0.224-0.272 0.015-0.138 0.143-0.233 0.274-0.224 0.041 0.003 4.096 0.405 6.738-0.337 0.131-0.032 0.271 0.041 0.309 0.174s-0.04 0.27-0.173 0.308C102.601 140.582 101.517 140.708 100.488 140.76z"
                          data-colored="true" data-filltype="sd3" data-stroketype="none" data-fromskin="true"
                          fill="#421c0a" stroke-width="none" opacity="1" stroke="none"></path>
                    <path id="SvgjsPath3164"
                          d="M82.5 130.299c0 0 12.532 1.486 16.718 1.499 4.553 0.012 19.282-1.499 19.282-1.499 -4.258 3.534-8.943 6.932-19.555 6.999C89.453 137.359 87.021 133.912 82.5 130.299z"
                          data-colored="false" data-filltype="#ffffff" data-stroketype="none" fill="#ffffff"
                          stroke-width="none" opacity="1"></path>
                    <path id="SvgjsPath3165"
                          d="M82.5 130.299c0 0 12.532 1.486 16.718 1.499 4.553 0.012 19.282-1.499 19.282-1.499 -4.258 3.534-8.943 6.932-19.555 6.999C89.453 137.359 87.021 133.912 82.5 130.299z"
                          data-colored="true" data-filltype="none" data-stroketype="sd3" data-fromskin="true"
                          fill="none" stroke="#421c0a" stroke-width="0.75" opacity="1"></path>
                </g>
                <g id="svga-group-eyes-left" data-updown="-2.0000002" data-leftright="0" data-dist="0" data-scaleX="1"
                   data-scaleY="1" data-rotate="0" transform="translate(0 -2.0000001000000003)">
                    <g id="svga-group-eyesback-left">
                        <path id="SvgjsPath4135"
                              d="M59.722 85.795c2.578 4.596 2.19 5.704 10.268 4.467 9.691 0 17.711-1.976 17.711-5.558 0-3.582-4.925-7.115-17.196-4.923C64.489 80.855 59.722 84 59.722 85.795z"
                              data-colored="false" data-filltype="gradient" data-stroketype="none"
                              fill="url(#SvgjsRadialGradient4136)" opacity="1"></path>
                    </g>
                    <g id="svga-group-eyesiriswrapper-left" transform="translate(0.25 0.25)">
                        <g id="svga-group-eyesiriscontrol-left" data-updown="0" data-leftright="0" data-dist="0"
                           data-scaleX="1" data-scaleY="1" data-rotate="0">
                            <g id="svga-group-eyesiris-left" data-updown="0" data-leftright="0" data-dist="0"
                               data-scaleX="1" data-scaleY="1" data-rotate="0">
                                <path id="SvgjsPath3377"
                                      d="M79.788 85.588c-0.869 3.192-4.16 5.073-7.358 4.196 -3.195-0.876-5.083-4.178-4.212-7.371 0.868-3.195 4.167-5.076 7.362-4.198C78.773 79.09 80.658 82.392 79.788 85.588z"
                                      data-colored="true" data-filltype="tone" data-stroketype="sd3" fill="#4d3623"
                                      stroke="#1f1105" stroke-width="0.5" opacity="1"></path>
                                <path id="SvgjsPath3378"
                                      d="M73.265 80.413l-0.156-0.279c-0.548 0.218-1.076 0.445-1.575 0.687l0.37 0.894 -0.047 0.517 -1.426-0.839c-0.466 0.259-0.898 0.529-1.318 0.804l0.004 0.009 -0.489 0.55 0.781 0.799 -1.052 0.574 0.398 0.657 1.857 0.185 -1.741 1.181 1.863-0.103 -0.982 1.693 2.297-1.39 -0.618 2.364 1.329-2.184 0.256 2.343 0.384-2.072 0.353-0.043 0.5 2.35 0.152-0.705c0.201-0.052 0.718 0.704 0.915 0.651L74.736 86.5l1.282 2.556 -0.52-2.651 1.578 2.05c0.057-0.018 0.196-0.85 0.252-0.867l-0.982-1.469 1.785 0.539 -1.071-1.16 -0.86-0.712 3.586 0.803 -1.997-1.217 1.411-0.577 -3.055-0.309 3.021-1.602 -2.734 0.698 -0.736-0.399 -0.181-0.354 0.052-0.846 0.061-1.389 -1.248 2.198 -0.11-1.609 -0.157-0.421c-0.25 0.087-0.495 0.172-0.736 0.265L73.265 80.413z"
                                      data-colored="true" data-filltype="hl1" data-stroketype="none" fill="#5c4633"
                                      stroke-width="none" opacity="1" stroke="none"></path>
                                <path id="SvgjsPath3379"
                                      d="M79.856 82.755c-5.242 0.239-7.907 1.36-11.707 2.631 -0.732-3.229 1.298-6.438 4.53-7.164S79.125 79.525 79.856 82.755z"
                                      data-colored="true" data-filltype="sd1" data-stroketype="none" fill="#3e2816"
                                      stroke-width="none" opacity="0.9" stroke="none"></path>
                                <path id="SvgjsPath3380"
                                      d="M74.869 81.998c-1.319-0.378-2.666 0.375-3.005 1.69 -0.342 1.308 0.452 2.678 1.771 3.056 1.32 0.379 2.667-0.375 3.009-1.684C76.987 83.745 76.19 82.376 74.869 81.998z"
                                      data-colored="false" data-filltype="#000000" data-stroketype="none" fill="#000000"
                                      stroke-width="none" opacity="0.8"></path>
                                <path id="SvgjsPath3381"
                                      d="M74.869 81.998c-1.319-0.378-2.666 0.375-3.005 1.69 -0.342 1.308 0.452 2.678 1.771 3.056 1.32 0.379 2.667-0.375 3.009-1.684C76.987 83.745 76.19 82.376 74.869 81.998z"
                                      data-colored="true" data-filltype="none" data-stroketype="sd3" fill="none"
                                      stroke="#1f1105" stroke-width="0.75" opacity="1"></path>
                                <path id="SvgjsPath3382"
                                      d="M69.631 87.56c0.613 0.973 1.426 1.706 2.578 1.95 1.326 0.281 1.477-1.483 0.528-1.685 -0.72-0.152-1.176-0.505-1.552-1.102C70.497 85.63 69.079 86.684 69.631 87.56L69.631 87.56z"
                                      data-colored="false" data-filltype="#ffffff" data-stroketype="none" fill="#ffffff"
                                      stroke-width="none" opacity="0.4"></path>
                                <path id="SvgjsPath3383"
                                      d="M75.033 81.493c0.929 0.187 1.469 0.768 1.938 1.64 0.862 1.604 3.299 0.178 2.437-1.425 -0.757-1.408-2.019-2.613-3.625-2.938C73.726 78.355 73.438 81.171 75.033 81.493L75.033 81.493z"
                                      data-colored="false" data-filltype="gradient" data-stroketype="none"
                                      fill="url(#SvgjsLinearGradient3384)" opacity="1"></path>
                            </g>
                        </g>
                    </g>
                    <g id="svga-group-eyesfront-left">
                        <path id="SvgjsPath4160"
                              d="M54.8 84.999c0 13.807 8.507 25 19 25s19-11.193 19-25 -8.507-25-19-25S54.8 71.192 54.8 84.999zM59.722 85.795c0-1.795 4.768-4.939 10.782-6.014C82.775 77.589 87.7 81.123 87.7 84.704c0 3.582-8.02 5.558-17.711 5.558C61.912 91.499 62.3 90.391 59.722 85.795z"
                              data-colored="true" data-filltype="tone" data-stroketype="none" data-fromskin="true"
                              fill="#704633" stroke-width="none" opacity="1"></path>
                        <path id="SvgjsPath4161"
                              d="M58.697 86.046c-0.075 6.904 8.647 12.467 18.038 12.434 9.389-0.04 16.987-5.663 16.962-12.568 -0.023-6.903-7.647-12.467-17.04-12.431C67.265 73.519 58.799 76.602 58.697 86.046zM59.722 85.795c0-1.795 4.768-4.939 10.782-6.014C82.775 77.589 87.7 81.123 87.7 84.704c0 3.582-8.02 5.558-17.711 5.558C61.912 91.499 62.3 90.391 59.722 85.795z"
                              data-colored="false" data-filltype="gradient" data-stroketype="none" data-fromskin="true"
                              fill="url(#SvgjsRadialGradient4162)" opacity="1"></path>
                        <path id="SvgjsPath4166"
                              d="M59.722 85.795c2.578 4.596 2.19 5.704 10.268 4.467 9.691 0 17.711-1.976 17.711-5.558 0-3.582-4.925-7.115-17.196-4.923C64.489 80.855 59.722 84 59.722 85.795z"
                              data-colored="false" data-filltype="gradient" data-stroketype="none"
                              fill="url(#SvgjsRadialGradient4167)" opacity="1"></path>
                        <path id="SvgjsPath4170"
                              d="M86.716 88.797c0 0-1.383 0.778-2.354 1.036 -1.209 0.318-4.997 0.895-11.562 1.795 7.49-0.531 10.48-0.82 11.762-1.189C85.578 90.147 86.716 88.797 86.716 88.797z"
                              data-colored="true" data-filltype="sd3" data-stroketype="none" data-fromskin="true"
                              fill="#421c0a" stroke-width="none" opacity="1"></path>
                        <path id="SvgjsPath4171"
                              d="M87.757 83.463c0.062 0.073 0.057 0.18-0.011 0.247 -0.068 0.066-0.175 0.069-0.247 0.007l-3.871-3.383c-11.411-1.304-19.93 0.687-23.25 5.247l0.536 2.4 -3.114-2.69c3.172-4.526 6.306-7.915 25.828-6.735C85.933 80.808 87.137 81.935 87.757 83.463zM86.632 87.442c0.082-0.079 0.102-0.205 0.048-0.306 -0.052-0.103-0.166-0.156-0.279-0.135 -3.954 2.317-11.021 2.523-22.642 3.426l-2.25-1.384 1.653 2.046C75.744 90.501 85.006 89.756 86.632 87.442z"
                              data-colored="true" data-filltype="tone" data-stroketype="none" fill="#000000"
                              stroke-width="none" opacity="1"></path>
                    </g>
                </g>
                <g id="svga-group-eyes-right" data-updown="-2.0000002" data-leftright="0" data-dist="0" data-scaleX="1"
                   data-scaleY="1" data-rotate="0" transform="translate(0 -2.0000001000000003)">
                    <g id="svga-group-eyesback-right">
                        <path id="SvgjsPath4143"
                              d="M139.879 85.795c-2.578 4.596-2.19 5.704-10.268 4.467 -9.691 0-17.711-1.976-17.711-5.558 0-3.582 4.925-7.115 17.196-4.923C135.111 80.855 139.879 84 139.879 85.795z"
                              data-colored="false" data-filltype="gradient" data-stroketype="none"
                              fill="url(#SvgjsRadialGradient4144)" opacity="1"></path>
                    </g>
                    <g id="svga-group-eyesiriswrapper-right" transform="translate(-0.25 0.25)">
                        <g id="svga-group-eyesiriscontrol-right" data-updown="0" data-leftright="0" data-dist="0"
                           data-scaleX="1" data-scaleY="1" data-rotate="0">
                            <g id="svga-group-eyesiris-right" data-updown="0" data-leftright="0" data-dist="0"
                               data-scaleX="1" data-scaleY="1" data-rotate="0">
                                <path id="SvgjsPath3387"
                                      d="M131.788 85.587c-0.869 3.193-4.16 5.074-7.358 4.196 -3.195-0.876-5.082-4.178-4.212-7.371 0.867-3.195 4.167-5.076 7.361-4.198C130.774 79.091 132.658 82.393 131.788 85.587z"
                                      data-colored="true" data-filltype="tone" data-stroketype="sd3" fill="#4d3623"
                                      stroke="#1f1105" stroke-width="0.5" opacity="1"></path>
                                <path id="SvgjsPath3388"
                                      d="M125.266 80.413l-0.155-0.278c-0.548 0.217-1.076 0.445-1.576 0.686l0.37 0.894 -0.047 0.517 -1.426-0.839c-0.467 0.259-0.898 0.529-1.317 0.804l0.004 0.009 -0.49 0.551 0.782 0.799 -1.052 0.573 0.397 0.657 1.857 0.185 -1.741 1.181 1.863-0.103 -0.982 1.692 2.296-1.39 -0.616 2.364 1.328-2.184 0.257 2.343 0.384-2.073 0.353-0.043 0.501 2.35 0.151-0.704c0.201-0.052 0.719 0.703 0.915 0.651l-0.585-2.556 1.283 2.556 -0.521-2.651 1.577 2.05c0.057-0.018 0.197-0.85 0.253-0.867l-0.982-1.469 1.786 0.538 -1.071-1.16 -0.859-0.712 3.586 0.802 -1.997-1.216 1.411-0.577 -3.054-0.308 3.021-1.603 -2.734 0.698 -0.736-0.399 -0.18-0.354 0.052-0.847 0.061-1.388 -1.247 2.198 -0.11-1.609 -0.156-0.422c-0.25 0.087-0.495 0.173-0.735 0.265L125.266 80.413z"
                                      data-colored="true" data-filltype="hl1" data-stroketype="none" fill="#5c4633"
                                      stroke-width="none" opacity="1" stroke="none"></path>
                                <path id="SvgjsPath3389"
                                      d="M131.855 82.755c-5.24 0.239-7.906 1.36-11.706 2.631 -0.731-3.229 1.298-6.438 4.53-7.164C127.911 77.495 131.126 79.525 131.855 82.755z"
                                      data-colored="true" data-filltype="sd1" data-stroketype="none" fill="#3e2816"
                                      stroke-width="none" opacity="0.9" stroke="none"></path>
                                <path id="SvgjsPath3390"
                                      d="M126.87 81.998c-1.319-0.378-2.666 0.376-3.005 1.69 -0.343 1.308 0.451 2.678 1.77 3.056 1.322 0.379 2.668-0.375 3.009-1.684C128.987 83.745 128.189 82.376 126.87 81.998z"
                                      data-colored="false" data-filltype="#000000" data-stroketype="none" fill="#000000"
                                      stroke-width="none" opacity="0.8"></path>
                                <path id="SvgjsPath3391"
                                      d="M126.87 81.998c-1.319-0.378-2.666 0.376-3.005 1.69 -0.343 1.308 0.451 2.678 1.77 3.056 1.322 0.379 2.668-0.375 3.009-1.684C128.987 83.745 128.189 82.376 126.87 81.998z"
                                      data-colored="true" data-filltype="none" data-stroketype="sd3" fill="none"
                                      stroke="#1f1105" stroke-width="0.75" opacity="1"></path>
                                <path id="SvgjsPath3392"
                                      d="M121.632 87.56c0.612 0.973 1.426 1.706 2.577 1.95 1.326 0.281 1.478-1.482 0.528-1.685 -0.72-0.152-1.177-0.504-1.552-1.102C122.498 85.63 121.079 86.684 121.632 87.56L121.632 87.56z"
                                      data-colored="false" data-filltype="#ffffff" data-stroketype="none" fill="#ffffff"
                                      stroke-width="none" opacity="0.4"></path>
                                <path id="SvgjsPath3393"
                                      d="M127.034 81.493c0.929 0.187 1.469 0.767 1.938 1.639 0.862 1.604 3.3 0.178 2.437-1.425 -0.757-1.408-2.018-2.613-3.625-2.938C125.727 78.355 125.438 81.171 127.034 81.493L127.034 81.493z"
                                      data-colored="false" data-filltype="gradient" data-stroketype="none"
                                      fill="url(#SvgjsLinearGradient3394)" opacity="1"></path>
                            </g>
                        </g>
                    </g>
                    <g id="svga-group-eyesfront-right">
                        <path id="SvgjsPath4181"
                              d="M125.801 59.999c-10.493 0-19 11.193-19 25s8.507 25 19 25 19-11.193 19-25S136.294 59.999 125.801 59.999zM129.611 90.262c-9.691 0-17.711-1.976-17.711-5.558 0-3.582 4.925-7.115 17.196-4.923 6.015 1.074 10.782 4.218 10.782 6.014C137.301 90.391 137.688 91.499 129.611 90.262z"
                              data-colored="true" data-filltype="tone" data-stroketype="none" data-fromskin="true"
                              fill="#704633" stroke-width="none" opacity="1"></path>
                        <path id="SvgjsPath4182"
                              d="M122.943 73.48c-9.393-0.036-17.017 5.528-17.04 12.431 -0.025 6.906 7.573 12.529 16.962 12.568 9.391 0.034 18.113-5.529 18.038-12.434C140.802 76.602 132.336 73.519 122.943 73.48zM129.611 90.262c-9.691 0-17.711-1.976-17.711-5.558 0-3.582 4.925-7.115 17.196-4.923 6.015 1.074 10.782 4.218 10.782 6.014C137.301 90.391 137.688 91.499 129.611 90.262z"
                              data-colored="false" data-filltype="gradient" data-stroketype="none" data-fromskin="true"
                              fill="url(#SvgjsRadialGradient4183)" opacity="1"></path>
                        <path id="SvgjsPath4187"
                              d="M139.879 85.795c-2.578 4.596-2.19 5.704-10.268 4.467 -9.691 0-17.711-1.976-17.711-5.558 0-3.582 4.925-7.115 17.196-4.923C135.111 80.855 139.879 84 139.879 85.795z"
                              data-colored="false" data-filltype="gradient" data-stroketype="none"
                              fill="url(#SvgjsRadialGradient4188)" opacity="1"></path>
                        <path id="SvgjsPath4191"
                              d="M112.885 88.797c0 0 1.383 0.778 2.354 1.036 1.209 0.318 4.997 0.895 11.562 1.795 -7.49-0.531-10.48-0.82-11.762-1.189C114.022 90.147 112.885 88.797 112.885 88.797z"
                              data-colored="true" data-filltype="sd3" data-stroketype="none" data-fromskin="true"
                              fill="#421c0a" stroke-width="none" opacity="1"></path>
                        <path id="SvgjsPath4192"
                              d="M115.973 78.555c19.522-1.179 22.656 2.209 25.828 6.735l-3.114 2.69 0.536-2.4c-3.32-4.56-11.839-6.551-23.25-5.247l-3.871 3.383c-0.072 0.063-0.179 0.06-0.247-0.007 -0.067-0.066-0.072-0.174-0.011-0.247C112.464 81.935 113.668 80.808 115.973 78.555zM136.438 91.09l1.653-2.046 -2.25 1.384c-11.621-0.903-18.688-1.109-22.642-3.426 -0.113-0.021-0.228 0.032-0.279 0.135 -0.054 0.102-0.034 0.227 0.048 0.306C114.595 89.756 123.856 90.501 136.438 91.09z"
                              data-colored="true" data-filltype="tone" data-stroketype="none" fill="#000000"
                              stroke-width="none" opacity="1"></path>
                    </g>
                </g>
                <g id="svga-group-facehighlight-single" data-updown="0" data-leftright="0" data-dist="0" data-scaleX="1"
                   data-scaleY="1" data-rotate="0">
                    <path id="SvgjsPath2885"
                          d="M141 113.974c0.035 22.622-18.292 40.994-40.938 41.025 -22.642 0.037-41.028-18.273-41.063-40.9 -0.035-22.62 18.292-41.064 40.937-41.1C122.579 72.964 140.967 91.349 141 113.974z"
                          data-colored="false" data-filltype="gradient" data-stroketype="none" data-fromskin="true"
                          fill="url(#SvgjsRadialGradient2886)" opacity="1"></path>
                    <path id="SvgjsPath2889"
                          d="M137.5 53.999c0 20.711-16.789 37.5-37.499 37.5 -20.711 0-37.501-16.789-37.501-37.5s16.79-37.5 37.501-37.5C120.711 16.499 137.5 33.288 137.5 53.999z"
                          data-colored="false" data-filltype="gradient" data-stroketype="none" data-fromskin="true"
                          fill="url(#SvgjsRadialGradient2890)" opacity="1"></path>
                </g>
                <g id="svga-group-eyebrows-left" data-updown="-2.0000002" data-leftright="-2.0000002" data-dist="0"
                   data-scaleX="1.1500006300000003" data-scaleY="1.1500006300000003" data-rotate="-10.714285614285716"
                   transform="matrix(1.1500005200000003 0 0 1.1500005200000003 -11.37798953969073 -10.493061171869115) rotate(-10.714285714285715 73.85300044086914 70.95349854033203) translate(-2.0000002 -2.0000003)">
                    <path id="SvgjsPath3577"
                          d="M52.488 73.87c7.475-9.383 20.338-7.822 30.878-6.314 2.681 0.384 5.441 0.672 8.07 1.336 1.884 0.475 3.365 2.622 1.851 4.356 -0.708 0.825-2.253 0.672-3.207 0.652C77.459 73.645 63.193 66.387 52.488 73.87z"
                          data-colored="true" data-filltype="#000000" data-stroketype="none" fill="#080806"
                          stroke-width="none" opacity="1"></path>
                </g>
                <g id="svga-group-eyebrows-right" data-updown="-2.0000002" data-leftright="2.0000002" data-dist="0"
                   data-scaleX="1.1500006300000003" data-scaleY="1.1500006300000003" data-rotate="10.714285814285715"
                   transform="matrix(1.1500005200000003 0 0 1.1500005200000003 -18.886191799419294 -10.513836848139263) rotate(10.714285914285714 127.90750905009766 71.09200256865235) translate(2.0000002 -2.0000003)">
                    <path id="SvgjsPath3578"
                          d="M147.577 73.49c-2.164-1.448-4.454-2.47-7.043-2.889 -9.497-1.54-27.586 4.79-32.341 3.45 -2.912-0.822-2.323-3.739-1.035-4.458 0.775-0.433 0.99-0.422 7.909-1.612C126.824 65.961 139.988 64.355 147.577 73.49z"
                          data-colored="true" data-filltype="#000000" data-stroketype="none" fill="#080806"
                          stroke-width="none" opacity="1"></path>
                </g>
                <g id="svga-group-nose-single" data-updown="-4.0000004" data-leftright="0" data-dist="0"
                   data-scaleX="1.05000021" data-scaleY="1.05000021" data-rotate="0"
                   transform="matrix(1.0500001 0 0 1.0500001 -4.985460143324673 -5.439835731898256) translate(0 -4.0000003)">
                    <path id="SvgjsPath4017"
                          d="M99.757 119.999c-0.91 0-1.88 0.006-2.721-0.371 -0.899-0.405-1.498-0.567-2.429-0.902 -0.899-0.324-1.98 0.466-2.88 0.541 -0.728 0.06-1.559-0.149-2.003-0.719 -1.499-1.917 0.286-3.096 0.286-3.096s-0.583 1.346-0.212 1.942c0.319 0.509 0.789 0.925 1.369 1.063 0.968 0.235 1.889-0.476 2.839-0.55 1.062-0.083 1.833-0.102 2.602 0.519 0.767 0.619 1.606 0.737 2.582 0.787 0.906 0.049 1.857 0.088 2.708-0.263 0.743-0.303 1.365-0.835 2.062-1.226 1.482-0.831 2.647 0.212 4.194 0.633 1.238 0.338 2.575-0.86 2.09-2.225 -0.277-0.777-0.232-1.24-0.232-1.24s1.181 0.535 1.11 1.854c-0.089 1.642-1.521 2.794-3.137 2.361 -0.794-0.21-1.65-0.808-2.493-0.656 -0.857 0.153-1.517 0.154-2.229 0.622C102.187 119.781 101.047 119.999 99.757 119.999z"
                          data-colored="true" data-filltype="sd3" data-stroketype="none" data-fromskin="true"
                          fill="#421c0a" stroke-width="none" opacity="1"></path>
                    <path id="SvgjsPath4018"
                          d="M93.316 110.211c0 0 3.245-4.518 6.193-4.573 2.73-0.05 6.324 3.968 6.324 3.968s-3.311-1.387-6.588-1.156C96.32 108.655 93.316 110.211 93.316 110.211z"
                          data-colored="true" data-filltype="sd05" data-stroketype="none" data-fromskin="true"
                          fill="#683e2a" stroke-width="none" opacity="1"></path>
                </g>
                <g id="svga-group-beardwrap" data-updown="0" data-leftright="0" data-dist="0"
                   data-scaleX="0.9599995800000001" data-scaleY="0.9997995800000001" data-rotate="0"
                   transform="matrix(0.9599996900000001 0 0 0.9997996900000001 3.999541494253222 0.027731869749175075)">
                    <g id="svga-group-beard-single" data-updown="0" data-leftright="0" data-dist="0"
                       data-scaleX="1.1500006300000003" data-scaleY="1.1500006300000003" data-rotate="0"
                       transform="matrix(1.1500005200000003 0 0 1.1500005200000003 -15.00080273502445 -21.204073026546524)">
                        <path id="SvgjsPath3509"
                              d="M121.7 143.02c-0.18-4.31-0.38-8.63-0.42-12.95 -0.03-4.47-4.23-6.63-6.6-7.22 -2.05-0.51-7.31-0.64-9.42-0.81 -4.88-0.39-4.15 5.16-0.99 5.71 8.67 1.53 12.02 0.82 12.53 4.76 0.59 4.6 2.87 9.63-2.36 13.41 -2.18 1.57-11.81 1.72-12.81 1.78 -0.58-0.38 0.05-3.58 0.18-4.22 0.23-1.14 2.3-2.27 2.55-3.99 -0.76 0.28-4.02 0.6-4.37 0.6 -0.34-0.01-3.61-0.33-4.37-0.6 0.25 1.72 2.33 2.85 2.55 3.99 0.13 0.64 0.81 3.84 0.18 4.22 -1-0.06-10.64-0.21-12.81-1.78 -5.24-3.78-2.95-8.81-2.36-13.41 0.51-3.94 3.86-3.23 12.53-4.76 3.16-0.55 3.9-6.1-0.99-5.71 -2.11 0.17-7.37 0.29-9.42 0.81 -2.37 0.59-6.57 2.75-6.6 7.22 -0.03 4.32-0.24 8.63-0.42 12.95 -0.3 7.26 4.13 12.4 11.61 12.75 3.36 0.15 6.73 0.23 10.09 0.23s6.74-0.08 10.09-0.23C117.57 155.42 122 150.29 121.7 143.02z"
                              data-colored="true" data-filltype="tone" data-stroketype="none" fill="#080806"
                              stroke-width="none" opacity="1"></path>
                    </g>
                </g>
                <g id="svga-group-mustache-single" data-updown="0" data-leftright="0" data-dist="0" data-scaleX="1"
                   data-scaleY="1" data-rotate="0">
                    <path id="SvgjsPath3498" d="M100,18.13L100,18.13L100,18.13L100,18.13z" data-colored="true"
                          data-filltype="tone" data-stroketype="none" fill="#080806" stroke-width="none" opacity="1"
                          stroke="none"></path>
                </g>
                <g id="svga-group-hair-front" data-updown="0" data-leftright="0" data-dist="0"
                   data-scaleX="0.9599995800000001" data-scaleY="0.9997995800000001" data-rotate="0"
                   transform="matrix(0.9599996900000001 0 0 0.9997996900000001 4.000030999999993 0.003631620131891111)">
                    <path id="SvgjsPath3496" d="M100,18.13L100,18.13L100,18.13L100,18.13z" data-colored="true"
                          data-filltype="tone" data-stroketype="none" fill="#080806" stroke-width="none" opacity="1"
                          stroke="none"></path>
                </g>
                <g id="svga-group-glasses-single" data-updown="0" data-leftright="0" data-dist="0" data-scaleX="1"
                   data-scaleY="1" data-rotate="0">
                    <path id="SvgjsPath3579" d="M100,18.13L100,18.13L100,18.13L100,18.13z" data-colored="true"
                          data-filltype="tone" data-stroketype="none" fill="#26120b" stroke-width="none"
                          opacity="1"></path>
                </g>
            </g>
        </g>
        <rect id="SvgjsRect1036" width="200" height="15" x="0" y="185" fill="#ecf0f1" opacity="0.5"
              style="display:none;"></rect>
        <text id="SvgjsText1037"
              font-family="&quot;Roboto&quot;, &quot;Helvetica Neue&quot;, Helvetica, Arial, sans-serif"
              style="font-size:0.84em;font-family:&quot;Roboto&quot;, &quot;Helvetica Neue&quot;, Helvetica, Arial, sans-serif;text-anchor:middle;font-weight:400;display:none;"
              font-size="0.84em" text-anchor="middle" font-weight="400" fill="#000000" x="100" y="185">
            <tspan id="SvgjsTspan1038" dy="1.2em" x="100"
                   style="font-size:0.84em;font-family:&quot;Roboto&quot;, &quot;Helvetica Neue&quot;, Helvetica, Arial, sans-serif;text-anchor:middle;font-weight:400;">
                Created on svgAvatars.com
            </tspan>
        </text>
    </g>
    <defs id="SvgjsDefs1001">
        <radialGradient id="SvgjsRadialGradient2886" cx="100" cy="114" r="41" gradientUnits="userSpaceOnUse"
                        class="svga-on-canvas-facehighlight-gradient-single-0">
            <stop id="SvgjsStop2887" stop-opacity="0.5" stop-color="#7f5847" offset="0" data-stoptype="hl1"></stop>
            <stop id="SvgjsStop2888" stop-opacity="0" stop-color="#704633" offset="0.9" data-stoptype="tone"></stop>
        </radialGradient>
        <radialGradient id="SvgjsRadialGradient2890" cx="100" cy="54" r="37" gradientUnits="userSpaceOnUse"
                        class="svga-on-canvas-facehighlight-gradient-single-1">
            <stop id="SvgjsStop2891" stop-opacity="0.5" stop-color="#7f5847" offset="0" data-stoptype="hl1"></stop>
            <stop id="SvgjsStop2892" stop-opacity="0" stop-color="#704633" offset="0.9" data-stoptype="tone"></stop>
        </radialGradient>
        <linearGradient id="SvgjsLinearGradient3160" x1="100" y1="142" x2="100" y2="139" gradientUnits="userSpaceOnUse"
                        class="svga-on-canvas-mouth-gradient-single-0">
            <stop id="SvgjsStop3161" stop-opacity="1" stop-color="#683e2a" offset="0.1" data-stoptype="sd05"></stop>
            <stop id="SvgjsStop3162" stop-opacity="1" stop-color="#613622" offset="1" data-stoptype="sd1"></stop>
        </linearGradient>
        <radialGradient id="SvgjsRadialGradient3297" cx="-568.659" cy="-521.042" r="59.751"
                        gradientTransform="matrix(0.096 -0.0248 0.0245 0.0961 141.2814 119.9893)"
                        gradientUnits="userSpaceOnUse" class="svga-on-canvas-eyesiris-gradient-left-1">
            <stop id="SvgjsStop3298" stop-opacity="1" stop-color="#ffffff" offset="0" data-stoptype="#ffffff"></stop>
            <stop id="SvgjsStop3299" stop-opacity="0" stop-color="#ffffff" offset="1" data-stoptype="#ffffff"></stop>
        </radialGradient>
        <radialGradient id="SvgjsRadialGradient3301" cx="-582.838" cy="-519.099" r="59.745"
                        gradientTransform="matrix(0.0991 8.856319e-004 -0.0011 0.0991 131.1134 135.9855)"
                        gradientUnits="userSpaceOnUse" class="svga-on-canvas-eyesiris-gradient-left-2">
            <stop id="SvgjsStop3302" stop-opacity="1" stop-color="#ffffff" offset="0" data-stoptype="#ffffff"></stop>
            <stop id="SvgjsStop3303" stop-opacity="0" stop-color="#ffffff" offset="1" data-stoptype="#ffffff"></stop>
        </radialGradient>
        <linearGradient id="SvgjsLinearGradient3307" x1="122.67" y1="88.268" x2="123.606" y2="87.152"
                        gradientTransform="matrix(1 0 0 1 -52 0)" gradientUnits="userSpaceOnUse"
                        class="svga-on-canvas-eyesiris-gradient-left-5">
            <stop id="SvgjsStop3308" stop-opacity="1" stop-color="#ffffff" offset="0" data-stoptype="#ffffff"></stop>
            <stop id="SvgjsStop3309" stop-opacity="0" stop-color="#ffffff" offset="1" data-stoptype="#ffffff"></stop>
        </linearGradient>
        <linearGradient id="SvgjsLinearGradient3315" x1="129.636" y1="79.822" x2="127.91" y2="81.879"
                        gradientTransform="matrix(1 0 0 1 -52 0)" gradientUnits="userSpaceOnUse"
                        class="svga-on-canvas-eyesiris-gradient-left-7">
            <stop id="SvgjsStop3316" stop-opacity="1" stop-color="#ffffff" offset="0" data-stoptype="#ffffff"></stop>
            <stop id="SvgjsStop3317" stop-opacity="0" stop-color="#ffffff" offset="1" data-stoptype="#ffffff"></stop>
        </linearGradient>
        <radialGradient id="SvgjsRadialGradient3320" cx="-568.654" cy="-521.042" r="59.752"
                        gradientTransform="matrix(0.096 -0.0248 0.0245 0.0961 193.2804 119.9894)"
                        gradientUnits="userSpaceOnUse" class="svga-on-canvas-eyesiris-gradient-right-1">
            <stop id="SvgjsStop3321" stop-opacity="1" stop-color="#ffffff" offset="0" data-stoptype="#ffffff"></stop>
            <stop id="SvgjsStop3322" stop-opacity="0" stop-color="#ffffff" offset="1" data-stoptype="#ffffff"></stop>
        </radialGradient>
        <radialGradient id="SvgjsRadialGradient3324" cx="-582.833" cy="-519.102" r="59.747"
                        gradientTransform="matrix(0.0991 8.856319e-004 -0.0011 0.0991 183.1126 135.9856)"
                        gradientUnits="userSpaceOnUse" class="svga-on-canvas-eyesiris-gradient-right-2">
            <stop id="SvgjsStop3325" stop-opacity="1" stop-color="#ffffff" offset="0" data-stoptype="#ffffff"></stop>
            <stop id="SvgjsStop3326" stop-opacity="0" stop-color="#ffffff" offset="1" data-stoptype="#ffffff"></stop>
        </radialGradient>
        <linearGradient id="SvgjsLinearGradient3330" x1="122.67" y1="88.268" x2="123.606" y2="87.152"
                        gradientUnits="userSpaceOnUse" class="svga-on-canvas-eyesiris-gradient-right-5">
            <stop id="SvgjsStop3331" stop-opacity="1" stop-color="#ffffff" offset="0" data-stoptype="#ffffff"></stop>
            <stop id="SvgjsStop3332" stop-opacity="0" stop-color="#ffffff" offset="1" data-stoptype="#ffffff"></stop>
        </linearGradient>
        <linearGradient id="SvgjsLinearGradient3338" x1="129.636" y1="79.822" x2="127.91" y2="81.879"
                        gradientUnits="userSpaceOnUse" class="svga-on-canvas-eyesiris-gradient-right-7">
            <stop id="SvgjsStop3339" stop-opacity="1" stop-color="#ffffff" offset="0" data-stoptype="#ffffff"></stop>
            <stop id="SvgjsStop3340" stop-opacity="0" stop-color="#ffffff" offset="1" data-stoptype="#ffffff"></stop>
        </linearGradient>
        <linearGradient id="SvgjsLinearGradient3384" x1="132" y1="78" x2="126" y2="84"
                        gradientTransform="matrix(1 0 0 1 -50 0)" gradientUnits="userSpaceOnUse"
                        class="svga-on-canvas-eyesiris-gradient-left-6">
            <stop id="SvgjsStop3385" stop-opacity="1" stop-color="#ffffff" offset="0" data-stoptype="#ffffff"></stop>
            <stop id="SvgjsStop3386" stop-opacity="0" stop-color="#ffffff" offset="1" data-stoptype="#ffffff"></stop>
        </linearGradient>
        <linearGradient id="SvgjsLinearGradient3394" x1="132" y1="78" x2="126" y2="84" gradientUnits="userSpaceOnUse"
                        class="svga-on-canvas-eyesiris-gradient-right-6">
            <stop id="SvgjsStop3395" stop-opacity="1" stop-color="#ffffff" offset="0" data-stoptype="#ffffff"></stop>
            <stop id="SvgjsStop3396" stop-opacity="0" stop-color="#ffffff" offset="1" data-stoptype="#ffffff"></stop>
        </linearGradient>
        <linearGradient id="SvgjsLinearGradient3971" x1="100" y1="172" x2="100" y2="128.5"
                        gradientUnits="userSpaceOnUse" class="svga-on-canvas-chinshadow-gradient-single-0">
            <stop id="SvgjsStop3972" stop-opacity="0.8" stop-color="#613622" offset="0" data-stoptype="sd1"></stop>
            <stop id="SvgjsStop3973" stop-opacity="1" stop-color="#421c0a" offset="0.7" data-stoptype="sd3"></stop>
        </linearGradient>
        <radialGradient id="SvgjsRadialGradient4136" cx="126.289" cy="84.919" r="10.712"
                        gradientTransform="matrix(-1 0 0 1 200 0)" gradientUnits="userSpaceOnUse"
                        class="svga-on-canvas-eyesback-gradient-left-0">
            <stop id="SvgjsStop4137" stop-opacity="1" stop-color="#ffffff" offset="0" data-stoptype="#ffffff"></stop>
            <stop id="SvgjsStop4138" stop-opacity="1" stop-color="#fdfefe" offset="0.544"
                  data-stoptype="#fdfefe"></stop>
            <stop id="SvgjsStop4139" stop-opacity="1" stop-color="#f6f8f9" offset="0.74" data-stoptype="#f6f8f9"></stop>
            <stop id="SvgjsStop4140" stop-opacity="1" stop-color="#eaeff2" offset="0.879"
                  data-stoptype="#eaeff2"></stop>
            <stop id="SvgjsStop4141" stop-opacity="1" stop-color="#d9e3e8" offset="0.992"
                  data-stoptype="#d9e3e8"></stop>
            <stop id="SvgjsStop4142" stop-opacity="1" stop-color="#d8e2e7" offset="1" data-stoptype="#d8e2e7"></stop>
        </radialGradient>
        <radialGradient id="SvgjsRadialGradient4144" cx="125.89" cy="84.919" r="10.712" gradientUnits="userSpaceOnUse"
                        class="svga-on-canvas-eyesback-gradient-right-0">
            <stop id="SvgjsStop4145" stop-opacity="1" stop-color="#ffffff" offset="0" data-stoptype="#ffffff"></stop>
            <stop id="SvgjsStop4146" stop-opacity="1" stop-color="#fdfefe" offset="0.544"
                  data-stoptype="#fdfefe"></stop>
            <stop id="SvgjsStop4147" stop-opacity="1" stop-color="#f6f8f9" offset="0.74" data-stoptype="#f6f8f9"></stop>
            <stop id="SvgjsStop4148" stop-opacity="1" stop-color="#eaeff2" offset="0.879"
                  data-stoptype="#eaeff2"></stop>
            <stop id="SvgjsStop4149" stop-opacity="1" stop-color="#d9e3e8" offset="0.992"
                  data-stoptype="#d9e3e8"></stop>
            <stop id="SvgjsStop4150" stop-opacity="1" stop-color="#d8e2e7" offset="1" data-stoptype="#d8e2e7"></stop>
        </radialGradient>
        <radialGradient id="SvgjsRadialGradient4152" cx="126.289" cy="84.919" r="10.712"
                        gradientTransform="matrix(-1 0 0 1 200 0)" class="svga-on-canvas-eyesfront-gradient-left-0">
            <stop id="SvgjsStop4153" stop-opacity="1" stop-color="#ffffff" offset="0" data-stoptype="#ffffff"></stop>
            <stop id="SvgjsStop4154" stop-opacity="1" stop-color="#fdfefe" offset="0.544"
                  data-stoptype="#fdfefe"></stop>
            <stop id="SvgjsStop4155" stop-opacity="1" stop-color="#f6f8f9" offset="0.74" data-stoptype="#f6f8f9"></stop>
            <stop id="SvgjsStop4156" stop-opacity="1" stop-color="#eaeff2" offset="0.879"
                  data-stoptype="#eaeff2"></stop>
            <stop id="SvgjsStop4157" stop-opacity="1" stop-color="#d9e3e8" offset="0.992"
                  data-stoptype="#d9e3e8"></stop>
            <stop id="SvgjsStop4158" stop-opacity="1" stop-color="#d8e2e7" offset="1" data-stoptype="#d8e2e7"></stop>
        </radialGradient>
        <radialGradient id="SvgjsRadialGradient4162" cx="123.715" cy="85.489" fx="135.434" fy="85.522" r="16.667"
                        gradientTransform="matrix(0.9998 0.0208 0.0166 -0.7998 -48.826 151.2907)"
                        gradientUnits="userSpaceOnUse" class="svga-on-canvas-eyesfront-gradient-left-3">
            <stop id="SvgjsStop4163" stop-opacity="1" stop-color="#613622" offset="0" data-stoptype="sd1"></stop>
            <stop id="SvgjsStop4164" stop-opacity="0.3" stop-color="#613622" offset="0.7" data-stoptype="sd1"></stop>
            <stop id="SvgjsStop4165" stop-opacity="0" stop-color="#704633" offset="1" data-stoptype="tone"></stop>
        </radialGradient>
        <radialGradient id="SvgjsRadialGradient4167" cx="122.874" cy="101.325" r="26.878"
                        gradientTransform="matrix(-1 0 0 0.7923 200 21.0491)" gradientUnits="userSpaceOnUse"
                        class="svga-on-canvas-eyesfront-gradient-left-4">
            <stop id="SvgjsStop4168" stop-opacity="0" stop-color="#000000" offset="0.95" data-stoptype="#000000"></stop>
            <stop id="SvgjsStop4169" stop-opacity="0.2" stop-color="#000000" offset="1" data-stoptype="#000000"></stop>
        </radialGradient>
        <radialGradient id="SvgjsRadialGradient4173" cx="125.89" cy="84.919" r="10.712" gradientUnits="userSpaceOnUse"
                        class="svga-on-canvas-eyesfront-gradient-right-0">
            <stop id="SvgjsStop4174" stop-opacity="1" stop-color="#ffffff" offset="0" data-stoptype="#ffffff"></stop>
            <stop id="SvgjsStop4175" stop-opacity="1" stop-color="#fdfefe" offset="0.544"
                  data-stoptype="#fdfefe"></stop>
            <stop id="SvgjsStop4176" stop-opacity="1" stop-color="#f6f8f9" offset="0.74" data-stoptype="#f6f8f9"></stop>
            <stop id="SvgjsStop4177" stop-opacity="1" stop-color="#eaeff2" offset="0.879"
                  data-stoptype="#eaeff2"></stop>
            <stop id="SvgjsStop4178" stop-opacity="1" stop-color="#d9e3e8" offset="0.992"
                  data-stoptype="#d9e3e8"></stop>
            <stop id="SvgjsStop4179" stop-opacity="1" stop-color="#d8e2e7" offset="1" data-stoptype="#d8e2e7"></stop>
        </radialGradient>
        <radialGradient id="SvgjsRadialGradient4183" cx="123.315" cy="85.489" fx="135.034" fy="85.522" r="16.667"
                        gradientTransform="matrix(-0.9998 0.0208 -0.0166 -0.7998 248.0273 151.299)"
                        gradientUnits="userSpaceOnUse" class="svga-on-canvas-eyesfront-gradient-right-3">
            <stop id="SvgjsStop4184" stop-opacity="1" stop-color="#613622" offset="0" data-stoptype="sd1"></stop>
            <stop id="SvgjsStop4185" stop-opacity="0.3" stop-color="#613622" offset="0.7" data-stoptype="sd1"></stop>
            <stop id="SvgjsStop4186" stop-opacity="0" stop-color="#704633" offset="1" data-stoptype="tone"></stop>
        </radialGradient>
        <radialGradient id="SvgjsRadialGradient4188" cx="122.475" cy="101.325" r="26.878"
                        gradientTransform="matrix(1 0 0 0.7923 0 21.0491)" gradientUnits="userSpaceOnUse"
                        class="svga-on-canvas-eyesfront-gradient-right-4">
            <stop id="SvgjsStop4189" stop-opacity="0" stop-color="#000000" offset="0.95" data-stoptype="#000000"></stop>
            <stop id="SvgjsStop4190" stop-opacity="0.2" stop-color="#000000" offset="1" data-stoptype="#000000"></stop>
        </radialGradient>
    </defs>
</svg>