<svg id="svga-svgcanvas" xmlns="http://www.w3.org/2000/svg" version="1.1" xlink="http://www.w3.org/1999/xlink"
     style="position:relative;overflow:hidden;left:-0.5px;top:0px;" class="svga-svg" viewBox="0 0 200 200"
     preserveAspectRatio="xMinYMin meet">
    <g id="svga-group-wrapper">
        <g id="svga-group-backs-single"></g>
        <g id="svga-group-subwrapper" data-updown="0" data-leftright="0" data-dist="0" data-scaleX="1" data-scaleY="1"
           data-rotate="0">
            <g id="svga-group-hair-back" data-updown="0" data-leftright="0" data-dist="0" data-scaleX="1"
               data-scaleY="1" data-rotate="0"
               transform="matrix(0.99999989 0 0 0.99999989 0.00001100000000064938 0.00001100000000064938)">
                <path id="SvgjsPath4338" d="M100.5,100.5h-1v-1h1V100.5z" data-colored="true" data-filltype="tone"
                      data-stroketype="none" fill="#080806" stroke-width="none" opacity="1"></path>
            </g>
            <g id="svga-group-humanbody-single">
                <path id="SvgjsPath2893"
                      d="M195.417 199.778c-2.196-4.746-8.195-11.779-14.86-13.722 -8.239-2.403-26.837-5.308-33.733-6.923 -5.528-1.296-16.662-11.294-20.564-14.65 -0.7-0.6-1.273-1.839-1.287-2.76 -0.139-10.864 4.195-39.724 4.195-39.724H100 70.833c0 0 4.334 28.859 4.193 39.724 -0.011 0.921-0.587 2.16-1.285 2.76 -3.902 3.356-15.036 13.354-20.564 14.65 -6.897 1.615-25.495 4.619-33.733 7.022 -6.667 1.942-12.664 8.876-14.86 13.622 -3.708 8.008-4.584 22.5-4.584 35h100 100C200 222.278 199.123 207.786 195.417 199.778z"
                      data-colored="true" data-filltype="tone" data-stroketype="none" data-fromskin="true"
                      fill="#9e705b" stroke-width="none" opacity="1" stroke="none"></path>
                <path id="SvgjsPath2894"
                      d="M159.156 184.058c24.342 3.542 34.586 8.708 37.794 50.721H200c0-12.5-0.877-26.992-4.583-35 -2.196-4.746-8.195-11.779-14.86-13.722 -8.239-2.403-26.837-5.308-33.733-6.923 -5.528-1.296-18.242-12.069-21.643-16.35 3.36 4.704 12.791 15.605 21.054 18.46C150.188 182.61 153.48 183.232 159.156 184.058zM53.766 181.244c8.263-2.854 17.693-13.756 21.054-18.46 -3.4 4.28-16.114 15.054-21.643 16.35 -6.896 1.615-25.494 4.619-33.733 7.022 -6.665 1.942-12.664 8.876-14.86 13.622 -3.706 8.008-4.583 22.5-4.583 35h3.05c3.188-41.744 13.475-47.183 37.794-50.721C46.52 183.232 49.813 182.61 53.766 181.244z"
                      data-colored="true" data-filltype="hl1" data-stroketype="none" data-fromskin="true" fill="#ad8775"
                      stroke-width="none" opacity="1" stroke="none"></path>
                <path id="SvgjsPath2895"
                      d="M95.646 197.62c0 0-5.074-1.609-7.083-2.379 -10.449-4.009-44.395-6.607-44.395-6.607s35.754 1.419 43.644 2.779c-0.458-4.767-3.017-20.004-3.017-20.004s5.149 16.815 6.409 21.057C91.878 194.734 95.646 197.62 95.646 197.62zM106.445 196.278c-0.089 0.073-0.191 0.168-0.302 0.268C106.256 196.461 106.358 196.372 106.445 196.278zM95.646 197.62c0 0 2.893 2.992 4.347 3.03 1.91 0.051 4.828-2.899 6.151-4.104 -1.265 0.957-4.159 1.391-5.31 1.436C99.504 198.033 95.646 197.62 95.646 197.62zM116.664 190.101c-1.545 0.248-4.386 0.789-4.386 0.789l2.287-14.89c-0.646 3.071-4.474 16.211-8.12 20.278 1.91-1.616 6.158-2.391 8.324-2.704 10.236-1.484 10.232-1.483 41.062-4.94C155.831 188.634 126.76 188.479 116.664 190.101z"
                      data-colored="true" data-filltype="sd1" data-stroketype="none" data-fromskin="true" fill="#8f5b44"
                      stroke-width="none" opacity="1" stroke="none"></path>
                <path id="SvgjsPath2896"
                      d="M195.417 199.778c-2.196-4.746-8.195-11.779-14.86-13.722 -8.239-2.403-26.837-5.308-33.733-6.923 -5.528-1.296-16.662-11.294-20.564-14.65 -0.7-0.6-1.273-1.839-1.287-2.76 -0.139-10.864 4.195-39.724 4.195-39.724H100 70.833c0 0 4.334 28.859 4.193 39.724 -0.011 0.921-0.587 2.16-1.285 2.76 -3.902 3.356-15.036 13.354-20.564 14.65 -6.897 1.615-25.495 4.619-33.733 7.022 -6.667 1.942-12.664 8.876-14.86 13.622 -3.708 8.008-4.584 22.5-4.584 35h100 100C200 222.278 199.123 207.786 195.417 199.778z"
                      data-colored="true" data-filltype="none" data-stroketype="sd3" data-fromskin="true" fill="none"
                      stroke="#70381f" stroke-width="1.5" opacity="1"></path>
            </g>
            <g id="svga-group-chinshadow-single">
                <path id="SvgjsPath4321"
                      d="M100.002 170.866c11.391 0 16.629-6.36 24.218-9.638 -0.008-7.932 2.039-23.933 3.282-32.907 -16.136-1.852-38.871-1.852-55.006 0.001 1.243 8.973 3.29 24.972 3.281 32.903C83.37 164.502 88.608 170.866 100.002 170.866z"
                      data-colored="false" data-filltype="gradient" data-stroketype="none" data-fromskin="true"
                      fill="url(#SvgjsLinearGradient4322)" opacity="1"></path>
            </g>
            <g id="svga-group-clothes-single" data-updown="0" data-leftright="0" data-dist="0" data-scaleX="1"
               data-scaleY="1" data-rotate="0">
                <path id="SvgjsPath4398"
                      d="M83.208 235.787c-42.755 0-73.116-0.341-83.557-0.936 -3.228-41.46 17.049-50.314 25.922-52.197 5.111-1.218 9.139-1.593 12.692-1.923 8.462-0.786 15.16-1.409 30.099-12.227 0.523 0.666 1.8 2.359 4.153 5.55 6.948 9.244 17.385 14.505 28.689 14.505 0.001 0 0.002 0 0.004 0 12.805-0.002 24.814-6.654 33.019-18.271 15.056 9.254 18.229 9.549 25.801 10.25 2.497 0.231 5.604 0.52 9.799 1.21 11.838 1.591 20.825 8.087 26.003 18.786 4.405 9.103 6.021 21.193 4.56 34.087 -11.646 0.646-63.764 1.166-117.175 1.166C83.212 235.787 83.211 235.787 83.208 235.787z"
                      data-colored="false" data-filltype="#f3f1f4" data-stroketype="none" fill="#f3f1f4"
                      stroke-width="none" opacity="1"></path>
                <path id="SvgjsPath4399"
                      d="M170.909 182.255c-16.76-2.76-17.282-1.24-36.82-12.64 -16.477 23.799-46.336 23.876-61.12 4.21 -0.313-0.425-4.146-5.627-4.52-6 -21.537 15.697-25.967 10.671-43.18 14.539 -17.198 3.865-28.875 17.4-26.11 52.611 0.01 0.12 0.01 0.229 0.03 0.35 26.152 1.595 181.717 0.986 201.65-0.229C202.268 210.162 200.249 187.03 170.909 182.255zM-0.331 234.966c-0.458-22.065 2.924-46.19 26.26-50.9 17.291-3.49 21.274 1.1 42.39-15.7 1.11 1.66 2.4 3.72 3.84 5.98 13.218 20.3 44.471 23.502 62.05-4 1.851 1.43 4.03 3.02 6.47 4.59 23.186 15.306 60.738-4.709 59.65 59.89C134.92 233.624 65.973 233.646-0.331 234.966z"
                      data-colored="false" data-filltype="#cfc8d7" data-stroketype="none" fill="#cfc8d7"
                      stroke-width="none" opacity="1"></path>
                <path id="SvgjsPath4400"
                      d="M107.44 237.709c-2.775 0-10.727 0.208-16.512-0.23l-0.01-0.171c-0.818-18.658 1.129-30.719 4.537-39.288l0.048-0.123 -0.093-0.093c-0.905-0.904-2.425-1.935-4.034-3.025 -1.611-1.093-3.275-2.221-4.336-3.246 0.625-0.732 1.395-1.454 2.348-2.201 0.245-0.125 1.162-0.843 5.974-4.971 0.214-0.184 0.345-0.296 0.362-0.31 0.818-0.178 2.138-0.293 3.738-0.293 2.183 0 4.731 0.221 6.512 0.563 1.561 1.458 3.451 5.329 4.158 7.17 -0.976 2.291-2.128 3.129-3.717 4.284 -0.774 0.563-1.652 1.201-2.652 2.112l-0.083 0.075 0.021 0.111c4.026 20.31 4.027 25.054 4.027 29.642 0.001 2.021 0.001 6.609 0.339 9.985C107.917 237.707 107.704 237.709 107.44 237.709z"
                      data-colored="false" data-filltype="#131111" data-stroketype="none" fill="#131111"
                      stroke-width="none" opacity="1"></path>
                <path id="SvgjsPath4401"
                      d="M110.35 191.495c-0.754-1.995-2.71-5.93-4.28-7.359 -2.876-0.563-7.983-0.843-10.47-0.24 -0.108 0.088-6.248 5.383-6.31 5.26 -0.906 0.708-1.788 1.504-2.52 2.39 2.061 2.076 6.655 4.556 8.5 6.4 -3.65 9.18-5.33 21.59-4.55 39.38 0.01 0.11 0.01 0.23 0.02 0.34 6.756 0.52 16.55 0.331 17.55 0.223 -1.16-11.307 1.438-10.455-4.39-39.853C106.968 195.241 108.865 195.04 110.35 191.495zM105.1 210.535c-0.021-0.05-0.04-0.1-0.051-0.13 2 10.55 1.38 18.632 2.891 26.972 -4.736-0.318-12.014-0.052-16.771-0.052 0.369-7.198 1.188-31.684 4.74-39.74 0.17-0.046 0.339-0.084 0.509-0.125l-1.032 34.736 2.747-35.066c0.02-0.002 0.04-0.005 0.06-0.008l1.801 32.605 0.417-32.734c0.026 0.001 0.051-0.001 0.077 0l4.199 36.355 -2.3-36.137c0.314 0.063 0.629 0.141 0.942 0.233 0.03 0 0.07 0.01 0.1 0.03C103.533 198.476 104.365 205.876 105.1 210.535zM104.219 196.726c-2.774-1.251-6.363-1.026-9.129 0.24 -1.681-1.813-4.08-3.077-7.53-5.391 0.55-0.479 1.26-1.07 2.21-1.81 0.08 0 3.48-2.771 3.54-2.83 0.92-0.84 1.74-1.79 2.52-2.62 2.93-0.12 7.23 0.02 9.82 0.14 1.5 1.876 2.931 4.696 4.01 6.94C107.699 194.266 105.759 195.545 104.219 196.726z"
                      data-colored="false" data-filltype="#000000" data-stroketype="none" fill="#000000"
                      stroke-width="none" opacity="1"></path>
                <path id="SvgjsPath4402"
                      d="M78.196 213.077c-11.534-40.071-9.954-27.403-13.027-43.143 2.028-4.813 7.587-12.618 8.67-13.775l0.08-0.086c2.292 24.007 8.958 13.636 23.784 27.722C89.228 189.449 81.372 204.127 78.196 213.077zM135.364 170.3c-1.448-3.702-8.248-11.669-9.386-12.873 1.424 20.678-15.146 16.551-24.35 26.2 8.812 5.713 17.173 20.66 20.172 29.455C134.653 176.403 132.021 191.215 135.364 170.3z"
                      data-colored="false" data-filltype="#f3f1f4" data-stroketype="none" fill="#f3f1f4"
                      stroke-width="none" opacity="1"></path>
                <path id="SvgjsPath4403"
                      d="M125.801 156.967c0 5.137-0.42 9.162-1.262 10.339 -2.443 5.809-13.103 9.853-16.39 11.51 -2.495 1.227-4.942 2.809-6.83 4.85 3.813 2.476 5.705 3.383 12.93 14.44 4.246 7.109 6.539 12.448 7.561 15.64 12.922-35.152 10.657-23.062 13.793-43.507C134.018 166.153 126.801 157.885 125.801 156.967zM121.709 210.676c-2.716-8.644-11.075-22.913-19.43-27.091 3.937-2.957 5.031-3.131 9.729-5.279 14.396-6.42 14.985-12.385 14.138-20.271 1.207 1.423 7.328 8.664 8.896 12.023C131.034 193.116 126.945 192.299 121.709 210.676zM79.199 171.896c-4.408-3.649-3.16-8.162-5.189-16.215 -0.902 1-7.741 8.882-10.016 14.305 7.125 24.375 7.375 22.5 14.185 43.75 3.031-8.905 11.558-24.37 20.24-30.009C91.489 177.401 82.765 174.999 79.199 171.896zM84.659 197.405c-2.221 3.666-4.517 7.48-6.37 13.28 -1.17-7.95-11.17-32.296-12.92-40.95 1.638-3.588 7.771-12.451 8.521-13.165 1.366 7.078 0.066 13.462 5.669 16.995 2.621 1.996 11.104 5.32 17.52 10.36C93.188 186.235 91.094 187.596 84.659 197.405z"
                      data-colored="false" data-filltype="#cfc8d7" data-stroketype="none" fill="#cfc8d7"
                      stroke-width="none" opacity="1"></path>
                <path id="SvgjsPath4404"
                      d="M49.857 234.908c-8.87 0-16.864-0.137-23.156-0.396 -0.07-0.556-0.155-1.27-0.257-2.121 -1.053-8.829-3.834-32.147-9.695-47.528 9.497-3.835 25.02-6.691 36.643-8.118 7.833 16.249 26.729 42.336 39.987 57.234 -14.945 0.607-29.971 0.929-43.519 0.929C49.86 234.908 49.859 234.908 49.857 234.908zM150.143 234.908c8.87 0 16.863-0.137 23.156-0.396 0.07-0.556 0.154-1.27 0.256-2.121 1.054-8.829 3.835-32.147 9.695-47.528 -9.497-3.835-25.02-6.691-36.643-8.118 -7.833 16.249-26.729 42.336-39.987 57.234 14.945 0.607 29.971 0.929 43.519 0.929C150.141 234.908 150.141 234.908 150.143 234.908z"
                      data-colored="true" data-filltype="tone" data-stroketype="none" fill="#1d282e" stroke-width="none"
                      opacity="1"></path>
                <path id="SvgjsPath4405"
                      d="M32.153 211.959l-10.48-12.96 2.43-16.078 9.723 12.804L32.153 211.959zM47.384 192.569l-11.591-12.686 -1.968 15.841 11.61 12.397L47.384 192.569zM58.817 188.148l-11.708-10.331 0.275 14.752 12.322 11.557L58.817 188.148zM42.32 223.673l-10.167-11.714 -5.018 15.35 11.118 12.987L42.32 223.673zM58.107 219.842l-12.671-11.72 -3.116 15.551 14.234 11.113L58.107 219.842zM73.379 213.533l-13.673-9.407 -1.599 15.716 14.288 11.107L73.379 213.533zM166.174 195.725l9.724-12.804 2.43 16.078 -10.48 12.96L166.174 195.725zM154.564 208.122l11.609-12.397 -1.967-15.841 -11.592 12.686L154.564 208.122zM140.294 204.126l12.321-11.557 0.275-14.752 -11.708 10.331L140.294 204.126zM161.746 240.296l11.119-12.987 -5.019-15.35 -10.167 11.714L161.746 240.296zM143.445 234.786l14.234-11.113 -3.115-15.551 -12.672 11.72L143.445 234.786zM127.605 230.949l14.287-11.107 -1.599-15.716 -13.673 9.407L127.605 230.949z"
                      data-colored="true" data-filltype="hl1" data-stroketype="none" fill="#2d373d" stroke-width="none"
                      opacity="1"></path>
                <path id="SvgjsPath4406"
                      d="M53.689 176.205c-10.802 1.308-27.48 4.184-37.58 8.38 0 0.011 0.01 0.021 0.01 0.03 6.68 17.19 9.418 44.907 10.14 50.38 13.662 0.58 38.444 0.678 68.2-0.56C81.652 220.216 61.683 192.972 53.689 176.205zM26.929 234.266c0-8.767-2.644-33.854-9.81-49.33 14.354-4.252 24.106-5.545 36.1-7.931 8.677 20.651 22.083 40.424 38.45 56.45C70.854 232.966 47.735 233.228 26.929 234.266zM105.541 234.436c29.756 1.237 54.538 1.14 68.199 0.56 0.723-5.473 3.461-33.189 10.141-50.38 0-0.01 0.01-0.02 0.01-0.03 -10.1-4.196-26.777-7.072-37.58-8.38C138.317 192.972 118.348 220.216 105.541 234.436zM108.331 233.455c16.367-16.026 29.772-35.799 38.45-56.45 11.993 2.386 21.746 3.679 36.1 7.931 -7.166 15.477-9.811 40.563-9.811 49.33C152.266 233.228 129.146 232.966 108.331 233.455z"
                      data-colored="true" data-filltype="sd3" data-stroketype="none" fill="#000000" stroke-width="none"
                      opacity="1"></path>
            </g>
            <g id="svga-group-head" data-updown="0" data-leftright="0" data-dist="0" data-scaleX="1" data-scaleY="1"
               data-rotate="0">
                <g id="svga-group-ears-left" data-updown="0" data-leftright="5.838672220806777e-17" data-dist="0"
                   data-scaleX="0.94999979" data-scaleY="0.94999979" data-rotate="0"
                   transform="matrix(0.9499999 0 0 0.9499999 2.219254359576503 4.831759770311734) translate(1.0000000005838672e-7 0)">
                    <path id="SvgjsPath3525"
                          d="M47.001 83.231c-1.376-2.453-5.638-8.48-9.98-7.003 -2.749 0.935-3.293 3.993-3.735 6.693 -0.588 3.591 0.471 10.694 1.389 13.26 0.881 2.467 3.533 7.23 5.264 9.045 2.13 2.225 4.775 9.324 5.194 10.061 0.66 1.162 1.536 2.911 4.122 2.692 2.853-0.244 4.584-1.85 5.856-2.121C58.253 115.192 50.582 89.616 47.001 83.231z"
                          data-colored="true" data-filltype="tone" data-stroketype="sd3" fill="#9e705b" stroke="#70381f"
                          stroke-width="1.5" opacity="1"></path>
                    <path id="SvgjsPath3526"
                          d="M44.197 98.104c-0.132-0.581 0.007-1.56 0.142-2.504 0.124-0.861 0.24-1.675 0.169-2.251 -0.267-2.154-1.773-6.249-2.757-8.467 -1.132-2.554-2.963-5.77-5.262-6.599 -0.95-0.343-1.575 0.067-1.938 0.484 -0.266 0.305-0.325 0.665-0.238 0.707 0.086 0.042 0.285-0.254 0.572-0.535 0.235-0.229 0.579-0.426 1.051-0.385 -0.19 1.073-1.167 6.883-0.744 10.845 0.333 3.115 1.593 5.442 1.79 5.791 0.029 0.367 0.077 0.726 0.148 1.075 0.929 4.547 4.971 9.717 6.378 11.409 0.259 0.313 0.531 0.497 0.598 0.423 0.066-0.076-0.094-0.387-0.353-0.7 -1.388-1.679-5.391-6.831-6.289-11.218 -0.952-4.656 2.318-11.556 3.048-13.017 0.371 0.685 0.687 1.344 0.93 1.893 0.19 0.431 0.402 0.936 0.619 1.479 -0.429 0.762-3.434 6.32-2.338 10.767 0.406 1.641 2.235 3.755 3.447 4.333 0.667 0.32 0.919 0.797 1.209 1.349 0.336 0.64 0.718 1.365 1.828 1.892 0.225 0.108 0.429 0.151 0.61 0.151 0.313 0 0.551-0.135 0.725-0.293 0.018 0.28 0.017 0.64 0.009 0.97 -0.012 0.431 0.042 0.783 0.137 0.791 0.094 0.008 0.196-0.332 0.207-0.76 0.016-0.526 0.013-1.177-0.072-1.488 -0.248-0.917-1.008-1.953-1.813-3.048C45.221 100.116 44.403 99.003 44.197 98.104zM36.95 94.073c-2.177-7.139 0.656-13.3 1.144-14.28 0.85 0.822 1.6 1.919 2.21 2.995C39.86 83.646 37.041 89.271 36.95 94.073zM46.341 104.515c-1.004-0.475-1.339-1.115-1.666-1.733 -0.293-0.559-0.598-1.136-1.369-1.505 -0.168-0.081-0.352-0.203-0.542-0.343 -2.486-6.263 0.272-9.001 0.963-9.562 0.211 0.766 0.369 1.468 0.439 2.031 0.063 0.517-0.052 1.339-0.167 2.134 -0.142 0.985-0.286 2.004-0.137 2.664 0.226 0.982 1.069 2.131 1.884 3.242 0.723 0.986 1.466 2.003 1.721 2.832C47.359 104.439 47.017 104.836 46.341 104.515z"
                          data-colored="true" data-filltype="sd3" data-stroketype="none" fill="#70381f"
                          stroke-width="none" opacity="1" stroke="none"></path>
                </g>
                <g id="svga-group-ears-right" data-updown="0" data-leftright="-5.838672220806777e-17" data-dist="0"
                   data-scaleX="0.94999979" data-scaleY="0.94999979" data-rotate="0"
                   transform="matrix(0.9499999 0 0 0.9499999 7.7676405760264515 4.831759770311734) translate(-1.0000000005838672e-7 0)">
                    <path id="SvgjsPath3527"
                          d="M152.736 83.231c1.377-2.453 5.639-8.48 9.98-7.003 2.75 0.935 3.293 3.993 3.736 6.693 0.588 3.591-0.471 10.694-1.389 13.26 -0.881 2.467-3.533 7.23-5.266 9.045 -2.129 2.225-4.775 9.324-5.193 10.061 -0.658 1.162-1.535 2.911-4.121 2.692 -2.854-0.244-4.584-1.85-5.857-2.121C141.484 115.192 149.156 89.616 152.736 83.231z"
                          data-colored="true" data-filltype="tone" data-stroketype="sd3" fill="#9e705b" stroke="#70381f"
                          stroke-width="1.5" opacity="1"></path>
                    <path id="SvgjsPath3528"
                          d="M153.727 101.196c-0.805 1.096-1.564 2.131-1.813 3.048 -0.086 0.311-0.088 0.962-0.072 1.488 0.012 0.428 0.113 0.768 0.207 0.76s0.148-0.36 0.137-0.791c-0.008-0.331-0.008-0.69 0.01-0.97 0.174 0.158 0.412 0.293 0.725 0.293 0.182 0 0.385-0.043 0.609-0.151 1.109-0.526 1.492-1.252 1.828-1.892 0.289-0.552 0.543-1.028 1.209-1.349 1.213-0.578 3.041-2.692 3.447-4.333 1.096-4.447-1.908-10.005-2.338-10.767 0.217-0.544 0.43-1.049 0.619-1.479 0.244-0.549 0.559-1.208 0.93-1.893 0.73 1.46 4 8.361 3.049 13.017 -0.896 4.387-4.9 9.539-6.289 11.218 -0.258 0.313-0.418 0.624-0.352 0.7 0.066 0.074 0.338-0.109 0.598-0.423 1.406-1.692 5.449-6.862 6.379-11.409 0.07-0.35 0.117-0.708 0.146-1.075 0.197-0.349 1.459-2.676 1.791-5.791 0.422-3.961-0.555-9.772-0.744-10.845 0.473-0.042 0.814 0.156 1.051 0.385 0.287 0.281 0.486 0.577 0.572 0.535 0.086-0.042 0.027-0.402-0.238-0.707 -0.363-0.417-0.988-0.827-1.938-0.484 -2.299 0.83-4.131 4.045-5.262 6.599 -0.984 2.218-2.49 6.313-2.758 8.467 -0.072 0.576 0.045 1.39 0.17 2.251 0.135 0.945 0.273 1.924 0.141 2.504C155.336 99.003 154.518 100.116 153.727 101.196zM159.434 82.787c0.611-1.075 1.361-2.173 2.211-2.995 0.488 0.98 3.32 7.141 1.145 14.28C162.697 89.271 159.879 83.646 159.434 82.787zM152.27 104.275c0.254-0.829 0.998-1.846 1.721-2.832 0.816-1.111 1.658-2.26 1.885-3.242 0.148-0.66 0.004-1.679-0.137-2.664 -0.115-0.795-0.23-1.617-0.166-2.134 0.068-0.563 0.227-1.266 0.438-2.031 0.691 0.561 3.449 3.299 0.965 9.562 -0.191 0.14-0.375 0.263-0.543 0.343 -0.771 0.369-1.074 0.946-1.369 1.505 -0.326 0.618-0.662 1.258-1.666 1.733C152.721 104.836 152.379 104.439 152.27 104.275z"
                          data-colored="true" data-filltype="sd3" data-stroketype="none" fill="#70381f"
                          stroke-width="none" opacity="1" stroke="none"></path>
                </g>
                <g id="svga-group-faceshape-wrap" data-updown="0" data-leftright="0" data-dist="0" data-scaleX="1"
                   data-scaleY="1" data-rotate="0"
                   transform="matrix(0.99999989 0 0 0.99999989 0.00001100000000064938 0.000009012134867703026)">
                    <g id="svga-group-faceshape-single" data-updown="0" data-leftright="0" data-dist="0" data-scaleX="1"
                       data-scaleY="1" data-rotate="0">
                        <path id="SvgjsPath4318"
                              d="M100.002 0.867C66.384 0.92 39.082 28.536 39.134 62.56c0.009 5.403 0.704 10.643 2.002 15.634h0.001c0.012 0.054 8.12 35.809 11.82 47.522 2.775 8.787 14.288 21.989 22.398 25.322 7.826 3.217 13.039 9.828 24.646 9.828s16.82-6.611 24.646-9.828c8.11-3.333 19.624-16.535 22.398-25.322 3.7-11.713 11.809-47.468 11.819-47.522h0.002c1.298-4.992 1.994-10.231 2.002-15.634C160.923 28.536 133.62 0.92 100.002 0.867z"
                              data-colored="true" data-filltype="tone" data-stroketype="none" fill="#9e705b"
                              stroke-width="none" opacity="1"></path>
                        <path id="SvgjsPath4319"
                              d="M140.727 16.737c10.424 11.164 16.867 26.574 16.844 43.586 -0.009 5.403-0.666 10.643-1.894 15.634h-0.001c-0.011 0.054-7.681 35.809-11.18 47.522 -2.623 8.788-13.515 21.989-21.184 25.322 -7.403 3.216-12.333 9.829-23.31 9.829 -10.978 0-15.908-6.613-23.309-9.829 -7.671-3.333-18.56-16.534-21.184-25.322 -3.5-11.713-11.168-47.468-11.18-47.522h-0.001c-1.229-4.992-1.886-10.231-1.894-15.634 -0.025-17.011 6.418-32.419 16.84-43.583C46.893 28.034 39.106 44.38 39.134 62.56c0.009 5.403 0.704 10.643 2.002 15.634h0.001c0.012 0.054 8.12 35.809 11.82 47.522 2.775 8.787 14.288 21.989 22.398 25.322 7.826 3.217 13.039 9.828 24.646 9.828s16.82-6.611 24.646-9.828c8.11-3.333 19.624-16.535 22.398-25.322 3.7-11.713 11.809-47.468 11.819-47.522h0.002c1.298-4.992 1.994-10.231 2.002-15.634C160.898 44.378 153.111 28.031 140.727 16.737z"
                              data-colored="true" data-filltype="sd05" data-stroketype="none" fill="#96654f"
                              stroke-width="none" opacity="1"></path>
                        <path id="SvgjsPath4320"
                              d="M100.002 0.867C66.384 0.92 39.082 28.536 39.134 62.56c0.009 5.403 0.704 10.643 2.002 15.634h0.001c0.012 0.054 8.12 35.809 11.82 47.522 2.775 8.787 14.288 21.989 22.398 25.322 7.826 3.217 13.039 9.828 24.646 9.828s16.82-6.611 24.646-9.828c8.11-3.333 19.624-16.535 22.398-25.322 3.7-11.713 11.809-47.468 11.819-47.522h0.002c1.298-4.992 1.994-10.231 2.002-15.634C160.923 28.536 133.62 0.92 100.002 0.867z"
                              data-colored="true" data-filltype="none" data-stroketype="sd3" fill="none"
                              stroke="#70381f" stroke-width="1.5" opacity="1"></path>
                    </g>
                </g>
                <g id="svga-group-mouth-single" data-updown="0" data-leftright="0" data-dist="0" data-scaleX="1"
                   data-scaleY="1" data-rotate="0">
                    <path id="SvgjsPath3623"
                          d="M99.825 142.068c-3.24 0-4.753-2.802-4.753-2.802s4.797 0.781 9.279-0.064C104.352 139.202 102.675 142.068 99.825 142.068z"
                          data-colored="false" data-filltype="gradient" data-stroketype="none" data-fromskin="true"
                          fill="url(#SvgjsLinearGradient3624)" opacity="1"></path>
                    <path id="SvgjsPath3627"
                          d="M95.211 139.349c-0.132-0.039-0.23-0.149-0.208-0.285 0.021-0.137 0.151-0.224 0.286-0.209 3.612 0.857 5.963 0.661 8.766-0.043 0.145-0.035 0.27 0.062 0.297 0.195s-0.063 0.256-0.193 0.296C101.098 140.207 98.142 140.241 95.211 139.349zM85.447 133.958c0.313-0.144 0.582-0.086 1.073-0.115 1.419-0.249 3.128-0.323 4.54-0.611 1.348-0.274 2.774-0.662 4.158-0.597 1.488 0.071 2.879 0.669 4.353 0.829 1.401 0.151 2.708-0.229 4.053-0.557 1.542-0.376 3.01-0.287 4.56 0.006 1.938 0.363 3.774 0.857 5.689 1.038 0.582 0.055 0.365 0.413 0.032 0.454 -1.713 0.205-3.431-0.068-5.194-0.249 -1.425-0.146-2.868-0.329-4.274 0.021 -1.518 0.379-3.437 0.822-4.605 0.808 -1.3-0.017-2.521-0.538-3.784-0.807 -1.551-0.327-3.091-0.02-4.647 0.143 -1.938 0.201-3.672 0.34-5.579 0.047C85.312 134.29 85.306 134.023 85.447 133.958z"
                          data-colored="true" data-filltype="sd3" data-stroketype="none" data-fromskin="true"
                          fill="#70381f" stroke-width="none" opacity="1" stroke="none"></path>
                </g>
                <g id="svga-group-eyes-left" data-updown="0" data-leftright="0" data-dist="0" data-scaleX="1"
                   data-scaleY="1" data-rotate="0">
                    <g id="svga-group-eyesback-left">
                        <path id="SvgjsPath4046"
                              d="M76.732 78.383c4.587 0.679 7.931 3.488 10.773 7.94 0.004 0.005 0.013 0.004 0.018 0.008 0.007 0.027 0.021 0.053 0.026 0.08 0.255 1.007-0.816 1.819-2.155 2.438 -4.771 0.609-9.359 1.489-14.194 0.87 -9.681-1.241-9.855-5.509-10.326-6.629 -0.252-1.101-0.325-1.417-0.311-2.473 2.332-1.366 4.043-1.647 5.854-2.005C68.541 78.194 73.268 77.868 76.732 78.383z"
                              data-colored="false" data-filltype="gradient" data-stroketype="none"
                              fill="url(#SvgjsRadialGradient4047)" opacity="1"></path>
                    </g>
                    <g id="svga-group-eyesiriswrapper-left" transform="translate(0.25 0)">
                        <g id="svga-group-eyesiriscontrol-left" data-updown="0" data-leftright="0" data-dist="0"
                           data-scaleX="1" data-scaleY="1" data-rotate="0">
                            <g id="svga-group-eyesiris-left" data-updown="0" data-leftright="0" data-dist="0"
                               data-scaleX="1" data-scaleY="1" data-rotate="0">
                                <path id="SvgjsPath4164"
                                      d="M79.788 85.588c-0.869 3.192-4.16 5.073-7.358 4.196 -3.195-0.876-5.083-4.178-4.212-7.371 0.868-3.195 4.167-5.076 7.362-4.198C78.773 79.09 80.658 82.392 79.788 85.588z"
                                      data-colored="true" data-filltype="tone" data-stroketype="sd3" fill="#4d3623"
                                      stroke="#1f1105" stroke-width="0.5" opacity="1"></path>
                                <path id="SvgjsPath4165"
                                      d="M73.265 80.413l-0.156-0.279c-0.548 0.218-1.076 0.445-1.575 0.687l0.37 0.894 -0.047 0.517 -1.426-0.839c-0.466 0.259-0.898 0.529-1.318 0.804l0.004 0.009 -0.489 0.55 0.781 0.799 -1.052 0.574 0.398 0.657 1.857 0.185 -1.741 1.181 1.863-0.103 -0.982 1.693 2.297-1.39 -0.618 2.364 1.329-2.184 0.256 2.343 0.384-2.072 0.353-0.043 0.5 2.35 0.152-0.705c0.201-0.052 0.718 0.704 0.915 0.651L74.736 86.5l1.282 2.556 -0.52-2.651 1.578 2.05c0.057-0.018 0.196-0.85 0.252-0.867l-0.982-1.469 1.785 0.539 -1.071-1.16 -0.86-0.712 3.586 0.803 -1.997-1.217 1.411-0.577 -3.055-0.309 3.021-1.602 -2.734 0.698 -0.736-0.399 -0.181-0.354 0.052-0.846 0.061-1.389 -1.248 2.198 -0.11-1.609 -0.157-0.421c-0.25 0.087-0.495 0.172-0.736 0.265L73.265 80.413z"
                                      data-colored="true" data-filltype="hl1" data-stroketype="none" fill="#5c4633"
                                      stroke-width="none" opacity="1"></path>
                                <path id="SvgjsPath4166"
                                      d="M79.856 82.755c-5.242 0.239-7.907 1.36-11.707 2.631 -0.732-3.229 1.298-6.438 4.53-7.164S79.125 79.525 79.856 82.755z"
                                      data-colored="true" data-filltype="sd1" data-stroketype="none" fill="#3e2816"
                                      stroke-width="none" opacity="0.9"></path>
                                <path id="SvgjsPath4167"
                                      d="M74.869 81.998c-1.319-0.378-2.666 0.375-3.005 1.69 -0.342 1.308 0.452 2.678 1.771 3.056 1.32 0.379 2.667-0.375 3.009-1.684C76.987 83.745 76.19 82.376 74.869 81.998z"
                                      data-colored="false" data-filltype="#000000" data-stroketype="none" fill="#000000"
                                      stroke-width="none" opacity="0.8"></path>
                                <path id="SvgjsPath4168"
                                      d="M74.869 81.998c-1.319-0.378-2.666 0.375-3.005 1.69 -0.342 1.308 0.452 2.678 1.771 3.056 1.32 0.379 2.667-0.375 3.009-1.684C76.987 83.745 76.19 82.376 74.869 81.998z"
                                      data-colored="true" data-filltype="none" data-stroketype="sd3" fill="none"
                                      stroke="#1f1105" stroke-width="0.75" opacity="1"></path>
                                <path id="SvgjsPath4169"
                                      d="M69.631 87.56c0.613 0.973 1.426 1.706 2.578 1.95 1.326 0.281 1.477-1.483 0.528-1.685 -0.72-0.152-1.176-0.505-1.552-1.102C70.497 85.63 69.079 86.684 69.631 87.56L69.631 87.56z"
                                      data-colored="false" data-filltype="#ffffff" data-stroketype="none" fill="#ffffff"
                                      stroke-width="none" opacity="0.4"></path>
                                <path id="SvgjsPath4170"
                                      d="M75.033 81.493c0.929 0.187 1.469 0.768 1.938 1.64 0.862 1.604 3.299 0.178 2.437-1.425 -0.757-1.408-2.019-2.613-3.625-2.938C73.726 78.355 73.438 81.171 75.033 81.493L75.033 81.493z"
                                      data-colored="false" data-filltype="gradient" data-stroketype="none"
                                      fill="url(#SvgjsLinearGradient4171)" opacity="1"></path>
                            </g>
                        </g>
                    </g>
                    <g id="svga-group-eyesfront-left">
                        <path id="SvgjsPath4071"
                              d="M55.112 83.583c3.224 11.315 7.475 23.313 17.685 23.669s22.135-7.239 22.29-22.238c0.173-16.767-10.474-23.381-20.684-23.737S50.307 66.714 55.112 83.583zM60.875 83.09c-0.252-1.101-0.325-1.417-0.311-2.473 2.027-1.21 4.04-1.547 5.851-1.905 2.123-0.418 6.853-0.845 10.317-0.329 4.587 0.679 7.931 3.488 10.773 7.94 0.004 0.005 0.013 0.004 0.018 0.008 0.007 0.027 0.021 0.053 0.026 0.08 0.255 1.007-0.816 1.819-2.155 2.438 -4.771 0.609-9.359 1.489-14.194 0.87C61.519 88.478 61.345 84.21 60.875 83.09z"
                              data-colored="true" data-filltype="tone" data-stroketype="none" data-fromskin="true"
                              fill="#9e705b" stroke-width="none" opacity="1" stroke="none"></path>
                        <path id="SvgjsPath4072"
                              d="M74.225 95.171c9.256 1.401 17.847-3.01 19.186-9.859 1.34-6.849-5.072-13.537-14.329-14.94 -9.258-1.399-17.845 3.012-19.185 9.862C58.557 87.082 64.967 93.766 74.225 95.171zM60.563 80.617c2.125-1.141 4.04-1.547 5.851-1.905 2.123-0.418 6.853-0.845 10.317-0.329 4.587 0.679 7.931 3.488 10.773 7.94 0.004 0.005 0.013 0.004 0.018 0.008 0.007 0.027 0.021 0.053 0.026 0.08 0.255 1.007-0.816 1.819-2.155 2.438 -4.771 0.609-9.359 1.489-14.194 0.87 -9.681-1.241-9.855-5.509-10.326-6.629C60.622 81.989 60.55 81.672 60.563 80.617z"
                              data-colored="false" data-filltype="gradient" data-stroketype="none" data-fromskin="true"
                              fill="url(#SvgjsRadialGradient4073)" opacity="1"></path>
                        <path id="SvgjsPath4077"
                              d="M60.875 83.09c-0.252-1.101-0.325-1.417-0.311-2.473 2.092-1.175 4.04-1.547 5.851-1.905 2.123-0.418 6.853-0.845 10.317-0.329 4.587 0.679 7.931 3.488 10.773 7.94 0.004 0.005 0.013 0.004 0.018 0.008 0.007 0.027 0.021 0.053 0.026 0.08 0.255 1.007-0.816 1.819-2.155 2.438 -4.771 0.609-9.359 1.489-14.194 0.87C61.519 88.478 61.345 84.21 60.875 83.09z"
                              data-colored="false" data-filltype="gradient" data-stroketype="none"
                              fill="url(#SvgjsRadialGradient4078)" opacity="1"></path>
                        <path id="SvgjsPath4081"
                              d="M76.327 75.748c3.294 0.539 6.505 2.054 9.48 3.945 0.637 0.404 1.366 0.865 2.521 1.451 -0.828-0.188-1.594-0.617-2.309-1.011 0.736 0.698 1.422 1.529 1.982 2.334 -2.521-3.159-7.297-5.538-11.36-6.349 -3.902-0.779-10.989-0.264-16.251 2.042C65.208 75.449 72.237 75.08 76.327 75.748z"
                              data-colored="true" data-filltype="sd3" data-stroketype="none" data-fromskin="true"
                              fill="#70381f" stroke-width="none" opacity="1" stroke="none"></path>
                        <path id="SvgjsPath4082"
                              d="M87.508 86.277c-2.847-4.34-6.193-7.082-10.781-7.747 -4.833-0.705-11.271-0.221-15.034 1.843 -0.308 0.169-1.607 1.249-1.401 0.117 0.874-1.167 4.322-2.523 5.993-2.928C85.03 73.019 88.582 87.854 87.508 86.277zM60.646 82.841c-0.716 2.063 0.861 6.654 10.145 7.503 6.595 0.602 15.767-1.75 14.634-1.613 -4.779 0.589-9.375 1.449-14.219 0.839C60.224 88.19 61.468 83.023 60.646 82.841z"
                              data-colored="true" data-filltype="tone" data-stroketype="none" fill="#000000"
                              stroke-width="none" opacity="1" stroke="none"></path>
                    </g>
                </g>
                <g id="svga-group-eyes-right" data-updown="0" data-leftright="0" data-dist="0" data-scaleX="1"
                   data-scaleY="1" data-rotate="0">
                    <g id="svga-group-eyesback-right">
                        <path id="SvgjsPath4054"
                              d="M122.867 78.383c-4.586 0.679-7.931 3.488-10.773 7.94 -0.004 0.005-0.012 0.004-0.018 0.008 -0.006 0.027-0.02 0.053-0.025 0.08 -0.256 1.007 0.815 1.819 2.154 2.438 4.771 0.609 9.359 1.489 14.194 0.87 9.681-1.241 9.855-5.509 10.325-6.629 0.253-1.101 0.325-1.417 0.312-2.473 -2.331-1.366-4.043-1.647-5.854-2.005C131.059 78.194 126.332 77.868 122.867 78.383z"
                              data-colored="false" data-filltype="gradient" data-stroketype="none"
                              fill="url(#SvgjsRadialGradient4055)" opacity="1"></path>
                    </g>
                    <g id="svga-group-eyesiriswrapper-right" transform="translate(-0.25 0)">
                        <g id="svga-group-eyesiriscontrol-right" data-updown="0" data-leftright="0" data-dist="0"
                           data-scaleX="1" data-scaleY="1" data-rotate="0">
                            <g id="svga-group-eyesiris-right" data-updown="0" data-leftright="0" data-dist="0"
                               data-scaleX="1" data-scaleY="1" data-rotate="0">
                                <path id="SvgjsPath4174"
                                      d="M131.788 85.587c-0.869 3.193-4.16 5.074-7.358 4.196 -3.195-0.876-5.082-4.178-4.212-7.371 0.867-3.195 4.167-5.076 7.361-4.198C130.774 79.091 132.658 82.393 131.788 85.587z"
                                      data-colored="true" data-filltype="tone" data-stroketype="sd3" fill="#4d3623"
                                      stroke="#1f1105" stroke-width="0.5" opacity="1"></path>
                                <path id="SvgjsPath4175"
                                      d="M125.266 80.413l-0.155-0.278c-0.548 0.217-1.076 0.445-1.576 0.686l0.37 0.894 -0.047 0.517 -1.426-0.839c-0.467 0.259-0.898 0.529-1.317 0.804l0.004 0.009 -0.49 0.551 0.782 0.799 -1.052 0.573 0.397 0.657 1.857 0.185 -1.741 1.181 1.863-0.103 -0.982 1.692 2.296-1.39 -0.616 2.364 1.328-2.184 0.257 2.343 0.384-2.073 0.353-0.043 0.501 2.35 0.151-0.704c0.201-0.052 0.719 0.703 0.915 0.651l-0.585-2.556 1.283 2.556 -0.521-2.651 1.577 2.05c0.057-0.018 0.197-0.85 0.253-0.867l-0.982-1.469 1.786 0.538 -1.071-1.16 -0.859-0.712 3.586 0.802 -1.997-1.216 1.411-0.577 -3.054-0.308 3.021-1.603 -2.734 0.698 -0.736-0.399 -0.18-0.354 0.052-0.847 0.061-1.388 -1.247 2.198 -0.11-1.609 -0.156-0.422c-0.25 0.087-0.495 0.173-0.735 0.265L125.266 80.413z"
                                      data-colored="true" data-filltype="hl1" data-stroketype="none" fill="#5c4633"
                                      stroke-width="none" opacity="1"></path>
                                <path id="SvgjsPath4176"
                                      d="M131.855 82.755c-5.24 0.239-7.906 1.36-11.706 2.631 -0.731-3.229 1.298-6.438 4.53-7.164C127.911 77.495 131.126 79.525 131.855 82.755z"
                                      data-colored="true" data-filltype="sd1" data-stroketype="none" fill="#3e2816"
                                      stroke-width="none" opacity="0.9"></path>
                                <path id="SvgjsPath4177"
                                      d="M126.87 81.998c-1.319-0.378-2.666 0.376-3.005 1.69 -0.343 1.308 0.451 2.678 1.77 3.056 1.322 0.379 2.668-0.375 3.009-1.684C128.987 83.745 128.189 82.376 126.87 81.998z"
                                      data-colored="false" data-filltype="#000000" data-stroketype="none" fill="#000000"
                                      stroke-width="none" opacity="0.8"></path>
                                <path id="SvgjsPath4178"
                                      d="M126.87 81.998c-1.319-0.378-2.666 0.376-3.005 1.69 -0.343 1.308 0.451 2.678 1.77 3.056 1.322 0.379 2.668-0.375 3.009-1.684C128.987 83.745 128.189 82.376 126.87 81.998z"
                                      data-colored="true" data-filltype="none" data-stroketype="sd3" fill="none"
                                      stroke="#1f1105" stroke-width="0.75" opacity="1"></path>
                                <path id="SvgjsPath4179"
                                      d="M121.632 87.56c0.612 0.973 1.426 1.706 2.577 1.95 1.326 0.281 1.478-1.482 0.528-1.685 -0.72-0.152-1.177-0.504-1.552-1.102C122.498 85.63 121.079 86.684 121.632 87.56L121.632 87.56z"
                                      data-colored="false" data-filltype="#ffffff" data-stroketype="none" fill="#ffffff"
                                      stroke-width="none" opacity="0.4"></path>
                                <path id="SvgjsPath4180"
                                      d="M127.034 81.493c0.929 0.187 1.469 0.767 1.938 1.639 0.862 1.604 3.3 0.178 2.437-1.425 -0.757-1.408-2.018-2.613-3.625-2.938C125.727 78.355 125.438 81.171 127.034 81.493L127.034 81.493z"
                                      data-colored="false" data-filltype="gradient" data-stroketype="none"
                                      fill="url(#SvgjsLinearGradient4181)" opacity="1"></path>
                            </g>
                        </g>
                    </g>
                    <g id="svga-group-eyesfront-right">
                        <path id="SvgjsPath4092"
                              d="M125.197 61.277c-10.211 0.356-20.857 6.97-20.685 23.737 0.154 15 12.079 22.595 22.29 22.238 10.21-0.356 16.187-17.323 17.685-23.669C148.517 66.512 135.407 60.921 125.197 61.277zM128.399 89.719c-4.835 0.619-9.423-0.261-14.194-0.87 -1.339-0.618-2.41-1.43-2.154-2.438 0.006-0.027 0.02-0.053 0.025-0.08 0.006-0.004 0.014-0.003 0.018-0.008 2.843-4.452 6.188-7.261 10.773-7.94 3.465-0.516 8.195-0.089 10.318 0.329 1.811 0.357 3.824 0.694 5.851 1.905 0.014 1.055-0.059 1.372-0.312 2.473C138.255 84.21 138.08 88.478 128.399 89.719z"
                              data-colored="true" data-filltype="tone" data-stroketype="none" data-fromskin="true"
                              fill="#9e705b" stroke-width="none" opacity="1" stroke="none"></path>
                        <path id="SvgjsPath4093"
                              d="M139.703 80.234c-1.34-6.85-9.928-11.261-19.186-9.862 -9.257 1.403-15.669 8.091-14.328 14.94 1.339 6.849 9.93 11.26 19.186 9.859C134.633 93.766 141.043 87.082 139.703 80.234zM138.725 83.09c-0.47 1.121-0.645 5.388-10.325 6.629 -4.835 0.619-9.423-0.261-14.194-0.87 -1.339-0.618-2.41-1.43-2.154-2.438 0.006-0.027 0.02-0.053 0.025-0.08 0.006-0.004 0.014-0.003 0.018-0.008 2.843-4.452 6.188-7.261 10.773-7.94 3.465-0.516 8.195-0.089 10.318 0.329 1.811 0.357 3.727 0.764 5.851 1.905C139.05 81.672 138.978 81.989 138.725 83.09z"
                              data-colored="false" data-filltype="gradient" data-stroketype="none" data-fromskin="true"
                              fill="url(#SvgjsRadialGradient4094)" opacity="1"></path>
                        <path id="SvgjsPath4098"
                              d="M138.725 83.09c0.253-1.101 0.325-1.417 0.312-2.473 -2.092-1.175-4.04-1.547-5.851-1.905 -2.123-0.418-6.854-0.845-10.318-0.329 -4.586 0.679-7.931 3.488-10.773 7.94 -0.004 0.005-0.012 0.004-0.018 0.008 -0.006 0.027-0.02 0.053-0.025 0.08 -0.256 1.007 0.815 1.819 2.154 2.438 4.771 0.609 9.359 1.489 14.194 0.87C138.08 88.478 138.255 84.21 138.725 83.09z"
                              data-colored="false" data-filltype="gradient" data-stroketype="none"
                              fill="url(#SvgjsRadialGradient4099)" opacity="1"></path>
                        <path id="SvgjsPath4102"
                              d="M123.273 75.748c-3.295 0.539-6.506 2.054-9.48 3.945 -0.637 0.404-1.367 0.865-2.521 1.451 0.828-0.188 1.594-0.617 2.309-1.011 -0.736 0.698-1.422 1.529-1.982 2.334 2.521-3.159 7.297-5.538 11.359-6.349 3.902-0.779 10.989-0.264 16.252 2.042C134.391 75.449 127.362 75.08 123.273 75.748z"
                              data-colored="true" data-filltype="sd3" data-stroketype="none" data-fromskin="true"
                              fill="#70381f" stroke-width="none" opacity="1" stroke="none"></path>
                        <path id="SvgjsPath4103"
                              d="M133.314 77.563c1.672 0.405 5.119 1.761 5.994 2.928 0.205 1.132-1.094 0.052-1.402-0.117 -3.764-2.064-10.201-2.548-15.033-1.843 -4.588 0.665-7.936 3.407-10.781 7.747C111.018 87.854 114.57 73.019 133.314 77.563zM128.395 89.57c-4.844 0.61-9.439-0.25-14.219-0.839 -1.134-0.137 8.038 2.215 14.633 1.613 9.284-0.849 10.861-5.44 10.145-7.503C138.131 83.023 139.376 88.19 128.395 89.57z"
                              data-colored="true" data-filltype="tone" data-stroketype="none" fill="#000000"
                              stroke-width="none" opacity="1" stroke="none"></path>
                    </g>
                </g>
                <g id="svga-group-facehighlight-single" data-updown="0" data-leftright="0" data-dist="0" data-scaleX="1"
                   data-scaleY="1" data-rotate="0">
                    <path id="SvgjsPath2885"
                          d="M141 113.974c0.035 22.622-18.292 40.994-40.938 41.025 -22.642 0.037-41.028-18.273-41.063-40.9 -0.035-22.62 18.292-41.064 40.937-41.1C122.579 72.964 140.967 91.349 141 113.974z"
                          data-colored="false" data-filltype="gradient" data-stroketype="none" data-fromskin="true"
                          fill="url(#SvgjsRadialGradient2886)" opacity="1"></path>
                    <path id="SvgjsPath2889"
                          d="M137.5 53.999c0 20.711-16.789 37.5-37.499 37.5 -20.711 0-37.501-16.789-37.501-37.5s16.79-37.5 37.501-37.5C120.711 16.499 137.5 33.288 137.5 53.999z"
                          data-colored="false" data-filltype="gradient" data-stroketype="none" data-fromskin="true"
                          fill="url(#SvgjsRadialGradient2890)" opacity="1"></path>
                </g>
                <g id="svga-group-eyebrows-left" data-updown="0" data-leftright="-1.0000001" data-dist="0"
                   data-scaleX="1" data-scaleY="1" data-rotate="1e-7"
                   transform="rotate(1e-7 72.64449691772461 69.27999877929688) translate(-1 0)">
                    <path id="SvgjsPath4192"
                          d="M52.488 73.87c7.475-9.383 20.338-7.822 30.878-6.314 2.681 0.384 5.441 0.672 8.07 1.336 1.884 0.475 3.365 2.622 1.851 4.356 -0.708 0.825-2.253 0.672-3.207 0.652C77.459 73.645 63.193 66.387 52.488 73.87z"
                          data-colored="true" data-filltype="#000000" data-stroketype="none" fill="#2a232b"
                          stroke-width="none" opacity="1"></path>
                </g>
                <g id="svga-group-eyebrows-right" data-updown="0" data-leftright="1.0000001" data-dist="0"
                   data-scaleX="1" data-scaleY="1" data-rotate="1e-7"
                   transform="rotate(1e-7 127.42899322509766 69.87300109863281) translate(1 0)">
                    <path id="SvgjsPath4193"
                          d="M147.577 73.49c-2.164-1.448-4.454-2.47-7.043-2.889 -9.497-1.54-27.586 4.79-32.341 3.45 -2.912-0.822-2.323-3.739-1.035-4.458 0.775-0.433 0.99-0.422 7.909-1.612C126.824 65.961 139.988 64.355 147.577 73.49z"
                          data-colored="true" data-filltype="#000000" data-stroketype="none" fill="#2a232b"
                          stroke-width="none" opacity="1"></path>
                </g>
                <g id="svga-group-nose-single" data-updown="-5.838672220806777e-17" data-leftright="0" data-dist="0"
                   data-scaleX="1.1000004200000002" data-scaleY="1.1000004200000002" data-rotate="0"
                   transform="matrix(1.1000003100000002 0 0 1.1000003100000002 -9.970931254639723 -11.27968470141127) translate(0 -1.0000000005838672e-7)">
                    <path id="SvgjsPath3576"
                          d="M91.115 115.499c-0.878 2.064 5.934 4.292 8.519 4.429 2.8 0.147 10.646-2.9 9.316-4.992 -1.399-2.195-6.643-0.286-8.906-0.286C97.792 114.649 92.291 112.745 91.115 115.499z"
                          data-colored="true" data-filltype="sd1" data-stroketype="none" data-fromskin="true"
                          fill="#8f5b44" stroke-width="none" opacity="1" stroke="none"></path>
                    <path id="SvgjsPath3577"
                          d="M101.857 117.058c-0.23-0.759 1.876-1.584 2.657-1.694 1.101-0.16 3.36 0.802 3.158 1.592 -0.184 0.698-2.148-0.533-2.86-0.429C104.078 116.634 102.075 117.769 101.857 117.058zM94.974 116.811c0.968 0 2.404 0.623 2.668 0.074 0.315-0.655-2.139-1.461-2.86-1.372 -0.596 0.07-2.733 1.315-2.439 1.839C92.617 117.833 93.698 116.811 94.974 116.811z"
                          data-colored="true" data-filltype="sd3" data-stroketype="none" data-fromskin="true"
                          fill="#70381f" stroke-width="none" opacity="1" stroke="none"></path>
                    <path id="SvgjsPath3578"
                          d="M100.089 111.999c0.607 0 1.742-0.74 1.792-2.23 0.201-6.008-0.956-23.833-1.792-23.77 -0.78 0.059-2.267 17.637-1.948 23.77C98.22 111.271 99.404 111.999 100.089 111.999z"
                          data-colored="true" data-filltype="hl2" data-stroketype="none" data-fromskin="true"
                          fill="#bda092" stroke-width="none" opacity="0.2" stroke="none"></path>
                </g>
                <g id="svga-group-beardwrap" data-updown="0" data-leftright="0" data-dist="0" data-scaleX="1"
                   data-scaleY="1" data-rotate="0"
                   transform="matrix(0.99999989 0 0 0.99999989 0.00001100000000064938 0.00000199429990743738)">
                    <g id="svga-group-beard-single" data-updown="0" data-leftright="0" data-dist="0" data-scaleX="1"
                       data-scaleY="1" data-rotate="0">
                        <path id="SvgjsPath4363"
                              d="M120.87 131.85c-0.01-2.22-0.6-4.27-2.97-5.26 -3.38-1.41-7.77-2.78-11.12-4.25 -1.82-0.8-3.46-0.9-4.41 1.07 -1.12 2.34 0.71 2.9 2.42 3.51 13.48 4.78 13.84 2.15 13.48 19.3 -0.08 3.68-1.87 5.58-4.38 6.91 -2.62 1.38-4.31-1.11-5.94-2.77 -2.27-2.3-4.47-4.67-7.95-8.34v0c0 0 0 0 0 0 0 0 0 0 0 0v0c-3.48 3.67-5.68 6.04-7.95 8.34 -1.63 1.66-3.31 4.15-5.94 2.77 -2.51-1.32-4.31-3.23-4.38-6.91 -0.36-17.15 0-14.52 13.48-19.3 1.71-0.61 3.54-1.18 2.42-3.51 -0.95-1.97-2.59-1.87-4.41-1.07 -3.35 1.47-7.74 2.84-11.12 4.25 -2.37 0.99-2.96 3.04-2.97 5.26 -0.02 7.07-0.24 14.15 0.19 21.2 0.38 6.18 14.6 17.58 20.68 16.79 6.08 0.79 20.3-10.62 20.68-16.79C121.11 146 120.89 138.92 120.87 131.85z"
                              data-colored="true" data-filltype="tone" data-stroketype="none" fill="#3b3128"
                              stroke-width="none" opacity="1"></path>
                        <path id="SvgjsPath4364"
                              d="M103 167c0-2 0.16-2.67 1-5 -2.06 2.82-2.1 3.8-3.6 5.2 0-1-0.4-3.2-0.4-4.2 -0.74 0.74-1.02 3.64-1.45 4.29C98.34 166.17 96 164.62 96 163c-1 2 1 3 1 5 -7.12-4.45-14.15-8.38-17.75-16.01 0.04 1.05 0 0 0.06 1.05 0.38 6.18 14.6 17.58 20.68 16.79 6.08 0.79 20.3-10.62 20.68-16.79 0.11-1.86 0.08 0 0.11-1.86C118.12 159.93 111.31 163.68 103 167z"
                              data-colored="true" data-filltype="sd1" data-stroketype="none" fill="#2c2219"
                              stroke-width="none" opacity="1"></path>
                    </g>
                </g>
                <g id="svga-group-mustache-single" data-updown="0" data-leftright="0" data-dist="0" data-scaleX="1"
                   data-scaleY="1" data-rotate="0">
                    <path id="SvgjsPath4358" d="M100,18.13L100,18.13L100,18.13L100,18.13z" data-colored="true"
                          data-filltype="tone" data-stroketype="none" fill="#2a232b" stroke-width="none"
                          opacity="1"></path>
                </g>
                <g id="svga-group-hair-front" data-updown="0" data-leftright="0" data-dist="0" data-scaleX="1"
                   data-scaleY="1" data-rotate="0"
                   transform="matrix(0.99999989 0 0 0.99999989 0.000011002035137153143 0.000004787915024451195)">
                    <path id="SvgjsPath4340"
                          d="M150.81 99.442c-0.208 0-0.427-0.01-0.651-0.029 -1.972-6.396 0.331-15.486 4.25-20.951 -2.674-7.41 2.494-3.557 1.635-12.393 -0.155-1.27 0.052-2.412 0.479-3.584 -1.269-3.313-1.619-7.189-1.198-9.319 -3.629-9.571-4.898-3.055-6.83-14.894 -2.96-1.071-8.371-5.169-10.667-6.959 -5.957-4.648-14.879 9.828-22.333 4.959 -4.442 4.032-12.805 3.311-15.521 2.409 -3.829 1.928-11.513 0.935-15.506-2.411 -6.414 4.608-9.373-6.881-20.2-6.579 -6.807 4.91-4.954 5.704-12.766 8.582 -0.698 4.549-0.054 5.279-3.703 9.208 -2.154 2.286-2.162 3.08-3.032 5.394l-0.156 0 0.053 0.271 -0.038 0.099 0.071 0.074c0.474 2.586-0.39 6.584-1.227 9.184 1.617 4.484-1.381 5.75 1.942 10.274 1.073 1.461 1.47 2.024 0.169 5.686 4.717 6.58 6.05 16.876 4.265 20.953 -7.124 0.687-6.721-9.202-7.304-12.656 -1.365-9.695-11.698-2.623-9.94-11.778 -2.641-2.091-1.968-4.754-1.073-8.9 -2.452-5.161-7.248-23.656 0.681-28.05 -0.558-6.983 2.841-13.939 8.591-16.91 0.856-6.626 9.141-16.875 15.649-15.523 1.494-7.913 15.707-17.864 21.96-13.427 4.878-4.65 15.003-6.226 21.571-4.299 7.221-1.883 16.184-0.474 21.605 4.291 6.435-4.408 20.349 5.649 21.952 13.405 7.113-0.673 14.411 8.336 15.669 15.567 5.934 3.057 9.076 10.023 8.574 16.897 7.476 4.135 3.791 20.938 0.694 28.041 0.689 3.6 1.757 6.655-1.079 8.909 1.897 9.601-8.953 0.934-10.171 13.722C156.838 92.721 156.198 99.442 150.81 99.442L150.81 99.442z"
                          data-colored="true" data-filltype="tone" data-stroketype="none" fill="#080806"
                          stroke-width="none" opacity="1"></path>
                    <path id="SvgjsPath4341"
                          d="M160.293 77.838c-0.832 0.07-1.664-1.301-2.496-1.301 0-5.101 3.042-8.163 6.084-11.223 -1.014 0-2.027-2.041-3.042-1.021 -3.042-5.102 2.028-10.203 4.057-14.285 -6.085 1.021-11.154-6.121-7.099-11.223 0.704 0 1.408-0.982 2.112-1.242 -3.592-0.822-6.327-1.118-8.196-4.88 -1.014-3.061 0-6.122 2.028-9.182 -6.084 4.082-14.196 2.041-18.251-4.081 0-1.021 0-3.062 0-4.082 -2.029 5.102-7.099 9.182-13.183 7.142 -1.646 0-4.63-1.345-5.694-4.037 0.181 2.555-0.609 5.058-1.404 5.058 -6.084 3.06-14.195-1.021-15.209-8.163 0 4.082-2.028 9.182-4.056 10.203 -5.07 3.061-11.154-3.062-9.126-10.203 -2.028 7.142-8.112 10.203-14.196 8.163 -3.042-1.021-7.098-3.061-7.098-8.163 -3.042 7.142-11.154 14.284-16.224 5.102 3.042 8.162-2.577 17.345-8.244 17.345 4.015 5.491 1.147 17.345-5.951 17.345 8.111 2.041 4.056 11.223 5.069 17.345 -0.905 0-1.811 1.623-2.717 1.243 8.477 5.359 10.408 15.83 12.063 25.733 0.107-0.005 0.211-0.006 0.323-0.016 1.785-4.077 0.452-14.374-4.265-20.953 1.301-3.662 0.904-4.225-0.169-5.686 -3.323-4.524-0.325-5.79-1.942-10.274 0.837-2.599 1.701-6.598 1.227-9.184l-0.071-0.074 0.038-0.099 -0.053-0.271 0.156 0c0.87-2.314 0.878-3.108 3.032-5.394 3.649-3.93 3.005-4.66 3.703-9.208 7.813-2.878 5.959-3.672 12.766-8.582 10.827-0.302 13.786 11.187 20.2 6.579 3.993 3.346 11.677 4.338 15.506 2.411 2.717 0.902 11.079 1.623 15.521-2.409 7.454 4.869 16.376-9.607 22.333-4.959 2.296 1.79 7.707 5.888 10.667 6.959 1.932 11.839 3.201 5.323 6.83 14.894 -0.421 2.13-0.07 6.007 1.198 9.319 -0.427 1.172-0.634 2.314-0.479 3.584 0.859 8.836-4.309 4.983-1.635 12.393 -3.695 5.154-5.95 13.526-4.543 19.829C148.86 90.198 152.749 81.539 160.293 77.838z"
                          data-colored="true" data-filltype="sd1" data-stroketype="none" fill="#000000"
                          stroke-width="none" opacity="1"></path>
                    <path id="SvgjsPath4342"
                          d="M132.061 10.84c1.719-1.024 8.918-0.546 10.395-5.612C142.833 11.226 136.312 11.595 132.061 10.84zM148.412 10.075c2.97 0.951 4.813 6.225 5.07 7.524C154.263 14.153 152.04 9.675 148.412 10.075zM149.553 16.707c1.437 1.297 0.971 5.101 0.507 6.122C151.689 21.296 151.909 17.608 149.553 16.707zM147.398 17.982c0.111 2.74-0.195 4.648-1.648 6.632C148.398 23.297 148.441 20.748 147.398 17.982zM155.383 23.339c0.788-0.513 5.585-0.415 6.084 0.766C161.489 21.83 156.615 21.84 155.383 23.339zM153.482 28.058c4.019-0.083 3.455-1.2 7.604-0.893C158.206 25.239 155.729 27.129 153.482 28.058zM158.806 29.716c-0.858 1.02-2.829 1.62-2.915 4.208C157.111 31.625 157.822 31.719 158.806 29.716zM162.861 36.093c3.256 1.638 4.257 3.755 5.07 7.27C168.833 39.356 167.064 36.289 162.861 36.093zM164.129 40.684c1.822 1.815 1.932 5.626 0.887 8.035C167.424 46.734 167.503 42.097 164.129 40.684zM162.607 43.618c-0.374 1.859-1.179 2.688-2.154 4.846C162.014 47.274 162.925 45.685 162.607 43.618zM163.621 55.606 163.621 55.606c1.053 3.215 1.918 4.353 0.635 6.505C166.854 60.487 165.595 57.942 163.621 55.606zM162.101 56.755c-0.05 1.904-0.276 3.379-1.394 5.739C162.271 61.371 163.026 59.411 162.101 56.755zM127.752 13.263c0.51 2.492 4.538 3.179 4.538 3.179 1.04 0.244 2.542 0.184 3.447-0.5C134.647 16.127 128.78 14.629 127.752 13.263zM122.809 8.8c1.536-2.926 4.926-4.827 8.111-5.357C126.71 2.296 123.261 4.881 122.809 8.8zM120.4-3.827c1.942 1.783 1.96 4.773 2.027 8.672C123.975 1.994 123.902-2.445 120.4-3.827zM121.414-5.485c1.539 0.299 3.979 4.701 4.184 5.74C126.17-2.325 123.604-5.916 121.414-5.485zM118.879-1.786c0.318 3.139 0.03 5.48-1.646 8.162C120.269 4.559 120.521 1.362 118.879-1.786zM115.711 7.652c-5.082 0.921-7.161 7.895-5.45 12.499C110.482 18.128 112.168 10.188 115.711 7.652zM110.641 3.825c-9.45 3.409-8.715 14.028-5.07 16.453C104.695 18.888 103.081 10.255 110.641 3.825zM99.614 4.081c-5.041 7.576 0.793 12.744 2.918 16.666C101.128 15.722 97.8 10.264 99.614 4.081zM107.473-2.806c-1.478 0.201-5.937-0.941-6.338 2.55C102.744-2.686 105.359-1.298 107.473-2.806zM110.768-4.464c-4.262-4.366-5.752-2.456-6.465-1.914C106.896-7.17 108.012-5.867 110.768-4.464zM108.613-9.821c3.063 0.032 5.401 2.261 6.211 5.229C115.605-8.087 112.316-11.478 108.613-9.821zM78.193-0.639c3.703-3.293 7.981-6.629 12.421-5.102C86.39-9.9 80.756-5.989 78.193-0.639zM83.137-0.128c-7.265 6.348-1.188 12.163 1.141 11.861C83.263 11.249 79.169 7.446 83.137-0.128zM85.291 4.335c1.063 0.854 1.756 1.699 2.028 4.846C88.166 7.073 87.671 5.06 85.291 4.335zM92.896-0.639c0.103 0.381 1.558 5.335 1.167 5.335 -0.128 1.343-0.398 1.915-1.04 3.083C97.603 5.28 93.521 0.39 92.896-0.639zM92.263-3.699c4.813-0.473 4.962 5.761 4.689 7.524C99.773-0.397 96.927-6.515 92.263-3.699zM80.221 13.901c2.226 0.595 0.982 3.246 1.268 7.015C82.734 18.018 83.297 13.608 80.221 13.901zM75.166 9.612c-2.058-8.338-8.633-6.934-8.633-6.934 1.32-0.367 6.271 3.712 7.03 9.422 0.219 1.134 0.444 3.079 0.701 4.607C74.584 15.687 75.839 11.99 75.166 9.612zM68.307 8.162c2.32 1.8 0.981 7.046 0 9.821C71.302 15.007 72.167 9.307 68.307 8.162zM64.505 9.437c1.449 1.902-1.703 5.647-3.676 8.163C64.029 16.283 67.604 11.589 64.505 9.437zM69.194-6.25c-2.841-0.465-5.571 3.311-4.816 6.122C64.731-1.832 67.176-5.672 69.194-6.25zM67.8-2.551c-2.279 0.454-2.191 3.93-1.141 5.356C66.538 1.785 66.504-2.082 67.8-2.551zM53.351 11.478c-4.011-1.786-7.875-0.083-8.492 3.955C46.927 12.637 49.917 11.543 53.351 11.478zM51.069 15.049c-2.755-1.719-6.26 1.727-5.577 4.847C45.919 17.705 48.8 14.798 51.069 15.049zM49.422 18.365c-3.4 0.307-3.967 5.263-1.901 6.887C46.738 23.542 47.416 19.313 49.422 18.365zM40.93 23.722c2.196 1.012 4.552 2.976 4.277 2.976 0.792 1.14 0.959 1.559 1.299 2.891C47.386 25.745 44.818 24.23 40.93 23.722zM42.704 28.186c1.926 1.488 3.417 4.226 2.155 7.015C47.482 33.076 46.363 29.374 42.704 28.186zM40.485 29.368c-0.172-0.171-0.323-0.155-0.317-0.162 0.555 0.076 0.272 3.473-1.024 4.476 -0.413 0.455-1.79 1.805-2.271 2.284C42.358 34.09 41.5 30.358 40.485 29.368zM38.268 38.771c1.558 1.928 1.78 4.979 1.446 5.314 -0.309 2.233-0.127 1.246-0.558 3.614C41.32 45.208 42.168 41.147 38.268 38.771zM36.367 42.47c1.185 0.987 0.939 5.241-0.761 6.122C38.497 48.388 38.726 43.236 36.367 42.47zM32.691 42.98c1.353 1.627 0.405 2.484-3.802 7.27C33.319 48.206 35.744 44.46 32.691 42.98zM32.691 55.097c2.448 1.836 0.636 6.208-0.381 7.269C35.531 60.846 36.123 55.928 32.691 55.097zM36.747 59.178c1.534 0.44-0.776 4.06-1.648 5.101C37.811 62.885 39.197 59.095 36.747 59.178zM79.428 17.256c0.258 2.781-2.367 5.437-2.882 5.956C80.154 22.118 80.116 18.763 79.428 17.256zM120.893 18.134c0 0-1.006-1.314-1.76-2.405 0.485 2.857 2.174 5.255 5.07 5.782C123.805 21.214 120.893 18.54 120.893 18.134zM121.837 15.049c0.377 2.068 1.907 3.618 4.057 3.742C124.583 18.038 123.274 16.978 121.837 15.049zM166.453 68.786c-0.839 1.81-2.587 2.872-3.719 4.761C166.084 71.548 166.283 70.411 166.453 68.786zM165.438 73.887c-1.014 0.524-2.677 1.033-4.395 3.062C163.563 76.018 164.425 74.814 165.438 73.887zM32.944 68.105c0.782 1.301 1.849 2.354 3.042 3.062C35.235 69.891 34.186 68.863 32.944 68.105zM33.283 71.846c1.256 4.162 3.379 3.742 3.379 3.742C35.529 74.953 33.666 72.606 33.283 71.846z"
                          data-colored="true" data-filltype="hl1" data-stroketype="none" fill="#171714"
                          stroke-width="none" opacity="1"></path>
                    <path id="SvgjsPath4343"
                          d="M168.08 37.856c0.439-6.042-2.227-13.634-8.619-16.927 -1.242-7.001-8.668-16.365-15.699-15.692 -1.551-7.575-15.768-17.858-22.165-13.458 -4.675-4.112-13.479-6.324-21.624-4.224 -6.935-2.012-17.092-0.073-21.603 4.224 -6.164-4.382-20.718 5.766-22.167 13.458 -6.271-1.292-14.833 9.064-15.688 15.683 -5.429 2.796-9.194 9.783-8.627 16.937 -8.059 4.451-2.987 23.388-0.684 28.263 -0.237 1.117-0.891 3.905-0.762 5.112 0.011 0.459 0.029 0.765 0.039 0.765 0.294 1.02 0.365 1.988 1.783 3.111 -1.767 9.213 8.648 2.297 9.976 11.704 0.668 3.964 0.144 8.049 2.901 11.152 1.391 1.519 3.904 1.903 4.894 1.734 1.933-4.083 0.56-14.696-4.132-21.285 1.653-4.674 0.4-4.524-1.217-7.224 -1.506-2.513 0.361-5.153-0.911-8.692 1.407-4.349 1.496-7.771 1.189-9.316 0.01 0 0.01 0 0-0.01 0.94-2.462 0.88-3.187 3.04-5.479 3.719-4.005 3.097-4.882 3.755-9.192 7.218-1.782 5.407-3.808 12.522-7.778 5.82-3.248 13.681 10.589 20.163 5.931 1.431 1.197 2.509 1.708 4.121 2.347 0.724 0.221 0.59 0.26 1.822 0.469 0.268 0.031 6.23 0.379 6.23 0.102 0.588-0.06 2.819-0.285 3.368-0.561 0.933 0.311 2.433 0.465 3.369 0.561 0 0.01 1.622 0.112 3.229 0.112 3.639 0.142 6.949-1.239 8.932-3.03 7.635 4.975 16.719-9.591 23.073-4.03 5.963 5.219 7.936 5.26 9.635 5.877 0.054 0.33 0.259 2.477 0.386 3.296 1.094 5.448 3.712 4.289 6.398 11.396 -0.203 1.022-0.461 4.964 1.189 9.296 -0.367 1.02-0.627 2.225-0.458 3.611 0.842 8.636-4.333 4.96-1.673 12.314 -3.565 4.975-6.371 14.319-4.149 21.243 0.01 0.011 0.01 0.031 0.018 0.042 7.612 0.869 7.239-9.595 7.795-12.887 1.317-9.33 11.76-2.561 9.985-11.704 1.439-1.147 1.508-2.091 1.772-3.111 0.011 0 0.032-0.306 0.042-0.755 0.135-1.285-0.561-4.111-0.755-5.132C169.89 63.544 176.97 42.763 168.08 37.856zM168.662 64.64c-0.066 0.372-0.266 1.149-0.483 1.745 0.075 0.439 1.065 5.52 0.634 5.52 -0.313 1.021-0.106 1.572-1.517 2.918 1.396 8.56-9.47 1.01-11.043 11.715 -0.932 5.7 0.069 11.547-5.895 12.517 -1.192-5.739 1.433-15.507 4.29-20.477 -2.27-6.842 2.923-3.58 2.049-12.57 -0.159-1.346-0.021-2.284 0.269-3.306 -0.739-2.165-1.521-6.084-1.238-8.764 -2.384-8.027-0.61-3.267-4.884-9.112 -0.018-0.031-0.449-0.785-0.465-0.816l-0.01-0.011c-1.057-2.263-0.765-3.4-1.357-5.897 -0.002 0-5.551-2.566-10.486-6.758 -6.139-5.211-15.494 8.794-23.229 4.809 -3.995 3.086-11.915 2.875-15.313 2 -1.901 0.436-7.221 0.795-10.4 0.143 -0.081-0.017-1.438-0.418-1.506-0.439 -1.102-0.336-2.462-1.079-3.427-1.704 -6.963 4.059-14.429-11.927-21.948-5.806 -4.398 3.581-6.598 6.223-11.739 7.755 -0.396 1.02-0.226 3.548-1.367 5.897v0.011c0 0-0.219 0.767-2.307 2.969 -2.607 2.836-2.287 4.612-3.051 6.968 0.282 2.692-0.469 6.161-1.229 8.765 1.031 3.708-1.207 6.535 1.436 9.886 2.151 2.793 1.439 3.041 0.883 5.989 2.547 4.477 5.584 14.194 4.279 20.478 -10.286-1.63-0.016-17.209-12.887-19.346 -1.931-0.3-3.292-0.333-3.823-1.836 -0.31-0.895-0.318-2.528-0.229-3.062 -1.387-1.429-1.216-1.897-1.504-2.918 -0.504 0 0.623-5.02 0.623-5.509 -0.374-1.021-7.082-23.671 0.742-28.518 0-7.009 3.865-13.862 8.411-16.672 0.049-0.204 0.107-0.408 0.168-0.623 0-0.01 0.009-0.02 0.009-0.03 1.941-6.005 9.653-15.581 15.699-14.774 1.413-6.243 15.997-17.535 21.86-13.54 6.708-4.132 14.734-5.069 21.296-3.713 8.431-1.547 16.608 0.454 21.314 3.713 5.643-3.844 19.766 6.539 21.861 13.54 6.383-0.851 14.061 9.505 15.708 14.794v0.01c0.06 0.215 0.121 0.419 0.179 0.623 5.865 4.039 7.521 9 8.379 16.295 0 0.117 0.021 0.191 0.021 0.367C174.08 42.33 170.504 55.007 168.662 64.64z"
                          data-colored="true" data-filltype="sd3" data-stroketype="none" fill="#000000"
                          stroke-width="none" opacity="1"></path>
                </g>
                <g id="svga-group-glasses-single" data-updown="0" data-leftright="0" data-dist="0"
                   data-scaleX="0.94999979" data-scaleY="0.94999979" data-rotate="0"
                   transform="matrix(0.94999968 0 0 0.94999968 5.001032601496576 4.323027621423336)">
                    <path id="SvgjsPath4372"
                          d="M148.02 85.54c-0.11 1.96-0.35 4.05-0.59 6.25 -1.04 9.74-5.26 12.49-24.57 11.1 -6.3-0.45-11.06-4.04-13.41-10.1 -0.99-2.55-1.87-5.52-2.37-8.48C116.7 77.81 139.4 77.62 148.02 85.54zM51.98 85.54c0.11 1.96 0.35 4.05 0.59 6.25 1.04 9.74 5.26 12.49 24.57 11.1 6.3-0.45 11.06-4.04 13.41-10.1 0.99-2.55 1.87-5.52 2.37-8.48C83.3 77.81 60.6 77.62 51.98 85.54z"
                          data-colored="false" data-filltype="#ffffff" data-stroketype="none" fill="#ffffff"
                          stroke-width="none" opacity="0.2"></path>
                    <path id="SvgjsPath4373"
                          d="M148.02 85.54c-8.62-7.92-31.33-7.73-40.93-1.23 -0.36-2.11-0.52-4.22-0.36-6.16h0c0.66-7.81 13.45-6.88 20.98-7.17C146.33 70.26 148.56 76.34 148.02 85.54zM93.27 78.14L93.27 78.14c-0.66-7.81-13.45-6.88-20.99-7.17 -18.61-0.71-20.85 5.37-20.31 14.56 8.62-7.92 31.33-7.73 40.93-1.23C93.26 82.19 93.43 80.09 93.27 78.14z"
                          data-colored="false" data-filltype="#ffffff" data-stroketype="none" fill="#ffffff"
                          stroke-width="none" opacity="0.4"></path>
                    <path id="SvgjsPath4374"
                          d="M149.91 75.08c-0.62-1.42-1.48-2.7-2.56-3.65 -2.47-2.16-7.08-2.46-11.39-2.71 -4.19-0.23-12.15-0.42-17.46-0.08 -13.8 0.9-13.57 7-13.57 7 -1.81 0-8.03 0-9.84 0 0 0 0.23-6.11-13.57-7 -5.32-0.34-13.27-0.16-17.46 0.08 -4.31 0.24-8.93 0.55-11.39 2.71 -1.09 0.95-1.94 2.22-2.56 3.65l-8.19-1.58v3.99c7.17 1.38 9.02 1.82 10.02 1.76 -0.25 3.01-0.36 8.35 0.29 12.59 1.54 10.07 5.78 12.78 24.94 11.4 6.36-0.46 11.35-4.23 13.72-10.33 1.86-4.8 3.14-9.09 2.81-14.28h12.64c-0.33 5.19 0.95 9.49 2.81 14.28 2.36 6.1 7.36 9.87 13.72 10.33 19.17 1.38 23.41-1.33 24.94-11.4 0.65-4.24 0.54-9.58 0.29-12.59 1 0.06 2.85-0.38 10.02-1.76V73.5L149.91 75.08zM90.07 92.61c-2.27 5.87-6.88 9.35-12.98 9.78 -19.08 1.37-22.61-1.33-24.04-10.68 -0.76-5.01-0.35-11.52-0.25-12.52 0.19-0.03 0.31-0.06 0.32-0.1 1.09-6.36 6.45-8.42 29.02-7.35 3.73 0.18 6.92 0.88 8.69 2.75 1.04 1.09 2.04 2.66 1.95 4.17l0.04 0C93.02 81.2 92.44 86.5 90.07 92.61zM146.94 91.72c-1.43 9.35-4.96 12.05-24.04 10.68 -6.1-0.44-10.71-3.92-12.98-9.78 -2.37-6.11-2.94-11.41-2.74-13.95l0.04 0c-0.09-1.5 0.91-3.07 1.95-4.17 1.77-1.87 4.96-2.57 8.69-2.75 22.57-1.06 27.92 0.99 29.02 7.35 0.01 0.04 0.13 0.08 0.32 0.1C147.29 80.2 147.71 86.71 146.94 91.72z"
                          data-colored="true" data-filltype="tone" data-stroketype="none" fill="#2e0914"
                          stroke-width="none" opacity="1"></path>
                    <path id="SvgjsPath4375"
                          d="M104.94 75.34c0.17-1.26 1.63-5.92 13.54-6.69 5.32-0.34 13.27-0.16 17.46 0.08 4.31 0.24 8.93 0.55 11.39 2.71 1.09 0.95 1.94 2.22 2.56 3.65l0 0c-3.72-6.16-10.22-5.54-14.01-5.75 -2.3-0.13-6.21-0.27-10.28-0.27 -2.77 0-5.15 0.06-7.06 0.19C111.48 69.71 107.56 70.92 104.94 75.34zM95.06 75.34c-0.17-1.26-1.63-5.92-13.54-6.69 -5.32-0.34-13.27-0.16-17.46 0.08 -4.31 0.24-8.93 0.55-11.39 2.71 -1.09 0.95-1.94 2.22-2.56 3.65l0 0c3.72-6.16 10.22-5.54 14.01-5.75 2.3-0.13 6.21-0.27 10.28-0.27 2.77 0 5.15 0.06 7.06 0.19C88.52 69.71 92.44 70.92 95.06 75.34z"
                          data-colored="true" data-filltype="hl1" data-stroketype="none" fill="#3d121f"
                          stroke-width="none" opacity="1"></path>
                </g>
            </g>
        </g>
        <rect id="SvgjsRect1036" width="200" height="15" x="0" y="185" fill="#ecf0f1" opacity="0.5"
              style="display:none;"></rect>
        <text id="SvgjsText1037"
              font-family="&quot;Roboto&quot;, &quot;Helvetica Neue&quot;, Helvetica, Arial, sans-serif"
              style="font-size:0.84em;font-family:&quot;Roboto&quot;, &quot;Helvetica Neue&quot;, Helvetica, Arial, sans-serif;text-anchor:middle;font-weight:400;display:none;"
              font-size="0.84em" text-anchor="middle" font-weight="400" fill="#000000" x="100" y="185">
            <tspan id="SvgjsTspan1038" dy="1.2em" x="100"
                   style="font-size:0.84em;font-family:&quot;Roboto&quot;, &quot;Helvetica Neue&quot;, Helvetica, Arial, sans-serif;text-anchor:middle;font-weight:400;">
                Created on svgAvatars.com
            </tspan>
        </text>
    </g>
    <defs id="SvgjsDefs1001">
        <radialGradient id="SvgjsRadialGradient2886" cx="100" cy="114" r="41" gradientUnits="userSpaceOnUse"
                        class="svga-on-canvas-facehighlight-gradient-single-0">
            <stop id="SvgjsStop2887" stop-opacity="0.5" stop-color="#ad8775" offset="0" data-stoptype="hl1"></stop>
            <stop id="SvgjsStop2888" stop-opacity="0" stop-color="#9e705b" offset="0.9" data-stoptype="tone"></stop>
        </radialGradient>
        <radialGradient id="SvgjsRadialGradient2890" cx="100" cy="54" r="37" gradientUnits="userSpaceOnUse"
                        class="svga-on-canvas-facehighlight-gradient-single-1">
            <stop id="SvgjsStop2891" stop-opacity="0.5" stop-color="#ad8775" offset="0" data-stoptype="hl1"></stop>
            <stop id="SvgjsStop2892" stop-opacity="0" stop-color="#9e705b" offset="0.9" data-stoptype="tone"></stop>
        </radialGradient>
        <linearGradient id="SvgjsLinearGradient3372" x1="130" y1="69" x2="130" y2="109" gradientUnits="userSpaceOnUse"
                        class="svga-on-canvas-glasses-gradient-single-0">
            <stop id="SvgjsStop3373" stop-opacity="1" stop-color="#000000" offset="0" data-stoptype="#000000"></stop>
            <stop id="SvgjsStop3374" stop-opacity="0.8" stop-color="#000000" offset="1" data-stoptype="#000000"></stop>
        </linearGradient>
        <linearGradient id="SvgjsLinearGradient3376" x1="130" y1="69" x2="130" y2="109"
                        gradientTransform="matrix(-1 0 0 1 200 0)" gradientUnits="userSpaceOnUse"
                        class="svga-on-canvas-glasses-gradient-single-1">
            <stop id="SvgjsStop3377" stop-opacity="1" stop-color="#000000" offset="0" data-stoptype="#000000"></stop>
            <stop id="SvgjsStop3378" stop-opacity="0.8" stop-color="#000000" offset="1" data-stoptype="#000000"></stop>
        </linearGradient>
        <linearGradient id="SvgjsLinearGradient3624" x1="100" y1="142" x2="100" y2="139" gradientUnits="userSpaceOnUse"
                        class="svga-on-canvas-mouth-gradient-single-0">
            <stop id="SvgjsStop3625" stop-opacity="1" stop-color="#96654f" offset="0.1" data-stoptype="sd05"></stop>
            <stop id="SvgjsStop3626" stop-opacity="1" stop-color="#8f5b44" offset="1" data-stoptype="sd1"></stop>
        </linearGradient>
        <radialGradient id="SvgjsRadialGradient4047" cx="125.903" cy="85.096" r="13.25"
                        gradientTransform="matrix(-1.0996 0.0423 0.0635 0.9207 206.5488 0.5932)"
                        gradientUnits="userSpaceOnUse" class="svga-on-canvas-eyesback-gradient-left-0">
            <stop id="SvgjsStop4048" stop-opacity="1" stop-color="#ffffff" offset="0" data-stoptype="#ffffff"></stop>
            <stop id="SvgjsStop4049" stop-opacity="1" stop-color="#fdfefe" offset="0.544"
                  data-stoptype="#fdfefe"></stop>
            <stop id="SvgjsStop4050" stop-opacity="1" stop-color="#f6f8f9" offset="0.74" data-stoptype="#f6f8f9"></stop>
            <stop id="SvgjsStop4051" stop-opacity="1" stop-color="#eaeff2" offset="0.879"
                  data-stoptype="#eaeff2"></stop>
            <stop id="SvgjsStop4052" stop-opacity="1" stop-color="#d9e3e8" offset="0.992"
                  data-stoptype="#d9e3e8"></stop>
            <stop id="SvgjsStop4053" stop-opacity="1" stop-color="#d8e2e7" offset="1" data-stoptype="#d8e2e7"></stop>
        </radialGradient>
        <radialGradient id="SvgjsRadialGradient4055" cx="125.541" cy="85.113" r="13.249"
                        gradientTransform="matrix(1.0996 0.0423 -0.0635 0.9207 -6.5488 0.5932)"
                        gradientUnits="userSpaceOnUse" class="svga-on-canvas-eyesback-gradient-right-0">
            <stop id="SvgjsStop4056" stop-opacity="1" stop-color="#ffffff" offset="0" data-stoptype="#ffffff"></stop>
            <stop id="SvgjsStop4057" stop-opacity="1" stop-color="#fdfefe" offset="0.544"
                  data-stoptype="#fdfefe"></stop>
            <stop id="SvgjsStop4058" stop-opacity="1" stop-color="#f6f8f9" offset="0.74" data-stoptype="#f6f8f9"></stop>
            <stop id="SvgjsStop4059" stop-opacity="1" stop-color="#eaeff2" offset="0.879"
                  data-stoptype="#eaeff2"></stop>
            <stop id="SvgjsStop4060" stop-opacity="1" stop-color="#d9e3e8" offset="0.992"
                  data-stoptype="#d9e3e8"></stop>
            <stop id="SvgjsStop4061" stop-opacity="1" stop-color="#d8e2e7" offset="1" data-stoptype="#d8e2e7"></stop>
        </radialGradient>
        <radialGradient id="SvgjsRadialGradient4063" cx="125.903" cy="85.096" r="13.25"
                        gradientTransform="matrix(-1.0996 0.0423 0.0635 0.9207 206.5488 0.5932)"
                        gradientUnits="userSpaceOnUse" class="svga-on-canvas-eyesfront-gradient-left-0">
            <stop id="SvgjsStop4064" stop-opacity="1" stop-color="#ffffff" offset="0" data-stoptype="#ffffff"></stop>
            <stop id="SvgjsStop4065" stop-opacity="1" stop-color="#fdfefe" offset="0.544"
                  data-stoptype="#fdfefe"></stop>
            <stop id="SvgjsStop4066" stop-opacity="1" stop-color="#f6f8f9" offset="0.74" data-stoptype="#f6f8f9"></stop>
            <stop id="SvgjsStop4067" stop-opacity="1" stop-color="#eaeff2" offset="0.879"
                  data-stoptype="#eaeff2"></stop>
            <stop id="SvgjsStop4068" stop-opacity="1" stop-color="#d9e3e8" offset="0.992"
                  data-stoptype="#d9e3e8"></stop>
            <stop id="SvgjsStop4069" stop-opacity="1" stop-color="#d8e2e7" offset="1" data-stoptype="#d8e2e7"></stop>
        </radialGradient>
        <radialGradient id="SvgjsRadialGradient4073" cx="123.371" cy="81.442" fx="136.805" fy="80.36" r="17.038"
                        gradientTransform="matrix(0.9884 0.1367 0.1336 -0.7354 -56.0677 125.3)"
                        gradientUnits="userSpaceOnUse" class="svga-on-canvas-eyesfront-gradient-left-3">
            <stop id="SvgjsStop4074" stop-opacity="1" stop-color="#8f5b44" offset="0" data-stoptype="sd1"></stop>
            <stop id="SvgjsStop4075" stop-opacity="0.3" stop-color="#8f5b44" offset="0.7" data-stoptype="sd1"></stop>
            <stop id="SvgjsStop4076" stop-opacity="0" stop-color="#9e705b" offset="1" data-stoptype="tone"></stop>
        </radialGradient>
        <radialGradient id="SvgjsRadialGradient4078" cx="78.965" cy="81.143" r="26.237"
                        gradientTransform="matrix(0.7183 -0.06 0.0803 0.6143 8.7915 49.2595)"
                        gradientUnits="userSpaceOnUse" class="svga-on-canvas-eyesfront-gradient-left-4">
            <stop id="SvgjsStop4079" stop-opacity="0" stop-color="#000000" offset="0.95" data-stoptype="#000000"></stop>
            <stop id="SvgjsStop4080" stop-opacity="0.2" stop-color="#000000" offset="1" data-stoptype="#000000"></stop>
        </radialGradient>
        <radialGradient id="SvgjsRadialGradient4084" cx="125.541" cy="85.113" r="13.249"
                        gradientTransform="matrix(1.0996 0.0423 -0.0635 0.9207 -6.5488 0.5932)"
                        gradientUnits="userSpaceOnUse" class="svga-on-canvas-eyesfront-gradient-right-0">
            <stop id="SvgjsStop4085" stop-opacity="1" stop-color="#ffffff" offset="0" data-stoptype="#ffffff"></stop>
            <stop id="SvgjsStop4086" stop-opacity="1" stop-color="#fdfefe" offset="0.544"
                  data-stoptype="#fdfefe"></stop>
            <stop id="SvgjsStop4087" stop-opacity="1" stop-color="#f6f8f9" offset="0.74" data-stoptype="#f6f8f9"></stop>
            <stop id="SvgjsStop4088" stop-opacity="1" stop-color="#eaeff2" offset="0.879"
                  data-stoptype="#eaeff2"></stop>
            <stop id="SvgjsStop4089" stop-opacity="1" stop-color="#d9e3e8" offset="0.992"
                  data-stoptype="#d9e3e8"></stop>
            <stop id="SvgjsStop4090" stop-opacity="1" stop-color="#d8e2e7" offset="1" data-stoptype="#d8e2e7"></stop>
        </radialGradient>
        <radialGradient id="SvgjsRadialGradient4094" cx="122.972" cy="81.425" fx="136.406" fy="80.344" r="17.037"
                        gradientTransform="matrix(-0.9884 0.1367 -0.1336 -0.7354 255.271 125.3424)"
                        gradientUnits="userSpaceOnUse" class="svga-on-canvas-eyesfront-gradient-right-3">
            <stop id="SvgjsStop4095" stop-opacity="1" stop-color="#8f5b44" offset="0" data-stoptype="sd1"></stop>
            <stop id="SvgjsStop4096" stop-opacity="0.3" stop-color="#8f5b44" offset="0.7" data-stoptype="sd1"></stop>
            <stop id="SvgjsStop4097" stop-opacity="0" stop-color="#9e705b" offset="1" data-stoptype="tone"></stop>
        </radialGradient>
        <radialGradient id="SvgjsRadialGradient4099" cx="79.515" cy="81.186" r="26.237"
                        gradientTransform="matrix(-0.7183 -0.06 -0.0803 0.6143 191.2076 49.2665)"
                        gradientUnits="userSpaceOnUse" class="svga-on-canvas-eyesfront-gradient-right-4">
            <stop id="SvgjsStop4100" stop-opacity="0" stop-color="#000000" offset="0.95" data-stoptype="#000000"></stop>
            <stop id="SvgjsStop4101" stop-opacity="0.2" stop-color="#000000" offset="1" data-stoptype="#000000"></stop>
        </radialGradient>
        <radialGradient id="SvgjsRadialGradient4106" cx="-568.659" cy="-521.042" r="59.751"
                        gradientTransform="matrix(0.096 -0.0248 0.0245 0.0961 141.2814 119.9893)"
                        gradientUnits="userSpaceOnUse" class="svga-on-canvas-eyesiris-gradient-left-1">
            <stop id="SvgjsStop4107" stop-opacity="1" stop-color="#ffffff" offset="0" data-stoptype="#ffffff"></stop>
            <stop id="SvgjsStop4108" stop-opacity="0" stop-color="#ffffff" offset="1" data-stoptype="#ffffff"></stop>
        </radialGradient>
        <radialGradient id="SvgjsRadialGradient4110" cx="-582.838" cy="-519.099" r="59.745"
                        gradientTransform="matrix(0.0991 8.856319e-004 -0.0011 0.0991 131.1134 135.9855)"
                        gradientUnits="userSpaceOnUse" class="svga-on-canvas-eyesiris-gradient-left-2">
            <stop id="SvgjsStop4111" stop-opacity="1" stop-color="#ffffff" offset="0" data-stoptype="#ffffff"></stop>
            <stop id="SvgjsStop4112" stop-opacity="0" stop-color="#ffffff" offset="1" data-stoptype="#ffffff"></stop>
        </radialGradient>
        <linearGradient id="SvgjsLinearGradient4116" x1="122.67" y1="88.268" x2="123.606" y2="87.152"
                        gradientTransform="matrix(1 0 0 1 -52 0)" gradientUnits="userSpaceOnUse"
                        class="svga-on-canvas-eyesiris-gradient-left-5">
            <stop id="SvgjsStop4117" stop-opacity="1" stop-color="#ffffff" offset="0" data-stoptype="#ffffff"></stop>
            <stop id="SvgjsStop4118" stop-opacity="0" stop-color="#ffffff" offset="1" data-stoptype="#ffffff"></stop>
        </linearGradient>
        <linearGradient id="SvgjsLinearGradient4124" x1="129.636" y1="79.822" x2="127.91" y2="81.879"
                        gradientTransform="matrix(1 0 0 1 -52 0)" gradientUnits="userSpaceOnUse"
                        class="svga-on-canvas-eyesiris-gradient-left-7">
            <stop id="SvgjsStop4125" stop-opacity="1" stop-color="#ffffff" offset="0" data-stoptype="#ffffff"></stop>
            <stop id="SvgjsStop4126" stop-opacity="0" stop-color="#ffffff" offset="1" data-stoptype="#ffffff"></stop>
        </linearGradient>
        <radialGradient id="SvgjsRadialGradient4129" cx="-568.654" cy="-521.042" r="59.752"
                        gradientTransform="matrix(0.096 -0.0248 0.0245 0.0961 193.2804 119.9894)"
                        gradientUnits="userSpaceOnUse" class="svga-on-canvas-eyesiris-gradient-right-1">
            <stop id="SvgjsStop4130" stop-opacity="1" stop-color="#ffffff" offset="0" data-stoptype="#ffffff"></stop>
            <stop id="SvgjsStop4131" stop-opacity="0" stop-color="#ffffff" offset="1" data-stoptype="#ffffff"></stop>
        </radialGradient>
        <radialGradient id="SvgjsRadialGradient4133" cx="-582.833" cy="-519.102" r="59.747"
                        gradientTransform="matrix(0.0991 8.856319e-004 -0.0011 0.0991 183.1126 135.9856)"
                        gradientUnits="userSpaceOnUse" class="svga-on-canvas-eyesiris-gradient-right-2">
            <stop id="SvgjsStop4134" stop-opacity="1" stop-color="#ffffff" offset="0" data-stoptype="#ffffff"></stop>
            <stop id="SvgjsStop4135" stop-opacity="0" stop-color="#ffffff" offset="1" data-stoptype="#ffffff"></stop>
        </radialGradient>
        <linearGradient id="SvgjsLinearGradient4139" x1="122.67" y1="88.268" x2="123.606" y2="87.152"
                        gradientUnits="userSpaceOnUse" class="svga-on-canvas-eyesiris-gradient-right-5">
            <stop id="SvgjsStop4140" stop-opacity="1" stop-color="#ffffff" offset="0" data-stoptype="#ffffff"></stop>
            <stop id="SvgjsStop4141" stop-opacity="0" stop-color="#ffffff" offset="1" data-stoptype="#ffffff"></stop>
        </linearGradient>
        <linearGradient id="SvgjsLinearGradient4147" x1="129.636" y1="79.822" x2="127.91" y2="81.879"
                        gradientUnits="userSpaceOnUse" class="svga-on-canvas-eyesiris-gradient-right-7">
            <stop id="SvgjsStop4148" stop-opacity="1" stop-color="#ffffff" offset="0" data-stoptype="#ffffff"></stop>
            <stop id="SvgjsStop4149" stop-opacity="0" stop-color="#ffffff" offset="1" data-stoptype="#ffffff"></stop>
        </linearGradient>
        <linearGradient id="SvgjsLinearGradient4171" x1="132" y1="78" x2="126" y2="84"
                        gradientTransform="matrix(1 0 0 1 -50 0)" gradientUnits="userSpaceOnUse"
                        class="svga-on-canvas-eyesiris-gradient-left-6">
            <stop id="SvgjsStop4172" stop-opacity="1" stop-color="#ffffff" offset="0" data-stoptype="#ffffff"></stop>
            <stop id="SvgjsStop4173" stop-opacity="0" stop-color="#ffffff" offset="1" data-stoptype="#ffffff"></stop>
        </linearGradient>
        <linearGradient id="SvgjsLinearGradient4181" x1="132" y1="78" x2="126" y2="84" gradientUnits="userSpaceOnUse"
                        class="svga-on-canvas-eyesiris-gradient-right-6">
            <stop id="SvgjsStop4182" stop-opacity="1" stop-color="#ffffff" offset="0" data-stoptype="#ffffff"></stop>
            <stop id="SvgjsStop4183" stop-opacity="0" stop-color="#ffffff" offset="1" data-stoptype="#ffffff"></stop>
        </linearGradient>
        <linearGradient id="SvgjsLinearGradient4322" x1="100" y1="171" x2="100" y2="127" gradientUnits="userSpaceOnUse"
                        class="svga-on-canvas-chinshadow-gradient-single-0">
            <stop id="SvgjsStop4323" stop-opacity="0.8" stop-color="#8f5b44" offset="0" data-stoptype="sd1"></stop>
            <stop id="SvgjsStop4324" stop-opacity="1" stop-color="#70381f" offset="0.7" data-stoptype="sd3"></stop>
        </linearGradient>
    </defs>
</svg>