<svg id="svga-svgcanvas" xmlns="http://www.w3.org/2000/svg" version="1.1" xlink="http://www.w3.org/1999/xlink" style="position:relative;overflow:hidden;left:0px;top:0px;" class="svga-svg" viewBox="0 0 200 200" preserveAspectRatio="xMinYMin meet"><g id="svga-group-wrapper"><g id="svga-group-backs-single"></g><g id="svga-group-subwrapper" data-updown="0" data-leftright="0" data-dist="0" data-scaleX="1" data-scaleY="1" data-rotate="0"><g id="svga-group-hair-back" data-updown="0" data-leftright="0" data-dist="0" data-scaleX="0.9599995800000001" data-scaleY="0.9997995800000001" data-rotate="0" transform="matrix(0.9599996900000001 0 0 0.9997996900000001 4.000030999999993 0.020030999999988808)"><path id="SvgjsPath4566" d="M100.5,100.5h-1v-1h1V100.5z" data-colored="true" data-filltype="tone" data-stroketype="none" fill="#513021" stroke-width="none" opacity="1" stroke="none"></path></g><g id="svga-group-humanbody-single"><path id="SvgjsPath2893" d="M195.417 199.778c-2.196-4.746-8.195-11.779-14.86-13.722 -8.239-2.403-26.837-5.308-33.733-6.923 -5.528-1.296-16.662-11.294-20.564-14.65 -0.7-0.6-1.273-1.839-1.287-2.76 -0.139-10.864 4.195-39.724 4.195-39.724H100 70.833c0 0 4.334 28.859 4.193 39.724 -0.011 0.921-0.587 2.16-1.285 2.76 -3.902 3.356-15.036 13.354-20.564 14.65 -6.897 1.615-25.495 4.619-33.733 7.022 -6.667 1.942-12.664 8.876-14.86 13.622 -3.708 8.008-4.584 22.5-4.584 35h100 100C200 222.278 199.123 207.786 195.417 199.778z" data-colored="true" data-filltype="tone" data-stroketype="none" data-fromskin="true" fill="#704633" stroke-width="none" opacity="1" stroke="none"></path><path id="SvgjsPath2894" d="M159.156 184.058c24.342 3.542 34.586 8.708 37.794 50.721H200c0-12.5-0.877-26.992-4.583-35 -2.196-4.746-8.195-11.779-14.86-13.722 -8.239-2.403-26.837-5.308-33.733-6.923 -5.528-1.296-18.242-12.069-21.643-16.35 3.36 4.704 12.791 15.605 21.054 18.46C150.188 182.61 153.48 183.232 159.156 184.058zM53.766 181.244c8.263-2.854 17.693-13.756 21.054-18.46 -3.4 4.28-16.114 15.054-21.643 16.35 -6.896 1.615-25.494 4.619-33.733 7.022 -6.665 1.942-12.664 8.876-14.86 13.622 -3.706 8.008-4.583 22.5-4.583 35h3.05c3.188-41.744 13.475-47.183 37.794-50.721C46.52 183.232 49.813 182.61 53.766 181.244z" data-colored="true" data-filltype="hl1" data-stroketype="none" data-fromskin="true" fill="#7f5847" stroke-width="none" opacity="1" stroke="none"></path><path id="SvgjsPath2895" d="M95.646 197.62c0 0-5.074-1.609-7.083-2.379 -10.449-4.009-44.395-6.607-44.395-6.607s35.754 1.419 43.644 2.779c-0.458-4.767-3.017-20.004-3.017-20.004s5.149 16.815 6.409 21.057C91.878 194.734 95.646 197.62 95.646 197.62zM106.445 196.278c-0.089 0.073-0.191 0.168-0.302 0.268C106.256 196.461 106.358 196.372 106.445 196.278zM95.646 197.62c0 0 2.893 2.992 4.347 3.03 1.91 0.051 4.828-2.899 6.151-4.104 -1.265 0.957-4.159 1.391-5.31 1.436C99.504 198.033 95.646 197.62 95.646 197.62zM116.664 190.101c-1.545 0.248-4.386 0.789-4.386 0.789l2.287-14.89c-0.646 3.071-4.474 16.211-8.12 20.278 1.91-1.616 6.158-2.391 8.324-2.704 10.236-1.484 10.232-1.483 41.062-4.94C155.831 188.634 126.76 188.479 116.664 190.101z" data-colored="true" data-filltype="sd1" data-stroketype="none" data-fromskin="true" fill="#613622" stroke-width="none" opacity="1" stroke="none"></path><path id="SvgjsPath2896" d="M195.417 199.778c-2.196-4.746-8.195-11.779-14.86-13.722 -8.239-2.403-26.837-5.308-33.733-6.923 -5.528-1.296-16.662-11.294-20.564-14.65 -0.7-0.6-1.273-1.839-1.287-2.76 -0.139-10.864 4.195-39.724 4.195-39.724H100 70.833c0 0 4.334 28.859 4.193 39.724 -0.011 0.921-0.587 2.16-1.285 2.76 -3.902 3.356-15.036 13.354-20.564 14.65 -6.897 1.615-25.495 4.619-33.733 7.022 -6.667 1.942-12.664 8.876-14.86 13.622 -3.708 8.008-4.584 22.5-4.584 35h100 100C200 222.278 199.123 207.786 195.417 199.778z" data-colored="true" data-filltype="none" data-stroketype="sd3" data-fromskin="true" fill="none" stroke="#421c0a" stroke-width="1.5" opacity="1"></path></g><g id="svga-group-chinshadow-single"><path id="SvgjsPath4739" d="M75.602 162.779c7.126 5.302 15.497 9.087 24.401 9.087 8.902 0 17.269-3.781 24.394-9.08 -0.104-0.358-0.17-0.718-0.175-1.053 -0.088-6.862 1.561-20.607 2.82-30.025 -15.654-1.97-38.431-1.97-54.084 0 1.26 9.419 2.908 23.163 2.819 30.024C75.773 162.063 75.707 162.42 75.602 162.779z" data-colored="false" data-filltype="gradient" data-stroketype="none" data-fromskin="true" fill="url(#SvgjsLinearGradient4740)" opacity="1"></path></g><g id="svga-group-clothes-single" data-updown="0" data-leftright="0" data-dist="0" data-scaleX="1" data-scaleY="1" data-rotate="0"><path id="SvgjsPath4854" d="M100.149 235.501c-36.446 0-72.93-0.368-108.449-1.096 0.12-20.336 7.704-44.369 28.687-51.396 4.938-1.846 16.188-3.148 24.401-4.099l0.711-0.083 0.069-0.36c0.021-0.112 0.195-0.247 0.274-0.269 1.715-0.198 2.971-0.433 4.08-0.64l0.728-0.135c0.057-0.011 0.114-0.016 0.171-0.016 0.276 0 0.542 0.118 0.728 0.322 11.402 12.559 25.347 19.213 37.65 25.084 3.362 1.604 6.538 3.12 9.567 4.704 0.528 0.276 1.029 0.565 1.512 0.844 0.528 0.306 1.036 0.598 1.534 0.85l0.253 0.128 0.239-0.151c14.961-9.438 31.821-20.638 43.447-32.137 0.152-0.15 0.354-0.232 0.566-0.232 0.062 0 0.124 0.007 0.184 0.021 0.888 0.209 1.764 0.371 2.652 0.535 1.105 0.205 2.248 0.416 3.44 0.727 0.023 0.008 0.107 0.068 0.137 0.18l0.086 0.326 0.335 0.042c2.063 0.258 4.156 0.465 6.372 0.685 9.69 0.959 20.673 2.045 29.422 8.015 12.045 7.939 17.589 29.405 18.789 47.052 -0.912 0.012-2.652 0.046-5.166 0.096 -13.932 0.274-50.941 1.005-102.415 1.005C100.152 235.501 100.153 235.501 100.149 235.501z" data-colored="true" data-filltype="tone" data-stroketype="none" fill="#1d282e" stroke-width="none" opacity="1"></path><path id="SvgjsPath4855" d="M207.736 234.4c-0.408 0.005-0.99 0.016-1.725 0.028 -3.039-16.858-6.315-31.74-17.834-43.399 -10.539-8.782-28.915-5.961-42.535-10.969 -12.926 14.626-29.187 23.197-43.576 29.279 14.264-9.024 36.136-23.31 43.687-32.288 5.783 1.338 33.561 3.724 43.194 10.297C200.992 195.288 206.536 216.754 207.736 234.4zM51.55 177.73c-0.023-0.025-26.379 3.491-31.163 5.278 -20.983 7.027-28.567 31.061-28.687 51.396 0.274 0.006 0.55 0.01 0.824 0.016 1.106-15.271 5.857-28.244 16.094-39.269 10.321-11.26 29.183-10.47 43.568-13.491 15.293 15.293 35.334 23.124 49.879 27.679C79.899 198.128 64.633 192.14 51.55 177.73z" data-colored="true" data-filltype="hl1" data-stroketype="none" fill="#2d373d" stroke-width="none" opacity="1"></path><path id="SvgjsPath4856" d="M189.229 186.936c-10.788-7.36-24.537-7.347-36.014-8.782 -0.075-0.285-0.297-0.483-0.494-0.535 -2.157-0.563-4.103-0.794-6.104-1.265 -0.438-0.103-0.896 0.027-1.216 0.343 -12.013 11.882-29.564 23.364-43.362 32.069 -0.95-0.48-1.936-1.113-3.04-1.69 -14.321-7.485-32.69-13.834-47.079-29.681 -0.342-0.377-0.856-0.553-1.357-0.463 -1.256 0.227-2.682 0.527-4.793 0.772 -0.207 0.024-0.62 0.292-0.691 0.669 -8.181 0.947-19.799 2.273-24.849 4.162 -20.823 6.974-29.03 30.729-29.03 52.36 120.98 2.487 212.138 0 217.07 0C207.301 219.607 202.475 195.666 189.229 186.936zM145.589 177.914c1.881 0.592 3.384 1.044 5.91 1.58 -2.104 1.75-1.066 0.361-7.82 6.671 -13.685 12.477-36.478 27.873-40.103 30.926 -0.008-0.003-4.283-2.621-5.545-3.133C106.688 205.818 128.612 197.149 145.589 177.914zM51.699 178.453c9.43 13.735 30.987 22.687 46.8 29.723 0.95 0.42 1.86 0.819 2.72 1.149 -0.704 0.48-4.058 3.29-4.647 3.874 -31.748-13.889-41.131-22.162-50.322-33.566C46.484 179.583 51.39 178.523 51.699 178.453zM-8.131 234.556c1.432-12.942 3.708-24.542 11.97-36.521 9.405-13.872 22.03-15.55 41.8-18.282 12.181 14.889 15.774 17.207 27.37 23.183 17.201 8.864 23.096 11.082 30.617 14.896 7.062-5.305 27.974-17.449 44.293-34.058 2.604-2.647 2.321-2.323 4.271-4.13 30.93 5.092 45.369-0.379 55.439 54.742C133.545 232.919 65.017 233.078-8.131 234.556z" data-colored="true" data-filltype="sd3" data-stroketype="none" fill="#000000" stroke-width="none" opacity="1"></path></g><g id="svga-group-head" data-updown="0" data-leftright="0" data-dist="0" data-scaleX="1" data-scaleY="1" data-rotate="0"><g id="svga-group-ears-left" data-updown="0" data-leftright="3.0000002" data-dist="0" data-scaleX="1" data-scaleY="1" data-rotate="0" transform="translate(3.0000001000000003 0)"><path id="SvgjsPath4008" d="M45.671 84.344c-1.485-2.462-6.327-9.199-10.031-8.254 -3.012 0.772-2.973 4.971-3.206 7.455 -0.34 3.644-0.464 9.992 0.525 12.568 0.951 2.473 3.96 7.252 5.828 9.075 2.299 2.235 5.97 9.358 6.422 10.097 0.711 1.168 2.137 2.84 4.325 2.708 3.071-0.185 5.724-3.087 5.965-4.485C56.8 105.918 49.536 90.75 45.671 84.344z" data-colored="true" data-filltype="tone" data-stroketype="sd3" fill="#704633" stroke="#421c0a" stroke-width="1.5" opacity="1"></path><path id="SvgjsPath4009" d="M44.2 99.341c-0.143-0.563 0.007-1.513 0.154-2.429 0.133-0.835 0.258-1.624 0.182-2.182 -0.289-2.09-1.915-6.06-2.976-8.212 -1.223-2.476-3.199-5.595-5.679-6.399 -1.024-0.333-1.699 0.065-2.089 0.468 -0.288 0.296-0.353 0.645-0.259 0.687 0.095 0.041 0.307-0.248 0.617-0.519 0.254-0.222-0.508-0.04 0 0 -0.205 1.04-0.865 6.302-0.41 10.143 0.358 3.022 1.05 5.279 1.263 5.617 0.031 0.356 0.083 0.705 0.16 1.043 1.002 4.41 7.518 10.177 9.034 11.82 0.28 0.303 0.574 0.483 0.646 0.409s-0.101-0.373-0.379-0.678c-1.498-1.632-7.971-7.381-8.939-11.635 -1.027-4.514 3.912-11.207 4.699-12.623 0.401 0.665 0.742 1.303 1.004 1.835 0.207 0.417 0.434 0.906 0.67 1.435 -0.463 0.738-5.118 6.127-3.934 10.441 0.438 1.591 3.822 3.642 5.131 4.203 0.72 0.31 0.99 0.772 1.304 1.306 0.364 0.624 0.033 2.229 1.23 2.739 0.244 0.104 0.464 0.146 0.659 0.146 0.338 0 0.594-0.13 0.783-0.284 0.02 0.271 0.019 0.619 0.009 0.941 -0.012 0.418 0.047 0.609 0.148 0.617 0.103 0.009 0.21-0.174 0.223-0.587 0.017-0.51 0.014-1.141-0.077-1.444 -0.269-0.889-1.088-1.894-1.957-2.957C44.563 102.197 44.422 100.213 44.2 99.341zM34.969 95.432c-2.348-6.923 1.283-13.229 1.81-14.179 1.012 0.399 2.562 2.193 3.221 3.235C39.52 85.321 35.067 90.775 34.969 95.432zM45.772 106.464c-1.084-0.462-0.706-1.984-1.056-2.584 -0.318-0.542-0.646-1.102-1.479-1.46 -0.18-0.078-0.379-0.196-0.583-0.332 -2.682-6.075 0.293-8.73 1.039-9.273 0.229 0.742 0.399 1.423 0.476 1.97 0.068 0.5-0.059 1.298-0.181 2.068 -0.153 0.955-0.31 1.944-0.147 2.584 0.244 0.953 0.411 2.97 1.291 4.048 0.781 0.956 1.583 1.942 1.857 2.746C46.871 106.391 46.5 106.775 45.772 106.464z" data-colored="true" data-filltype="sd3" data-stroketype="none" fill="#421c0a" stroke-width="none" opacity="1" stroke="none"></path></g><g id="svga-group-ears-right" data-updown="0" data-leftright="-3.0000002" data-dist="0" data-scaleX="1" data-scaleY="1" data-rotate="0" transform="translate(-3.0000001000000003 0)"><path id="SvgjsPath4010" d="M154.066 84.344c1.486-2.462 6.328-9.199 10.031-8.254 3.012 0.772 2.973 4.971 3.207 7.455 0.34 3.644 0.463 9.992-0.525 12.568 -0.951 2.473-3.961 7.252-5.828 9.075 -2.299 2.235-5.971 9.358-6.422 10.097 -0.711 1.168-2.137 2.84-4.326 2.708 -3.07-0.185-5.723-3.087-5.965-4.485C142.938 105.918 150.203 90.75 154.066 84.344z" data-colored="true" data-filltype="tone" data-stroketype="sd3" fill="#704633" stroke="#421c0a" stroke-width="1.5" opacity="1"></path><path id="SvgjsPath4011" d="M154.322 103.243c-0.869 1.063-1.688 2.068-1.957 2.957 -0.092 0.304-0.094 0.935-0.078 1.444 0.014 0.413 0.121 0.596 0.225 0.587 0.102-0.008 0.16-0.199 0.148-0.617 -0.01-0.322-0.012-0.67 0.008-0.941 0.189 0.154 0.445 0.284 0.783 0.284 0.195 0 0.416-0.042 0.66-0.146 1.195-0.511 0.865-2.116 1.229-2.739 0.314-0.534 0.584-0.997 1.305-1.306 1.309-0.561 4.693-2.611 5.131-4.203 1.184-4.314-3.471-9.704-3.934-10.441 0.234-0.529 0.463-1.018 0.668-1.435 0.264-0.532 0.604-1.171 1.006-1.835 0.787 1.416 5.725 8.108 4.699 12.623 -0.969 4.254-7.441 10.003-8.939 11.635 -0.279 0.305-0.453 0.604-0.381 0.678 0.074 0.074 0.367-0.106 0.646-0.409 1.516-1.643 8.031-7.41 9.033-11.82 0.078-0.338 0.131-0.687 0.162-1.043 0.211-0.337 0.904-2.594 1.262-5.617 0.455-3.841-0.205-9.103-0.41-10.143 0.508-0.04-0.254-0.222 0 0 0.311 0.271 0.523 0.56 0.617 0.519 0.094-0.042 0.029-0.39-0.258-0.687 -0.391-0.403-1.066-0.801-2.09-0.468 -2.48 0.804-4.457 3.923-5.68 6.399 -1.061 2.152-2.686 6.122-2.975 8.212 -0.076 0.558 0.049 1.347 0.182 2.182 0.146 0.916 0.297 1.866 0.154 2.429C155.316 100.213 155.176 102.197 154.322 103.243zM159.738 84.488c0.66-1.042 2.209-2.835 3.221-3.235 0.527 0.95 4.158 7.256 1.811 14.179C164.672 90.775 160.219 85.321 159.738 84.488zM152.75 106.229c0.273-0.804 1.076-1.79 1.857-2.746 0.879-1.078 1.047-3.095 1.291-4.048 0.162-0.64 0.006-1.629-0.146-2.584 -0.123-0.77-0.25-1.568-0.182-2.068 0.076-0.547 0.246-1.228 0.475-1.97 0.746 0.543 3.721 3.199 1.039 9.273 -0.203 0.136-0.402 0.254-0.584 0.332 -0.832 0.358-1.16 0.918-1.479 1.46 -0.35 0.6 0.029 2.123-1.055 2.584C153.238 106.775 152.867 106.391 152.75 106.229z" data-colored="true" data-filltype="sd3" data-stroketype="none" fill="#421c0a" stroke-width="none" opacity="1" stroke="none"></path></g><g id="svga-group-faceshape-wrap" data-updown="0" data-leftright="0" data-dist="0" data-scaleX="0.9599995800000001" data-scaleY="0.9997995800000001" data-rotate="0" transform="matrix(0.9599996900000001 0 0 0.9997996900000001 4.000030999999993 0.0164224147558798)"><g id="svga-group-faceshape-single" data-updown="0" data-leftright="0" data-dist="0" data-scaleX="1" data-scaleY="1" data-rotate="0"><path id="SvgjsPath4736" d="M100.002 0.867C66.381 0.813 39.186 28.343 39.134 62.366c-0.008 5.403 0.669 10.645 1.953 15.641l0.004 0c0.011 0.054 8.713 39.241 14.519 51.175 6.073 12.487 23.814 32.685 44.392 32.685 20.582 0 38.32-20.197 44.392-32.685 5.805-11.935 14.507-51.122 14.519-51.175l0.005 0c1.283-4.997 1.961-10.238 1.952-15.641C160.819 28.343 133.623 0.813 100.002 0.867z" data-colored="true" data-filltype="tone" data-stroketype="none" fill="#704633" stroke-width="none" opacity="1"></path><path id="SvgjsPath4737" d="M120.754 4.512c21.441 9.489 36.411 31.135 36.45 56.363 0.008 5.403-0.669 10.645-1.953 15.641l-0.005 0c-0.011 0.054-8.713 39.24-14.519 51.177 -5.709 11.738-21.608 32.469-40.725 32.469s-35.016-20.73-40.725-32.469c-5.806-11.937-14.507-51.123-14.519-51.177l-0.004 0c-1.284-4.997-1.962-10.238-1.953-15.641 0.038-25.229 15.008-46.874 36.45-56.363 -23.386 8.55-40.076 31.208-40.117 57.854 -0.008 5.403 0.669 10.645 1.953 15.641l0.004 0c0.011 0.054 8.713 39.241 14.519 51.175 6.073 12.487 23.814 32.685 44.392 32.685 20.579 0 38.319-20.197 44.392-32.685 5.805-11.935 14.507-51.122 14.519-51.175l0.005 0c1.283-4.997 1.961-10.238 1.952-15.641C160.83 35.72 144.14 13.062 120.754 4.512z" data-colored="true" data-filltype="sd05" data-stroketype="none" fill="#683e2a" stroke-width="none" opacity="1"></path><path id="SvgjsPath4738" d="M100.002 0.867C66.381 0.813 39.186 28.343 39.134 62.366c-0.008 5.403 0.669 10.645 1.953 15.641l0.004 0c0.011 0.054 8.713 39.241 14.519 51.175 6.073 12.487 23.814 32.685 44.392 32.685 20.582 0 38.32-20.197 44.392-32.685 5.805-11.935 14.507-51.122 14.519-51.175l0.005 0c1.283-4.997 1.961-10.238 1.952-15.641C160.819 28.343 133.623 0.813 100.002 0.867z" data-colored="true" data-filltype="none" data-stroketype="sd3" fill="none" stroke="#421c0a" stroke-width="1.5" opacity="1"></path></g></g><g id="svga-group-mouth-single" data-updown="-1.0000000999999998" data-leftright="5.2635580254447884e-17" data-dist="0" data-scaleX="1.1500006300000003" data-scaleY="1.1500006300000003" data-rotate="0" transform="matrix(1.1500007400000003 0 0 1.1500007400000003 -15.000599286404906 -20.339950196774936) translate(5.2635580254447884e-17 -0.9999999999999999)"><path id="SvgjsPath4753" d="M99.956 142.599c-5.159 0-9.49-3.032-9.49-3.032 9.005 1.084 20.036-0.644 20.036-0.644S106.471 142.599 99.956 142.599z" data-colored="true" data-filltype="sd05" data-stroketype="none" data-fromskin="true" fill="#683e2a" stroke-width="none" opacity="1"></path><path id="SvgjsPath4754" d="M99.958 139.593c-3.336 0.024-10.989-1.567-13.867-2.818 -1.703-0.736-4.649-3.291-6.698-4.591 -0.787-0.5-0.46-1.466 0.578-1.505 2.524-0.095 5.769 0.939 7.288 1.121 3.184 0.372 7.201 1.759 12.647 1.759 4.046 0 8.469-1.103 11.289-1.509 1.696-0.244 5.619-1.319 8.378-1.439 1.041-0.048 1.465 0.745 0.695 1.262 -2.156 1.464-5.613 4.15-7.478 4.902C109.775 137.991 102.966 139.572 99.958 139.593z" data-colored="false" data-filltype="#000000" data-stroketype="none" fill="#000000" stroke-width="none" opacity="0.5"></path><path id="SvgjsPath4755" d="M83.82 130.791c0 0 0.355 2.327 0.896 2.992 0.746 0.915 5.281 2.794 7.092 3.057 1.232 0.176 3.49 0.456 4.732 0.588 1.347 0.143 2.104 0.014 3.461-0.021 1.462-0.037 2.71 0.126 4.137-0.13 1.017-0.183 3.989-0.8 4.96-1.098 0.746-0.231 2.25-0.615 2.932-0.951 0.567-0.276 2.317-1.278 2.664-1.721 0.454-0.581 0.876-2.639 0.876-2.639L83.82 130.791z" data-colored="false" data-filltype="#ffffff" data-stroketype="none" fill="#ffffff" stroke-width="none" opacity="1"></path><path id="SvgjsPath4756" d="M90.407 131.193c0 0-0.646 5.066-0.705 5.154 -0.058 0.088-0.22-5.154-0.22-5.154H90.407zM93.131 131.757l0.575 5.37 0.372-5.37H93.131zM99.482 132.549l0.718 4.879 0.464-4.963L99.482 132.549zM105.054 131.524c1.207 0.084 1.611 5.223 1.611 5.223l0.166-5.223H105.054zM109.679 130.896c0 0 0.479 4.904 0.547 4.812 0.063-0.093 0.19-4.812 0.19-4.812H109.679zM86.324 130.894l0.351 4.01 0.352-4.01H86.324zM112.989 130.486l0.107 4.2 0.535-4.231L112.989 130.486z" data-colored="false" data-filltype="#000000" data-stroketype="none" fill="#000000" stroke-width="none" opacity="0.1"></path><path id="SvgjsPath4757" d="M120.915 130.597c-1.51-0.389-4.676-0.119-6.277-0.281 -2.271-0.229-6.874-0.393-9.168-0.342 -1.44 0.032-4.278 0.438-5.717 0.464 -1.477 0.026-4.417-0.441-5.893-0.451 -2.341-0.011-7.056 0.205-9.353 0.513 -1.585 0.212-4.825-0.108-6.095 0.455 -0.293 0.131-0.117 0.719 0 0.941 1.071 2.003 5.197 4.264 8.767 6.188 4.587 2.474 9.41 3.241 13.203 3.242 5.004 0.003 10.898-2.155 15.829-5.407 2.182-1.438 4.943-2.923 5.4-4.31C121.845 130.909 121.306 130.698 120.915 130.597zM99.893 137.525c-3.086 0.019-10.246-1.178-13.269-2.392 -1.813-0.728-4.59-2.471-6.481-3.556 -0.73-0.416 6.65 1.117 8.059 1.267 2.94 0.311 6.656 0.754 11.69 0.754 3.737 0 7.829-0.205 10.437-0.543 1.567-0.204 9.693-2.062 8.987-1.63 -2.001 1.22-5.367 3.084-7.513 3.899C109.081 136.362 102.673 137.503 99.893 137.525z" data-colored="true" data-filltype="tone" data-stroketype="none" fill="#663a2b" stroke-width="none" opacity="1"></path><path id="SvgjsPath4758" d="M83.833 135.39c3.211 0.502 10.441 3.463 16.517 3.303 6.333-0.167 15.733-4.55 16.972-4.069 0.468 1.149-12.22 6.698-16.972 6.786C96.085 141.487 82.49 136.695 83.833 135.39zM99.482 132.549c3.857-0.04 8.569-0.425 11.745-1.604 -3.616-0.971-8.605 0.11-11.475 0.161 -3.722 0.067-6.834-0.896-10.281 0.056C92.764 132.032 96.149 132.584 99.482 132.549z" data-colored="true" data-filltype="hl05" data-stroketype="none" fill="#6e4234" stroke-width="none" opacity="1"></path><path id="SvgjsPath4759" d="M97.309 140.089c-2.334-0.406-2.413-0.571-0.201-0.402 1.353 0.102 2.705 0.126 4.02 0.028 0.174-0.014 0.347-0.027 0.52-0.047 1.48-0.15 3.075-0.523 4.672-1.007 2.499-0.76 2.544-0.575 0.065 0.428 -1.817 0.735-3.511 1.27-4.712 1.381l-0.074 0.007C100.573 140.554 99.034 140.392 97.309 140.089z" data-colored="true" data-filltype="hl1" data-stroketype="none" fill="#754b3d" stroke-width="none" opacity="1"></path><path id="SvgjsPath4760" d="M77.08 133.202c0 0-0.664-1.505-0.57-2.065 0.129-0.788 1.802-2.347 1.802-2.347s-1.012 1.795-1.168 2.361C76.992 131.699 77.08 133.202 77.08 133.202zM122.869 133.394c0 0 0.722-1.636 0.622-2.245 -0.142-0.855-1.96-2.55-1.96-2.55s1.102 1.951 1.271 2.566C122.965 131.76 122.869 133.394 122.869 133.394z" data-colored="true" data-filltype="sd3" data-stroketype="none" data-fromskin="true" fill="#421c0a" stroke-width="none" opacity="1"></path></g><g id="svga-group-eyes-left" data-updown="-5.838672220806777e-17" data-leftright="1.0000000999999998" data-dist="0" data-scaleX="0.89999958" data-scaleY="0.89999958" data-rotate="0" transform="matrix(0.89999969 0 0 0.89999969 7.426122988866439 8.499926394621781) translate(0.9999999999999999 -5.838672220806777e-17)"><g id="svga-group-eyesback-left"><path id="SvgjsPath4763" d="M59.722 85.795c2.578 4.596 2.19 5.704 10.268 4.467 9.691 0 17.711-1.976 17.711-5.558 0-3.582-4.925-7.115-17.196-4.923C64.489 80.855 59.722 84 59.722 85.795z" data-colored="false" data-filltype="gradient" data-stroketype="none" fill="url(#SvgjsRadialGradient4764)" opacity="1"></path></g><g id="svga-group-eyesiriswrapper-left" transform="translate(0.25 0.25)"><g id="svga-group-eyesiriscontrol-left" data-updown="0" data-leftright="0" data-dist="0" data-scaleX="1" data-scaleY="1" data-rotate="0"><g id="svga-group-eyesiris-left" data-updown="0" data-leftright="0" data-dist="0" data-scaleX="1" data-scaleY="1" data-rotate="0"><path id="SvgjsPath4501" d="M79.788 85.588c-0.869 3.192-4.16 5.073-7.358 4.196 -3.195-0.876-5.083-4.178-4.212-7.371 0.868-3.195 4.167-5.076 7.362-4.198C78.773 79.09 80.658 82.392 79.788 85.588z" data-colored="true" data-filltype="tone" data-stroketype="sd3" fill="#3b1f09" stroke="#0d0600" stroke-width="0.5" opacity="1"></path><path id="SvgjsPath4502" d="M73.265 80.413l-0.156-0.279c-0.548 0.218-1.076 0.445-1.575 0.687l0.37 0.894 -0.047 0.517 -1.426-0.839c-0.466 0.259-0.898 0.529-1.318 0.804l0.004 0.009 -0.489 0.55 0.781 0.799 -1.052 0.574 0.398 0.657 1.857 0.185 -1.741 1.181 1.863-0.103 -0.982 1.693 2.297-1.39 -0.618 2.364 1.329-2.184 0.256 2.343 0.384-2.072 0.353-0.043 0.5 2.35 0.152-0.705c0.201-0.052 0.718 0.704 0.915 0.651L74.736 86.5l1.282 2.556 -0.52-2.651 1.578 2.05c0.057-0.018 0.196-0.85 0.252-0.867l-0.982-1.469 1.785 0.539 -1.071-1.16 -0.86-0.712 3.586 0.803 -1.997-1.217 1.411-0.577 -3.055-0.309 3.021-1.602 -2.734 0.698 -0.736-0.399 -0.181-0.354 0.052-0.846 0.061-1.389 -1.248 2.198 -0.11-1.609 -0.157-0.421c-0.25 0.087-0.495 0.172-0.736 0.265L73.265 80.413z" data-colored="true" data-filltype="hl1" data-stroketype="none" fill="#4a2b13" stroke-width="none" opacity="1" stroke="none"></path><path id="SvgjsPath4503" d="M79.856 82.755c-5.242 0.239-7.907 1.36-11.707 2.631 -0.732-3.229 1.298-6.438 4.53-7.164S79.125 79.525 79.856 82.755z" data-colored="true" data-filltype="sd1" data-stroketype="none" fill="#2c1502" stroke-width="none" opacity="0.9" stroke="none"></path><path id="SvgjsPath4504" d="M74.869 81.998c-1.319-0.378-2.666 0.375-3.005 1.69 -0.342 1.308 0.452 2.678 1.771 3.056 1.32 0.379 2.667-0.375 3.009-1.684C76.987 83.745 76.19 82.376 74.869 81.998z" data-colored="false" data-filltype="#000000" data-stroketype="none" fill="#000000" stroke-width="none" opacity="0.8"></path><path id="SvgjsPath4505" d="M74.869 81.998c-1.319-0.378-2.666 0.375-3.005 1.69 -0.342 1.308 0.452 2.678 1.771 3.056 1.32 0.379 2.667-0.375 3.009-1.684C76.987 83.745 76.19 82.376 74.869 81.998z" data-colored="true" data-filltype="none" data-stroketype="sd3" fill="none" stroke="#0d0600" stroke-width="0.75" opacity="1"></path><path id="SvgjsPath4506" d="M69.631 87.56c0.613 0.973 1.426 1.706 2.578 1.95 1.326 0.281 1.477-1.483 0.528-1.685 -0.72-0.152-1.176-0.505-1.552-1.102C70.497 85.63 69.079 86.684 69.631 87.56L69.631 87.56z" data-colored="false" data-filltype="#ffffff" data-stroketype="none" fill="#ffffff" stroke-width="none" opacity="0.4"></path><path id="SvgjsPath4507" d="M75.033 81.493c0.929 0.187 1.469 0.768 1.938 1.64 0.862 1.604 3.299 0.178 2.437-1.425 -0.757-1.408-2.019-2.613-3.625-2.938C73.726 78.355 73.438 81.171 75.033 81.493L75.033 81.493z" data-colored="false" data-filltype="gradient" data-stroketype="none" fill="url(#SvgjsLinearGradient4508)" opacity="1"></path></g></g></g><g id="svga-group-eyesfront-left"><path id="SvgjsPath4788" d="M54.8 84.999c0 13.807 8.507 25 19 25s19-11.193 19-25 -8.507-25-19-25S54.8 71.192 54.8 84.999zM59.722 85.795c0-1.795 4.768-4.939 10.782-6.014C82.775 77.589 87.7 81.123 87.7 84.704c0 3.582-8.02 5.558-17.711 5.558C61.912 91.499 62.3 90.391 59.722 85.795z" data-colored="true" data-filltype="tone" data-stroketype="none" data-fromskin="true" fill="#704633" stroke-width="none" opacity="1"></path><path id="SvgjsPath4789" d="M58.697 86.046c-0.075 6.904 8.647 12.467 18.038 12.434 9.389-0.04 16.987-5.663 16.962-12.568 -0.023-6.903-7.647-12.467-17.04-12.431C67.265 73.519 58.799 76.602 58.697 86.046zM59.722 85.795c0-1.795 4.768-4.939 10.782-6.014C82.775 77.589 87.7 81.123 87.7 84.704c0 3.582-8.02 5.558-17.711 5.558C61.912 91.499 62.3 90.391 59.722 85.795z" data-colored="false" data-filltype="gradient" data-stroketype="none" data-fromskin="true" fill="url(#SvgjsRadialGradient4790)" opacity="1"></path><path id="SvgjsPath4794" d="M59.722 85.795c2.578 4.596 2.19 5.704 10.268 4.467 9.691 0 17.711-1.976 17.711-5.558 0-3.582-4.925-7.115-17.196-4.923C64.489 80.855 59.722 84 59.722 85.795z" data-colored="false" data-filltype="gradient" data-stroketype="none" fill="url(#SvgjsRadialGradient4795)" opacity="1"></path><path id="SvgjsPath4798" d="M86.716 88.797c0 0-1.383 0.778-2.354 1.036 -1.209 0.318-4.997 0.895-11.562 1.795 7.49-0.531 10.48-0.82 11.762-1.189C85.578 90.147 86.716 88.797 86.716 88.797z" data-colored="true" data-filltype="sd3" data-stroketype="none" data-fromskin="true" fill="#421c0a" stroke-width="none" opacity="1"></path><path id="SvgjsPath4799" d="M87.757 83.463c0.062 0.073 0.057 0.18-0.011 0.247 -0.068 0.066-0.175 0.069-0.247 0.007l-3.871-3.383c-11.411-1.304-19.93 0.687-23.25 5.247l0.536 2.4 -3.114-2.69c3.172-4.526 6.306-7.915 25.828-6.735C85.933 80.808 87.137 81.935 87.757 83.463zM86.632 87.442c0.082-0.079 0.102-0.205 0.048-0.306 -0.052-0.103-0.166-0.156-0.279-0.135 -3.954 2.317-11.021 2.523-22.642 3.426l-2.25-1.384 1.653 2.046C75.744 90.501 85.006 89.756 86.632 87.442z" data-colored="true" data-filltype="tone" data-stroketype="none" fill="#000000" stroke-width="none" opacity="1"></path></g></g><g id="svga-group-eyes-right" data-updown="-5.838672220806777e-17" data-leftright="-1.0000000999999998" data-dist="0" data-scaleX="0.89999958" data-scaleY="0.89999958" data-rotate="0" transform="matrix(0.89999969 0 0 0.89999969 12.533988516498837 8.499926394621781) translate(-0.9999999999999999 -5.838672220806777e-17)"><g id="svga-group-eyesback-right"><path id="SvgjsPath4771" d="M139.879 85.795c-2.578 4.596-2.19 5.704-10.268 4.467 -9.691 0-17.711-1.976-17.711-5.558 0-3.582 4.925-7.115 17.196-4.923C135.111 80.855 139.879 84 139.879 85.795z" data-colored="false" data-filltype="gradient" data-stroketype="none" fill="url(#SvgjsRadialGradient4772)" opacity="1"></path></g><g id="svga-group-eyesiriswrapper-right" transform="translate(-0.25 0.25)"><g id="svga-group-eyesiriscontrol-right" data-updown="0" data-leftright="0" data-dist="0" data-scaleX="1" data-scaleY="1" data-rotate="0"><g id="svga-group-eyesiris-right" data-updown="0" data-leftright="0" data-dist="0" data-scaleX="1" data-scaleY="1" data-rotate="0"><path id="SvgjsPath4511" d="M131.788 85.587c-0.869 3.193-4.16 5.074-7.358 4.196 -3.195-0.876-5.082-4.178-4.212-7.371 0.867-3.195 4.167-5.076 7.361-4.198C130.774 79.091 132.658 82.393 131.788 85.587z" data-colored="true" data-filltype="tone" data-stroketype="sd3" fill="#3b1f09" stroke="#0d0600" stroke-width="0.5" opacity="1"></path><path id="SvgjsPath4512" d="M125.266 80.413l-0.155-0.278c-0.548 0.217-1.076 0.445-1.576 0.686l0.37 0.894 -0.047 0.517 -1.426-0.839c-0.467 0.259-0.898 0.529-1.317 0.804l0.004 0.009 -0.49 0.551 0.782 0.799 -1.052 0.573 0.397 0.657 1.857 0.185 -1.741 1.181 1.863-0.103 -0.982 1.692 2.296-1.39 -0.616 2.364 1.328-2.184 0.257 2.343 0.384-2.073 0.353-0.043 0.501 2.35 0.151-0.704c0.201-0.052 0.719 0.703 0.915 0.651l-0.585-2.556 1.283 2.556 -0.521-2.651 1.577 2.05c0.057-0.018 0.197-0.85 0.253-0.867l-0.982-1.469 1.786 0.538 -1.071-1.16 -0.859-0.712 3.586 0.802 -1.997-1.216 1.411-0.577 -3.054-0.308 3.021-1.603 -2.734 0.698 -0.736-0.399 -0.18-0.354 0.052-0.847 0.061-1.388 -1.247 2.198 -0.11-1.609 -0.156-0.422c-0.25 0.087-0.495 0.173-0.735 0.265L125.266 80.413z" data-colored="true" data-filltype="hl1" data-stroketype="none" fill="#4a2b13" stroke-width="none" opacity="1" stroke="none"></path><path id="SvgjsPath4513" d="M131.855 82.755c-5.24 0.239-7.906 1.36-11.706 2.631 -0.731-3.229 1.298-6.438 4.53-7.164C127.911 77.495 131.126 79.525 131.855 82.755z" data-colored="true" data-filltype="sd1" data-stroketype="none" fill="#2c1502" stroke-width="none" opacity="0.9" stroke="none"></path><path id="SvgjsPath4514" d="M126.87 81.998c-1.319-0.378-2.666 0.376-3.005 1.69 -0.343 1.308 0.451 2.678 1.77 3.056 1.322 0.379 2.668-0.375 3.009-1.684C128.987 83.745 128.189 82.376 126.87 81.998z" data-colored="false" data-filltype="#000000" data-stroketype="none" fill="#000000" stroke-width="none" opacity="0.8"></path><path id="SvgjsPath4515" d="M126.87 81.998c-1.319-0.378-2.666 0.376-3.005 1.69 -0.343 1.308 0.451 2.678 1.77 3.056 1.322 0.379 2.668-0.375 3.009-1.684C128.987 83.745 128.189 82.376 126.87 81.998z" data-colored="true" data-filltype="none" data-stroketype="sd3" fill="none" stroke="#0d0600" stroke-width="0.75" opacity="1"></path><path id="SvgjsPath4516" d="M121.632 87.56c0.612 0.973 1.426 1.706 2.577 1.95 1.326 0.281 1.478-1.482 0.528-1.685 -0.72-0.152-1.177-0.504-1.552-1.102C122.498 85.63 121.079 86.684 121.632 87.56L121.632 87.56z" data-colored="false" data-filltype="#ffffff" data-stroketype="none" fill="#ffffff" stroke-width="none" opacity="0.4"></path><path id="SvgjsPath4517" d="M127.034 81.493c0.929 0.187 1.469 0.767 1.938 1.639 0.862 1.604 3.3 0.178 2.437-1.425 -0.757-1.408-2.018-2.613-3.625-2.938C125.727 78.355 125.438 81.171 127.034 81.493L127.034 81.493z" data-colored="false" data-filltype="gradient" data-stroketype="none" fill="url(#SvgjsLinearGradient4518)" opacity="1"></path></g></g></g><g id="svga-group-eyesfront-right"><path id="SvgjsPath4809" d="M125.801 59.999c-10.493 0-19 11.193-19 25s8.507 25 19 25 19-11.193 19-25S136.294 59.999 125.801 59.999zM129.611 90.262c-9.691 0-17.711-1.976-17.711-5.558 0-3.582 4.925-7.115 17.196-4.923 6.015 1.074 10.782 4.218 10.782 6.014C137.301 90.391 137.688 91.499 129.611 90.262z" data-colored="true" data-filltype="tone" data-stroketype="none" data-fromskin="true" fill="#704633" stroke-width="none" opacity="1"></path><path id="SvgjsPath4810" d="M122.943 73.48c-9.393-0.036-17.017 5.528-17.04 12.431 -0.025 6.906 7.573 12.529 16.962 12.568 9.391 0.034 18.113-5.529 18.038-12.434C140.802 76.602 132.336 73.519 122.943 73.48zM129.611 90.262c-9.691 0-17.711-1.976-17.711-5.558 0-3.582 4.925-7.115 17.196-4.923 6.015 1.074 10.782 4.218 10.782 6.014C137.301 90.391 137.688 91.499 129.611 90.262z" data-colored="false" data-filltype="gradient" data-stroketype="none" data-fromskin="true" fill="url(#SvgjsRadialGradient4811)" opacity="1"></path><path id="SvgjsPath4815" d="M139.879 85.795c-2.578 4.596-2.19 5.704-10.268 4.467 -9.691 0-17.711-1.976-17.711-5.558 0-3.582 4.925-7.115 17.196-4.923C135.111 80.855 139.879 84 139.879 85.795z" data-colored="false" data-filltype="gradient" data-stroketype="none" fill="url(#SvgjsRadialGradient4816)" opacity="1"></path><path id="SvgjsPath4819" d="M112.885 88.797c0 0 1.383 0.778 2.354 1.036 1.209 0.318 4.997 0.895 11.562 1.795 -7.49-0.531-10.48-0.82-11.762-1.189C114.022 90.147 112.885 88.797 112.885 88.797z" data-colored="true" data-filltype="sd3" data-stroketype="none" data-fromskin="true" fill="#421c0a" stroke-width="none" opacity="1"></path><path id="SvgjsPath4820" d="M115.973 78.555c19.522-1.179 22.656 2.209 25.828 6.735l-3.114 2.69 0.536-2.4c-3.32-4.56-11.839-6.551-23.25-5.247l-3.871 3.383c-0.072 0.063-0.179 0.06-0.247-0.007 -0.067-0.066-0.072-0.174-0.011-0.247C112.464 81.935 113.668 80.808 115.973 78.555zM136.438 91.09l1.653-2.046 -2.25 1.384c-11.621-0.903-18.688-1.109-22.642-3.426 -0.113-0.021-0.228 0.032-0.279 0.135 -0.054 0.102-0.034 0.227 0.048 0.306C114.595 89.756 123.856 90.501 136.438 91.09z" data-colored="true" data-filltype="tone" data-stroketype="none" fill="#000000" stroke-width="none" opacity="1"></path></g></g><g id="svga-group-facehighlight-single" data-updown="0" data-leftright="0" data-dist="0" data-scaleX="1" data-scaleY="1" data-rotate="0"><path id="SvgjsPath2885" d="M141 113.974c0.035 22.622-18.292 40.994-40.938 41.025 -22.642 0.037-41.028-18.273-41.063-40.9 -0.035-22.62 18.292-41.064 40.937-41.1C122.579 72.964 140.967 91.349 141 113.974z" data-colored="false" data-filltype="gradient" data-stroketype="none" data-fromskin="true" fill="url(#SvgjsRadialGradient2886)" opacity="1"></path><path id="SvgjsPath2889" d="M137.5 53.999c0 20.711-16.789 37.5-37.499 37.5 -20.711 0-37.501-16.789-37.501-37.5s16.79-37.5 37.501-37.5C120.711 16.499 137.5 33.288 137.5 53.999z" data-colored="false" data-filltype="gradient" data-stroketype="none" data-fromskin="true" fill="url(#SvgjsRadialGradient2890)" opacity="1"></path></g><g id="svga-group-eyebrows-left" data-updown="-1.0000001" data-leftright="-5.838672220806777e-17" data-dist="0" data-scaleX="0.89999958" data-scaleY="0.89999958" data-rotate="1e-7" transform="matrix(0.89999969 0 0 0.89999969 7.597323498905226 6.6100205191470565) rotate(1e-7 75.97299947275391 66.10000028146973) translate(-1.0000000005838672e-7 -1.0000001)"><path id="SvgjsPath4821" d="M54.205 76c21.295-17.8 43.536-4.503 36.719-1.268C88.252 76 78.133 64.999 54.205 76z" data-colored="true" data-filltype="#000000" data-stroketype="none" fill="#080806" stroke-width="none" opacity="1"></path></g><g id="svga-group-eyebrows-right" data-updown="-1.0000001" data-leftright="5.838672220806777e-17" data-dist="0" data-scaleX="0.89999958" data-scaleY="0.89999958" data-rotate="1e-7" transform="matrix(0.89999969 0 0 0.89999969 12.402738501094774 6.6100205191470565) rotate(1e-7 124.02700052724609 66.10000028146973) translate(1.0000000005838672e-7 -1.0000001)"><path id="SvgjsPath4822" d="M145.795 76c-21.295-17.8-43.536-4.503-36.719-1.268C111.748 76 121.867 64.999 145.795 76z" data-colored="true" data-filltype="#000000" data-stroketype="none" fill="#080806" stroke-width="none" opacity="1"></path></g><g id="svga-group-nose-single" data-updown="-4.0000004" data-leftright="0" data-dist="0" data-scaleX="1.2000008400000004" data-scaleY="1.2000008400000004" data-rotate="0" transform="matrix(1.2000009500000004 0 0 1.2000009500000004 -19.941895413250577 -21.759402765666366) translate(0 -4.0000003)"><path id="SvgjsPath4751" d="M99.757 119.999c-0.91 0-1.88 0.006-2.721-0.371 -0.899-0.405-1.498-0.567-2.429-0.902 -0.899-0.324-1.98 0.466-2.88 0.541 -0.728 0.06-1.559-0.149-2.003-0.719 -1.499-1.917 0.286-3.096 0.286-3.096s-0.583 1.346-0.212 1.942c0.319 0.509 0.789 0.925 1.369 1.063 0.968 0.235 1.889-0.476 2.839-0.55 1.062-0.083 1.833-0.102 2.602 0.519 0.767 0.619 1.606 0.737 2.582 0.787 0.906 0.049 1.857 0.088 2.708-0.263 0.743-0.303 1.365-0.835 2.062-1.226 1.482-0.831 2.647 0.212 4.194 0.633 1.238 0.338 2.575-0.86 2.09-2.225 -0.277-0.777-0.232-1.24-0.232-1.24s1.181 0.535 1.11 1.854c-0.089 1.642-1.521 2.794-3.137 2.361 -0.794-0.21-1.65-0.808-2.493-0.656 -0.857 0.153-1.517 0.154-2.229 0.622C102.187 119.781 101.047 119.999 99.757 119.999z" data-colored="true" data-filltype="sd3" data-stroketype="none" data-fromskin="true" fill="#421c0a" stroke-width="none" opacity="1"></path><path id="SvgjsPath4752" d="M93.316 110.211c0 0 3.245-4.518 6.193-4.573 2.73-0.05 6.324 3.968 6.324 3.968s-3.311-1.387-6.588-1.156C96.32 108.655 93.316 110.211 93.316 110.211z" data-colored="true" data-filltype="sd05" data-stroketype="none" data-fromskin="true" fill="#683e2a" stroke-width="none" opacity="1"></path></g><g id="svga-group-beardwrap" data-updown="0" data-leftright="0" data-dist="0" data-scaleX="0.9599995800000001" data-scaleY="0.9997995800000001" data-rotate="0" transform="matrix(0.9599996900000001 0 0 0.9997996900000001 3.999541494253222 0.027731869749175075)"><g id="svga-group-beard-single" data-updown="0" data-leftright="0" data-dist="0" data-scaleX="1.1500006300000003" data-scaleY="1.1500006300000003" data-rotate="0" transform="matrix(1.1500005200000003 0 0 1.1500005200000003 -15.00080273502445 -21.204073026546524)"><path id="SvgjsPath4614" d="M71.7 128.57c0.26 1.18 0.08 1.62-0.33 2.5C71.68 129.72 71.69 129.7 71.7 128.57zM98.59 157.65c-0.02-1.21-0.44-1.85-1.56-2.22C97.93 156.04 98.36 156.59 98.59 157.65zM94.8 156.56c-0.05-1.04-0.28-1.67-1.1-2.33C94.26 155.02 94.5 155.56 94.8 156.56zM90.87 155.24c0.08 0.46 0.74 1.31 1.33 1.5C91.71 156.46 90.87 155.24 90.87 155.24zM87.2 153.57c0.08 0.24 0.68 1.88 0.83 1.67C88.04 155.24 87.08 153.22 87.2 153.57zM89.7 150.74c-0.25 1-0.3 1.59-0.17 2.67C89.63 152.79 89.71 151.23 89.7 150.74zM91.87 147.9c-0.09 0.77-0.1 1.57 0 2.33C91.96 149.57 91.98 148.8 91.87 147.9zM93.04 152.74c0.66-0.85 0.89-1.29 1.17-2.33C94 150.74 93.19 152.38 93.04 152.74zM96.7 150.4c-0.08 1.28 0.04 1.85 0.5 2.83C96.84 151.54 96.96 152.13 96.7 150.4zM95.2 148.9c0.42-0.82 0.57-1.29 0.67-2.17C95.69 147.17 95.3 148.49 95.2 148.9zM99.04 147.4c-0.07 0.62 0.05 1.77 0.67 1.67C99.24 149.15 99.1 147.86 99.04 147.4zM95.2 144.9c0.32-0.74 0.56-1.58 0.67-2.33C95.54 143.32 95.32 144.13 95.2 144.9zM88.2 146.74c-0.29 0.88-0.39 1.45-0.33 2.5C87.97 148.78 88.17 147.23 88.2 146.74zM85.37 153.07c0.51-1 0.7-1.62 0.83-2.67C85.97 150.96 85.52 152.4 85.37 153.07zM83.04 150.57c-0.54 0.6 0.17 1.67 0.17 1.67C83.19 151.52 82.81 151.17 83.04 150.57zM84.04 144.8c0-0.06-0.12 0.23 0.16 2.6 0.06-2.55-0.17-2.93-0.17-2.5C84.04 144.9 84.04 144.86 84.04 144.8zM80.2 146.9c0.08 1.47 0.03 2.06 0.33 3C80.43 147.77 80.47 147.9 80.2 146.9zM77.7 147.07c-0.18 0.83-0.21 1.34 0.33 2C77.67 148.33 77.7 147.92 77.7 147.07zM73.54 144.9c0.02-0.51-0.01-1.11-0.15-1.68C73.39 143.13 73.32 143.89 73.54 144.9zM75.26 145.49c0 0 0.61-2.92 0.61-2.92C75.45 143.28 75.26 145.49 75.26 145.49zM78.7 141.9c-0.55 0.52-0.86 1.66-0.83 2.33C77.98 143.79 78.41 142.34 78.7 141.9zM81.37 144.74c0.25-1.07 0.3-1.7 0.17-2.83C81.43 142.58 81.36 144.19 81.37 144.74zM81.2 136.24c-0.2 0.65-0.24 0.95-0.17 1.67C81.05 137.83 81.2 136.3 81.2 136.24zM78.54 138.9c0.46-0.63 0-2.33 0-2.33S78.67 138.6 78.54 138.9zM74.87 137.74c0.17 0.83 0.46 1.74 0.83 2.5C75.54 139.41 75.25 138.53 74.87 137.74zM71.54 137.74c-0.3 1.81-0.06 2.33 0.33 3.33C71.63 139.59 71.56 139.4 71.54 137.74zM69.04 135.74c-0.4 0.64-0.54 2.16 0.17 3C68.8 137.97 68.84 136.33 69.04 135.74zM69.87 130.57c0 0-0.5 0.94-0.5 2.33C69.55 132.11 69.75 131.2 69.87 130.57zM73.04 133.07c0 0-0.83 0.06-0.5 2.5C72.91 132.51 73.04 133.07 73.04 133.07zM77.2 134.07c0.27-0.84 0.45-1.75 0.5-2.67C77.42 132.26 77.26 133.17 77.2 134.07zM75.2 127.9c-0.46 1.05-0.54 1.45-0.5 2.5C74.7 130.4 75.2 127.9 75.2 127.9zM79.2 126.24c-0.67 0.58-0.88 2.11-0.83 3C78.83 126.52 79.2 126.24 79.2 126.24zM83.7 126.4c-0.8 0.64-1.12 1.1-1.33 2.33C82.76 127.78 82.85 127.44 83.7 126.4zM86.54 129.07c0.64-0.63 1.5-3.33 1.5-3.33C87.86 125.39 86.75 128.72 86.54 129.07zM91.54 125.74c-0.56 0.13-1.43 2.64-1.67 3.17C90.17 128.48 91.54 125.74 91.54 125.74zM94.7 125.57c-0.48 0.99-0.74 1.51-1 2.67C94.18 127.29 94.41 126.51 94.7 125.57zM98.7 125.07c-0.76 1.71-0.43 1.22-1.33 3C97.94 127.36 98.37 126.74 98.7 125.07zM128.3 128.57c-0.26 1.18-0.08 1.62 0.33 2.5C128.32 129.72 128.31 129.7 128.3 128.57zM103.46 155.24c-1.12 0.37-1.49 0.68-1.5 1.89C102.19 156.06 102.56 155.84 103.46 155.24zM106.32 154.71c-0.82 0.66-1.14 1.49-1.19 2.53C105.43 156.24 105.77 155.49 106.32 154.71zM107.8 156.74c0.59-0.19 1.26-1.04 1.33-1.5C109.13 155.24 108.29 156.46 107.8 156.74zM111.96 155.24c0.15 0.21 0.75-1.42 0.83-1.67C112.92 153.22 111.96 155.24 111.96 155.24zM110.46 153.4c0.13-1.08 0.08-1.67-0.17-2.67C110.29 151.23 110.37 152.79 110.46 153.4zM108.13 150.24c0.1-0.77 0.09-1.57 0-2.33C108.02 148.8 108.04 149.57 108.13 150.24zM105.8 150.4c0.28 1.04 0.51 1.49 1.17 2.33C106.81 152.38 106 150.74 105.8 150.4zM102.8 153.24c0.46-0.99 0.58-1.55 0.5-2.83C103.04 152.13 103.16 151.54 102.8 153.24zM104.13 146.74c0.1 0.88 0.24 1.35 0.67 2.17C104.7 148.49 104.31 147.17 104.13 146.74zM101.3 148.07c0.61 0.1 0.74-1.05 0.67-1.67C101.9 146.86 101.76 148.15 101.3 148.07zM104.13 142.57c0.11 0.75 0.35 1.59 0.67 2.33C104.68 144.13 104.46 143.32 104.13 142.57zM112.13 149.24c0.06-1.05-0.04-1.62-0.33-2.5C111.83 147.23 112.03 148.78 112.13 149.24zM113.8 150.4c0.13 1.04 0.33 1.67 0.83 2.67C114.48 152.4 114.03 150.96 113.8 150.4zM116.8 152.24c0 0 0.71-1.06 0.17-1.67C117.19 151.17 116.81 151.52 116.8 152.24zM115.96 144.9c0-0.43-0.22-0.05-0.17 2.5 0.28-2.37 0.16-2.66 0.16-2.6C115.96 144.86 115.96 144.9 115.96 144.9zM119.46 149.9c0.3-0.94 0.25-1.53 0.33-3C119.53 147.9 119.57 147.77 119.46 149.9zM121.96 149.07c0.54-0.66 0.51-1.17 0.33-2C122.3 147.92 122.33 148.33 121.96 149.07zM126.61 143.23c-0.14 0.57-0.17 1.17-0.15 1.68C126.68 143.89 126.61 143.13 126.61 143.23zM124.13 142.57c0 0 0.61 2.92 0.61 2.92S124.55 143.28 124.13 142.57zM122.13 144.24c0.03-0.67-0.29-1.81-0.83-2.33C121.59 142.34 122.02 143.79 122.13 144.24zM118.46 141.9c-0.14 1.13-0.09 1.76 0.17 2.83C118.64 144.19 118.57 142.58 118.46 141.9zM118.96 137.9c0.07-0.72 0.03-1.02-0.17-1.67C118.8 136.3 118.95 137.83 118.96 137.9zM121.46 136.57c0 0-0.46 1.7 0 2.33C121.33 138.6 121.46 136.57 121.46 136.57zM124.3 140.24c0.37-0.76 0.67-1.67 0.83-2.5C124.75 138.53 124.46 139.41 124.3 140.24zM128.13 141.07c0.4-1 0.64-1.53 0.33-3.33C128.44 139.4 128.37 139.59 128.13 141.07zM130.8 138.74c0.71-0.84 0.57-2.36 0.17-3C131.16 136.33 131.2 137.97 130.8 138.74zM130.63 132.9c0-1.4-0.5-2.33-0.5-2.33C130.25 131.2 130.45 132.11 130.63 132.9zM127.46 135.57c0.33-2.44-0.5-2.5-0.5-2.5S127.09 132.51 127.46 135.57zM122.3 131.4c0.05 0.91 0.23 1.83 0.5 2.67C122.74 133.17 122.58 132.26 122.3 131.4zM125.3 130.4c0.04-1.05-0.04-1.45-0.5-2.5C124.8 127.9 125.3 130.4 125.3 130.4zM121.63 129.24c0.05-0.89-0.17-2.42-0.83-3C120.8 126.24 121.17 126.52 121.63 129.24zM117.63 128.74c-0.21-1.24-0.53-1.7-1.33-2.33C117.15 127.44 117.24 127.78 117.63 128.74zM111.96 125.74c0 0 0.86 2.7 1.5 3.33C113.25 128.72 112.14 125.39 111.96 125.74zM110.13 128.9c-0.24-0.53-1.1-3.04-1.67-3.17C108.46 125.74 109.83 128.48 110.13 128.9zM106.3 128.24c-0.26-1.15-0.52-1.68-1-2.67C105.59 126.51 105.82 127.29 106.3 128.24zM102.63 128.07c-0.91-1.78-0.57-1.29-1.33-3C101.63 126.74 102.05 127.36 102.63 128.07zM100.51 151.66c-1.02 1.58-0.98 2.27-0.95 3.27C99.85 153.5 99.83 153.51 100.51 151.66zM97.93 142.95c0.51 1.42 0.57 1.57 0.82 2.59C98.72 144.45 98.5 143.87 97.93 142.95zM100.79 145.08c0.25-1.02 0.78-0.71 1.29-2.13C101.5 143.87 100.81 144 100.79 145.08z" data-colored="true" data-filltype="tone" data-stroketype="none" fill="#080806" stroke-width="none" opacity="1"></path></g></g><g id="svga-group-mustache-single" data-updown="0" data-leftright="0" data-dist="0" data-scaleX="1" data-scaleY="1" data-rotate="0"><path id="SvgjsPath4578" d="M100,18.13L100,18.13L100,18.13L100,18.13z" data-colored="true" data-filltype="tone" data-stroketype="none" fill="#5d3b2b" stroke-width="none" opacity="1"></path></g><g id="svga-group-hair-front" data-updown="0" data-leftright="0" data-dist="0" data-scaleX="0.9599995800000001" data-scaleY="0.9997995800000001" data-rotate="0" transform="matrix(0.9599996900000001 0 0 0.9997996900000001 4.000030999999993 0.003631620131891111)"><path id="SvgjsPath4568" d="M158.43 41.325C140-4.765 100 0.405 100 0.405s-40-5.169-58.43 40.92c-9.245 23.12 2.158 50.324 2.158 50.324h5.826c-5.094-21.752 0.796-17.662 1.176-21.722 0.118-1.255-0.3-3.367-0.421-4.622 -0.592-6.112 1.982-18.029 5.245-23.173 1.603-2.526 5.369-6.659 8.174-7.699 9.97-3.694 20.044 0.715 22.854 1.421 4.461 1.12 22.373 1.12 26.836 0 3.343-0.839 13.182-4.905 22.854-1.321 2.806 1.04 6.871 4.972 8.474 7.499 3.263 5.144 5.537 16.16 4.945 22.272 -0.121 1.255-0.539 4.367-0.422 5.623 0.107 1.147 2.617 3.689 2.898 4.807 1.16 4.612-1.722 16.915-1.722 16.915h5.825C156.271 91.649 167.676 64.445 158.43 41.325z" data-colored="true" data-filltype="tone" data-stroketype="none" fill="#513021" stroke-width="none" opacity="1" stroke="none"></path><path id="SvgjsPath4569" d="M154.938 31.163C136.178-3.114 101.979-0.631 100-0.455c-1.979-0.176-36.177-2.659-54.938 31.618C30.57 57.641 41.57 88.137 42.907 91.612c0.076 0.197 1.576 0.038 1.576 0.038 -0.006-0.015-0.104-0.392-0.166-0.55 -1.209-3.12-12.189-33.18 2.061-59.216C65.111-2.342 99.595 1.007 99.94 1.046L100 0.504l0.06 0.542c0.345-0.039 34.829-3.388 53.563 30.837 14.563 26.61 2.773 57.423 1.996 59.383 -0.021 0.055-0.107 0.375-0.111 0.383 0 0 1.506 0.169 1.575-0.011C158.374 88.294 169.467 57.709 154.938 31.163z" data-colored="true" data-filltype="sd3" data-stroketype="none" fill="#230e04" stroke-width="none" opacity="1" stroke="none"></path></g><g id="svga-group-glasses-single" data-updown="0" data-leftright="0" data-dist="0" data-scaleX="1" data-scaleY="1" data-rotate="0"><path id="SvgjsPath3579" d="M100,18.13L100,18.13L100,18.13L100,18.13z" data-colored="true" data-filltype="tone" data-stroketype="none" fill="#26120b" stroke-width="none" opacity="1"></path></g></g></g><rect id="SvgjsRect1036" width="200" height="15" x="0" y="185" fill="#ecf0f1" opacity="0.5" style="display:none;"></rect><text id="SvgjsText1037" font-family="&quot;Roboto&quot;, &quot;Helvetica Neue&quot;, Helvetica, Arial, sans-serif" style="font-size:0.84em;font-family:&quot;Roboto&quot;, &quot;Helvetica Neue&quot;, Helvetica, Arial, sans-serif;text-anchor:middle;font-weight:400;display:none;" font-size="0.84em" text-anchor="middle" font-weight="400" fill="#000000" x="100" y="185"><tspan id="SvgjsTspan1038" dy="1.2em" x="100" style="font-size:0.84em;font-family:&quot;Roboto&quot;, &quot;Helvetica Neue&quot;, Helvetica, Arial, sans-serif;text-anchor:middle;font-weight:400;">Created on svgAvatars.com</tspan></text></g><defs id="SvgjsDefs1001"><radialGradient id="SvgjsRadialGradient2886" cx="100" cy="114" r="41" gradientUnits="userSpaceOnUse" class="svga-on-canvas-facehighlight-gradient-single-0"><stop id="SvgjsStop2887" stop-opacity="0.5" stop-color="#7f5847" offset="0" data-stoptype="hl1"></stop><stop id="SvgjsStop2888" stop-opacity="0" stop-color="#704633" offset="0.9" data-stoptype="tone"></stop></radialGradient><radialGradient id="SvgjsRadialGradient2890" cx="100" cy="54" r="37" gradientUnits="userSpaceOnUse" class="svga-on-canvas-facehighlight-gradient-single-1"><stop id="SvgjsStop2891" stop-opacity="0.5" stop-color="#7f5847" offset="0" data-stoptype="hl1"></stop><stop id="SvgjsStop2892" stop-opacity="0" stop-color="#704633" offset="0.9" data-stoptype="tone"></stop></radialGradient><radialGradient id="SvgjsRadialGradient3297" cx="-568.659" cy="-521.042" r="59.751" gradientTransform="matrix(0.096 -0.0248 0.0245 0.0961 141.2814 119.9893)" gradientUnits="userSpaceOnUse" class="svga-on-canvas-eyesiris-gradient-left-1"><stop id="SvgjsStop3298" stop-opacity="1" stop-color="#ffffff" offset="0" data-stoptype="#ffffff"></stop><stop id="SvgjsStop3299" stop-opacity="0" stop-color="#ffffff" offset="1" data-stoptype="#ffffff"></stop></radialGradient><radialGradient id="SvgjsRadialGradient3301" cx="-582.838" cy="-519.099" r="59.745" gradientTransform="matrix(0.0991 8.856319e-004 -0.0011 0.0991 131.1134 135.9855)" gradientUnits="userSpaceOnUse" class="svga-on-canvas-eyesiris-gradient-left-2"><stop id="SvgjsStop3302" stop-opacity="1" stop-color="#ffffff" offset="0" data-stoptype="#ffffff"></stop><stop id="SvgjsStop3303" stop-opacity="0" stop-color="#ffffff" offset="1" data-stoptype="#ffffff"></stop></radialGradient><linearGradient id="SvgjsLinearGradient3307" x1="122.67" y1="88.268" x2="123.606" y2="87.152" gradientTransform="matrix(1 0 0 1 -52 0)" gradientUnits="userSpaceOnUse" class="svga-on-canvas-eyesiris-gradient-left-5"><stop id="SvgjsStop3308" stop-opacity="1" stop-color="#ffffff" offset="0" data-stoptype="#ffffff"></stop><stop id="SvgjsStop3309" stop-opacity="0" stop-color="#ffffff" offset="1" data-stoptype="#ffffff"></stop></linearGradient><linearGradient id="SvgjsLinearGradient3315" x1="129.636" y1="79.822" x2="127.91" y2="81.879" gradientTransform="matrix(1 0 0 1 -52 0)" gradientUnits="userSpaceOnUse" class="svga-on-canvas-eyesiris-gradient-left-7"><stop id="SvgjsStop3316" stop-opacity="1" stop-color="#ffffff" offset="0" data-stoptype="#ffffff"></stop><stop id="SvgjsStop3317" stop-opacity="0" stop-color="#ffffff" offset="1" data-stoptype="#ffffff"></stop></linearGradient><radialGradient id="SvgjsRadialGradient3320" cx="-568.654" cy="-521.042" r="59.752" gradientTransform="matrix(0.096 -0.0248 0.0245 0.0961 193.2804 119.9894)" gradientUnits="userSpaceOnUse" class="svga-on-canvas-eyesiris-gradient-right-1"><stop id="SvgjsStop3321" stop-opacity="1" stop-color="#ffffff" offset="0" data-stoptype="#ffffff"></stop><stop id="SvgjsStop3322" stop-opacity="0" stop-color="#ffffff" offset="1" data-stoptype="#ffffff"></stop></radialGradient><radialGradient id="SvgjsRadialGradient3324" cx="-582.833" cy="-519.102" r="59.747" gradientTransform="matrix(0.0991 8.856319e-004 -0.0011 0.0991 183.1126 135.9856)" gradientUnits="userSpaceOnUse" class="svga-on-canvas-eyesiris-gradient-right-2"><stop id="SvgjsStop3325" stop-opacity="1" stop-color="#ffffff" offset="0" data-stoptype="#ffffff"></stop><stop id="SvgjsStop3326" stop-opacity="0" stop-color="#ffffff" offset="1" data-stoptype="#ffffff"></stop></radialGradient><linearGradient id="SvgjsLinearGradient3330" x1="122.67" y1="88.268" x2="123.606" y2="87.152" gradientUnits="userSpaceOnUse" class="svga-on-canvas-eyesiris-gradient-right-5"><stop id="SvgjsStop3331" stop-opacity="1" stop-color="#ffffff" offset="0" data-stoptype="#ffffff"></stop><stop id="SvgjsStop3332" stop-opacity="0" stop-color="#ffffff" offset="1" data-stoptype="#ffffff"></stop></linearGradient><linearGradient id="SvgjsLinearGradient3338" x1="129.636" y1="79.822" x2="127.91" y2="81.879" gradientUnits="userSpaceOnUse" class="svga-on-canvas-eyesiris-gradient-right-7"><stop id="SvgjsStop3339" stop-opacity="1" stop-color="#ffffff" offset="0" data-stoptype="#ffffff"></stop><stop id="SvgjsStop3340" stop-opacity="0" stop-color="#ffffff" offset="1" data-stoptype="#ffffff"></stop></linearGradient><linearGradient id="SvgjsLinearGradient4314" x1="100" y1="144" x2="100" y2="141" gradientUnits="userSpaceOnUse" class="svga-on-canvas-mouth-gradient-single-0"><stop id="SvgjsStop4315" stop-opacity="1" stop-color="#683e2a" offset="0.1" data-stoptype="sd05"></stop><stop id="SvgjsStop4316" stop-opacity="1" stop-color="#613622" offset="1" data-stoptype="sd1"></stop></linearGradient><linearGradient id="SvgjsLinearGradient4508" x1="132" y1="78" x2="126" y2="84" gradientTransform="matrix(1 0 0 1 -50 0)" gradientUnits="userSpaceOnUse" class="svga-on-canvas-eyesiris-gradient-left-6"><stop id="SvgjsStop4509" stop-opacity="1" stop-color="#ffffff" offset="0" data-stoptype="#ffffff"></stop><stop id="SvgjsStop4510" stop-opacity="0" stop-color="#ffffff" offset="1" data-stoptype="#ffffff"></stop></linearGradient><linearGradient id="SvgjsLinearGradient4518" x1="132" y1="78" x2="126" y2="84" gradientUnits="userSpaceOnUse" class="svga-on-canvas-eyesiris-gradient-right-6"><stop id="SvgjsStop4519" stop-opacity="1" stop-color="#ffffff" offset="0" data-stoptype="#ffffff"></stop><stop id="SvgjsStop4520" stop-opacity="0" stop-color="#ffffff" offset="1" data-stoptype="#ffffff"></stop></linearGradient><linearGradient id="SvgjsLinearGradient4740" x1="100" y1="171" x2="100" y2="130" gradientUnits="userSpaceOnUse" class="svga-on-canvas-chinshadow-gradient-single-0"><stop id="SvgjsStop4741" stop-opacity="0.8" stop-color="#613622" offset="0" data-stoptype="sd1"></stop><stop id="SvgjsStop4742" stop-opacity="1" stop-color="#421c0a" offset="0.7" data-stoptype="sd3"></stop></linearGradient><radialGradient id="SvgjsRadialGradient4764" cx="126.289" cy="84.919" r="10.712" gradientTransform="matrix(-1 0 0 1 200 0)" gradientUnits="userSpaceOnUse" class="svga-on-canvas-eyesback-gradient-left-0"><stop id="SvgjsStop4765" stop-opacity="1" stop-color="#ffffff" offset="0" data-stoptype="#ffffff"></stop><stop id="SvgjsStop4766" stop-opacity="1" stop-color="#fdfefe" offset="0.544" data-stoptype="#fdfefe"></stop><stop id="SvgjsStop4767" stop-opacity="1" stop-color="#f6f8f9" offset="0.74" data-stoptype="#f6f8f9"></stop><stop id="SvgjsStop4768" stop-opacity="1" stop-color="#eaeff2" offset="0.879" data-stoptype="#eaeff2"></stop><stop id="SvgjsStop4769" stop-opacity="1" stop-color="#d9e3e8" offset="0.992" data-stoptype="#d9e3e8"></stop><stop id="SvgjsStop4770" stop-opacity="1" stop-color="#d8e2e7" offset="1" data-stoptype="#d8e2e7"></stop></radialGradient><radialGradient id="SvgjsRadialGradient4772" cx="125.89" cy="84.919" r="10.712" gradientUnits="userSpaceOnUse" class="svga-on-canvas-eyesback-gradient-right-0"><stop id="SvgjsStop4773" stop-opacity="1" stop-color="#ffffff" offset="0" data-stoptype="#ffffff"></stop><stop id="SvgjsStop4774" stop-opacity="1" stop-color="#fdfefe" offset="0.544" data-stoptype="#fdfefe"></stop><stop id="SvgjsStop4775" stop-opacity="1" stop-color="#f6f8f9" offset="0.74" data-stoptype="#f6f8f9"></stop><stop id="SvgjsStop4776" stop-opacity="1" stop-color="#eaeff2" offset="0.879" data-stoptype="#eaeff2"></stop><stop id="SvgjsStop4777" stop-opacity="1" stop-color="#d9e3e8" offset="0.992" data-stoptype="#d9e3e8"></stop><stop id="SvgjsStop4778" stop-opacity="1" stop-color="#d8e2e7" offset="1" data-stoptype="#d8e2e7"></stop></radialGradient><radialGradient id="SvgjsRadialGradient4780" cx="126.289" cy="84.919" r="10.712" gradientTransform="matrix(-1 0 0 1 200 0)" class="svga-on-canvas-eyesfront-gradient-left-0"><stop id="SvgjsStop4781" stop-opacity="1" stop-color="#ffffff" offset="0" data-stoptype="#ffffff"></stop><stop id="SvgjsStop4782" stop-opacity="1" stop-color="#fdfefe" offset="0.544" data-stoptype="#fdfefe"></stop><stop id="SvgjsStop4783" stop-opacity="1" stop-color="#f6f8f9" offset="0.74" data-stoptype="#f6f8f9"></stop><stop id="SvgjsStop4784" stop-opacity="1" stop-color="#eaeff2" offset="0.879" data-stoptype="#eaeff2"></stop><stop id="SvgjsStop4785" stop-opacity="1" stop-color="#d9e3e8" offset="0.992" data-stoptype="#d9e3e8"></stop><stop id="SvgjsStop4786" stop-opacity="1" stop-color="#d8e2e7" offset="1" data-stoptype="#d8e2e7"></stop></radialGradient><radialGradient id="SvgjsRadialGradient4790" cx="123.715" cy="85.489" fx="135.434" fy="85.522" r="16.667" gradientTransform="matrix(0.9998 0.0208 0.0166 -0.7998 -48.826 151.2907)" gradientUnits="userSpaceOnUse" class="svga-on-canvas-eyesfront-gradient-left-3"><stop id="SvgjsStop4791" stop-opacity="1" stop-color="#613622" offset="0" data-stoptype="sd1"></stop><stop id="SvgjsStop4792" stop-opacity="0.3" stop-color="#613622" offset="0.7" data-stoptype="sd1"></stop><stop id="SvgjsStop4793" stop-opacity="0" stop-color="#704633" offset="1" data-stoptype="tone"></stop></radialGradient><radialGradient id="SvgjsRadialGradient4795" cx="122.874" cy="101.325" r="26.878" gradientTransform="matrix(-1 0 0 0.7923 200 21.0491)" gradientUnits="userSpaceOnUse" class="svga-on-canvas-eyesfront-gradient-left-4"><stop id="SvgjsStop4796" stop-opacity="0" stop-color="#000000" offset="0.95" data-stoptype="#000000"></stop><stop id="SvgjsStop4797" stop-opacity="0.2" stop-color="#000000" offset="1" data-stoptype="#000000"></stop></radialGradient><radialGradient id="SvgjsRadialGradient4801" cx="125.89" cy="84.919" r="10.712" gradientUnits="userSpaceOnUse" class="svga-on-canvas-eyesfront-gradient-right-0"><stop id="SvgjsStop4802" stop-opacity="1" stop-color="#ffffff" offset="0" data-stoptype="#ffffff"></stop><stop id="SvgjsStop4803" stop-opacity="1" stop-color="#fdfefe" offset="0.544" data-stoptype="#fdfefe"></stop><stop id="SvgjsStop4804" stop-opacity="1" stop-color="#f6f8f9" offset="0.74" data-stoptype="#f6f8f9"></stop><stop id="SvgjsStop4805" stop-opacity="1" stop-color="#eaeff2" offset="0.879" data-stoptype="#eaeff2"></stop><stop id="SvgjsStop4806" stop-opacity="1" stop-color="#d9e3e8" offset="0.992" data-stoptype="#d9e3e8"></stop><stop id="SvgjsStop4807" stop-opacity="1" stop-color="#d8e2e7" offset="1" data-stoptype="#d8e2e7"></stop></radialGradient><radialGradient id="SvgjsRadialGradient4811" cx="123.315" cy="85.489" fx="135.034" fy="85.522" r="16.667" gradientTransform="matrix(-0.9998 0.0208 -0.0166 -0.7998 248.0273 151.299)" gradientUnits="userSpaceOnUse" class="svga-on-canvas-eyesfront-gradient-right-3"><stop id="SvgjsStop4812" stop-opacity="1" stop-color="#613622" offset="0" data-stoptype="sd1"></stop><stop id="SvgjsStop4813" stop-opacity="0.3" stop-color="#613622" offset="0.7" data-stoptype="sd1"></stop><stop id="SvgjsStop4814" stop-opacity="0" stop-color="#704633" offset="1" data-stoptype="tone"></stop></radialGradient><radialGradient id="SvgjsRadialGradient4816" cx="122.475" cy="101.325" r="26.878" gradientTransform="matrix(1 0 0 0.7923 0 21.0491)" gradientUnits="userSpaceOnUse" class="svga-on-canvas-eyesfront-gradient-right-4"><stop id="SvgjsStop4817" stop-opacity="0" stop-color="#000000" offset="0.95" data-stoptype="#000000"></stop><stop id="SvgjsStop4818" stop-opacity="0.2" stop-color="#000000" offset="1" data-stoptype="#000000"></stop></radialGradient></defs></svg>