<svg id="svga-svgcanvas" xmlns="http://www.w3.org/2000/svg" version="1.1" xlink="http://www.w3.org/1999/xlink"
     style="position:relative;overflow:hidden;left:-0.5px;top:0px;" class="svga-svg" viewBox="0 0 200 200"
     preserveAspectRatio="xMinYMin meet">
    <g id="svga-group-wrapper">
        <g id="svga-group-backs-single">
            <path id="SvgjsPath4898" d="M225 225H-25V-25h250V225z" data-colored="true" data-filltype="tone"
                  data-stroketype="none" fill="#ffffff" stroke-width="none" opacity="1"></path>
        </g>
        <g id="svga-group-subwrapper" data-updown="1.6365788271696354e-16" data-leftright="-1.6365788271696354e-16"
           data-dist="0" data-scaleX="1" data-scaleY="1" data-rotate="0"
           transform="matrix(0.99999989 0 0 0.99999989 0.000010988890821295172 0.000012810917922934095) translate(9.999999983634211e-8 1.6365788271696354e-16)">
            <g id="svga-group-hair-back" data-updown="0" data-leftright="0" data-dist="0"
               data-scaleX="0.9599995800000001" data-scaleY="0.9997995800000001" data-rotate="0"
               transform="matrix(0.9599996900000001 0 0 0.9997996900000001 1.3835907398349718 0.04213641092235321) rotate(-1e-7 100 150)">
                <path id="SvgjsPath6743"
                      d="M151.582 41.064l-99.508-5.662c0 0-25.074 182.88-25.074 188.596 0 0 100.899 0.72 143.907 0C170.103 216.079 151.582 41.064 151.582 41.064z"
                      data-colored="true" data-filltype="sd2" data-stroketype="none" fill="#be8f5f" stroke-width="none"
                      opacity="1"></path>
            </g>
            <g id="svga-group-humanbody-single">
                <path id="SvgjsPath2761"
                      d="M190.858 199.866c-6.008-10.158-13.474-11.973-19.628-13.936 -6.323-2.016-19.346-3.178-26.449-4.6 -6.86-1.373-23.153-5.789-23.339-13.488 -0.192-8.066 4.291-40.09 4.291-40.09H74.005c0 0 4.487 32.023 4.294 40.09 -0.184 7.699-16.48 12.115-23.341 13.488 -7.104 1.422-20.125 2.584-26.448 4.6 -6.156 1.963-13.624 3.777-19.632 13.936 -3.644 6.16-6.008 16.133-6.008 27.133h194C196.869 215.999 194.509 206.026 190.858 199.866z"
                      data-colored="true" data-filltype="tone" data-stroketype="none" data-fromskin="true"
                      fill="#ffd0bc" stroke-width="none" opacity="1" stroke="none"></path>
                <path id="SvgjsPath2762"
                      d="M121.442 167.843c2.495 10.929 18.165 13.698 26.293 15.325 21.909 4.379 33.772 5.134 42.297 19.539 2.903 4.916 5.459 15.864 5.962 24.153 1.835 0.291 0.531-17.432-5.136-26.994 -9.742-16.472-29.089-15.135-46.077-18.535C137.921 179.958 121.628 175.542 121.442 167.843L121.442 167.843zM78.558 167.843c-0.186 7.699-16.479 12.115-23.339 13.488 -16.988 3.4-36.335 2.063-46.077 18.535 -5.667 9.563-6.971 27.285-5.136 26.994 0.503-8.289 3.059-19.237 5.962-24.153 8.524-14.405 20.388-15.16 42.297-19.539C60.393 181.541 76.063 178.771 78.558 167.843L78.558 167.843z"
                      data-colored="true" data-filltype="hl1" data-stroketype="none" data-fromskin="true" fill="#ffe2d6"
                      stroke-width="none" opacity="1" stroke="none"></path>
                <path id="SvgjsPath2763"
                      d="M51.206 189.513c0 0 28.641 0.299 33.473 1.885 2.314 0.758 8.372 5.633 8.372 5.633s-6.556-3.17-8.658-3.758C79.51 191.909 51.206 189.513 51.206 189.513zM99.795 199.999c2.053-0.041 7.887-3.799 7.887-3.799s-5.574 2.059-7.342 2.16c-1.491 0.086-6.366-1.238-6.366-1.238S98.112 200.032 99.795 199.999zM117.008 192.757c6.75-1.818 29.786-3.23 29.786-3.23s-23.791-0.516-30.51 1.725c-2.252 0.752-7.562 5.16-7.562 5.16S114.786 193.354 117.008 192.757z"
                      data-colored="true" data-filltype="sd1" data-stroketype="none" data-fromskin="true" fill="#f0b399"
                      stroke-width="none" opacity="1" stroke="none"></path>
                <path id="SvgjsPath2764"
                      d="M190.858 199.866c-9.741-16.471-29.122-15.142-46.077-18.535 -6.86-1.373-23.153-5.789-23.339-13.488 -0.192-8.066 4.291-40.09 4.291-40.09H74.005c0 0 4.487 32.023 4.294 40.09 -0.184 7.699-16.48 12.115-23.341 13.488 -7.104 1.422-20.125 2.584-26.448 4.6 -6.156 1.963-13.624 3.777-19.632 13.936 -3.644 6.16-6.008 16.133-6.008 27.133h194C196.869 215.999 194.509 206.026 190.858 199.866z"
                      data-colored="true" data-filltype="none" data-stroketype="sd3" data-fromskin="true" fill="none"
                      stroke="#d17f5b" stroke-width="1.5" opacity="1"></path>
            </g>
            <g id="svga-group-chinshadow-single">
                <path id="SvgjsPath5972"
                      d="M74.767 128.517c0.63 4.561 3.424 25.109 4.058 35.365 4.747 3.863 11.162 7.168 21.177 7.121 9.822 0.046 16.18-3.132 20.899-6.899 0.607-10.183 3.436-30.995 4.069-35.587l0.017-0.113H74.751L74.767 128.517z"
                      data-colored="false" data-filltype="gradient" data-stroketype="none" data-fromskin="true"
                      fill="url(#SvgjsLinearGradient5973)" opacity="1"></path>
            </g>
            <g id="svga-group-clothes-single" data-updown="0" data-leftright="0" data-dist="0" data-scaleX="1"
               data-scaleY="1" data-rotate="0">
                <path id="SvgjsPath6774"
                      d="M103.441 229.899c-18.333 0-36.705-0.539-54.995-1.778 -15.203-1.031-30.378-2.423-45.577-3.513 -0.395 0.562-0.339-0.934-0.358-1.242 -0.063-1.019-0.104-2.04-0.108-3.061 -0.009-2.058 0.125-4.13 0.574-6.143 0.412-1.843 1.173-3.577 1.822-5.344 0.053-0.144-1.718-1.102-2-1.258 0.727-1.272 1.67-2.456 2.597-3.584 -1.756-1.127-3.547-2.263-5.246-3.476 2.355-2.815 5.602-4.512 8.114-7.131 -1.025-0.663-2.03-1.359-2.985-2.12 -0.249-0.198-0.494-0.4-0.739-0.604 -0.398-0.33-0.075-0.435 0.216-0.759 0.425-0.499 0.867-0.984 1.325-1.454 1.696-1.742 3.599-3.279 5.626-4.62 4.417-2.919 9.418-4.918 14.568-6.104 1.312-0.303 2.636-0.552 3.968-0.749 0.461-0.08 0.925-0.19 1.351-0.075 0.531 0.144 1.088 0.551 1.586 0.79 2.117 1.021 4.265 1.973 6.442 2.859 4.636 1.888 9.383 3.491 14.194 4.869 20.634 5.908 42.528 7.305 63.728 3.957 10.546-1.665 20.96-4.469 30.987-8.119 2.774-1.011 5.52-2.112 8.219-3.31 1.013-0.449 2.021-0.91 3.02-1.389 0.744-0.356 1.186-0.409 2.011-0.421 1.568-0.021 3.148-0.094 4.706 0.141 1.621 0.243 3.188 0.774 4.719 1.343 5.999 2.224 11.475 5.193 16.34 9.392 -0.431 0.458-0.87 0.913-1.323 1.35 1.913 1.457 3.546 3.266 5.062 5.121 0.879 1.077 1.694 2.196 2.517 3.315 0.321 0.438 0.049 2.004 0.067 2.573 0.1 3.061 0.932 5.686 2.035 8.515 0.77 1.973 1.441 3.979 1.761 6.08 0.436 2.859 0.07 5.589-0.246 8.435 -0.124 1.114-0.213 2.231-0.309 3.348 -0.022 0.256-0.044 0.512-0.071 0.768 -0.883 0-1.768 0.036-2.65 0.053 -4.932 0.09-9.864 0.194-14.795 0.344 -13.384 0.405-26.743 1.258-40.132 1.603 -6.907 0.178-13.815 0.343-20.715 0.725C113.639 229.509 108.56 229.899 103.441 229.899z"
                      data-colored="true" data-filltype="tone" data-stroketype="none" fill="#cbe9ee" stroke-width="none"
                      opacity="1" stroke="none"></path>
                <path id="SvgjsPath6775"
                      d="M77.072 191.553c-1.295 1.902-2.474 3.882-3.612 5.878 0.287-2.083 0.496-4.185 0.693-6.286C75.123 191.296 76.092 191.433 77.072 191.553zM63.583 189.148c-1.714 3.7-3.554 7.359-4.999 11.145 2.029-3.547 4.106-7.188 5.76-10.973 2.949 0.654 5.948 1.226 8.976 1.7 -0.287 2.577-0.464 5.174-0.613 7.761 -0.95 1.683-1.88 3.374-2.84 5.041 -3.623 6.266-4.811 11.162-5.662 14.774 -1.625-0.151-2.969-0.323-3.7-0.436 -4.553-0.704-6.474-1.493-7.751-2.169 1.157-4.26 2.227-8.547 2.989-12.896 0.891-5.067 1.316-10.248 2.384-15.28C59.92 188.301 61.742 188.749 63.583 189.148zM43.154 182.938c-2.722 2.521-4.514 4.708-9.047 10.241 1.425-3.317 3.316-7.444 5.79-11.571C40.966 182.064 42.045 182.513 43.154 182.938zM187.52 189.909c0.012 0.01 0.028 0.027 0.049 0.049 2.069 1.976 4.257 4.631 6.019 6.931v0.009 0.011c-1.635 1.455-2.939 2.823-4.098 3.442 -0.674-0.798-1.366-1.588-2.059-2.398 -1.444-1.682-2.653-3.582-4.147-5.218 -0.079-0.087-0.16-0.183-0.238-0.268 -0.139-0.142-0.275-0.285-0.417-0.418 0.725-0.684 1.427-1.379 2.131-2.074 0.116-0.112 0.225-0.227 0.334-0.34 0.338-0.325 0.664-0.658 0.991-0.99C186.55 189.016 187.024 189.443 187.52 189.909zM173.05 206.446c1.269 1.824 3.257 4.154 5.147 6.285 -2.17 1.178-3.633 2.176-4.634 2.853 -1.474-1.827-3.256-3.832-6.097-7.256 0.149-0.076 0.298-0.151 0.445-0.229 1.682-0.901 2.84-1.862 4.356-2.852 0.206 0.353 0.452 0.741 0.752 1.151C173.021 206.407 173.029 206.426 173.05 206.446zM163.229 180.506c4.891 4.801 9.126 9.662 13.956 16.971 1.199-1.139 2.438-2.243 3.713-3.315 0.588-0.491 1.192-0.973 1.814-1.437 -6.55-6.479-13.323-12.555-22.224-14.804C161.277 178.646 162.18 179.49 163.229 180.506zM148.026 182.634c6.139 7.397 15.392 15.233 18.885 19.114 -4.039-5.621-12.343-13.122-18.212-19.37 2.318-0.885 4.585-1.836 6.823-2.86 6.084 7.7 14.174 19.093 17.991 24.551 -0.493 0.246-0.94 0.486-1.367 0.731 -0.03 0.021-0.057 0.037-0.086 0.058 -1.407 0.848-2.594 1.787-4.702 2.957 -0.071 0.037-0.148 0.076-0.218 0.115 -0.07 0.038-0.129 0.065-0.188 0.096 -1.481 0.768-2.979 1.243-4.653 1.604 -0.791 0.161-1.592 0.334-2.385 0.553 -3.394-4.488-6.057-9.527-9.213-14.169 -2.019-2.978-4.374-5.782-6.257-8.834 -0.535-0.875-1.058-1.797-1.633-2.689C144.574 183.909 146.317 183.29 148.026 182.634zM118.851 190.394c1.889 4.355 2.661 5.896 5.682 15.928 -0.495-2.482-0.931-4.964-1.693-7.379 -0.922-2.899-1.782-5.278-3.324-8.662 2.769-0.506 5.492-1.046 8.153-1.644 2.407 2.69 4.283 6.083 9.641 13.158 2.721 3.549 5.434 7.114 7.739 10.907 -1.166 0.617-2.384 1.141-3.654 1.454 -18.623 5.486-11.567 3.48-20.01 5.041 -0.148 0.026-0.347 0.057-0.565 0.085 -0.583-2.891-1.513-6.551-3.432-12.752 -2.307-7.427-4.168-11.837-5.651-14.986C114.148 191.192 116.515 190.812 118.851 190.394zM106.074 192.247c1.719 4.784 3.046 9.699 4.035 14.692 0.636 3.271 1.181 6.552 1.753 9.822 0.247 1.417 0.477 2.854 0.792 4.271 -4.93 0.818-10.224 0.077-13.531 0.03 0.07-2.283 0.051-2.807 0.189-4.148 0.306-3.042 0.484-6.113 0.802-9.166 0.317-3.178 0.714-6.351 0.671-9.547 -0.029-1.873-0.087-3.748 0.139-5.581C102.649 192.535 104.372 192.409 106.074 192.247zM96.463 192.752c-1.318 4.261-2.733 8.502-3.971 12.79 -0.02-4.279-0.147-8.549-0.386-12.819C93.562 192.761 95.017 192.771 96.463 192.752zM88.019 192.571c-0.396 5.212-0.989 10.394-1.325 15.614 1.197-6.856 1.593-10.974 1.572-15.593 1.17 0.055 2.336 0.104 3.505 0.12 -0.13 5.041-0.1 10.09 0.079 15.129 0 0.01 0 0.01 0 0.01 -1.465 5.439-1.772 9.215-1.841 12.496 -2.801 0.504-5.663 0.741-8.512 0.903 -5.87 0.333-7.988-0.172-10.224-0.353 0.147-0.504 0.316-1.006 0.484-1.513 0.041-0.122 0.09-0.256 0.129-0.379 1.791-5.287 4.147-10.643 5.571-13.475 3.625-7.169 5.316-10.839 6.642-13.228C85.406 192.421 86.713 192.504 88.019 192.571zM52.101 186.085c-0.841 2.995-1.771 7.361-4.414 15.368 -1.138 3.432-2.217 6.847-3.137 10.346 -0.218 0.836-0.327 1.702-0.376 2.577 -1.989-0.78-3.939-1.626-5.889-2.5 -1.218-0.581-2.237-1.087-3.088-1.522 -0.05-0.028-0.109-0.058-0.159-0.087 -0.96-0.492-1.711-0.911-2.326-1.234 2.197-3.14 4.652-6.676 6.77-9.775 3.217-4.688 5.988-9.68 9.433-14.206C49.963 185.4 51.022 185.754 52.101 186.085zM33.762 211.515c-1.861 2.157-3.257 5.315-4.771 8.414 -2.446-0.789-4.911-1.531-7.345-2.357 0.167-0.297 0.335-0.58 0.505-0.877 0.198-0.34 0.396-0.692 0.593-1.055 0.01-0.027 0.02-0.056 0.041-0.084 1.196-2.188 2.405-4.593 3.663-6.344 1.296 0.627 2.72 1.171 4.157 1.599 0.237 0.066 0.484 0.132 0.723 0.199 0.068-0.104 0.148-0.209 0.218-0.313 0.326-0.457 0.652-0.933 0.99-1.417 0.455 0.285 0.939 0.59 1.444 0.903 0.199 0.124 0.416 0.267 0.673 0.408 -0.238 0.229-0.475 0.465-0.691 0.714C33.889 211.37 33.83 211.447 33.762 211.515zM35.532 179.629c-2.483 3.558-4.74 7.324-6.135 11.317 2.098-3.767 4.463-7.37 6.622-11.089 1.108 0.533 2.247 1.046 3.406 1.542 -2.041 2.976-4.188 6.989-6.86 13.683 -2.644 3.319-5.137 6.78-7.295 10.424 -3.583-1.209-8.789-3.045-9.481-3.303 -1.575-0.513-3.713-1.53-5.592-2.528 -0.09-0.048-0.168-0.096-0.259-0.133 -0.959-0.522-1.83-1.026-2.502-1.454 1.099-1.065 2.207-2.113 3.336-3.129 0.168-0.161 0.345-0.322 0.523-0.475 6.623-5.991 13.699-11.251 22.161-15.892C34.126 178.944 34.82 179.288 35.532 179.629zM3.257 202.271c-0.12-0.076-0.248-0.162-0.367-0.237 -0.822-0.53-1.643-1.046-2.435-1.513 1.366-1.501 2.98-2.747 4.494-3.918 0.03-0.026 0.07-0.047 0.1-0.085 1.287-0.979 2.503-1.92 3.404-2.91 0.466 0.287 0.94 0.57 1.406 0.846 -1.039 1.019-2.079 2.085-3.098 3.187 -0.089 0.086-0.169 0.173-0.248 0.267 0.198 0.171 0.406 0.332 0.614 0.485 0.307 0.237 0.634 0.447 0.96 0.628 0.484 0.257 0.96 0.533 1.426 0.817 -1.505 1.103-2.91 2.547-4.069 3.929C4.732 203.27 3.998 202.768 3.257 202.271zM3.108 207.55c0.703-1.01 1.555-2.17 2.494-3.32 0.07-0.077 0.129-0.15 0.188-0.229 1.217-1.454 2.583-2.891 4-4.003 1.009 0.6 2.019 1.206 3.116 1.701 1.744 0.771 3.515 1.455 5.326 2.082 2.197 0.763 4.493 1.531 6.818 2.084 -0.335 0.581-0.661 1.16-0.979 1.75 -0.038 0.058-0.068 0.113-0.099 0.17 0.118 0.077 0.237 0.162 0.357 0.24 0.563 0.37 1.187 0.721 1.85 1.054 -1.296 1.646-2.544 3.966-3.751 6.361 -3.652-1.17-7.304-2.368-10.827-3.841 -1.882-0.828-3.761-1.616-5.583-2.567 -0.098-0.047-0.445-0.229-0.93-0.477 0.238-0.94 0.415-1.891 0.514-2.861 -0.188 0.931-0.465 1.834-0.771 2.729C4.336 208.156 3.722 207.852 3.108 207.55z"
                      data-colored="true" data-filltype="sd1" data-stroketype="none" fill="#a8d7df" stroke-width="none"
                      opacity="1" stroke="none"></path>
                <path id="SvgjsPath6776"
                      d="M194.201 202.214c-0.229-1.597-0.267-3.224-0.257-4.85 0-0.182 0-0.362 0-0.532 0-0.01 0.01-0.01 0.01-0.01 -0.01-0.076-0.01-0.152 0-0.228 -0.041 0.028-0.08 0.057-0.109 0.085 -0.07-0.095-0.141-0.19-0.209-0.294 -1.643-2.292-3.662-4.784-5.621-6.638 0.029-0.02 0.059-0.039 0.09-0.048 -0.031 0.009-0.071 0.019-0.101 0.039 -0.555-0.522-1.1-0.99-1.631-1.399 0.285-0.275 0.563-0.561 0.819-0.846 0.178-0.171 0.339-0.331 0.495-0.504 -0.119-0.105-0.238-0.198-0.355-0.303 -3.525-2.901-7.307-5.517-11.541-7.354 -8.026-3.354-9.216-3.394-13.232-3.318 -0.586 0-1.229 0.021-1.961 0.021 -0.297 0.142-0.604 0.293-0.91 0.436 -0.169 0.077-0.336 0.161-0.505 0.248 -0.159 0.066-0.317 0.143-0.485 0.218 -0.979 0.457-1.979 0.903-3.008 1.352 -0.288 0.114-0.566 0.236-0.854 0.359 -2.225 0.941-4.561 1.866-7.035 2.75 -0.2 0.074-0.396 0.15-0.604 0.219 -1.652 0.59-3.364 1.169-5.137 1.73 -0.156 0.057-0.315 0.104-0.474 0.151 -0.893 0.286-1.811 0.562-2.743 0.837 -0.132 0.038-0.255 0.076-0.386 0.115 -0.82 0.247-1.665 0.484-2.514 0.723 -0.318 0.094-0.644 0.179-0.971 0.266 -1.593 0.437-3.239 0.864-4.917 1.283 -1.041 0.255-2.088 0.505-3.142 0.742 -0.095 0.019-0.195 0.047-0.303 0.067 -2.546 0.559-5.109 1.063-7.68 1.5 -0.21 0.039-0.421 0.067-0.627 0.105 -2.404 0.392-4.83 0.731-7.256 1.007 -0.116 0.013-0.234 0.03-0.355 0.038 -1.632 0.184-3.272 0.333-4.919 0.468 -0.097 0.008-0.188 0.019-0.285 0.019 -1.417 0.104-2.832 0.19-4.257 0.256 -0.07 0-0.128 0.009-0.196 0.009 -1.297 0.06-2.585 0.096-3.881 0.104 -0.061 0.012-0.118 0.012-0.179 0 -0.377 0.012-0.753 0.021-1.129 0.021 -1.296 0.009-2.572 0-3.849-0.03 -0.06 0-0.118 0-0.179 0 -1.207-0.026-2.396-0.065-3.573-0.122 -0.04 0-0.079 0-0.119-0.009 -1.029-0.039-2.049-0.104-3.067-0.174 -0.109 0-0.219-0.009-0.328-0.019 0 0 0 0-0.009 0 -2.129-0.144-4.216-0.33-6.264-0.57 -0.121-0.009-0.248-0.018-0.367-0.037 -1.275-0.142-2.543-0.304-3.791-0.476 -0.268-0.037-0.534-0.076-0.802-0.116 -2.968-0.436-5.849-0.94-8.611-1.5 -0.236-0.048-0.485-0.104-0.721-0.153 -1.98-0.408-3.891-0.854-5.752-1.321 -0.137-0.038-0.277-0.066-0.415-0.104 -1.762-0.448-3.474-0.913-5.117-1.398 -0.15-0.037-0.288-0.084-0.436-0.123 -0.94-0.275-1.86-0.561-2.762-0.846 -0.147-0.047-0.296-0.096-0.435-0.145 -1.632-0.522-3.207-1.056-4.701-1.597 -0.168-0.065-0.336-0.122-0.505-0.19 -1.256-0.455-2.475-0.922-3.632-1.379 -0.138-0.057-0.277-0.114-0.416-0.171 -1.247-0.503-2.425-1.007-3.544-1.491 -0.138-0.066-0.276-0.126-0.405-0.184 -0.594-0.265-1.159-0.531-1.712-0.789 -0.169-0.073-0.338-0.15-0.495-0.234 -0.732-0.346-1.426-0.686-2.079-1.019 -0.109-0.058-0.217-0.117-0.325-0.173 -0.407 0.049-0.813 0.104-1.208 0.173 -11.185 1.655-20.191 6.665-25.547 12.959 -0.188 0.209-0.365 0.419-0.523 0.628 0.178 0.162 0.375 0.323 0.574 0.484 0.989 0.828 2.158 1.665 3.375 2.454 -0.912 0.935-2.158 1.854-3.484 2.873 -0.089-0.049-0.158-0.077-0.178-0.077 -0.04 0 0.01 0.077 0.079 0.153 -1.504 1.15-3.098 2.435-4.375 4.013 -0.049 0.056-0.099 0.113-0.148 0.17 0.089 0.058 0.177 0.123 0.277 0.192 0.703 0.454 1.525 1.007 2.396 1.587 0.109 0.075 0.217 0.153 0.336 0.218 0.722 0.495 1.483 0.998 2.237 1.483 -0.901 1.094-1.644 2.132-2.148 2.911 -0.11 0.162-0.208 0.323-0.307 0.475 -0.051 0.067-0.089 0.142-0.129 0.21 0.099 0.058 0.197 0.124 0.297 0.171 0.614 0.37 1.217 0.742 1.731 1.056 -0.375 1.016-0.782 2.023-1.148 3.063 -1.464 3.907-1.366 8.546-1.04 12.798 0 0.058 0.011 0.105 0.021 0.162 0.148 0 0.297 0 0.455 0 -0.009-0.043-0.009-0.087-0.009-0.13 17.807 1.25 48.215 4.196 69.411 4.714 52.426 1.265 26.427 0.161 65.135-0.779 33.931-0.839 23.727-1.42 59.207-2.037 0.13-0.011 0.269-0.011 0.407-0.011 0-0.063 0.009-0.131 0.019-0.199 0.168-1.844 0.287-3.699 0.564-5.543C199.12 211.467 194.934 207.283 194.201 202.214zM187.52 189.909c0.012 0.01 0.028 0.027 0.049 0.049 2.069 1.976 4.257 4.631 6.019 6.931v0.009 0.011c-1.635 1.455-2.939 2.823-4.098 3.442 -0.674-0.798-1.366-1.588-2.059-2.398 -1.444-1.682-2.653-3.582-4.147-5.218 -0.079-0.087-0.16-0.183-0.238-0.268 -0.139-0.142-0.275-0.285-0.417-0.418 0.725-0.684 1.427-1.379 2.131-2.074 0.116-0.112 0.225-0.227 0.334-0.34 0.338-0.325 0.664-0.658 0.991-0.99C186.55 189.016 187.024 189.443 187.52 189.909zM182.253 206.986c1.221 1.112 2.812 2.712 4.079 4.252 -1.861 1.599-3.563 3.251-5.722 3.756 -0.603-0.742-1.236-1.493-1.869-2.235 -0.071-0.076-0.128-0.143-0.19-0.218 -1.96-2.274-3.919-4.442-5.234-6.115 -0.011-0.01-0.021-0.019-0.021-0.027 -0.356-0.448-0.661-0.866-0.907-1.228 0.404-0.267 0.84-0.543 1.323-0.818 0.446 0.638 0.833 1.189 1.14 1.628 0.028 0.057 0.069 0.112 0.109 0.161 0.188-0.077 0.376-0.145 0.556-0.201 0.019-0.008 0.049-0.008 0.066-0.017 2.297-0.725 3.803-1.495 5.139-2.367 0.067-0.041 0.138-0.088 0.198-0.137 -0.042-0.064-0.073-0.122-0.111-0.177 -1.205-2.008-2.355-3.844-3.474-5.546 1.279-1.074 2.555-2.158 3.832-3.244 0.612-0.502 1.236-1.016 1.868-1.521 1.479 1.808 2.693 3.881 4.219 5.63 0.594 0.675 1.187 1.34 1.77 2.006 0.021 0.02 0.03 0.039 0.05 0.049 0.515 0.587 1.021 1.168 1.504 1.767 -2.671 1.655-5.567 2.892-8.314 4.46 -0.026 0.03-0.068 0.047-0.107 0.068C182.184 206.939 182.215 206.97 182.253 206.986zM173.05 206.446c1.269 1.824 3.257 4.154 5.147 6.285 -2.17 1.178-3.633 2.176-4.634 2.853 -1.474-1.827-3.256-3.832-6.097-7.256 0.149-0.076 0.298-0.151 0.445-0.229 1.682-0.901 2.84-1.862 4.356-2.852 0.206 0.353 0.452 0.741 0.752 1.151C173.021 206.407 173.029 206.426 173.05 206.446zM161.537 176.569c4.921 0.218 11.244 0.911 25.222 10.619 -0.3 0.249-0.595 0.516-0.882 0.8 -0.097 0.076-0.199 0.173-0.288 0.277 -0.356 0.331-0.702 0.685-1.027 1.044 -0.109 0.105-0.21 0.221-0.297 0.325 -0.647 0.71-1.248 1.464-1.804 2.263 -0.059 0.074-0.11 0.141-0.146 0.22 0.036 0.037 0.077 0.083 0.116 0.121 0.13 0.145 0.249 0.275 0.366 0.419 -0.653 0.484-1.284 0.99-1.899 1.504 -1.275 1.072-2.514 2.177-3.713 3.315 -4.83-7.309-9.065-12.17-13.956-16.971 -1.306-1.265-2.393-2.273-3.304-3.1C160.47 177.13 161.003 176.852 161.537 176.569zM159.38 177.681c2.752 2.947 6.721 6.847 10.799 11.875 2.227 2.749 4.376 5.573 6.485 8.427 0.036 0.058 0.075 0.114 0.114 0.171 1.278 1.73 2.545 3.47 3.804 5.21 -2.01 1.087-3.823 1.893-5.17 2.397 -0.056-0.114-0.115-0.239-0.188-0.353 -0.227-0.409-0.503-0.885-0.83-1.417 -0.036-0.074-0.088-0.161-0.147-0.246 -3.374-5.544-11.273-16.992-17.847-24.63C157.401 178.649 158.391 178.174 159.38 177.681zM148.026 182.634c6.139 7.397 15.392 15.233 18.885 19.114 -4.039-5.621-12.343-13.122-18.212-19.37 2.318-0.885 4.585-1.836 6.823-2.86 6.084 7.7 14.174 19.093 17.991 24.551 -0.493 0.246-0.94 0.486-1.367 0.731 -0.03 0.021-0.057 0.037-0.086 0.058 -1.407 0.848-2.594 1.787-4.702 2.957 -0.071 0.037-0.148 0.076-0.218 0.115 -0.07 0.038-0.129 0.065-0.188 0.096 -1.481 0.768-2.979 1.243-4.653 1.604 -0.791 0.161-1.592 0.334-2.385 0.553 -3.394-4.488-6.057-9.527-9.213-14.169 -2.019-2.978-4.374-5.782-6.257-8.834 -0.535-0.875-1.058-1.797-1.633-2.689C144.574 183.909 146.317 183.29 148.026 182.634zM142.24 184.67c0.622 1.188 1.187 2.405 1.811 3.518 1.672 3.025 4.028 5.821 5.978 8.691 3.057 4.526 5.839 9.301 9.49 13.417 0.031 0.048 0.069 0.087 0.109 0.124 0.129-0.028 0.267-0.057 0.405-0.076 1.792-0.313 3.685-0.19 7.226-1.91 1.623 2.178 3.729 4.926 5.81 7.482 0.03 0.047 0.067 0.094 0.108 0.143 0.359 0.447 0.711 0.886 1.06 1.314 -2.039 0.853-4.751 1.567-9.056 2.053 -1.011-1.305-2.138-2.502-3.248-3.709 -1.376-1.484-2.801-2.967-4.047-4.565 -0.355-0.474-0.703-0.949-1.039-1.443 -0.019-0.03-0.039-0.057-0.059-0.097 -0.081 0.019-0.158 0.049-0.238 0.076 -0.583 0.191-1.159 0.41-1.722 0.638 -4.187-7.009-12.672-20.817-13.114-21.576 -0.663-1.111-1.317-2.225-2.04-3.271C140.537 185.222 141.385 184.955 142.24 184.67zM135.783 186.618c3.464 5.05 6.591 10.308 9.72 15.548 -3.789-7.979-6.313-12.135-8.77-15.823 0.819-0.228 1.636-0.466 2.448-0.713 0.661 1.113 1.233 2.283 1.826 3.442 0.99 1.948 8.753 14.776 10.108 16.793 1.088 1.559 2.228 3.08 3.345 4.61 -2.711 1.124-5.284 2.54-8.007 3.663 -0.219-0.505-0.446-0.988-0.692-1.464 -0.039-0.098-0.091-0.191-0.149-0.286 -2.533-5.013-5.601-8.74-7.474-11.185 -5.016-6.606-7.333-10.105-10.028-12.672C130.717 187.952 133.268 187.313 135.783 186.618zM118.851 190.394c1.889 4.355 2.661 5.896 5.682 15.928 -0.495-2.482-0.931-4.964-1.693-7.379 -0.922-2.899-1.782-5.278-3.324-8.662 2.769-0.506 5.492-1.046 8.153-1.644 2.407 2.69 4.283 6.083 9.641 13.158 2.721 3.549 5.434 7.114 7.739 10.907 -1.166 0.617-2.384 1.141-3.654 1.454 -18.623 5.486-11.567 3.48-20.01 5.041 -0.148 0.026-0.347 0.057-0.565 0.085 -0.583-2.891-1.513-6.551-3.432-12.752 -2.307-7.427-4.168-11.837-5.651-14.986C114.148 191.192 116.515 190.812 118.851 190.394zM111.06 191.648c0.05-0.007 0.108-0.017 0.159-0.027 3.276 9.176 6.244 18.428 8.818 27.796 0.03 0.046 0.04 0.105 0.052 0.161 0.255 0.903 0.503 1.814 0.751 2.729 -2.268 0.503-4.534 0.731-6.949 0.637 -0.049 0-0.209-0.009-0.436-0.009 -0.108-0.601-0.207-1.207-0.286-1.817 -0.01-0.055-0.01-0.113-0.021-0.17 -0.196-1.57-0.326-3.149-0.505-4.698 -0.354-3.3-0.931-6.589-1.611-9.842 -1.208-5.829-2.478-9.852-4.505-14.207C108.052 192.049 109.565 191.868 111.06 191.648zM106.074 192.247c1.719 4.784 3.046 9.699 4.035 14.692 0.636 3.271 1.181 6.552 1.753 9.822 0.247 1.417 0.477 2.854 0.792 4.271 -4.93 0.818-10.224 0.077-13.531 0.03 0.07-2.283 0.051-2.807 0.189-4.148 0.306-3.042 0.484-6.113 0.802-9.166 0.317-3.178 0.714-6.351 0.671-9.547 -0.029-1.873-0.087-3.748 0.139-5.581C102.649 192.535 104.372 192.409 106.074 192.247zM100.567 192.63c-0.465 2.156-0.501 4.401-0.621 6.618 -0.198 3.431-0.743 6.854-1.03 10.276 -0.278 3.406-0.604 6.794-0.505 10.214 0 0.066 0.02 0.581 0.039 1.313 0 0.018 0 0.049 0 0.074 0.021 0.476 0.042 1.028 0.061 1.618 -2.664 0.209-5.343 0.058-8.018 0.008 0.07-0.74 0.138-1.501 0.218-2.291 0.01-0.084 0.01-0.161 0.019-0.247 0.258-2.527 0.574-5.344 1.278-8.653 0.138-0.684 0.307-1.387 0.484-2.119 0 0 0-0.01 0-0.021 0.129-0.493 0.258-0.998 0.396-1.521 1.366-5.049 2.792-10.06 3.899-15.155C98.055 192.734 99.313 192.697 100.567 192.63zM96.463 192.752c-1.318 4.261-2.733 8.502-3.971 12.79 -0.02-4.279-0.147-8.549-0.386-12.819C93.562 192.761 95.017 192.771 96.463 192.752zM88.019 192.571c-0.396 5.212-0.989 10.394-1.325 15.614 1.197-6.856 1.593-10.974 1.572-15.593 1.17 0.055 2.336 0.104 3.505 0.12 -0.13 5.041-0.1 10.09 0.079 15.129 0 0.01 0 0.01 0 0.01 -1.465 5.439-1.772 9.215-1.841 12.496 -2.801 0.504-5.663 0.741-8.512 0.903 -5.87 0.333-7.988-0.172-10.224-0.353 0.147-0.504 0.316-1.006 0.484-1.513 0.041-0.122 0.09-0.256 0.129-0.379 1.791-5.287 4.147-10.643 5.571-13.475 3.625-7.169 5.316-10.839 6.642-13.228C85.406 192.421 86.713 192.504 88.019 192.571zM83.596 192.269c-1.694 2.499-3.869 6.446-7.423 13.454 -2.179 4.299-3.959 8.701-5.127 13.275 -2.128-0.021-4.405-0.172-6.346-0.354 1.643-5.267 3.663-10.193 6.247-14.682 0.593-1.027 1.127-1.977 1.612-2.853l0.484-0.864c2.198-4.014 3.356-6.447 4.554-8.614C79.587 191.877 81.587 192.097 83.596 192.269zM77.072 191.553c-1.295 1.902-2.474 3.882-3.612 5.878 0.287-2.083 0.496-4.185 0.693-6.286C75.123 191.296 76.092 191.433 77.072 191.553zM63.583 189.148c-1.714 3.7-3.554 7.359-4.999 11.145 2.029-3.547 4.106-7.188 5.76-10.973 2.949 0.654 5.948 1.226 8.976 1.7 -0.287 2.577-0.464 5.174-0.613 7.761 -0.95 1.683-1.88 3.374-2.84 5.041 -3.623 6.266-4.811 11.162-5.662 14.774 -1.625-0.151-2.969-0.323-3.7-0.436 -4.553-0.704-6.474-1.493-7.751-2.169 1.157-4.26 2.227-8.547 2.989-12.896 0.891-5.067 1.316-10.248 2.384-15.28C59.92 188.301 61.742 188.749 63.583 189.148zM57.624 187.686c-1.415 4.962-2.01 10.117-2.929 15.233 -0.763 4.26-1.663 8.509-2.524 12.75 -0.02 0.068-0.03 0.133-0.04 0.2 -0.159 0.77-0.317 1.54-0.465 2.31 -0.99-0.304-1.99-0.596-2.99-0.894 -0.06-0.018-2.048-0.57-3.979-1.104 0.069-0.513 0.128-0.94 0.178-1.331 0.01-0.065 0.02-0.133 0.029-0.199 0.318-2.206 0.733-3.49 3.812-12.883 1.188-3.615 2.454-7.268 3.087-11.014 0.257-1.502 0.476-3.023 0.791-4.517C54.239 186.743 55.921 187.229 57.624 187.686zM52.101 186.085c-0.841 2.995-1.771 7.361-4.414 15.368 -1.138 3.432-2.217 6.847-3.137 10.346 -0.218 0.836-0.327 1.702-0.376 2.577 -1.989-0.78-3.939-1.626-5.889-2.5 -1.218-0.581-2.237-1.087-3.088-1.522 -0.05-0.028-0.109-0.058-0.159-0.087 -0.96-0.492-1.711-0.911-2.326-1.234 2.197-3.14 4.652-6.676 6.77-9.775 3.217-4.688 5.988-9.68 9.433-14.206C49.963 185.4 51.022 185.754 52.101 186.085zM33.762 211.515c-1.861 2.157-3.257 5.315-4.771 8.414 -2.446-0.789-4.911-1.531-7.345-2.357 0.167-0.297 0.335-0.58 0.505-0.877 0.198-0.34 0.396-0.692 0.593-1.055 0.01-0.027 0.02-0.056 0.041-0.084 1.196-2.188 2.405-4.593 3.663-6.344 1.296 0.627 2.72 1.171 4.157 1.599 0.237 0.066 0.484 0.132 0.723 0.199 0.068-0.104 0.148-0.209 0.218-0.313 0.326-0.457 0.652-0.933 0.99-1.417 0.455 0.285 0.939 0.59 1.444 0.903 0.199 0.124 0.416 0.267 0.673 0.408 -0.238 0.229-0.475 0.465-0.691 0.714C33.889 211.37 33.83 211.447 33.762 211.515zM48.399 184.868c-3.722 4.271-6.631 9.101-9.857 13.799 -1.484 2.159-4.108 6.097-6.572 9.965 -0.038 0.078-0.089 0.152-0.138 0.218 -0.347 0.554-0.683 1.095-1.02 1.626 -1.415-0.436-2.841-0.958-4.158-1.548 -0.088-0.039-0.168-0.078-0.257-0.114 -0.691-0.313-1.336-0.637-1.94-0.98 0.385-0.608 0.792-1.216 1.197-1.825 0.07-0.094 0.139-0.198 0.218-0.303 1.712-2.521 3.554-4.984 5.443-7.399 0.436-0.563 0.881-1.123 1.328-1.683 0.732-0.933 1.483-1.855 2.235-2.775 5.505-6.743 6.702-8.398 8.859-10.681C45.252 183.757 46.806 184.327 48.399 184.868zM43.154 182.938c-2.722 2.521-4.514 4.708-9.047 10.241 1.425-3.317 3.316-7.444 5.79-11.571C40.966 182.064 42.045 182.513 43.154 182.938zM35.532 179.629c-2.483 3.558-4.74 7.324-6.135 11.317 2.098-3.767 4.463-7.37 6.622-11.089 1.108 0.533 2.247 1.046 3.406 1.542 -2.041 2.976-4.188 6.989-6.86 13.683 -2.644 3.319-5.137 6.78-7.295 10.424 -3.583-1.209-8.789-3.045-9.481-3.303 -1.575-0.513-3.713-1.53-5.592-2.528 -0.09-0.048-0.168-0.096-0.259-0.133 -0.959-0.522-1.83-1.026-2.502-1.454 1.099-1.065 2.207-2.113 3.336-3.129 0.168-0.161 0.345-0.322 0.523-0.475 6.623-5.991 13.699-11.251 22.161-15.892C34.126 178.944 34.82 179.288 35.532 179.629zM5.326 190.289c5.265-5.6 13.708-10.716 25.307-13.196 0.743 0.418 1.504 0.826 2.287 1.225 -7.898 3.736-15.372 8.729-22.488 15.577 -0.435-0.313-0.9-0.639-1.366-0.972 -0.098-0.065-0.207-0.143-0.307-0.21C7.552 191.858 6.335 191.004 5.326 190.289zM4.475 196.232c0.029 0.019 0.059 0.049 0.089 0.067 0 0-0.01 0.01-0.021 0.019C4.523 196.281 4.503 196.251 4.475 196.232zM3.257 202.271c-0.12-0.076-0.248-0.162-0.367-0.237 -0.822-0.53-1.643-1.046-2.435-1.513 1.366-1.501 2.98-2.747 4.494-3.918 0.03-0.026 0.07-0.047 0.1-0.085 1.287-0.979 2.503-1.92 3.404-2.91 0.466 0.287 0.94 0.57 1.406 0.846 -1.039 1.019-2.079 2.085-3.098 3.187 -0.089 0.086-0.169 0.173-0.248 0.267 0.198 0.171 0.406 0.332 0.614 0.485 0.307 0.237 0.634 0.447 0.96 0.628 0.484 0.257 0.96 0.533 1.426 0.817 -1.505 1.103-2.91 2.547-4.069 3.929C4.732 203.27 3.998 202.768 3.257 202.271zM3.108 207.55c0.703-1.01 1.555-2.17 2.494-3.32 0.07-0.077 0.129-0.15 0.188-0.229 1.217-1.454 2.583-2.891 4-4.003 1.009 0.6 2.019 1.206 3.116 1.701 1.744 0.771 3.515 1.455 5.326 2.082 2.197 0.763 4.493 1.531 6.818 2.084 -0.335 0.581-0.661 1.16-0.979 1.75 -0.038 0.058-0.068 0.113-0.099 0.17 0.118 0.077 0.237 0.162 0.357 0.24 0.563 0.37 1.187 0.721 1.85 1.054 -1.296 1.646-2.544 3.966-3.751 6.361 -3.652-1.17-7.304-2.368-10.827-3.841 -1.882-0.828-3.761-1.616-5.583-2.567 -0.098-0.047-0.445-0.229-0.93-0.477 0.238-0.94 0.415-1.891 0.514-2.861 -0.188 0.931-0.465 1.834-0.771 2.729C4.336 208.156 3.722 207.852 3.108 207.55zM180.986 226.366c-3.603 0.037-8.088 0.22-13.421 0.419 -6.868 0.267-15.162 0.569-24.814 0.705 -6.083 0.084-12.925 0.388-20.694 0.691 -9.314 0.354-19.982 0.704-32.334 0.647 -6.205-0.018-12.838-0.151-19.934-0.428 -8.324-0.332-17.292-0.864-26.961-1.693 -6.948-0.588-11.887-0.958-15.569-1.188 -9.315-0.574-18.201-0.425-24.288-0.809 0-0.004 0-0.007 0-0.011 -0.068-2.271-0.119-4.543 0.059-6.799 0.099-3.089 1.208-5.961 1.95-8.909 0.594 0.362 1 0.618 1.039 0.637 1.782 1.056 3.722 1.893 5.642 2.663 3.493 1.398 7.047 2.405 10.708 3.263 -0.168 0.342-0.336 0.684-0.503 1.027 -0.029 0.056-0.218 0.425-0.445 0.911 -0.03 0.048-0.06 0.104-0.09 0.162 0.07 0.037 0.139 0.066 0.208 0.094 1.248 0.533 2.515 0.998 3.831 1.418 1.178 0.322 2.355 0.646 3.533 0.95 0.09 0.031 0.178 0.048 0.267 0.066 0.041-0.057 0.071-0.104 0.101-0.161 1.703-3.032 3.058-6.209 4.82-8.452 0.048-0.067 0.098-0.144 0.168-0.209 0.177-0.237 0.375-0.457 0.584-0.666 0.552 0.313 1.216 0.656 1.968 1.018 0.01 0 0.021 0.01 0.039 0.01 2 0.969 4.603 2.033 7.315 2.9 -0.03 0.466-0.04 0.932-0.06 1.396 0 0.105-0.01 0.22-0.01 0.335 0.179 0.067 0.367 0.131 0.555 0.189 2.276 0.741 4.611 1.368 6.947 1.968 0.148 0.038 0.287 0.076 0.436 0.116 0.029-0.096 0.059-0.201 0.089-0.307 0.188-0.685 0.376-1.377 0.563-2.072 1.287 0.874 2.91 1.798 7.712 2.53 1.196 0.179 2.425 0.351 3.661 0.475 0.148 0.019 0.296 0.028 0.435 0.048 2.138 0.199 4.306 0.285 6.434 0.151 -0.119 0.466-0.218 0.932-0.328 1.398 -0.009 0.047-0.019 0.096-0.029 0.152 0.208 0.019 0.425 0.059 0.644 0.085 1.305 0.21 2.613 0.513 3.929 0.695 2.712 0.407 9.304 0.189 14.856-1.15 -0.019 0.722-0.019 1.426-0.029 2.11 0 0.028 0 0.065 0 0.095 0.167 0.019 0.346 0.027 0.514 0.037 2.684 0.229 5.385 0.429 8.037 0.105 0.178-0.019 0.356-0.047 0.545-0.075 0-0.067 0-0.144 0-0.209 0.029-0.573 0.048-1.074 0.048-1.504 0.781 0.085 1.573 0.246 2.337 0.361 1.632 0.267 6.856 0.657 11.239-0.333 0.121 0.572 0.262 1.142 0.42 1.702 0.028 0.095 0.049 0.182 0.074 0.266l0.321 0.021c0.366 0.027 0.632 0.047 0.703 0.057 2.235 0.199 4.502-0.067 6.709-0.629l0.457-0.122c-0.011-0.104-0.029-0.21-0.051-0.314 -0.129-0.866-0.277-1.73-0.456-2.691 0.367-0.029 0.685-0.038 0.901-0.058 8.176-0.809 4.037-0.151 11.987-2.179 5.986-1.521 9.146-2.851 11.471-4.269 0.267 0.438 0.516 0.876 0.771 1.313 0.019 0.048 0.051 0.104 0.08 0.152 0.157-0.048 0.306-0.104 0.466-0.152 2.8-0.97 5.403-2.369 8.075-3.623 0.109-0.047 0.228-0.105 0.336-0.152 0.545-0.257 1.101-0.504 1.664-0.742 1.296 2.272 3.117 4.26 4.929 6.249 1.021 1.102 2.228 2.205 3.128 3.431 0.07 0.097 0.139 0.191 0.198 0.286 0.167-0.01 0.327-0.021 0.484-0.029 3.147-0.207 6.147-0.808 9.036-2.177 0.17-0.084 0.339-0.172 0.507-0.256 -0.042-0.059-0.081-0.115-0.12-0.162 -0.349-0.466-0.693-0.925-1.07-1.38 2.351-1.321 2.844-1.74 4.683-2.814 0.663 0.742 1.307 1.456 1.91 2.103 0.04 0.065 0.099 0.122 0.157 0.179 0.102-0.01 0.211-0.027 0.308-0.047 2.187-0.456 3.901-2.148 5.672-3.813 0.06-0.047 0.109-0.105 0.168-0.161 -0.028-0.037-0.059-0.084-0.1-0.123 -1.198-1.531-2.791-3.071-4.137-4.154 2.998-1.494 5.514-2.341 8.324-4.404 0.108-0.074 0.217-0.162 0.327-0.247 -0.031-0.037-0.062-0.086-0.089-0.125 -0.437-0.579-0.901-1.149-1.375-1.72 1.127-0.522 2.393-1.75 3.998-3.243 -0.179 1.816-0.278 3.634-0.082 5.429 0.625 5.517 4.219 7.049 3.378 18.552 -0.13 1.751-0.109 3.491-0.12 5.23C191.488 226.366 186.232 226.31 180.986 226.366z"
                      data-colored="true" data-filltype="sd3" data-stroketype="none" fill="#6ab4c0" stroke-width="none"
                      opacity="1" stroke="none"></path>
            </g>
            <g id="svga-group-head" data-updown="0" data-leftright="0" data-dist="0" data-scaleX="1" data-scaleY="1"
               data-rotate="0" transform="rotate(-1e-7 100 150)">
                <g id="svga-group-ears-left" data-updown="0" data-leftright="3.0000002" data-dist="0" data-scaleX="1"
                   data-scaleY="1" data-rotate="0" transform="translate(3.0000001000000003 0)" style="display:none;">
                    <path id="SvgjsPath5024"
                          d="M47.001 83.974c-1.376-2.313-5.638-7.997-9.98-6.603 -2.749 0.882-3.293 3.765-3.735 6.311 -0.588 3.386 0.471 10.083 1.389 12.503 0.881 2.325 3.533 6.816 5.264 8.527 2.13 2.1 4.775 8.793 5.194 9.487 0.66 1.097 1.536 2.745 4.122 2.538 2.853-0.229 4.584-1.742 5.856-1.999C58.253 114.109 50.582 89.995 47.001 83.974z"
                          data-colored="true" data-filltype="tone" data-stroketype="sd3" fill="#ffd0bc" stroke="#d17f5b"
                          stroke-width="1.5" opacity="1"></path>
                    <path id="SvgjsPath5025"
                          d="M44.197 97.997c-0.132-0.548 0.007-1.47 0.142-2.362 0.124-0.812 0.24-1.579 0.169-2.121 -0.267-2.032-1.773-5.893-2.757-7.985 -1.132-2.407-2.963-5.439-5.262-6.221 -0.95-0.324-1.575 0.063-1.938 0.456 -0.266 0.289-0.325 0.627-0.238 0.667 0.086 0.04 0.285-0.24 0.572-0.504 0.235-0.216 0.579-0.402 1.051-0.363 -0.19 1.011-1.167 6.49-0.744 10.225 0.333 2.938 1.593 5.131 1.79 5.46 0.029 0.346 0.077 0.685 0.148 1.014 0.929 4.287 4.971 9.163 6.378 10.758 0.259 0.295 0.531 0.47 0.598 0.398 0.066-0.072-0.094-0.364-0.353-0.66 -1.388-1.585-5.391-6.442-6.289-10.579 -0.952-4.389 2.318-10.896 3.048-12.272 0.371 0.646 0.687 1.267 0.93 1.785 0.19 0.406 0.402 0.881 0.619 1.395 -0.429 0.718-3.434 5.958-2.338 10.153 0.406 1.546 2.235 3.54 3.447 4.086 0.667 0.301 0.919 0.75 1.209 1.271 0.336 0.604 0.718 1.288 1.828 1.784 0.225 0.102 0.429 0.142 0.61 0.142 0.313 0 0.551-0.126 0.725-0.276 0.018 0.266 0.017 0.604 0.009 0.917 -0.012 0.404 0.042 0.737 0.137 0.745 0.094 0.008 0.196-0.313 0.207-0.717 0.016-0.496 0.013-1.11-0.072-1.403 -0.248-0.865-1.008-1.841-1.813-2.875C45.221 99.896 44.403 98.844 44.197 97.997zM36.95 94.196c-2.177-6.731 0.656-12.54 1.144-13.464 0.85 0.775 1.6 1.811 2.21 2.824C39.86 84.365 37.041 89.669 36.95 94.196zM46.341 104.042c-1.004-0.447-1.339-1.051-1.666-1.633 -0.293-0.527-0.598-1.072-1.369-1.42 -0.168-0.075-0.352-0.191-0.542-0.323 -2.486-5.906 0.272-8.488 0.963-9.017 0.211 0.722 0.369 1.384 0.439 1.915 0.063 0.488-0.052 1.263-0.167 2.012 -0.142 0.929-0.286 1.89-0.137 2.512 0.226 0.926 1.069 2.009 1.884 3.057 0.723 0.929 1.466 1.888 1.721 2.67C47.359 103.972 47.017 104.345 46.341 104.042z"
                          data-colored="true" data-filltype="sd3" data-stroketype="none" fill="#d17f5b"
                          stroke-width="none" opacity="1" stroke="none"></path>
                </g>
                <g id="svga-group-ears-right" data-updown="0" data-leftright="-3.0000002" data-dist="0" data-scaleX="1"
                   data-scaleY="1" data-rotate="0" transform="translate(-3.0000001000000003 0)" style="display:none;">
                    <path id="SvgjsPath5026"
                          d="M152.736 83.974c1.377-2.313 5.639-7.997 9.98-6.603 2.75 0.882 3.293 3.765 3.736 6.311 0.588 3.386-0.471 10.083-1.389 12.503 -0.881 2.325-3.533 6.816-5.266 8.527 -2.129 2.1-4.775 8.793-5.193 9.487 -0.658 1.097-1.535 2.745-4.121 2.538 -2.854-0.229-4.584-1.742-5.857-1.999C141.484 114.109 149.156 89.995 152.736 83.974z"
                          data-colored="true" data-filltype="tone" data-stroketype="sd3" fill="#ffd0bc" stroke="#d17f5b"
                          stroke-width="1.5" opacity="1"></path>
                    <path id="SvgjsPath5027"
                          d="M153.727 100.913c-0.805 1.033-1.564 2.009-1.813 2.875 -0.086 0.293-0.088 0.907-0.072 1.403 0.012 0.404 0.113 0.725 0.207 0.717s0.148-0.341 0.137-0.745c-0.008-0.313-0.008-0.651 0.01-0.917 0.174 0.15 0.412 0.276 0.725 0.276 0.182 0 0.385-0.04 0.609-0.142 1.109-0.496 1.492-1.18 1.828-1.784 0.289-0.52 0.543-0.969 1.209-1.271 1.213-0.546 3.041-2.54 3.447-4.086 1.096-4.194-1.908-9.435-2.338-10.153 0.217-0.513 0.43-0.988 0.619-1.395 0.244-0.518 0.559-1.139 0.93-1.785 0.73 1.377 4 7.883 3.049 12.272 -0.896 4.137-4.9 8.994-6.289 10.579 -0.258 0.296-0.418 0.588-0.352 0.66 0.066 0.071 0.338-0.104 0.598-0.398 1.406-1.596 5.449-6.471 6.379-10.758 0.07-0.329 0.117-0.668 0.146-1.014 0.197-0.329 1.459-2.523 1.791-5.46 0.422-3.735-0.555-9.214-0.744-10.225 0.473-0.039 0.814 0.146 1.051 0.363 0.287 0.264 0.486 0.544 0.572 0.504s0.027-0.378-0.238-0.667c-0.363-0.393-0.988-0.779-1.938-0.456 -2.299 0.782-4.131 3.814-5.262 6.221 -0.984 2.093-2.49 5.953-2.758 7.985 -0.072 0.542 0.045 1.309 0.17 2.121 0.135 0.892 0.273 1.814 0.141 2.362C155.336 98.844 154.518 99.896 153.727 100.913zM159.434 83.555c0.611-1.013 1.361-2.049 2.211-2.824 0.488 0.925 3.32 6.733 1.145 13.464C162.697 89.669 159.879 84.365 159.434 83.555zM152.27 103.816c0.254-0.782 0.998-1.741 1.721-2.67 0.816-1.048 1.658-2.131 1.885-3.057 0.148-0.622 0.004-1.583-0.137-2.512 -0.115-0.749-0.23-1.524-0.166-2.012 0.068-0.531 0.227-1.193 0.438-1.915 0.691 0.529 3.449 3.111 0.965 9.017 -0.191 0.132-0.375 0.248-0.543 0.323 -0.771 0.348-1.074 0.893-1.369 1.42 -0.326 0.582-0.662 1.186-1.666 1.633C152.721 104.345 152.379 103.972 152.27 103.816z"
                          data-colored="true" data-filltype="sd3" data-stroketype="none" fill="#d17f5b"
                          stroke-width="none" opacity="1" stroke="none"></path>
                </g>
                <g id="svga-group-faceshape-wrap" data-updown="0" data-leftright="0" data-dist="0"
                   data-scaleX="0.9599995800000001" data-scaleY="0.9997995800000001" data-rotate="0"
                   transform="matrix(0.9599996900000001 0 0 0.9997996900000001 3.9945107850995214 0.01603531689774229)">
                    <g id="svga-group-faceshape-single" data-updown="0" data-leftright="0" data-dist="0" data-scaleX="1"
                       data-scaleY="1" data-rotate="0">
                        <path id="SvgjsPath5969"
                              d="M100.002 0.867C66.384 0.919 39.082 28.09 39.134 61.564c0.009 5.316 0.704 10.471 2.002 15.382h0.001C41.15 77 51.427 107.873 54.086 120.29c2.38 11.116 12.959 20.132 17.72 25.046 5.47 5.649 12.307 14.008 28.197 13.934 15.889 0.074 22.727-8.284 28.197-13.934 4.761-4.914 15.34-13.93 17.72-25.046 2.659-12.417 12.937-43.291 12.947-43.344h0.002c1.298-4.911 1.994-10.066 2.002-15.382C160.923 28.09 133.62 0.919 100.002 0.867z"
                              data-colored="true" data-filltype="tone" data-stroketype="none" fill="#ffd0bc"
                              stroke-width="none" opacity="1" stroke="none"></path>
                        <path id="SvgjsPath5970"
                              d="M133.47 10.898c14.604 11.017 24.131 29.011 24.1 49.346 -0.008 5.315-0.664 10.471-1.892 15.382h-0.002c-0.011 0.053-9.73 30.925-12.246 43.342 -2.251 11.117-12.256 20.132-16.76 25.047 -5.173 5.649-11.64 14.008-26.667 13.934 -15.028 0.074-21.495-8.284-26.668-13.934 -4.502-4.915-14.508-13.93-16.759-25.047C54.06 106.552 44.34 75.68 44.329 75.626h-0.001c-1.228-4.911-1.885-10.066-1.893-15.382 -0.03-20.335 9.497-38.33 24.101-49.346 -16.522 10.863-27.433 29.499-27.4 50.666 0.009 5.316 0.704 10.471 2.002 15.382h0.001C41.15 77 51.427 107.873 54.086 120.29c2.38 11.116 12.959 20.132 17.72 25.046 5.47 5.649 12.307 14.008 28.197 13.934 15.889 0.074 22.727-8.284 28.197-13.934 4.761-4.914 15.34-13.93 17.72-25.046 2.659-12.417 12.937-43.291 12.947-43.344h0.002c1.298-4.911 1.994-10.066 2.002-15.382C160.903 40.398 149.992 21.762 133.47 10.898z"
                              data-colored="true" data-filltype="sd05" data-stroketype="none" fill="#f7c1aa"
                              stroke-width="none" opacity="1" stroke="none"></path>
                        <path id="SvgjsPath5971"
                              d="M100.002 0.867C66.384 0.919 39.082 28.09 39.134 61.564c0.009 5.316 0.704 10.471 2.002 15.382h0.001C41.15 77 51.427 107.873 54.086 120.29c2.38 11.116 12.959 20.132 17.72 25.046 5.47 5.649 12.307 14.008 28.197 13.934 15.889 0.074 22.727-8.284 28.197-13.934 4.761-4.914 15.34-13.93 17.72-25.046 2.659-12.417 12.937-43.291 12.947-43.344h0.002c1.298-4.911 1.994-10.066 2.002-15.382C160.923 28.09 133.62 0.919 100.002 0.867z"
                              data-colored="true" data-filltype="none" data-stroketype="sd3" fill="none"
                              stroke="#d17f5b" stroke-width="1.5" opacity="1"></path>
                    </g>
                </g>
                <g id="svga-group-mouth-single" data-updown="2.0000002" data-leftright="0" data-dist="0"
                   data-scaleX="1.3500014700000007" data-scaleY="1.3500014700000007" data-rotate="0"
                   transform="matrix(1.3500013600000007 0 0 1.3500013600000007 -35.00555937617622 -48.058862161803205) translate(0 2.0000001000000003)">
                    <path id="SvgjsPath6721"
                          d="M100.002 141.435c-4.158 0-5.133-3.232-5.133-3.232h10.267C105.136 138.202 103.659 141.435 100.002 141.435z"
                          data-colored="false" data-filltype="gradient" data-stroketype="none" data-fromskin="true"
                          fill="url(#SvgjsLinearGradient6722)" opacity="1"></path>
                    <path id="SvgjsPath6725"
                          d="M87.536 132.96c2.756-0.951 6.239-3.625 8.432-3.723 1.133-0.051 2.351 0.87 3.574 1.166 0.851 0.207 3.264-1.156 4.13-1.166 2.272-0.022 6.326 2.771 8.769 3.723 0.135 0.055 0 0 0 0s-5.056 6.021-12.452 6.021C91.618 138.98 87.536 132.96 87.536 132.96S87.399 133.01 87.536 132.96z"
                          data-colored="true" data-filltype="tone" data-stroketype="sd1" fill="#e7b0a4" stroke="#d89384"
                          stroke-width="0.75" opacity="1"></path>
                    <path id="SvgjsPath6726"
                          d="M112.808 132.902c-0.187-0.076-0.606-0.028-0.753-0.021 -0.304 0.016-0.546-0.117-1.214-0.129 -0.742-0.012-3.945-0.268-5.003-0.338 -2.129-0.143-3.824 0.666-5.848 0.666 -2.025 0-3.868-0.883-5.996-0.74 -1.057 0.072-4.113 0.395-4.857 0.412 -0.663 0.019-0.923 0.133-1.231 0.12 -0.143-0.007-0.595-0.05-0.771 0.05 -0.147 0.086-0.09 0.559 0.027 0.683 0.285 0.298 1.397-0.233 1.959-0.22 0.777 0.017 3.843-0.05 4.917-0.121 2.081-0.142 3.936 0.821 5.952 0.821s3.725-0.889 5.806-0.749c1.071 0.072 4.281 0.064 5.06 0.049 0.563-0.014 1.764 0.449 2.052 0.22C113.043 133.495 112.972 132.969 112.808 132.902z"
                          data-colored="true" data-filltype="sd3" data-stroketype="none" fill="#b95f4c"
                          stroke-width="none" opacity="1" stroke="none"></path>
                    <path id="SvgjsPath6727"
                          d="M99.989 137.439c-3.37 0-6.645-1.154-9.241-3.306 1.307-0.072 2.652-0.277 3.961-0.219 1.613 0.07 3.144 0.705 4.756 0.813 1.742 0.116 3.358-0.488 5.064-0.695 1.422-0.171 2.931 0.059 4.357 0.111C106.335 136.101 103.244 137.439 99.989 137.439zM104.78 131.682c1.313-0.08 2.661 0.088 3.974 0.141 -1.43-0.712-2.953-1.553-4.549-1.807 -1.374-0.218-2.71 0.882-4.045 1.104 -1.506 0.25-2.69-1.15-4.16-1.15 -1.592 0.07-3.198 1.099-4.576 1.805 1.282-0.076 2.6-0.263 3.884-0.141 1.572 0.147 3.094 0.714 4.682 0.714C101.612 132.348 103.161 131.78 104.78 131.682z"
                          data-colored="true" data-filltype="hl1" data-stroketype="none" fill="#f6d0c7"
                          stroke-width="none" opacity="1" stroke="none"></path>
                    <path id="SvgjsPath6728"
                          d="M99.941 136.486c-2.029 0-4.007-0.701-5.707-2.001 0.38-0.037 0.764-0.066 1.133-0.066 0.117 0 0.234 0.003 0.351 0.009 0.609 0.033 1.209 0.208 1.846 0.394 0.618 0.178 1.256 0.363 1.923 0.419 0.132 0.012 0.264 0.016 0.395 0.016 0.819 0 1.596-0.204 2.348-0.399 0.477-0.126 0.928-0.245 1.392-0.313 0.253-0.04 0.527-0.058 0.837-0.058 0.268 0 0.544 0.014 0.818 0.034C103.862 135.572 102.03 136.486 99.941 136.486z"
                          data-colored="true" data-filltype="hl2" data-stroketype="none" fill="#ffece8"
                          stroke-width="none" opacity="1" stroke="none"></path>
                </g>
                <g id="svga-group-eyes-left" data-updown="-2.0000002" data-leftright="3.0000003" data-dist="0"
                   data-scaleX="0.89999958" data-scaleY="0.89999958" data-rotate="0"
                   transform="matrix(0.89999969 0 0 0.89999969 7.597473838443548 8.59992670462178) translate(3.0000003 -2.0000001000000003)">
                    <g id="svga-group-eyesback-left">
                        <path id="SvgjsPath6607"
                              d="M87.406 85c0 0 0.229 1.408 0.229 2.353 0 0.804-0.079 1.592-0.223 2.361 -0.002-0.018-0.004-0.032-0.006-0.049l-1.239 3.592c-12.532 2.012-19.052 1.868-20.346 0 -2.511-3.626-3.766-5.613-4.094-11.03C68.488 82.668 80.211 74.726 87.406 85z"
                              data-colored="false" data-filltype="gradient" data-stroketype="none"
                              fill="url(#SvgjsRadialGradient6608)" opacity="1"></path>
                    </g>
                    <g id="svga-group-eyesiriswrapper-left" transform="translate(0 0.25)">
                        <g id="svga-group-eyesiriscontrol-left" data-updown="-1.6365788271696354e-16" data-leftright="0"
                           data-dist="0" data-scaleX="1" data-scaleY="1" data-rotate="0"
                           transform="translate(0 9.999999983634211e-8)">
                            <g id="svga-group-eyesiris-left" data-updown="0" data-leftright="0" data-dist="0"
                               data-scaleX="0.79999916" data-scaleY="0.79999916" data-rotate="0"
                               transform="matrix(0.79999927 0 0 0.79999927 15.0013548035733 17.399962801624596)">
                                <path id="SvgjsPath6665"
                                      d="M83.206 89.25c-1.231 4.522-5.896 7.187-10.429 5.944 -4.528-1.241-7.203-5.918-5.97-10.442 1.23-4.526 5.905-7.19 10.434-5.947C81.768 80.045 84.439 84.723 83.206 89.25z"
                                      data-colored="true" data-filltype="tone" data-stroketype="sd3" fill="#341e0c"
                                      stroke="#060300" stroke-width="0.5" opacity="1"></path>
                                <path id="SvgjsPath6666"
                                      d="M73.962 81.918l-0.221-0.395c-0.776 0.308-1.524 0.631-2.232 0.973l0.524 1.267 -0.066 0.732 -2.021-1.189c-0.66 0.367-1.273 0.75-1.867 1.14l0.005 0.013 -0.692 0.78 1.107 1.132 -1.491 0.813 0.563 0.931 2.633 0.262 -2.468 1.673 2.641-0.146L68.984 92.3l3.255-1.969 -0.875 3.349 1.883-3.093 0.363 3.319 0.544-2.936 0.5-0.061 0.709 3.329 0.216-0.998c0.284-0.074 1.018 0.997 1.297 0.922l-0.829-3.621 1.817 3.621 -0.737-3.756 2.236 2.905c0.08-0.025 0.278-1.204 0.357-1.228l-1.392-2.081 2.53 0.763 -1.518-1.643 -1.219-1.009 5.083 1.137 -2.83-1.723 2-0.818 -4.329-0.437 4.281-2.27 -3.875 0.988 -1.043-0.565 -0.256-0.501 0.074-1.199 0.086-1.967 -1.768 3.113 -0.156-2.279 -0.222-0.597c-0.354 0.124-0.702 0.245-1.043 0.375L73.962 81.918z"
                                      data-colored="true" data-filltype="hl1" data-stroketype="none" fill="#432b16"
                                      stroke-width="none" opacity="1"></path>
                                <path id="SvgjsPath6667"
                                      d="M83.303 85.237c-7.429 0.338-11.206 1.927-16.591 3.727 -1.038-4.574 1.839-9.12 6.42-10.149C77.712 77.786 82.267 80.661 83.303 85.237z"
                                      data-colored="true" data-filltype="sd1" data-stroketype="none" fill="#251305"
                                      stroke-width="none" opacity="0.9"></path>
                                <path id="SvgjsPath6668"
                                      d="M76.234,84.165c-1.869-0.536-3.777,0.532-4.258,2.395c-0.484,1.853,0.64,3.793,2.51,4.329c1.871,0.537,3.781-0.532,4.264-2.386C79.237,86.639,78.107,84.7,76.234,84.165z"
                                      data-colored="false" data-filltype="#000000" data-stroketype="none" fill="#000000"
                                      stroke-width="none" opacity="0.8"></path>
                                <path id="SvgjsPath6669"
                                      d="M76.234,84.165c-1.869-0.536-3.777,0.532-4.258,2.395c-0.484,1.853,0.64,3.793,2.51,4.329c1.871,0.537,3.781-0.532,4.264-2.386C79.237,86.639,78.107,84.7,76.234,84.165z"
                                      data-colored="true" data-filltype="none" data-stroketype="sd3" fill="none"
                                      stroke="#060300" stroke-width="0.75" opacity="1"></path>
                                <path id="SvgjsPath6670"
                                      d="M68.812 92.044c0.868 1.378 2.021 2.416 3.653 2.762 1.879 0.398 2.094-2.101 0.748-2.387 -1.02-0.215-1.667-0.715-2.199-1.561C70.039 89.31 68.029 90.803 68.812 92.044L68.812 92.044z"
                                      data-colored="false" data-filltype="#ffffff" data-stroketype="none" fill="#ffffff"
                                      stroke-width="none" opacity="0.5"></path>
                                <path id="SvgjsPath6671"
                                      d="M76.468 83.449c1.316 0.265 2.082 1.087 2.747 2.323 1.222 2.272 4.676 0.252 3.453-2.019 -1.073-1.995-2.86-3.703-5.138-4.162C74.615 79.004 74.206 82.993 76.468 83.449L76.468 83.449z"
                                      data-colored="false" data-filltype="gradient" data-stroketype="none"
                                      fill="url(#SvgjsLinearGradient6672)" opacity="1"></path>
                            </g>
                        </g>
                    </g>
                    <g id="svga-group-eyesfront-left">
                        <path id="SvgjsPath6632"
                              d="M55 88c0 13.808 8.507 24.999 19 24.999S93 101.808 93 88c0-13.809-8.507-25.001-19-25.001S55 74.191 55 88zM61.728 82.227c6.761 0.441 18.483-7.501 25.679 2.773 0 0 0.229 1.408 0.229 2.353 0 0.804-0.079 1.592-0.223 2.361 -0.002-0.018-0.004-0.032-0.006-0.049l-1.239 3.592c-12.532 2.012-19.052 1.868-20.346 0C63.311 89.63 62.056 87.644 61.728 82.227z"
                              data-colored="true" data-filltype="tone" data-stroketype="none" data-fromskin="true"
                              fill="#ffd0bc" stroke-width="none" opacity="1" stroke="none"></path>
                        <path id="SvgjsPath6633"
                              d="M60 86.075c0.023 7.732 7.646 13.964 17.039 13.924C86.428 99.956 94.023 93.656 94 85.924c-0.023-7.733-7.648-13.966-17.041-13.925C67.568 72.042 59.977 78.342 60 86.075zM61.728 82.227c6.761 0.441 18.483-7.501 25.679 2.773 0 0 0.229 1.408 0.229 2.353 0 0.804-0.079 1.592-0.223 2.361 -0.002-0.018-0.004-0.032-0.006-0.049l-1.239 3.592c-12.532 2.012-19.052 1.868-20.346 0C63.311 89.63 62.056 87.644 61.728 82.227z"
                              data-colored="false" data-filltype="gradient" data-stroketype="none" data-fromskin="true"
                              fill="url(#SvgjsRadialGradient6634)" opacity="1"></path>
                        <path id="SvgjsPath6638"
                              d="M65.821 93.256c-2.511-3.626-3.766-5.613-4.094-11.03 6.761 0.441 18.483-7.501 25.679 2.773 0 0 0.229 1.408 0.229 2.353 0 0.804-0.079 1.592-0.223 2.361 -0.002-0.018-0.004-0.032-0.006-0.049l-1.239 3.592C73.635 95.269 67.115 95.125 65.821 93.256z"
                              data-colored="false" data-filltype="gradient" data-stroketype="none"
                              fill="url(#SvgjsRadialGradient6639)" opacity="1"></path>
                        <path id="SvgjsPath6642"
                              d="M66.743 77.239C70.362 76.637 81.612 76.05 86.176 80 79.26 76.121 71.335 77.017 66.743 77.239z"
                              data-colored="true" data-filltype="sd3" data-stroketype="none" data-fromskin="true"
                              fill="#d17f5b" stroke-width="none" opacity="1" stroke="none"></path>
                        <path id="SvgjsPath6643"
                              d="M66.008 80.011c-2.064 0.413-6.817-0.817-9.987-2.012 1.351 0.882 2.35 1.722 3.659 2.26 -1.147 0.229-2.911 0-5.146-0.496 2.832 1.847 4.239 2.518 5.891 2.667 -0.087 4.733 2.622 8.9 4.449 11.227l-2.278 1.985c1.233-0.639 2.331-1.083 3.351-1.055 1.504 0.662 2.649 1.054 4.465 1.489l-1.55 1.923c1.763-0.754 3.144-1.807 5.583-2.357 4.403-0.993 11.677-1.049 12.431-1.899 0.684-0.771 0.761-2.298 0.532-4.117l-1.041 2.969c-0.109 0.313-0.463 0.608-0.79 0.659 -12.146 1.883-18.48 1.716-19.754-0.093 -2.511-3.568-3.766-5.523-4.094-10.854 6.761 0.435 18.483-7.381 25.679 2.729l-0.352-1.757c0 0.062 1.344 0.662 1.344 0.662C82.736 77.669 77.173 77.778 66.008 80.011z"
                              data-colored="true" data-filltype="tone" data-stroketype="none" fill="#000000"
                              stroke-width="none" opacity="1" stroke="none"></path>
                    </g>
                </g>
                <g id="svga-group-eyes-right" data-updown="-2.0000002" data-leftright="-3.0000003" data-dist="0"
                   data-scaleX="0.89999958" data-scaleY="0.89999958" data-rotate="0"
                   transform="matrix(0.89999969 0 0 0.89999969 12.40263927865827 8.59992670462178) translate(-3.0000003 -2.0000001000000003)">
                    <g id="svga-group-eyesback-right">
                        <path id="SvgjsPath6615"
                              d="M112.594 85c0 0-0.229 1.408-0.229 2.353 0 0.804 0.079 1.592 0.223 2.361 0.002-0.018 0.004-0.032 0.006-0.049l1.239 3.592c12.532 2.012 19.052 1.868 20.346 0 2.511-3.626 3.766-5.613 4.094-11.03C131.512 82.668 119.789 74.726 112.594 85z"
                              data-colored="false" data-filltype="gradient" data-stroketype="none"
                              fill="url(#SvgjsRadialGradient6616)" opacity="1"></path>
                    </g>
                    <g id="svga-group-eyesiriswrapper-right" transform="translate(0 0.25)">
                        <g id="svga-group-eyesiriscontrol-right" data-updown="-1.6365788271696354e-16"
                           data-leftright="0" data-dist="0" data-scaleX="1" data-scaleY="1" data-rotate="0"
                           transform="translate(0 9.999999983634211e-8)">
                            <g id="svga-group-eyesiris-right" data-updown="0" data-leftright="0" data-dist="0"
                               data-scaleX="0.79999916" data-scaleY="0.79999916" data-rotate="0"
                               transform="matrix(0.79999927 0 0 0.79999927 25.000091249999997 17.399962801624596)">
                                <path id="SvgjsPath6675"
                                      d="M133.199 89.25c-1.231 4.522-5.896 7.187-10.429 5.944 -4.528-1.241-7.203-5.918-5.97-10.442 1.23-4.526 5.905-7.19 10.434-5.947C131.761 80.045 134.433 84.723 133.199 89.25z"
                                      data-colored="true" data-filltype="tone" data-stroketype="sd3" fill="#341e0c"
                                      stroke="#060300" stroke-width="0.5" opacity="1"></path>
                                <path id="SvgjsPath6676"
                                      d="M123.955 81.918l-0.221-0.395c-0.776 0.308-1.524 0.631-2.232 0.973l0.524 1.267 -0.066 0.732 -2.021-1.189c-0.66 0.367-1.273 0.75-1.867 1.14l0.005 0.013 -0.692 0.78 1.107 1.132L117 87.182l0.563 0.931 2.633 0.262 -2.468 1.673 2.641-0.146 -1.392 2.398 3.255-1.969 -0.875 3.349 1.883-3.093 0.363 3.319 0.544-2.936 0.5-0.061 0.709 3.329 0.216-0.998c0.284-0.074 1.018 0.997 1.297 0.922l-0.829-3.621 1.817 3.621 -0.737-3.756 2.236 2.905c0.08-0.025 0.278-1.204 0.357-1.228l-1.392-2.081 2.53 0.763 -1.518-1.643 -1.219-1.009 5.083 1.137 -2.83-1.723 2-0.818 -4.329-0.437 4.281-2.27 -3.875 0.988 -1.043-0.565 -0.256-0.501 0.074-1.199 0.086-1.967 -1.768 3.113 -0.156-2.279 -0.222-0.597c-0.354 0.124-0.702 0.245-1.043 0.375L123.955 81.918z"
                                      data-colored="true" data-filltype="hl1" data-stroketype="none" fill="#432b16"
                                      stroke-width="none" opacity="1"></path>
                                <path id="SvgjsPath6677"
                                      d="M133.296 85.237c-7.429 0.338-11.206 1.927-16.591 3.727 -1.038-4.574 1.839-9.12 6.42-10.149C127.705 77.786 132.26 80.661 133.296 85.237z"
                                      data-colored="true" data-filltype="sd1" data-stroketype="none" fill="#251305"
                                      stroke-width="none" opacity="0.9"></path>
                                <path id="SvgjsPath6678"
                                      d="M126.229,84.165c-1.869-0.536-3.777,0.532-4.259,2.395c-0.484,1.853,0.641,3.793,2.509,4.329c1.873,0.537,3.78-0.532,4.266-2.386C129.229,86.639,128.101,84.7,126.229,84.165z"
                                      data-colored="false" data-filltype="#000000" data-stroketype="none" fill="#000000"
                                      stroke-width="none" opacity="0.8"></path>
                                <path id="SvgjsPath6679"
                                      d="M126.229,84.165c-1.869-0.536-3.777,0.532-4.259,2.395c-0.484,1.853,0.641,3.793,2.509,4.329c1.873,0.537,3.78-0.532,4.266-2.386C129.229,86.639,128.101,84.7,126.229,84.165z"
                                      data-colored="true" data-filltype="none" data-stroketype="sd3" fill="none"
                                      stroke="#060300" stroke-width="0.75" opacity="1"></path>
                                <path id="SvgjsPath6680"
                                      d="M118.805 92.044c0.868 1.378 2.021 2.416 3.653 2.762 1.879 0.398 2.094-2.101 0.748-2.387 -1.02-0.215-1.667-0.715-2.199-1.561C120.032 89.31 118.022 90.803 118.805 92.044L118.805 92.044z"
                                      data-colored="false" data-filltype="#ffffff" data-stroketype="none" fill="#ffffff"
                                      stroke-width="none" opacity="0.5"></path>
                                <path id="SvgjsPath6681"
                                      d="M126.461 83.449c1.316 0.265 2.082 1.087 2.747 2.323 1.222 2.272 4.676 0.252 3.453-2.019 -1.073-1.995-2.86-3.703-5.138-4.162C124.608 79.004 124.199 82.993 126.461 83.449L126.461 83.449z"
                                      data-colored="false" data-filltype="gradient" data-stroketype="none"
                                      fill="url(#SvgjsLinearGradient6682)" opacity="1"></path>
                            </g>
                        </g>
                    </g>
                    <g id="svga-group-eyesfront-right">
                        <path id="SvgjsPath6653"
                              d="M126 62.999c-10.493 0-19 11.193-19 25.001 0 13.808 8.507 24.999 19 24.999S145 101.808 145 88C145 74.191 136.493 62.999 126 62.999zM134.179 93.256c-1.294 1.868-7.813 2.013-20.346 0l-1.239-3.592c-0.002 0.018-0.004 0.032-0.006 0.049 -0.144-0.769-0.223-1.557-0.223-2.361 0-0.945 0.229-2.353 0.229-2.353 7.195-10.274 18.918-2.332 25.679-2.773C137.944 87.644 136.689 89.63 134.179 93.256z"
                              data-colored="true" data-filltype="tone" data-stroketype="none" data-fromskin="true"
                              fill="#ffd0bc" stroke-width="none" opacity="1" stroke="none"></path>
                        <path id="SvgjsPath6654"
                              d="M123.041 71.999c-9.393-0.041-17.018 6.192-17.041 13.925 -0.023 7.732 7.572 14.031 16.961 14.075 9.393 0.04 17.016-6.192 17.039-13.924C140.023 78.342 132.432 72.042 123.041 71.999zM134.179 93.256c-1.294 1.868-7.813 2.013-20.346 0l-1.239-3.592c-0.002 0.018-0.004 0.032-0.006 0.049 -0.144-0.769-0.223-1.557-0.223-2.361 0-0.945 0.229-2.353 0.229-2.353 7.195-10.274 18.918-2.332 25.679-2.773C137.944 87.644 136.689 89.63 134.179 93.256z"
                              data-colored="false" data-filltype="gradient" data-stroketype="none" data-fromskin="true"
                              fill="url(#SvgjsRadialGradient6655)" opacity="1"></path>
                        <path id="SvgjsPath6659"
                              d="M134.179 93.256c2.511-3.626 3.766-5.613 4.094-11.03 -6.761 0.441-18.483-7.501-25.679 2.773 0 0-0.229 1.408-0.229 2.353 0 0.804 0.079 1.592 0.223 2.361 0.002-0.018 0.004-0.032 0.006-0.049l1.239 3.592C126.365 95.269 132.885 95.125 134.179 93.256z"
                              data-colored="false" data-filltype="gradient" data-stroketype="none"
                              fill="url(#SvgjsRadialGradient6660)" opacity="1"></path>
                        <path id="SvgjsPath6663"
                              d="M113.824 80c4.563-3.95 15.813-3.363 19.433-2.761C128.665 77.017 120.74 76.121 113.824 80z"
                              data-colored="true" data-filltype="sd3" data-stroketype="none" data-fromskin="true"
                              fill="#d17f5b" stroke-width="none" opacity="1" stroke="none"></path>
                        <path id="SvgjsPath6664"
                              d="M133.992 80.011c2.064 0.413 6.817-0.817 9.987-2.012 -1.351 0.882-2.35 1.722-3.659 2.26 1.147 0.229 2.911 0 5.146-0.496 -2.832 1.847-4.239 2.518-5.891 2.667 0.087 4.733-2.622 8.9-4.449 11.227l2.278 1.985c-1.233-0.639-2.331-1.083-3.351-1.055 -1.504 0.662-2.649 1.054-4.465 1.489l1.55 1.923c-1.763-0.754-3.144-1.807-5.583-2.357 -4.403-0.993-11.677-1.049-12.431-1.899 -0.684-0.771-0.761-2.298-0.532-4.117l1.041 2.969c0.109 0.313 0.463 0.608 0.79 0.659 12.146 1.883 18.48 1.716 19.754-0.093 2.511-3.568 3.766-5.523 4.094-10.854 -6.761 0.435-18.483-7.381-25.679 2.729l0.352-1.757c0 0.062-1.344 0.662-1.344 0.662C117.264 77.669 122.827 77.778 133.992 80.011z"
                              data-colored="true" data-filltype="tone" data-stroketype="none" fill="#000000"
                              stroke-width="none" opacity="1" stroke="none"></path>
                    </g>
                </g>
                <g id="svga-group-facehighlight-single" data-updown="0" data-leftright="0" data-dist="0" data-scaleX="1"
                   data-scaleY="1" data-rotate="0">
                    <path id="SvgjsPath2753"
                          d="M140.204 113.007c0.035 22.275-17.995 40.365-40.273 40.396 -22.274 0.036-40.361-17.993-40.396-40.272C59.501 90.857 77.53 72.77 99.808 72.735 122.083 72.701 140.171 90.73 140.204 113.007z"
                          data-colored="false" data-filltype="gradient" data-stroketype="none" data-fromskin="true"
                          fill="url(#SvgjsRadialGradient2754)" opacity="1"></path>
                    <path id="SvgjsPath2757"
                          d="M135,55.999c0,19.329-15.671,35-35,35c-19.329,0-35-15.671-35-35s15.671-35,35-35C119.329,20.999,135,36.67,135,55.999z"
                          data-colored="false" data-filltype="gradient" data-stroketype="none" data-fromskin="true"
                          fill="url(#SvgjsRadialGradient2758)" opacity="1"></path>
                </g>
                <g id="svga-group-eyebrows-left" data-updown="-5.838672220806777e-17"
                   data-leftright="3.8570248764199485e-16" data-dist="0" data-scaleX="1.1500006300000003"
                   data-scaleY="1.1500006300000003" data-rotate="1e-7"
                   transform="matrix(1.1500005200000003 0 0 1.1500005200000003 -11.026463872677866 -10.201911038147855) rotate(1e-7 73.5095043182373 70.01250447763672) translate(3.8570248764199485e-16 -1.0000000005838672e-7)">
                    <path id="SvgjsPath6025"
                          d="M54.351 74.996c9.743-15.115 36.491 5.148 38.018-1.191 0.299-1.271-0.407-2.015-1.564-2.492C77.184 65.807 59.156 61.18 54.351 74.996z"
                          data-colored="true" data-filltype="#000000" data-stroketype="none" fill="#080806"
                          stroke-width="none" opacity="1"></path>
                </g>
                <g id="svga-group-eyebrows-right" data-updown="-5.838672220806777e-17"
                   data-leftright="-3.8570248764199485e-16" data-dist="0" data-scaleX="1.1500006300000003"
                   data-scaleY="1.1500006300000003" data-rotate="1e-7"
                   transform="matrix(1.1500005200000003 0 0 1.1500005200000003 -18.97364041342547 -10.201911038147855) rotate(1e-7 126.49049758911133 70.01250447763672) translate(-3.8570248764199485e-16 -1.0000000005838672e-7)">
                    <path id="SvgjsPath6026"
                          d="M145.649 74.996c-9.743-15.115-36.491 5.148-38.018-1.191 -0.299-1.271 0.407-2.015 1.564-2.492C122.816 65.807 140.844 61.18 145.649 74.996z"
                          data-colored="true" data-filltype="#000000" data-stroketype="none" fill="#080806"
                          stroke-width="none" opacity="1"></path>
                </g>
                <g id="svga-group-nose-single" data-updown="-5.838672220806777e-17"
                   data-leftright="-5.2635580254447884e-17" data-dist="0" data-scaleX="1.05000021"
                   data-scaleY="1.05000021" data-rotate="0"
                   transform="matrix(1.05000032 0 0 1.05000032 -4.890631122836922 -5.294209020731145) translate(-5.2635580254447884e-17 -1.0000000005838672e-7)">
                    <path id="SvgjsPath6740"
                          d="M94.803 91.719c0 0 0.661 2.089 0.679 2.718 0.032 1.07-0.102 1.907-0.191 2.729 -0.579 5.369-3.579 13.137-3.418 16.845 0.07 1.597 1.125 3.926 1.125 3.926s-2.537-0.654-3.094-5.178c-0.23-1.866 1.717-5.479 2.397-7.23 0.646-1.664 1.906-7.059 2.348-8.798 0.186-0.729 0.52-1.607 0.515-2.362C95.162 93.697 94.803 91.719 94.803 91.719zM94.514 118.386c0 0 0.3 2.483 3.237 3.092 2.758 0.57 4.305-2.242 4.305-2.242s-2.292 1.442-4.052 0.925C97.075 119.889 94.514 118.386 94.514 118.386zM105.082 113.04c-0.02 0.595-0.198 2.316-0.198 2.316s0.904-1.384 0.962-1.93c0.104-0.98-1.063-3.808-1.063-3.808S105.109 112.176 105.082 113.04z"
                          data-colored="true" data-filltype="sd1" data-stroketype="none" data-fromskin="true"
                          fill="#f0b399" stroke-width="none" opacity="1" stroke="none"></path>
                    <path id="SvgjsPath6741"
                          d="M92.489 108.932c-1.224 3.882-2.089 7.991 1.481 9.82 0.467 0.239 0.967 0.416 1.475 0.517 0.276 0.054 0.479 0.288 0.722 0.441 0.557 0.357 1.475 0.408 2.113 0.518 2.454 0.424 4.93-0.568 5.538-2.942 -1.527 2.045-2.878 2.609-4.955 2.446 -2.493-0.196-4.573-2.28-5.227-4.726 -0.389-1.454-0.54-2.916-0.424-4.433 0.108-1.302 0.487-2.593 0.707-3.883 0.412-2.326 1.408-7.191 1.401-9.62 -0.398 1.693-1.119 5.687-1.392 6.661 -0.204 0.726-0.635 2.199-0.811 2.933C92.978 107.253 92.667 108.364 92.489 108.932zM92.207 115.405c-0.163-1.144 0.045-2.348 0.294-3.457 0.088 2.204 0.708 4.771 2.122 6.399C93.401 117.86 92.414 116.852 92.207 115.405 92.061 114.382 92.458 117.163 92.207 115.405z"
                          data-colored="true" data-filltype="sd3" data-stroketype="none" data-fromskin="true"
                          fill="#d17f5b" stroke-width="none" opacity="1" stroke="none"></path>
                    <path id="SvgjsPath6742"
                          d="M95.57 113.331c0.158 0.712 0.032 1.354-0.281 1.438 -0.313 0.082-0.634-0.351-0.792-1.063 -0.158-0.711-0.09-1.432 0.222-1.513C95.032 112.11 95.413 112.62 95.57 113.331z"
                          data-colored="true" data-filltype="hl2" data-stroketype="none" data-fromskin="true"
                          fill="#fff4ef" stroke-width="none" opacity="1" stroke="none"></path>
                </g>
                <g id="svga-group-hair-front" data-updown="0" data-leftright="0" data-dist="0"
                   data-scaleX="0.9599995800000001" data-scaleY="0.9997995800000001" data-rotate="0"
                   transform="matrix(0.9599996900000001 0 0 0.9997996900000001 3.8209290031445846 0.0141894595485752)">
                    <path id="SvgjsPath6745"
                          d="M38.854 237.82l9.88-202.719 105.496 1.162 1.025 203.314C155.255 239.577 50.052 239.114 38.854 237.82zM137.106 235.279c-4.241-47.633 1.152-84.777 5.499-114.713 2.44-16.806 4.572-31.486 4.458-44.428 -2.542 1.415-21.941 1.903-21.941 1.903 -14.513 2.338-25.333 0.387-25.782 0.438 -1.982-12.335-2.297-14.256-2.726-17.048 -1.333 11.235-0.355 13.67-1.37 15.249 -2.873 0.713-22.804-0.167-23.806-0.237 -5.478 2.035-9.035-2.194-12.427-1.241 -1.982 1.505-5.386 1.669-6.386 1.42 -1.023 20.123 2.42 35.283 6.058 51.303 9 39.633 8.399 50.872 5.508 104.881C64.192 232.806 126.452 234.934 137.106 235.279z"
                          data-colored="true" data-filltype="tone" data-stroketype="none" fill="#ddbc9b"
                          stroke-width="none" opacity="0.1"></path>
                    <path id="SvgjsPath6746"
                          d="M177.393 209.541c-15.107-60.344 3.552-108.071-9.179-151.026 -6.063-20.427-18.396-46.964-42.724-57.386 -6.483-2.787-12.601-3.207-19.46-2.256 -3.871-1.177-8.064-1.773-12.462-1.773 -30.232 0-49.746 25.833-59.244 54.789 -5.943 18.135-7.341 33.902-5.755 64.884 3.633 70.935-3.103 88.369-14.274 117.075 17.224 0.024 36.536 4.694 63.515 4.779 22.28 0.08 102.989 0.006 109.574-0.733C180.977 223.385 179.949 219.769 177.393 209.541zM139.306 237.354c-44.235-1.525-58.379 0.504-77.335-0.458 3.085-57.769 3.929-68.17-5.236-108.528 -3.815-16.8-7.374-32.516-5.986-53.916 1.84-0.071 3.204 0.365 4.861 1.224v0.005c0.079 0.043 0.154 0.086 0.23 0.131 0.05-0.268 0.105-0.577 0.162-0.836l0.118-0.089 -0.098-0.02c0.638-3.158 1.735-6.719 3.175-10.297l0.191 0.054c-0.49 2.876-0.772 5.765-0.838 8.586l-0.03 0.053c3.296-0.917 7.163 1.845 10.161 1.845 0.87-0.06 1.588-0.369 2.394-0.662 1.102-15.937 2.326-22.387 4.625-27.361l0.188 0.063c-1.329 6.207-1.753 14.946-1.297 26.715l-0.012 0.016c2.685-0.26 5.862 0.912 8.171 0.815 0-3.915 0.676-9.192 0.94-12.385l0.199 0.002c0.403 6.263 1.163 10.374 1.782 13.256 5.281-1.185 5.041-0.413 7.762-0.57 0.189-0.009 0.377-0.028 0.556-0.064l0.03-0.046 -0.1 0.008c-0.677-8.054 2.333-25.156 3.102-29.187l0.198 0.019c-0.008 7.96 0.718 11.325 3.793 30.548 1.722-0.197 4.705 0.844 6.717 1.081 0-3.986-0.013-3.709 0.01-5.85l0.199 0c0.033 2.019 0.142 3.989 0.735 5.933 3.159 0.066 5.395-1.403 8.343-1.122 0.369-16.421-1.055-25.078-1.897-32.829l0.196-0.037c4.08 15.22 5.452 31.663 5.565 33.095 0.38-0.028 1.758-0.133 2.461-0.246 0.431-3.141 2.143-21.364 1.309-26.247l0.194-0.046c2.643 8.591 2.331 15.253 2.524 25.565 2.552-0.785 6.706 0.343 9.615 0.015 -0.4-7.699-0.557-14.668-2.451-21.243l0.189-0.063c2.292 5.971 4.105 13.197 4.986 20.951l0.045-0.025c6.444 0.5 5.332-0.919 9.239-2.14C150.379 109.934 131.943 159.713 139.306 237.354z"
                          data-colored="true" data-filltype="tone" data-stroketype="none" fill="#ddbc9b"
                          stroke-width="none" opacity="1"></path>
                    <path id="SvgjsPath6747"
                          d="M180.326 238.184c-13.273 0.212-38.624-0.278-41.021-0.829 -2.923-30.82-1.775-57.236 0.579-80.211 3.563-34.778 9.895-61.65 9.112-83.836 0.153-1.482 2.837-0.396 3.497-1.095 -4.5-29.25-14.214-47.686-29.494-59.91 64.384 45.135 14.583 132.535 23.191 167.176 1.473-18.377 13.012-69.387 15.809-79.376 -5 36-17 78 3 112 -2.631-14.907-2.954-30.583-2.994-45.681C162.776 191.536 172.246 214.616 180.326 238.184zM58.674 65.947c0.174-0.459 0.336-0.917 0.522-1.377l0.191 0.054c-0.49 2.876-0.772 5.765-0.838 8.586l-0.03 0.053c0.829-0.23 1.694-0.228 2.572-0.096 0.46-12.512 2.842-25.349 9.909-35.065C62.39 45.146 60.52 55.867 58.674 65.947zM101 31.102c-4.32 7.921-5.012 16.878-5.807 25.753 0.705-4.999 1.486-9.358 1.828-11.146l0.198 0.019c-0.008 7.96 0.718 11.325 3.793 30.548 0.581-0.066 1.31 0.014 2.092 0.15C99.585 61.645 97.306 46.8 101 31.102zM107.107 77.255c0.21 0.036 0.428 0.078 0.622 0.101 0-3.986-0.013-3.709 0.01-5.85l0.199 0c0.033 2.019 0.142 3.989 0.735 5.933 0.322 0.007 0.628-0.012 0.933-0.033C109.008 70.885 109 64.846 109 58.102 107.081 64.817 107.919 70.614 107.107 77.255zM116.672 76.305c0.116 0.006 0.227 0 0.345 0.012 0.369-16.421-1.055-25.078-1.897-32.829l0.196-0.037c4.08 15.22 5.452 31.663 5.565 33.095 0.274-0.02 1.071-0.081 1.757-0.156 -1.144-16.075-3.59-31.982-11.638-46.289C114.768 45.173 114.988 61.131 116.672 76.305zM135.979 75.646c0.347-0.006 0.685-0.021 1.005-0.058 -0.4-7.699-0.557-14.668-2.451-21.243l0.189-0.063c2.292 5.971 4.105 13.197 4.986 20.951l0.045-0.025c0.782 0.061 1.449 0.092 2.031 0.1 -1.098-13.198-6.537-25.602-12.785-37.206C132.851 50.616 135.767 63.131 135.979 75.646zM124.84 56.501c0.076-2.761 0.039-5.108-0.189-6.448l0.194-0.046c2.643 8.591 2.331 15.253 2.524 25.565 0.555-0.17 1.193-0.239 1.87-0.264 0.08-12.715-1.994-25.322-6.239-37.208C123.654 43.994 124.731 50.313 124.84 56.501zM86 50.102c-3.781 7.562-3.098 16.018-4.701 24.521 0.509 0.058 0.997 0.089 1.45 0.07 0-3.915 0.676-9.192 0.94-12.385l0.199 0.002c0.403 6.263 1.163 10.374 1.782 13.256 0.642-0.144 1.2-0.258 1.694-0.35C85.62 67.168 84.213 59.034 86 50.102zM79 40.102c-8.426 9.362-8.087 23.107-8.83 34.67 0.297-0.103 0.594-0.213 0.904-0.326 1.102-15.937 2.326-22.387 4.625-27.361l0.188 0.063c-1.329 6.207-1.753 14.946-1.297 26.715l-0.012 0.016c0.748-0.072 1.534-0.029 2.329 0.063C76.446 62.338 74.534 50.821 79 40.102zM81 17.102c-25.15 16.485-39 47-35 75 5 37 11 73 6 110 3-31-2-62-8-93 5 34 5 68-4 101 3.177-16.681 0.047-32.73-1.376-49.151 0.141 25.13-5.941 50.009-14.846 73.181 16.549 0.846 36.42 3.267 38.192 2.766 3.085-57.769 3.929-68.17-5.236-108.528 -3.815-16.8-7.374-32.516-5.986-53.916C50.748 74.453 52.907 45.195 81 17.102z"
                          data-colored="true" data-filltype="sd1" data-stroketype="none" fill="#cea57c"
                          stroke-width="none" opacity="1"></path>
                    <path id="SvgjsPath6748"
                          d="M64.672 42.118C74.59 24.24 80.38 19.473 94.632 11.415c0.176-0.104-0.702 0.439-2.147 1.33C78.576 21.306 72.058 29.883 64.672 42.118zM135.742 37.113c9.163 18.181 9.775 30.657 9.025 24.705 -0.8-4.99-1.419-10.855-6.312-22.197 -5.369-11.776-14.072-23.532-25.283-30.441C119.437 13.431 126.959 20.108 135.742 37.113zM91.527 43.736c-1.861 13.125-1.499 23.37-1.487 22.57 0.06-9.996 2.285-23.7 4.771-33.506 2.673-9.599 5.599-14.82 6.494-16.746C97.408 23.369 93.199 32.769 91.527 43.736zM111.445 59.291c0.067 1.53 0.117 2.458 0.109 2.274 -0.562-6.037 1.766-16.643-5.494-38.71C109.065 33.412 110.842 42.398 111.445 59.291zM130.265 63.92c0.329 2.116 0.547 3.4 0.509 3.145 -1.188-7.196-0.94-20.108-7.805-34.964 -4.252-9.161-8.862-13.611-10.668-15.707C119.052 24.654 125.487 33.128 130.265 63.92zM79.303 60.814c0.534-8.417 1.123-9.623 1.675-12.166 3.557-14.121 5.869-18.655 10.179-25.844C78.031 42.895 79.303 60.814 79.303 60.814zM37.505 63.373c-0.024 0.471-0.016 2.812-0.008 2.419C38.081 45.747 61.782 11.076 77.827 5.21 62.315 10.191 39.336 38.968 37.505 63.373zM38.188 103.349c0.687 5.613 1.616 9.97 1.536 9.472 -3.8-17.919 1.102-58.568 12.54-73.07C43.945 49.745 35.375 75.813 38.188 103.349zM34.257 158.321c-0.697 3.996-0.614 3.458-0.165 1.388 3.824-18.365 0.212-50.656-1.332-66.366C32.761 92.337 35.675 142.412 34.257 158.321zM145.164 23.022c2.272 3.198 7.384 9.497 12.905 23.33 4.216 10.549-1.739-5.479-3.84-10.089 -7.777-18.021-18.42-26.645-36.157-33.313C133.49 9.586 138.051 14.323 145.164 23.022zM160.349 100.734c-1.174 11.388 1.192-7.638 1.439-10.115 2.257-19.967-1.41-33.458-8.753-46.237C159.271 56.404 163.33 68.177 160.349 100.734zM166.605 172.471c0.702 3.44 1.178 5.512 1.091 5.1 -4.749-24.438-0.502-87.206-0.472-89.487C166.943 94.275 160.133 142.839 166.605 172.471z"
                          data-colored="true" data-filltype="hl1" data-stroketype="none" fill="#ecd5bd"
                          stroke-width="none" opacity="1"></path>
                    <path id="SvgjsPath6749"
                          d="M177.489 209.517c-15.15-60.52 3.6-107.91-9.18-151.03 -7.061-23.79-20.16-47.76-42.78-57.45 -6.84-2.94-13.17-3.16-19.47-2.26 -7.271-2.21-16.46-2.55-25.811 0.07 -24.32 6.79-38.6 30.39-46.02 53.01 -5.61 17.12-7.43 32.3-5.76 64.92 3.57 69.692-2.795 87.556-14.32 117.17 17.259 0 36.599 4.694 63.66 4.779 22.157 0.084 104.198 0.003 109.72-0.75C181.142 223.517 180.077 219.868 177.489 209.517zM127.009 236.896c-28.229-0.85-46.33 0.71-64.63-0.079 -0.101-0.005-0.202-0.013-0.303-0.017 0.586-10.989 1.823-25.713 2.103-51.044 0.452-48.899-16.046-69.102-13.336-111.208 0.227-0.008 0.457-0.022 0.677-0.012 0.25 0.01 0.49 0.04 0.72 0.08 1.22 0.17 2.3 0.61 3.27 1.12 0 0.03 0 0.06-0.01 0.08 0.02-0.02 0.03-0.04 0.04-0.06 0.13 0.07 0.25 0.14 0.38 0.22 0-0.05 0.01-0.1 0.02-0.15 0.05-0.27 0.1-0.55 0.16-0.83 0-0.04 0.01-0.07 0.02-0.11 0.66-3.27 1.79-6.85 3.17-10.28 -0.54 3.17-0.78 6.05-0.84 8.6 0 0.06-0.01 0.12 0 0.18 0.24-0.07 0.48-0.13 0.72-0.16 3.13-0.44 6.75 2.02 9.58 1.98 0.67-0.05 1.31-0.28 1.95-0.51 0.16-0.07 0.31-0.12 0.47-0.18 0.31-4.51 0.82-9.25 1.05-11.59 0.53-5.39 1.31-10.91 3.57-15.8 -1.09 5.09-1.83 13.05-1.3 26.74 0 0.04 0.01 0.08 0.01 0.12 0.2-0.02 0.41-0.04 0.62-0.04 0.82-0.03 1.67 0.06 2.52 0.19 0.1 0.01 0.2 0.03 0.29 0.04 1.53 0.25 3.07 0.6 4.57 0.62 0.12 0 0.23 0 0.35-0.01 0-0.04 0-0.07 0-0.11 0.01-2.05 0.18-4.74 0.59-8.73 0.14-1.21 0.25-2.42 0.35-3.63 0.39 6.06 1.1 10.09 1.79 13.3 0 0.02 0.01 0.05 0.01 0.07 0.14-0.03 0.27-0.06 0.39-0.09 1.93-0.49 2.02-0.59 4.55-0.58 1.16 0 2.06 0.13 2.91 0.08 0.2-0.01 0.4-0.03 0.59-0.07 0-0.05-0.01-0.1-0.01-0.14 -0.17-2.02-0.24-3.89-0.18-5.14 0.14-3.1 1.56-15 3.28-24.02 -0.01 9.93 1.6 15.67 2.9 24.94 0.26 1.86 0.52 3.71 0.88 5.53 0.01 0.06 0.02 0.12 0.029 0.19 0.131-0.02 0.271-0.03 0.41-0.03 1.84-0.03 4 0.75 6.11 1.06 0.13 0.02 0.26 0.04 0.38 0.05 0-0.15 0-0.29 0-0.43 0-1.05 0-1.88 0-2.24 -0.01-1.27 0-2.36 0.01-3.29 0.04 2.49 0.19 3.89 0.63 5.58 0.04 0.14 0.08 0.29 0.131 0.45 0.159 0 0.319 0.01 0.47 0.01 0.149-0.01 0.29-0.01 0.43-0.02 1.79-0.11 3.5-0.72 5.26-1.02 0.62-0.11 1.2-0.15 1.75-0.12 0.2 0 0.4 0.02 0.601 0.04 0.01-0.08 0.01-0.17 0-0.25 0.029-1.56 0.029-3.4 0.01-5.6 -0.13-14.33-0.6-15.11-1.9-27.1 4.295 16.023 5.57 33.176 5.57 33.176s1.846-0.128 2.642-0.266c0.438-3.102 2.152-21.467 1.318-26.35 2.63 8.55 2.33 15.2 2.521 25.58 0.01 0.03 0.01 0.06 0.01 0.09 0.18-0.06 0.359-0.11 0.54-0.14 2.67-0.55 5.96 0.38 9 0.14 0.09-0.01 0.18-0.02 0.27-0.03 0-0.03-0.01-0.06-0.01-0.1 -0.4-8.32-0.64-14.98-2.45-21.26 2.181 5.68 4.08 13 4.95 20.66 0 0.02 0.01 0.04 0.01 0.07 0 0.05 0.011 0.1 0.011 0.15 0.01 0.03 0.01 0.06 0.02 0.1 0.08 0.01 0.16 0.01 0.25 0.02 1.23 0.11 2.47 0.19 3.65 0.05 1.994-0.247 3.513-1.582 5.379-2.165 0.667 15.533-3.643 42.797-5.319 54.003 -0.839 5.757-1.671 11.249-2.304 16.2 -4.776 36.774-4.247 71.054-2.08 93.846C135.446 237.146 131.398 237.029 127.009 236.896zM161.339 237.787c-1.8-7.09-3.66-14.75-4.26-17.54 -4.78-22.08-6.68-57.7-2.35-79.69 -4.511 19.601-5.551 53.73 1.359 80.94 0.95 3.74 2.66 9.79 4.641 16.28 -5.631-0.109-12.501-0.275-20.942-0.51 -0.994-13.384-1.845-33.824-0.302-56.421 2.255-36.467 10.913-86.177 9.76-107.737 0.274-0.075 0.549-0.15 0.834-0.203 0.24-0.05 0.48-0.09 0.72-0.13 0.96-0.15 1.94-0.25 2.9-0.38 0.12-0.02 0.25-0.04 0.37-0.06 -0.021-0.09-0.03-0.18-0.03-0.28 -0.74-6.93-2.86-22.16-9.47-35.44 -1.13-2.28-2.32-4.61-3.88-6.63 -3.04-3.91-13.34-16.09-17.87-17.71 5.41 2.95 13.46 13.25 17.09 18.32 3.9 5.53 11.52 24.85 13.56 40.08 0.061 0.47 0.131 0.95 0.19 1.42 -0.97 0.08-1.96 0.1-2.93 0.23 -0.24 0.03-0.471 0.06-0.7 0.11 -0.42 0.08-0.83 0.18-1.23 0.32 -1.93 0.68-3.449 2.17-5.54 2.4 -1.109 0.13-2.26 0.1-3.399 0.05 0-0.09-0.01-0.18-0.021-0.27 0.011-0.01 0.03-0.01 0.04-0.02 -0.01 0-0.029 0-0.04 0.01 -0.279-4.54-0.79-8.8-1.95-13.38 -0.579-2.27-2.67-7.84-5.1-12.25 -0.4-0.72-0.8-1.4-1.21-2.04 0.3 0.67 0.59 1.35 0.85 2.05 2.421 6.29 3.271 14.06 4.381 26.28 -2.79 0.02-6.21-0.83-8.98-0.13 0.23-8.92 0.4-16.72-3.11-26.27 -0.09-0.27-0.189-0.53-0.29-0.8 0 0.22 0 0.43 0 0.65 0.018 10.723-0.445 18.599-1.341 27.3 -0.002 0-1.868 0.208-1.868 0.208 -0.281-6.221-0.846-14.428-1.7-19.028 -1.32-7.09-2.931-12.55-4.62-17.04 -0.29-0.8-0.58-1.55-0.88-2.28 0.02 0.47 0.05 0.94 0.08 1.41 0.02 0.3 0.039 0.59 0.06 0.89 1.37 19.23 2.05 29.71 2.33 35.64 -0.43-0.02-0.91-0.01-1.45 0.05 -1.93 0.2-3.81 0.71-5.75 0.89 -0.1 0.01-0.2 0.02-0.31 0.01 -0.641-3.39-0.811-6.35-0.92-9.67 -0.011-0.01-0.011-0.03 0-0.04 -0.011-0.19-0.021-0.37-0.021-0.56 -0.08 0.39-0.15 0.79-0.21 1.18 -0.36 2.21-0.51 4.46-0.47 6.73 0.01 0.39 0.04 1.22 0.08 2.26 -1.971-0.27-4.221-1-6.13-0.84 -0.41-2.81-0.541-5.15-0.601-5.79 -0.5-5.21-2.49-17.76-2.67-28.99 -0.01-0.83-0.01-1.65 0-2.46 -0.03 0.08-0.06 0.17-0.09 0.26 -0.24 0.73-0.49 1.52-0.73 2.38 -2.43 8.47-4.82 22.83-3.8 33.37 -1.58 0.02-2.19-0.74-7.46 0.6 -0.66-4.44-1.37-9.72-1.83-16.91 -0.05-0.68-0.09-1.39-0.12-2.11 -0.13 0.69-0.27 1.39-0.4 2.12 -0.85 4.72-1.57 10.17-1.12 16.04 -1.97-0.09-3.37-0.38-4.54-0.6 -0.09-0.02-0.19-0.04-0.28-0.06 -0.91-0.17-1.7-0.29-2.55-0.22 0.04-9.19 0.5-23.44 1.29-27.48 0.05-0.24 0.1-0.48 0.15-0.72 0.04-0.19 0.08-0.38 0.13-0.57 -0.24 0.37-0.46 0.73-0.67 1.11 0 0 0 0 0 0.01 -2.87 5.07-4 11.09-4.68 16.86 -0.26 2.15-0.57 6.99-0.64 11.66 -0.66 0.18-1.32 0.34-1.98 0.36 -2.37 0.18-5.19-2.63-9.53-1.96 0.26-2.61 0.69-5.89 1.39-10.11 0.13-0.77 0.27-1.54 0.43-2.3 0.12-0.56 0.24-1.12 0.37-1.68 1.53-6.51 4.05-12.69 7.29-18.56 -4.84 7.94-7.48 15.26-8.86 21.6 -2.1 4.37-3.69 9.15-4.28 13.58 -0.96-0.58-2.05-1.07-3.28-1.24 -0.23-0.05-0.46-0.07-0.7-0.07 -0.67-0.05-1.38 0.01-2.14 0.2 1.06-5.01 2.81-10.72 4.72-16.16 0.05-0.14 0.1-0.27 0.14-0.41 2.31-6.51 4.81-12.58 6.62-16.49 4.05-8.76 9.38-13.92 17.64-22.9 -7.84 7.83-14.29 13.62-18.31 21.5 -2.34 4.59-4.76 9.25-6.34 14.17 -1.32 4.14-3.99 12.8-5.18 20.49 -0.02 0.08-0.03 0.16-0.04 0.23 0.24-0.08 0.47-0.13 0.7-0.18 0.484-0.101 0.939-0.145 1.384-0.166 -1.706 21.073 1.026 39.395 7.971 68.821 0 0 1.324 6.811 2.002 12.007 2.208 19.151 1.688 29.073 1.495 63.551 0.009 5.47-0.461 11.988-0.714 17.839 -5.923-0.293-11.821-0.83-17.718-1.401 0.91-2.79 1.93-5.59 2.73-8.08 4.77-14.79 7.95-48.95 1.23-86.431 4.23 28.811 3.22 58.641-0.75 81.271 -0.67 3.82-2.34 8.6-3.64 13.2 -6.5-0.63-12.99-1.271-19.51-1.61 -3.19-0.17-6.16-0.24-9.08-0.29 16.37-39.41 18.46-57.8 16.27-124.56 -0.68-20.86-1.4-40.54 8.37-65.61 16.17-41.49 46.03-49.89 65.84-44.35 0.189 0.04 0.38 0.1 0.57 0.15 0.27-0.03 0.54-0.07 0.81-0.1 9.23-1.1 16.92 0.36 26.6 7.13 23.62 16.52 35.21 48.19 36.87 76.97 1.65 28.58-4.13 64.52 0.98 100.85 1.78 12.64 5.04 24.949 8.85 37.12 0.44 1.51 3.83 9.34 6.96 16.529C183.339 237.917 177.659 238.097 161.339 237.787z"
                          data-colored="true" data-filltype="sd3" data-stroketype="none" fill="#af7b46"
                          stroke-width="none" opacity="1"></path>
                </g>
                <g id="svga-group-glasses-single" data-updown="0" data-leftright="0" data-dist="0" data-scaleX="1"
                   data-scaleY="1" data-rotate="0">
                    <path id="SvgjsPath4973" d="M100,18.13L100,18.13L100,18.13L100,18.13z" data-colored="true"
                          data-filltype="tone" data-stroketype="none" fill="#26120b" stroke-width="none"
                          opacity="1"></path>
                </g>
            </g>
        </g>
        <rect id="SvgjsRect1033" width="200" height="15" x="0" y="185" fill="#ecf0f1" opacity="0.5"
              style="display:none;"></rect>
        <text id="SvgjsText1034"
              font-family="&quot;Roboto&quot;, &quot;Helvetica Neue&quot;, Helvetica, Arial, sans-serif"
              style="font-size:0.84em;font-family:&quot;Roboto&quot;, &quot;Helvetica Neue&quot;, Helvetica, Arial, sans-serif;text-anchor:middle;font-weight:400;display:none;"
              font-size="0.84em" text-anchor="middle" font-weight="400" fill="#000000" x="100" y="185">
            <tspan id="SvgjsTspan1035" dy="1.2em" x="100"
                   style="font-size:0.84em;font-family:&quot;Roboto&quot;, &quot;Helvetica Neue&quot;, Helvetica, Arial, sans-serif;text-anchor:middle;font-weight:400;">
                Created on svgAvatars.com
            </tspan>
        </text>
    </g>
    <defs id="SvgjsDefs1001">
        <radialGradient id="SvgjsRadialGradient2754" cx="100" cy="113" r="40" gradientUnits="userSpaceOnUse"
                        class="svga-on-canvas-facehighlight-gradient-single-0">
            <stop id="SvgjsStop2755" stop-opacity="0.5" stop-color="#ffe2d6" offset="0" data-stoptype="hl1"></stop>
            <stop id="SvgjsStop2756" stop-opacity="0" stop-color="#ffd0bc" offset="0.9" data-stoptype="tone"></stop>
        </radialGradient>
        <radialGradient id="SvgjsRadialGradient2758" cx="100" cy="57" r="36" gradientUnits="userSpaceOnUse"
                        class="svga-on-canvas-facehighlight-gradient-single-1">
            <stop id="SvgjsStop2759" stop-opacity="0.5" stop-color="#ffe2d6" offset="0" data-stoptype="hl1"></stop>
            <stop id="SvgjsStop2760" stop-opacity="0" stop-color="#ffd0bc" offset="0.9" data-stoptype="tone"></stop>
        </radialGradient>
        <radialGradient id="SvgjsRadialGradient3277" cx="100" cy="100" r="150" gradientUnits="userSpaceOnUse"
                        class="svga-on-canvas-backs-gradient-single-1">
            <stop id="SvgjsStop3278" stop-opacity="0" stop-color="#ffffff" offset="0" data-stoptype="tone"></stop>
            <stop id="SvgjsStop3279" stop-opacity="1" stop-color="#f0d8d8" offset="0.2" data-stoptype="sd1"></stop>
            <stop id="SvgjsStop3280" stop-opacity="0" stop-color="#f0d8d8" offset="1" data-stoptype="sd1"></stop>
        </radialGradient>
        <radialGradient id="SvgjsRadialGradient5494" cx="-558.588" cy="-490.918" r="84.646"
                        gradientTransform="matrix(0.096 -0.0248 0.0245 0.0961 140.5478 120.3577)"
                        gradientUnits="userSpaceOnUse" class="svga-on-canvas-eyesiris-gradient-left-1">
            <stop id="SvgjsStop5495" stop-opacity="0.8" stop-color="#ffffff" offset="0" data-stoptype="#ffffff"></stop>
            <stop id="SvgjsStop5496" stop-opacity="0" stop-color="#ffffff" offset="1" data-stoptype="#ffffff"></stop>
        </radialGradient>
        <radialGradient id="SvgjsRadialGradient5498" cx="-565.337" cy="-492.691" r="84.644"
                        gradientTransform="matrix(0.0991 8.856325e-004 -0.0011 0.0991 130.3774 136.3533)"
                        gradientUnits="userSpaceOnUse" class="svga-on-canvas-eyesiris-gradient-left-2">
            <stop id="SvgjsStop5499" stop-opacity="0.8" stop-color="#ffffff" offset="0" data-stoptype="#ffffff"></stop>
            <stop id="SvgjsStop5500" stop-opacity="0" stop-color="#ffffff" offset="1" data-stoptype="#ffffff"></stop>
        </radialGradient>
        <linearGradient id="SvgjsLinearGradient5504" x1="122.283" y1="93.047" x2="123.61" y2="91.466"
                        gradientTransform="matrix(1 0 0 1 -52 0)" gradientUnits="userSpaceOnUse"
                        class="svga-on-canvas-eyesiris-gradient-left-5">
            <stop id="SvgjsStop5505" stop-opacity="1" stop-color="#ffffff" offset="0" data-stoptype="#ffffff"></stop>
            <stop id="SvgjsStop5506" stop-opacity="0" stop-color="#ffffff" offset="1" data-stoptype="#ffffff"></stop>
        </linearGradient>
        <linearGradient id="SvgjsLinearGradient5512" x1="130" y1="81" x2="126" y2="85"
                        gradientTransform="matrix(1 0 0 1 -50 0)" gradientUnits="userSpaceOnUse"
                        class="svga-on-canvas-eyesiris-gradient-left-7">
            <stop id="SvgjsStop5513" stop-opacity="1" stop-color="#ffffff" offset="0" data-stoptype="#ffffff"></stop>
            <stop id="SvgjsStop5514" stop-opacity="0" stop-color="#ffffff" offset="1" data-stoptype="#ffffff"></stop>
        </linearGradient>
        <radialGradient id="SvgjsRadialGradient5517" cx="-578.76" cy="-490.73" r="84.646"
                        gradientTransform="matrix(0.096 -0.0248 0.0245 0.0961 192.4794 119.8404)"
                        gradientUnits="userSpaceOnUse" class="svga-on-canvas-eyesiris-gradient-right-1">
            <stop id="SvgjsStop5518" stop-opacity="0.8" stop-color="#ffffff" offset="0" data-stoptype="#ffffff"></stop>
            <stop id="SvgjsStop5519" stop-opacity="0" stop-color="#ffffff" offset="1" data-stoptype="#ffffff"></stop>
        </radialGradient>
        <radialGradient id="SvgjsRadialGradient5521" cx="-584.778" cy="-487.329" r="84.644"
                        gradientTransform="matrix(0.0991 8.856325e-004 -0.0011 0.0991 182.3104 135.839)"
                        gradientUnits="userSpaceOnUse" class="svga-on-canvas-eyesiris-gradient-right-2">
            <stop id="SvgjsStop5522" stop-opacity="0.8" stop-color="#ffffff" offset="0" data-stoptype="#ffffff"></stop>
            <stop id="SvgjsStop5523" stop-opacity="0" stop-color="#ffffff" offset="1" data-stoptype="#ffffff"></stop>
        </radialGradient>
        <linearGradient id="SvgjsLinearGradient5527" x1="120.284" y1="93.047" x2="121.611" y2="91.467"
                        gradientUnits="userSpaceOnUse" class="svga-on-canvas-eyesiris-gradient-right-5">
            <stop id="SvgjsStop5528" stop-opacity="1" stop-color="#ffffff" offset="0" data-stoptype="#ffffff"></stop>
            <stop id="SvgjsStop5529" stop-opacity="0" stop-color="#ffffff" offset="1" data-stoptype="#ffffff"></stop>
        </linearGradient>
        <linearGradient id="SvgjsLinearGradient5535" x1="130" y1="81" x2="126" y2="85" gradientUnits="userSpaceOnUse"
                        class="svga-on-canvas-eyesiris-gradient-right-7">
            <stop id="SvgjsStop5536" stop-opacity="1" stop-color="#ffffff" offset="0" data-stoptype="#ffffff"></stop>
            <stop id="SvgjsStop5537" stop-opacity="0" stop-color="#ffffff" offset="1" data-stoptype="#ffffff"></stop>
        </linearGradient>
        <linearGradient id="SvgjsLinearGradient5973" x1="99.98" y1="171.27" x2="99.98" y2="136.351"
                        gradientUnits="userSpaceOnUse" class="svga-on-canvas-chinshadow-gradient-single-0">
            <stop id="SvgjsStop5974" stop-opacity="0.8" stop-color="#f0b399" offset="0" data-stoptype="sd1"></stop>
            <stop id="SvgjsStop5975" stop-opacity="1" stop-color="#d17f5b" offset="0.7" data-stoptype="sd3"></stop>
        </linearGradient>
        <radialGradient id="SvgjsRadialGradient6608" cx="126.443" cy="86.829" r="13.737"
                        gradientTransform="matrix(-1.0172 0 0 1.0172 202.565 -1.469)" gradientUnits="userSpaceOnUse"
                        class="svga-on-canvas-eyesback-gradient-left-0">
            <stop id="SvgjsStop6609" stop-opacity="1" stop-color="#ffffff" offset="0" data-stoptype="#ffffff"></stop>
            <stop id="SvgjsStop6610" stop-opacity="1" stop-color="#fdfefe" offset="0.544"
                  data-stoptype="#fdfefe"></stop>
            <stop id="SvgjsStop6611" stop-opacity="1" stop-color="#f6f8f9" offset="0.74" data-stoptype="#f6f8f9"></stop>
            <stop id="SvgjsStop6612" stop-opacity="1" stop-color="#eaeff2" offset="0.879"
                  data-stoptype="#eaeff2"></stop>
            <stop id="SvgjsStop6613" stop-opacity="1" stop-color="#d9e3e8" offset="0.992"
                  data-stoptype="#d9e3e8"></stop>
            <stop id="SvgjsStop6614" stop-opacity="1" stop-color="#d8e2e7" offset="1" data-stoptype="#d8e2e7"></stop>
        </radialGradient>
        <radialGradient id="SvgjsRadialGradient6616" cx="126.443" cy="86.829" r="13.737"
                        gradientTransform="matrix(1.0172 0 0 1.0172 -2.565 -1.469)" gradientUnits="userSpaceOnUse"
                        class="svga-on-canvas-eyesback-gradient-right-0">
            <stop id="SvgjsStop6617" stop-opacity="1" stop-color="#ffffff" offset="0" data-stoptype="#ffffff"></stop>
            <stop id="SvgjsStop6618" stop-opacity="1" stop-color="#fdfefe" offset="0.544"
                  data-stoptype="#fdfefe"></stop>
            <stop id="SvgjsStop6619" stop-opacity="1" stop-color="#f6f8f9" offset="0.74" data-stoptype="#f6f8f9"></stop>
            <stop id="SvgjsStop6620" stop-opacity="1" stop-color="#eaeff2" offset="0.879"
                  data-stoptype="#eaeff2"></stop>
            <stop id="SvgjsStop6621" stop-opacity="1" stop-color="#d9e3e8" offset="0.992"
                  data-stoptype="#d9e3e8"></stop>
            <stop id="SvgjsStop6622" stop-opacity="1" stop-color="#d8e2e7" offset="1" data-stoptype="#d8e2e7"></stop>
        </radialGradient>
        <radialGradient id="SvgjsRadialGradient6624" cx="126.443" cy="86.829" r="13.737"
                        gradientTransform="matrix(-1.0172 0 0 1.0172 202.565 -1.469)" gradientUnits="userSpaceOnUse"
                        class="svga-on-canvas-eyesfront-gradient-left-0">
            <stop id="SvgjsStop6625" stop-opacity="1" stop-color="#ffffff" offset="0" data-stoptype="#ffffff"></stop>
            <stop id="SvgjsStop6626" stop-opacity="1" stop-color="#fdfefe" offset="0.544"
                  data-stoptype="#fdfefe"></stop>
            <stop id="SvgjsStop6627" stop-opacity="1" stop-color="#f6f8f9" offset="0.74" data-stoptype="#f6f8f9"></stop>
            <stop id="SvgjsStop6628" stop-opacity="1" stop-color="#eaeff2" offset="0.879"
                  data-stoptype="#eaeff2"></stop>
            <stop id="SvgjsStop6629" stop-opacity="1" stop-color="#d9e3e8" offset="0.992"
                  data-stoptype="#d9e3e8"></stop>
            <stop id="SvgjsStop6630" stop-opacity="1" stop-color="#d8e2e7" offset="1" data-stoptype="#d8e2e7"></stop>
        </radialGradient>
        <radialGradient id="SvgjsRadialGradient6634" cx="122.915" cy="85.449" fx="134.942" fy="85.483" r="17.105"
                        gradientTransform="matrix(0.9998 0.0208 0.0166 -0.7998 -47.2259 151.2362)"
                        gradientUnits="userSpaceOnUse" class="svga-on-canvas-eyesfront-gradient-left-3">
            <stop id="SvgjsStop6635" stop-opacity="1" stop-color="#f0b399" offset="0" data-stoptype="sd1"></stop>
            <stop id="SvgjsStop6636" stop-opacity="0.3" stop-color="#f0b399" offset="0.7" data-stoptype="sd1"></stop>
            <stop id="SvgjsStop6637" stop-opacity="0" stop-color="#ffd0bc" offset="1" data-stoptype="tone"></stop>
        </radialGradient>
        <radialGradient id="SvgjsRadialGradient6639" cx="74.869" cy="108.958" r="29.944"
                        gradientTransform="matrix(0.875 -0.0456 0.0459 0.8698 2.8908 16.3064)"
                        gradientUnits="userSpaceOnUse" class="svga-on-canvas-eyesfront-gradient-left-4">
            <stop id="SvgjsStop6640" stop-opacity="0" stop-color="#000000" offset="0.95" data-stoptype="#000000"></stop>
            <stop id="SvgjsStop6641" stop-opacity="0.3" stop-color="#000000" offset="1" data-stoptype="#000000"></stop>
        </radialGradient>
        <radialGradient id="SvgjsRadialGradient6645" cx="126.443" cy="86.829" r="13.737"
                        gradientTransform="matrix(1.0172 0 0 1.0172 -2.565 -1.469)" gradientUnits="userSpaceOnUse"
                        class="svga-on-canvas-eyesfront-gradient-right-0">
            <stop id="SvgjsStop6646" stop-opacity="1" stop-color="#ffffff" offset="0" data-stoptype="#ffffff"></stop>
            <stop id="SvgjsStop6647" stop-opacity="1" stop-color="#fdfefe" offset="0.544"
                  data-stoptype="#fdfefe"></stop>
            <stop id="SvgjsStop6648" stop-opacity="1" stop-color="#f6f8f9" offset="0.74" data-stoptype="#f6f8f9"></stop>
            <stop id="SvgjsStop6649" stop-opacity="1" stop-color="#eaeff2" offset="0.879"
                  data-stoptype="#eaeff2"></stop>
            <stop id="SvgjsStop6650" stop-opacity="1" stop-color="#d9e3e8" offset="0.992"
                  data-stoptype="#d9e3e8"></stop>
            <stop id="SvgjsStop6651" stop-opacity="1" stop-color="#d8e2e7" offset="1" data-stoptype="#d8e2e7"></stop>
        </radialGradient>
        <radialGradient id="SvgjsRadialGradient6655" cx="122.915" cy="85.449" fx="134.942" fy="85.483" r="17.105"
                        gradientTransform="matrix(-0.9998 0.0208 -0.0166 -0.7998 247.2259 151.2362)"
                        gradientUnits="userSpaceOnUse" class="svga-on-canvas-eyesfront-gradient-right-3">
            <stop id="SvgjsStop6656" stop-opacity="1" stop-color="#f0b399" offset="0" data-stoptype="sd1"></stop>
            <stop id="SvgjsStop6657" stop-opacity="0.3" stop-color="#f0b399" offset="0.7" data-stoptype="sd1"></stop>
            <stop id="SvgjsStop6658" stop-opacity="0" stop-color="#ffd0bc" offset="1" data-stoptype="tone"></stop>
        </radialGradient>
        <radialGradient id="SvgjsRadialGradient6660" cx="74.869" cy="108.958" r="29.944"
                        gradientTransform="matrix(-0.875 -0.0456 -0.0459 0.8698 197.1092 16.3064)"
                        gradientUnits="userSpaceOnUse" class="svga-on-canvas-eyesfront-gradient-right-4">
            <stop id="SvgjsStop6661" stop-opacity="0" stop-color="#000000" offset="0.95" data-stoptype="#000000"></stop>
            <stop id="SvgjsStop6662" stop-opacity="0.3" stop-color="#000000" offset="1" data-stoptype="#000000"></stop>
        </radialGradient>
        <linearGradient id="SvgjsLinearGradient6672" x1="130" y1="81" x2="126" y2="85"
                        gradientTransform="matrix(1 0 0 1 -50 0)" gradientUnits="userSpaceOnUse"
                        class="svga-on-canvas-eyesiris-gradient-left-6">
            <stop id="SvgjsStop6673" stop-opacity="1" stop-color="#ffffff" offset="0" data-stoptype="#ffffff"></stop>
            <stop id="SvgjsStop6674" stop-opacity="0" stop-color="#ffffff" offset="1" data-stoptype="#ffffff"></stop>
        </linearGradient>
        <linearGradient id="SvgjsLinearGradient6682" x1="130" y1="81" x2="126" y2="85" gradientUnits="userSpaceOnUse"
                        class="svga-on-canvas-eyesiris-gradient-right-6">
            <stop id="SvgjsStop6683" stop-opacity="1" stop-color="#ffffff" offset="0" data-stoptype="#ffffff"></stop>
            <stop id="SvgjsStop6684" stop-opacity="0" stop-color="#ffffff" offset="1" data-stoptype="#ffffff"></stop>
        </linearGradient>
        <linearGradient id="SvgjsLinearGradient6722" x1="100" y1="141" x2="100" y2="138" gradientUnits="userSpaceOnUse"
                        class="svga-on-canvas-mouth-gradient-single-0">
            <stop id="SvgjsStop6723" stop-opacity="1" stop-color="#f7c1aa" offset="0.1" data-stoptype="sd05"></stop>
            <stop id="SvgjsStop6724" stop-opacity="1" stop-color="#f0b399" offset="1" data-stoptype="sd1"></stop>
        </linearGradient>
    </defs>
</svg>