<svg id="svga-svgcanvas" xmlns="http://www.w3.org/2000/svg" version="1.1" xlink="http://www.w3.org/1999/xlink"
     style="position:relative;overflow:hidden;left:-0.5px;top:0px;" class="svga-svg" viewBox="0 0 200 200"
     preserveAspectRatio="xMinYMin meet">
    <g id="svga-group-wrapper">
        <g id="svga-group-backs-single">
            <path id="SvgjsPath4898" d="M225 225H-25V-25h250V225z" data-colored="true" data-filltype="tone"
                  data-stroketype="none" fill="#ffffff" stroke-width="none" opacity="1"></path>
        </g>
        <g id="svga-group-subwrapper" data-updown="-1.6365788271696354e-16" data-leftright="-1.6365788271696354e-16"
           data-dist="0" data-scaleX="1" data-scaleY="1" data-rotate="0"
           transform="matrix(0.99999989 0 0 0.99999989 0.000010988890821295172 0.000012810917922934095) translate(-1.6365788271696354e-16 9.999999983634211e-8)">
            <g id="svga-group-hair-back" data-updown="0" data-leftright="0" data-dist="0"
               data-scaleX="0.9599995800000001" data-scaleY="0.9997995800000001" data-rotate="0"
               transform="matrix(0.9599996900000001 0 0 0.9997996900000001 1.3835907398349718 0.04213641092235321) rotate(-1e-7 100 150)">
                <path id="SvgjsPath7496"
                      d="M160.527 108.896c-0.826 32.13-5.272 102.953-58.469 102.589 -80.381-0.551-60.969-69.5-61.767-102.589 -1.15-47.67 26.917-86.339 60.118-86.339C133.611 22.558 161.753 61.229 160.527 108.896z"
                      data-colored="true" data-filltype="sd2" data-stroketype="none" fill="#1c150e" stroke-width="none"
                      opacity="1" stroke="none"></path>
            </g>
            <g id="svga-group-humanbody-single">
                <path id="SvgjsPath2761"
                      d="M190.858 199.866c-6.008-10.158-13.474-11.973-19.628-13.936 -6.323-2.016-19.346-3.178-26.449-4.6 -6.86-1.373-23.153-5.789-23.339-13.488 -0.192-8.066 4.291-40.09 4.291-40.09H74.005c0 0 4.487 32.023 4.294 40.09 -0.184 7.699-16.48 12.115-23.341 13.488 -7.104 1.422-20.125 2.584-26.448 4.6 -6.156 1.963-13.624 3.777-19.632 13.936 -3.644 6.16-6.008 16.133-6.008 27.133h194C196.869 215.999 194.509 206.026 190.858 199.866z"
                      data-colored="true" data-filltype="tone" data-stroketype="none" data-fromskin="true"
                      fill="#ffd0bc" stroke-width="none" opacity="1" stroke="none"></path>
                <path id="SvgjsPath2762"
                      d="M121.442 167.843c2.495 10.929 18.165 13.698 26.293 15.325 21.909 4.379 33.772 5.134 42.297 19.539 2.903 4.916 5.459 15.864 5.962 24.153 1.835 0.291 0.531-17.432-5.136-26.994 -9.742-16.472-29.089-15.135-46.077-18.535C137.921 179.958 121.628 175.542 121.442 167.843L121.442 167.843zM78.558 167.843c-0.186 7.699-16.479 12.115-23.339 13.488 -16.988 3.4-36.335 2.063-46.077 18.535 -5.667 9.563-6.971 27.285-5.136 26.994 0.503-8.289 3.059-19.237 5.962-24.153 8.524-14.405 20.388-15.16 42.297-19.539C60.393 181.541 76.063 178.771 78.558 167.843L78.558 167.843z"
                      data-colored="true" data-filltype="hl1" data-stroketype="none" data-fromskin="true" fill="#ffe2d6"
                      stroke-width="none" opacity="1" stroke="none"></path>
                <path id="SvgjsPath2763"
                      d="M51.206 189.513c0 0 28.641 0.299 33.473 1.885 2.314 0.758 8.372 5.633 8.372 5.633s-6.556-3.17-8.658-3.758C79.51 191.909 51.206 189.513 51.206 189.513zM99.795 199.999c2.053-0.041 7.887-3.799 7.887-3.799s-5.574 2.059-7.342 2.16c-1.491 0.086-6.366-1.238-6.366-1.238S98.112 200.032 99.795 199.999zM117.008 192.757c6.75-1.818 29.786-3.23 29.786-3.23s-23.791-0.516-30.51 1.725c-2.252 0.752-7.562 5.16-7.562 5.16S114.786 193.354 117.008 192.757z"
                      data-colored="true" data-filltype="sd1" data-stroketype="none" data-fromskin="true" fill="#f0b399"
                      stroke-width="none" opacity="1" stroke="none"></path>
                <path id="SvgjsPath2764"
                      d="M190.858 199.866c-9.741-16.471-29.122-15.142-46.077-18.535 -6.86-1.373-23.153-5.789-23.339-13.488 -0.192-8.066 4.291-40.09 4.291-40.09H74.005c0 0 4.487 32.023 4.294 40.09 -0.184 7.699-16.48 12.115-23.341 13.488 -7.104 1.422-20.125 2.584-26.448 4.6 -6.156 1.963-13.624 3.777-19.632 13.936 -3.644 6.16-6.008 16.133-6.008 27.133h194C196.869 215.999 194.509 206.026 190.858 199.866z"
                      data-colored="true" data-filltype="none" data-stroketype="sd3" data-fromskin="true" fill="none"
                      stroke="#d17f5b" stroke-width="1.5" opacity="1"></path>
            </g>
            <g id="svga-group-chinshadow-single">
                <path id="SvgjsPath7574"
                      d="M90.469 169.769c4.474 1.646 14.594 1.646 19.067 0 3.511-1.291 7.479-4.019 11.489-7.484 0.785-10.522 3.279-28.936 3.919-33.578 -1.113-0.109-2.256-0.21-3.428-0.303H78.609c-1.305 0.103-2.578 0.216-3.811 0.339 0.643 4.663 3.096 22.765 3.899 33.297C82.804 165.622 86.875 168.447 90.469 169.769z"
                      data-colored="false" data-filltype="gradient" data-stroketype="none" data-fromskin="true"
                      fill="url(#SvgjsLinearGradient7575)" opacity="1"></path>
            </g>
            <g id="svga-group-clothes-single" data-updown="0" data-leftright="0" data-dist="0" data-scaleX="1"
               data-scaleY="1" data-rotate="0">
                <path id="SvgjsPath6774"
                      d="M103.441 229.899c-18.333 0-36.705-0.539-54.995-1.778 -15.203-1.031-30.378-2.423-45.577-3.513 -0.395 0.562-0.339-0.934-0.358-1.242 -0.063-1.019-0.104-2.04-0.108-3.061 -0.009-2.058 0.125-4.13 0.574-6.143 0.412-1.843 1.173-3.577 1.822-5.344 0.053-0.144-1.718-1.102-2-1.258 0.727-1.272 1.67-2.456 2.597-3.584 -1.756-1.127-3.547-2.263-5.246-3.476 2.355-2.815 5.602-4.512 8.114-7.131 -1.025-0.663-2.03-1.359-2.985-2.12 -0.249-0.198-0.494-0.4-0.739-0.604 -0.398-0.33-0.075-0.435 0.216-0.759 0.425-0.499 0.867-0.984 1.325-1.454 1.696-1.742 3.599-3.279 5.626-4.62 4.417-2.919 9.418-4.918 14.568-6.104 1.312-0.303 2.636-0.552 3.968-0.749 0.461-0.08 0.925-0.19 1.351-0.075 0.531 0.144 1.088 0.551 1.586 0.79 2.117 1.021 4.265 1.973 6.442 2.859 4.636 1.888 9.383 3.491 14.194 4.869 20.634 5.908 42.528 7.305 63.728 3.957 10.546-1.665 20.96-4.469 30.987-8.119 2.774-1.011 5.52-2.112 8.219-3.31 1.013-0.449 2.021-0.91 3.02-1.389 0.744-0.356 1.186-0.409 2.011-0.421 1.568-0.021 3.148-0.094 4.706 0.141 1.621 0.243 3.188 0.774 4.719 1.343 5.999 2.224 11.475 5.193 16.34 9.392 -0.431 0.458-0.87 0.913-1.323 1.35 1.913 1.457 3.546 3.266 5.062 5.121 0.879 1.077 1.694 2.196 2.517 3.315 0.321 0.438 0.049 2.004 0.067 2.573 0.1 3.061 0.932 5.686 2.035 8.515 0.77 1.973 1.441 3.979 1.761 6.08 0.436 2.859 0.07 5.589-0.246 8.435 -0.124 1.114-0.213 2.231-0.309 3.348 -0.022 0.256-0.044 0.512-0.071 0.768 -0.883 0-1.768 0.036-2.65 0.053 -4.932 0.09-9.864 0.194-14.795 0.344 -13.384 0.405-26.743 1.258-40.132 1.603 -6.907 0.178-13.815 0.343-20.715 0.725C113.639 229.509 108.56 229.899 103.441 229.899z"
                      data-colored="true" data-filltype="tone" data-stroketype="none" fill="#cbe9ee" stroke-width="none"
                      opacity="1" stroke="none"></path>
                <path id="SvgjsPath6775"
                      d="M77.072 191.553c-1.295 1.902-2.474 3.882-3.612 5.878 0.287-2.083 0.496-4.185 0.693-6.286C75.123 191.296 76.092 191.433 77.072 191.553zM63.583 189.148c-1.714 3.7-3.554 7.359-4.999 11.145 2.029-3.547 4.106-7.188 5.76-10.973 2.949 0.654 5.948 1.226 8.976 1.7 -0.287 2.577-0.464 5.174-0.613 7.761 -0.95 1.683-1.88 3.374-2.84 5.041 -3.623 6.266-4.811 11.162-5.662 14.774 -1.625-0.151-2.969-0.323-3.7-0.436 -4.553-0.704-6.474-1.493-7.751-2.169 1.157-4.26 2.227-8.547 2.989-12.896 0.891-5.067 1.316-10.248 2.384-15.28C59.92 188.301 61.742 188.749 63.583 189.148zM43.154 182.938c-2.722 2.521-4.514 4.708-9.047 10.241 1.425-3.317 3.316-7.444 5.79-11.571C40.966 182.064 42.045 182.513 43.154 182.938zM187.52 189.909c0.012 0.01 0.028 0.027 0.049 0.049 2.069 1.976 4.257 4.631 6.019 6.931v0.009 0.011c-1.635 1.455-2.939 2.823-4.098 3.442 -0.674-0.798-1.366-1.588-2.059-2.398 -1.444-1.682-2.653-3.582-4.147-5.218 -0.079-0.087-0.16-0.183-0.238-0.268 -0.139-0.142-0.275-0.285-0.417-0.418 0.725-0.684 1.427-1.379 2.131-2.074 0.116-0.112 0.225-0.227 0.334-0.34 0.338-0.325 0.664-0.658 0.991-0.99C186.55 189.016 187.024 189.443 187.52 189.909zM173.05 206.446c1.269 1.824 3.257 4.154 5.147 6.285 -2.17 1.178-3.633 2.176-4.634 2.853 -1.474-1.827-3.256-3.832-6.097-7.256 0.149-0.076 0.298-0.151 0.445-0.229 1.682-0.901 2.84-1.862 4.356-2.852 0.206 0.353 0.452 0.741 0.752 1.151C173.021 206.407 173.029 206.426 173.05 206.446zM163.229 180.506c4.891 4.801 9.126 9.662 13.956 16.971 1.199-1.139 2.438-2.243 3.713-3.315 0.588-0.491 1.192-0.973 1.814-1.437 -6.55-6.479-13.323-12.555-22.224-14.804C161.277 178.646 162.18 179.49 163.229 180.506zM148.026 182.634c6.139 7.397 15.392 15.233 18.885 19.114 -4.039-5.621-12.343-13.122-18.212-19.37 2.318-0.885 4.585-1.836 6.823-2.86 6.084 7.7 14.174 19.093 17.991 24.551 -0.493 0.246-0.94 0.486-1.367 0.731 -0.03 0.021-0.057 0.037-0.086 0.058 -1.407 0.848-2.594 1.787-4.702 2.957 -0.071 0.037-0.148 0.076-0.218 0.115 -0.07 0.038-0.129 0.065-0.188 0.096 -1.481 0.768-2.979 1.243-4.653 1.604 -0.791 0.161-1.592 0.334-2.385 0.553 -3.394-4.488-6.057-9.527-9.213-14.169 -2.019-2.978-4.374-5.782-6.257-8.834 -0.535-0.875-1.058-1.797-1.633-2.689C144.574 183.909 146.317 183.29 148.026 182.634zM118.851 190.394c1.889 4.355 2.661 5.896 5.682 15.928 -0.495-2.482-0.931-4.964-1.693-7.379 -0.922-2.899-1.782-5.278-3.324-8.662 2.769-0.506 5.492-1.046 8.153-1.644 2.407 2.69 4.283 6.083 9.641 13.158 2.721 3.549 5.434 7.114 7.739 10.907 -1.166 0.617-2.384 1.141-3.654 1.454 -18.623 5.486-11.567 3.48-20.01 5.041 -0.148 0.026-0.347 0.057-0.565 0.085 -0.583-2.891-1.513-6.551-3.432-12.752 -2.307-7.427-4.168-11.837-5.651-14.986C114.148 191.192 116.515 190.812 118.851 190.394zM106.074 192.247c1.719 4.784 3.046 9.699 4.035 14.692 0.636 3.271 1.181 6.552 1.753 9.822 0.247 1.417 0.477 2.854 0.792 4.271 -4.93 0.818-10.224 0.077-13.531 0.03 0.07-2.283 0.051-2.807 0.189-4.148 0.306-3.042 0.484-6.113 0.802-9.166 0.317-3.178 0.714-6.351 0.671-9.547 -0.029-1.873-0.087-3.748 0.139-5.581C102.649 192.535 104.372 192.409 106.074 192.247zM96.463 192.752c-1.318 4.261-2.733 8.502-3.971 12.79 -0.02-4.279-0.147-8.549-0.386-12.819C93.562 192.761 95.017 192.771 96.463 192.752zM88.019 192.571c-0.396 5.212-0.989 10.394-1.325 15.614 1.197-6.856 1.593-10.974 1.572-15.593 1.17 0.055 2.336 0.104 3.505 0.12 -0.13 5.041-0.1 10.09 0.079 15.129 0 0.01 0 0.01 0 0.01 -1.465 5.439-1.772 9.215-1.841 12.496 -2.801 0.504-5.663 0.741-8.512 0.903 -5.87 0.333-7.988-0.172-10.224-0.353 0.147-0.504 0.316-1.006 0.484-1.513 0.041-0.122 0.09-0.256 0.129-0.379 1.791-5.287 4.147-10.643 5.571-13.475 3.625-7.169 5.316-10.839 6.642-13.228C85.406 192.421 86.713 192.504 88.019 192.571zM52.101 186.085c-0.841 2.995-1.771 7.361-4.414 15.368 -1.138 3.432-2.217 6.847-3.137 10.346 -0.218 0.836-0.327 1.702-0.376 2.577 -1.989-0.78-3.939-1.626-5.889-2.5 -1.218-0.581-2.237-1.087-3.088-1.522 -0.05-0.028-0.109-0.058-0.159-0.087 -0.96-0.492-1.711-0.911-2.326-1.234 2.197-3.14 4.652-6.676 6.77-9.775 3.217-4.688 5.988-9.68 9.433-14.206C49.963 185.4 51.022 185.754 52.101 186.085zM33.762 211.515c-1.861 2.157-3.257 5.315-4.771 8.414 -2.446-0.789-4.911-1.531-7.345-2.357 0.167-0.297 0.335-0.58 0.505-0.877 0.198-0.34 0.396-0.692 0.593-1.055 0.01-0.027 0.02-0.056 0.041-0.084 1.196-2.188 2.405-4.593 3.663-6.344 1.296 0.627 2.72 1.171 4.157 1.599 0.237 0.066 0.484 0.132 0.723 0.199 0.068-0.104 0.148-0.209 0.218-0.313 0.326-0.457 0.652-0.933 0.99-1.417 0.455 0.285 0.939 0.59 1.444 0.903 0.199 0.124 0.416 0.267 0.673 0.408 -0.238 0.229-0.475 0.465-0.691 0.714C33.889 211.37 33.83 211.447 33.762 211.515zM35.532 179.629c-2.483 3.558-4.74 7.324-6.135 11.317 2.098-3.767 4.463-7.37 6.622-11.089 1.108 0.533 2.247 1.046 3.406 1.542 -2.041 2.976-4.188 6.989-6.86 13.683 -2.644 3.319-5.137 6.78-7.295 10.424 -3.583-1.209-8.789-3.045-9.481-3.303 -1.575-0.513-3.713-1.53-5.592-2.528 -0.09-0.048-0.168-0.096-0.259-0.133 -0.959-0.522-1.83-1.026-2.502-1.454 1.099-1.065 2.207-2.113 3.336-3.129 0.168-0.161 0.345-0.322 0.523-0.475 6.623-5.991 13.699-11.251 22.161-15.892C34.126 178.944 34.82 179.288 35.532 179.629zM3.257 202.271c-0.12-0.076-0.248-0.162-0.367-0.237 -0.822-0.53-1.643-1.046-2.435-1.513 1.366-1.501 2.98-2.747 4.494-3.918 0.03-0.026 0.07-0.047 0.1-0.085 1.287-0.979 2.503-1.92 3.404-2.91 0.466 0.287 0.94 0.57 1.406 0.846 -1.039 1.019-2.079 2.085-3.098 3.187 -0.089 0.086-0.169 0.173-0.248 0.267 0.198 0.171 0.406 0.332 0.614 0.485 0.307 0.237 0.634 0.447 0.96 0.628 0.484 0.257 0.96 0.533 1.426 0.817 -1.505 1.103-2.91 2.547-4.069 3.929C4.732 203.27 3.998 202.768 3.257 202.271zM3.108 207.55c0.703-1.01 1.555-2.17 2.494-3.32 0.07-0.077 0.129-0.15 0.188-0.229 1.217-1.454 2.583-2.891 4-4.003 1.009 0.6 2.019 1.206 3.116 1.701 1.744 0.771 3.515 1.455 5.326 2.082 2.197 0.763 4.493 1.531 6.818 2.084 -0.335 0.581-0.661 1.16-0.979 1.75 -0.038 0.058-0.068 0.113-0.099 0.17 0.118 0.077 0.237 0.162 0.357 0.24 0.563 0.37 1.187 0.721 1.85 1.054 -1.296 1.646-2.544 3.966-3.751 6.361 -3.652-1.17-7.304-2.368-10.827-3.841 -1.882-0.828-3.761-1.616-5.583-2.567 -0.098-0.047-0.445-0.229-0.93-0.477 0.238-0.94 0.415-1.891 0.514-2.861 -0.188 0.931-0.465 1.834-0.771 2.729C4.336 208.156 3.722 207.852 3.108 207.55z"
                      data-colored="true" data-filltype="sd1" data-stroketype="none" fill="#a8d7df" stroke-width="none"
                      opacity="1" stroke="none"></path>
                <path id="SvgjsPath6776"
                      d="M194.201 202.214c-0.229-1.597-0.267-3.224-0.257-4.85 0-0.182 0-0.362 0-0.532 0-0.01 0.01-0.01 0.01-0.01 -0.01-0.076-0.01-0.152 0-0.228 -0.041 0.028-0.08 0.057-0.109 0.085 -0.07-0.095-0.141-0.19-0.209-0.294 -1.643-2.292-3.662-4.784-5.621-6.638 0.029-0.02 0.059-0.039 0.09-0.048 -0.031 0.009-0.071 0.019-0.101 0.039 -0.555-0.522-1.1-0.99-1.631-1.399 0.285-0.275 0.563-0.561 0.819-0.846 0.178-0.171 0.339-0.331 0.495-0.504 -0.119-0.105-0.238-0.198-0.355-0.303 -3.525-2.901-7.307-5.517-11.541-7.354 -8.026-3.354-9.216-3.394-13.232-3.318 -0.586 0-1.229 0.021-1.961 0.021 -0.297 0.142-0.604 0.293-0.91 0.436 -0.169 0.077-0.336 0.161-0.505 0.248 -0.159 0.066-0.317 0.143-0.485 0.218 -0.979 0.457-1.979 0.903-3.008 1.352 -0.288 0.114-0.566 0.236-0.854 0.359 -2.225 0.941-4.561 1.866-7.035 2.75 -0.2 0.074-0.396 0.15-0.604 0.219 -1.652 0.59-3.364 1.169-5.137 1.73 -0.156 0.057-0.315 0.104-0.474 0.151 -0.893 0.286-1.811 0.562-2.743 0.837 -0.132 0.038-0.255 0.076-0.386 0.115 -0.82 0.247-1.665 0.484-2.514 0.723 -0.318 0.094-0.644 0.179-0.971 0.266 -1.593 0.437-3.239 0.864-4.917 1.283 -1.041 0.255-2.088 0.505-3.142 0.742 -0.095 0.019-0.195 0.047-0.303 0.067 -2.546 0.559-5.109 1.063-7.68 1.5 -0.21 0.039-0.421 0.067-0.627 0.105 -2.404 0.392-4.83 0.731-7.256 1.007 -0.116 0.013-0.234 0.03-0.355 0.038 -1.632 0.184-3.272 0.333-4.919 0.468 -0.097 0.008-0.188 0.019-0.285 0.019 -1.417 0.104-2.832 0.19-4.257 0.256 -0.07 0-0.128 0.009-0.196 0.009 -1.297 0.06-2.585 0.096-3.881 0.104 -0.061 0.012-0.118 0.012-0.179 0 -0.377 0.012-0.753 0.021-1.129 0.021 -1.296 0.009-2.572 0-3.849-0.03 -0.06 0-0.118 0-0.179 0 -1.207-0.026-2.396-0.065-3.573-0.122 -0.04 0-0.079 0-0.119-0.009 -1.029-0.039-2.049-0.104-3.067-0.174 -0.109 0-0.219-0.009-0.328-0.019 0 0 0 0-0.009 0 -2.129-0.144-4.216-0.33-6.264-0.57 -0.121-0.009-0.248-0.018-0.367-0.037 -1.275-0.142-2.543-0.304-3.791-0.476 -0.268-0.037-0.534-0.076-0.802-0.116 -2.968-0.436-5.849-0.94-8.611-1.5 -0.236-0.048-0.485-0.104-0.721-0.153 -1.98-0.408-3.891-0.854-5.752-1.321 -0.137-0.038-0.277-0.066-0.415-0.104 -1.762-0.448-3.474-0.913-5.117-1.398 -0.15-0.037-0.288-0.084-0.436-0.123 -0.94-0.275-1.86-0.561-2.762-0.846 -0.147-0.047-0.296-0.096-0.435-0.145 -1.632-0.522-3.207-1.056-4.701-1.597 -0.168-0.065-0.336-0.122-0.505-0.19 -1.256-0.455-2.475-0.922-3.632-1.379 -0.138-0.057-0.277-0.114-0.416-0.171 -1.247-0.503-2.425-1.007-3.544-1.491 -0.138-0.066-0.276-0.126-0.405-0.184 -0.594-0.265-1.159-0.531-1.712-0.789 -0.169-0.073-0.338-0.15-0.495-0.234 -0.732-0.346-1.426-0.686-2.079-1.019 -0.109-0.058-0.217-0.117-0.325-0.173 -0.407 0.049-0.813 0.104-1.208 0.173 -11.185 1.655-20.191 6.665-25.547 12.959 -0.188 0.209-0.365 0.419-0.523 0.628 0.178 0.162 0.375 0.323 0.574 0.484 0.989 0.828 2.158 1.665 3.375 2.454 -0.912 0.935-2.158 1.854-3.484 2.873 -0.089-0.049-0.158-0.077-0.178-0.077 -0.04 0 0.01 0.077 0.079 0.153 -1.504 1.15-3.098 2.435-4.375 4.013 -0.049 0.056-0.099 0.113-0.148 0.17 0.089 0.058 0.177 0.123 0.277 0.192 0.703 0.454 1.525 1.007 2.396 1.587 0.109 0.075 0.217 0.153 0.336 0.218 0.722 0.495 1.483 0.998 2.237 1.483 -0.901 1.094-1.644 2.132-2.148 2.911 -0.11 0.162-0.208 0.323-0.307 0.475 -0.051 0.067-0.089 0.142-0.129 0.21 0.099 0.058 0.197 0.124 0.297 0.171 0.614 0.37 1.217 0.742 1.731 1.056 -0.375 1.016-0.782 2.023-1.148 3.063 -1.464 3.907-1.366 8.546-1.04 12.798 0 0.058 0.011 0.105 0.021 0.162 0.148 0 0.297 0 0.455 0 -0.009-0.043-0.009-0.087-0.009-0.13 17.807 1.25 48.215 4.196 69.411 4.714 52.426 1.265 26.427 0.161 65.135-0.779 33.931-0.839 23.727-1.42 59.207-2.037 0.13-0.011 0.269-0.011 0.407-0.011 0-0.063 0.009-0.131 0.019-0.199 0.168-1.844 0.287-3.699 0.564-5.543C199.12 211.467 194.934 207.283 194.201 202.214zM187.52 189.909c0.012 0.01 0.028 0.027 0.049 0.049 2.069 1.976 4.257 4.631 6.019 6.931v0.009 0.011c-1.635 1.455-2.939 2.823-4.098 3.442 -0.674-0.798-1.366-1.588-2.059-2.398 -1.444-1.682-2.653-3.582-4.147-5.218 -0.079-0.087-0.16-0.183-0.238-0.268 -0.139-0.142-0.275-0.285-0.417-0.418 0.725-0.684 1.427-1.379 2.131-2.074 0.116-0.112 0.225-0.227 0.334-0.34 0.338-0.325 0.664-0.658 0.991-0.99C186.55 189.016 187.024 189.443 187.52 189.909zM182.253 206.986c1.221 1.112 2.812 2.712 4.079 4.252 -1.861 1.599-3.563 3.251-5.722 3.756 -0.603-0.742-1.236-1.493-1.869-2.235 -0.071-0.076-0.128-0.143-0.19-0.218 -1.96-2.274-3.919-4.442-5.234-6.115 -0.011-0.01-0.021-0.019-0.021-0.027 -0.356-0.448-0.661-0.866-0.907-1.228 0.404-0.267 0.84-0.543 1.323-0.818 0.446 0.638 0.833 1.189 1.14 1.628 0.028 0.057 0.069 0.112 0.109 0.161 0.188-0.077 0.376-0.145 0.556-0.201 0.019-0.008 0.049-0.008 0.066-0.017 2.297-0.725 3.803-1.495 5.139-2.367 0.067-0.041 0.138-0.088 0.198-0.137 -0.042-0.064-0.073-0.122-0.111-0.177 -1.205-2.008-2.355-3.844-3.474-5.546 1.279-1.074 2.555-2.158 3.832-3.244 0.612-0.502 1.236-1.016 1.868-1.521 1.479 1.808 2.693 3.881 4.219 5.63 0.594 0.675 1.187 1.34 1.77 2.006 0.021 0.02 0.03 0.039 0.05 0.049 0.515 0.587 1.021 1.168 1.504 1.767 -2.671 1.655-5.567 2.892-8.314 4.46 -0.026 0.03-0.068 0.047-0.107 0.068C182.184 206.939 182.215 206.97 182.253 206.986zM173.05 206.446c1.269 1.824 3.257 4.154 5.147 6.285 -2.17 1.178-3.633 2.176-4.634 2.853 -1.474-1.827-3.256-3.832-6.097-7.256 0.149-0.076 0.298-0.151 0.445-0.229 1.682-0.901 2.84-1.862 4.356-2.852 0.206 0.353 0.452 0.741 0.752 1.151C173.021 206.407 173.029 206.426 173.05 206.446zM161.537 176.569c4.921 0.218 11.244 0.911 25.222 10.619 -0.3 0.249-0.595 0.516-0.882 0.8 -0.097 0.076-0.199 0.173-0.288 0.277 -0.356 0.331-0.702 0.685-1.027 1.044 -0.109 0.105-0.21 0.221-0.297 0.325 -0.647 0.71-1.248 1.464-1.804 2.263 -0.059 0.074-0.11 0.141-0.146 0.22 0.036 0.037 0.077 0.083 0.116 0.121 0.13 0.145 0.249 0.275 0.366 0.419 -0.653 0.484-1.284 0.99-1.899 1.504 -1.275 1.072-2.514 2.177-3.713 3.315 -4.83-7.309-9.065-12.17-13.956-16.971 -1.306-1.265-2.393-2.273-3.304-3.1C160.47 177.13 161.003 176.852 161.537 176.569zM159.38 177.681c2.752 2.947 6.721 6.847 10.799 11.875 2.227 2.749 4.376 5.573 6.485 8.427 0.036 0.058 0.075 0.114 0.114 0.171 1.278 1.73 2.545 3.47 3.804 5.21 -2.01 1.087-3.823 1.893-5.17 2.397 -0.056-0.114-0.115-0.239-0.188-0.353 -0.227-0.409-0.503-0.885-0.83-1.417 -0.036-0.074-0.088-0.161-0.147-0.246 -3.374-5.544-11.273-16.992-17.847-24.63C157.401 178.649 158.391 178.174 159.38 177.681zM148.026 182.634c6.139 7.397 15.392 15.233 18.885 19.114 -4.039-5.621-12.343-13.122-18.212-19.37 2.318-0.885 4.585-1.836 6.823-2.86 6.084 7.7 14.174 19.093 17.991 24.551 -0.493 0.246-0.94 0.486-1.367 0.731 -0.03 0.021-0.057 0.037-0.086 0.058 -1.407 0.848-2.594 1.787-4.702 2.957 -0.071 0.037-0.148 0.076-0.218 0.115 -0.07 0.038-0.129 0.065-0.188 0.096 -1.481 0.768-2.979 1.243-4.653 1.604 -0.791 0.161-1.592 0.334-2.385 0.553 -3.394-4.488-6.057-9.527-9.213-14.169 -2.019-2.978-4.374-5.782-6.257-8.834 -0.535-0.875-1.058-1.797-1.633-2.689C144.574 183.909 146.317 183.29 148.026 182.634zM142.24 184.67c0.622 1.188 1.187 2.405 1.811 3.518 1.672 3.025 4.028 5.821 5.978 8.691 3.057 4.526 5.839 9.301 9.49 13.417 0.031 0.048 0.069 0.087 0.109 0.124 0.129-0.028 0.267-0.057 0.405-0.076 1.792-0.313 3.685-0.19 7.226-1.91 1.623 2.178 3.729 4.926 5.81 7.482 0.03 0.047 0.067 0.094 0.108 0.143 0.359 0.447 0.711 0.886 1.06 1.314 -2.039 0.853-4.751 1.567-9.056 2.053 -1.011-1.305-2.138-2.502-3.248-3.709 -1.376-1.484-2.801-2.967-4.047-4.565 -0.355-0.474-0.703-0.949-1.039-1.443 -0.019-0.03-0.039-0.057-0.059-0.097 -0.081 0.019-0.158 0.049-0.238 0.076 -0.583 0.191-1.159 0.41-1.722 0.638 -4.187-7.009-12.672-20.817-13.114-21.576 -0.663-1.111-1.317-2.225-2.04-3.271C140.537 185.222 141.385 184.955 142.24 184.67zM135.783 186.618c3.464 5.05 6.591 10.308 9.72 15.548 -3.789-7.979-6.313-12.135-8.77-15.823 0.819-0.228 1.636-0.466 2.448-0.713 0.661 1.113 1.233 2.283 1.826 3.442 0.99 1.948 8.753 14.776 10.108 16.793 1.088 1.559 2.228 3.08 3.345 4.61 -2.711 1.124-5.284 2.54-8.007 3.663 -0.219-0.505-0.446-0.988-0.692-1.464 -0.039-0.098-0.091-0.191-0.149-0.286 -2.533-5.013-5.601-8.74-7.474-11.185 -5.016-6.606-7.333-10.105-10.028-12.672C130.717 187.952 133.268 187.313 135.783 186.618zM118.851 190.394c1.889 4.355 2.661 5.896 5.682 15.928 -0.495-2.482-0.931-4.964-1.693-7.379 -0.922-2.899-1.782-5.278-3.324-8.662 2.769-0.506 5.492-1.046 8.153-1.644 2.407 2.69 4.283 6.083 9.641 13.158 2.721 3.549 5.434 7.114 7.739 10.907 -1.166 0.617-2.384 1.141-3.654 1.454 -18.623 5.486-11.567 3.48-20.01 5.041 -0.148 0.026-0.347 0.057-0.565 0.085 -0.583-2.891-1.513-6.551-3.432-12.752 -2.307-7.427-4.168-11.837-5.651-14.986C114.148 191.192 116.515 190.812 118.851 190.394zM111.06 191.648c0.05-0.007 0.108-0.017 0.159-0.027 3.276 9.176 6.244 18.428 8.818 27.796 0.03 0.046 0.04 0.105 0.052 0.161 0.255 0.903 0.503 1.814 0.751 2.729 -2.268 0.503-4.534 0.731-6.949 0.637 -0.049 0-0.209-0.009-0.436-0.009 -0.108-0.601-0.207-1.207-0.286-1.817 -0.01-0.055-0.01-0.113-0.021-0.17 -0.196-1.57-0.326-3.149-0.505-4.698 -0.354-3.3-0.931-6.589-1.611-9.842 -1.208-5.829-2.478-9.852-4.505-14.207C108.052 192.049 109.565 191.868 111.06 191.648zM106.074 192.247c1.719 4.784 3.046 9.699 4.035 14.692 0.636 3.271 1.181 6.552 1.753 9.822 0.247 1.417 0.477 2.854 0.792 4.271 -4.93 0.818-10.224 0.077-13.531 0.03 0.07-2.283 0.051-2.807 0.189-4.148 0.306-3.042 0.484-6.113 0.802-9.166 0.317-3.178 0.714-6.351 0.671-9.547 -0.029-1.873-0.087-3.748 0.139-5.581C102.649 192.535 104.372 192.409 106.074 192.247zM100.567 192.63c-0.465 2.156-0.501 4.401-0.621 6.618 -0.198 3.431-0.743 6.854-1.03 10.276 -0.278 3.406-0.604 6.794-0.505 10.214 0 0.066 0.02 0.581 0.039 1.313 0 0.018 0 0.049 0 0.074 0.021 0.476 0.042 1.028 0.061 1.618 -2.664 0.209-5.343 0.058-8.018 0.008 0.07-0.74 0.138-1.501 0.218-2.291 0.01-0.084 0.01-0.161 0.019-0.247 0.258-2.527 0.574-5.344 1.278-8.653 0.138-0.684 0.307-1.387 0.484-2.119 0 0 0-0.01 0-0.021 0.129-0.493 0.258-0.998 0.396-1.521 1.366-5.049 2.792-10.06 3.899-15.155C98.055 192.734 99.313 192.697 100.567 192.63zM96.463 192.752c-1.318 4.261-2.733 8.502-3.971 12.79 -0.02-4.279-0.147-8.549-0.386-12.819C93.562 192.761 95.017 192.771 96.463 192.752zM88.019 192.571c-0.396 5.212-0.989 10.394-1.325 15.614 1.197-6.856 1.593-10.974 1.572-15.593 1.17 0.055 2.336 0.104 3.505 0.12 -0.13 5.041-0.1 10.09 0.079 15.129 0 0.01 0 0.01 0 0.01 -1.465 5.439-1.772 9.215-1.841 12.496 -2.801 0.504-5.663 0.741-8.512 0.903 -5.87 0.333-7.988-0.172-10.224-0.353 0.147-0.504 0.316-1.006 0.484-1.513 0.041-0.122 0.09-0.256 0.129-0.379 1.791-5.287 4.147-10.643 5.571-13.475 3.625-7.169 5.316-10.839 6.642-13.228C85.406 192.421 86.713 192.504 88.019 192.571zM83.596 192.269c-1.694 2.499-3.869 6.446-7.423 13.454 -2.179 4.299-3.959 8.701-5.127 13.275 -2.128-0.021-4.405-0.172-6.346-0.354 1.643-5.267 3.663-10.193 6.247-14.682 0.593-1.027 1.127-1.977 1.612-2.853l0.484-0.864c2.198-4.014 3.356-6.447 4.554-8.614C79.587 191.877 81.587 192.097 83.596 192.269zM77.072 191.553c-1.295 1.902-2.474 3.882-3.612 5.878 0.287-2.083 0.496-4.185 0.693-6.286C75.123 191.296 76.092 191.433 77.072 191.553zM63.583 189.148c-1.714 3.7-3.554 7.359-4.999 11.145 2.029-3.547 4.106-7.188 5.76-10.973 2.949 0.654 5.948 1.226 8.976 1.7 -0.287 2.577-0.464 5.174-0.613 7.761 -0.95 1.683-1.88 3.374-2.84 5.041 -3.623 6.266-4.811 11.162-5.662 14.774 -1.625-0.151-2.969-0.323-3.7-0.436 -4.553-0.704-6.474-1.493-7.751-2.169 1.157-4.26 2.227-8.547 2.989-12.896 0.891-5.067 1.316-10.248 2.384-15.28C59.92 188.301 61.742 188.749 63.583 189.148zM57.624 187.686c-1.415 4.962-2.01 10.117-2.929 15.233 -0.763 4.26-1.663 8.509-2.524 12.75 -0.02 0.068-0.03 0.133-0.04 0.2 -0.159 0.77-0.317 1.54-0.465 2.31 -0.99-0.304-1.99-0.596-2.99-0.894 -0.06-0.018-2.048-0.57-3.979-1.104 0.069-0.513 0.128-0.94 0.178-1.331 0.01-0.065 0.02-0.133 0.029-0.199 0.318-2.206 0.733-3.49 3.812-12.883 1.188-3.615 2.454-7.268 3.087-11.014 0.257-1.502 0.476-3.023 0.791-4.517C54.239 186.743 55.921 187.229 57.624 187.686zM52.101 186.085c-0.841 2.995-1.771 7.361-4.414 15.368 -1.138 3.432-2.217 6.847-3.137 10.346 -0.218 0.836-0.327 1.702-0.376 2.577 -1.989-0.78-3.939-1.626-5.889-2.5 -1.218-0.581-2.237-1.087-3.088-1.522 -0.05-0.028-0.109-0.058-0.159-0.087 -0.96-0.492-1.711-0.911-2.326-1.234 2.197-3.14 4.652-6.676 6.77-9.775 3.217-4.688 5.988-9.68 9.433-14.206C49.963 185.4 51.022 185.754 52.101 186.085zM33.762 211.515c-1.861 2.157-3.257 5.315-4.771 8.414 -2.446-0.789-4.911-1.531-7.345-2.357 0.167-0.297 0.335-0.58 0.505-0.877 0.198-0.34 0.396-0.692 0.593-1.055 0.01-0.027 0.02-0.056 0.041-0.084 1.196-2.188 2.405-4.593 3.663-6.344 1.296 0.627 2.72 1.171 4.157 1.599 0.237 0.066 0.484 0.132 0.723 0.199 0.068-0.104 0.148-0.209 0.218-0.313 0.326-0.457 0.652-0.933 0.99-1.417 0.455 0.285 0.939 0.59 1.444 0.903 0.199 0.124 0.416 0.267 0.673 0.408 -0.238 0.229-0.475 0.465-0.691 0.714C33.889 211.37 33.83 211.447 33.762 211.515zM48.399 184.868c-3.722 4.271-6.631 9.101-9.857 13.799 -1.484 2.159-4.108 6.097-6.572 9.965 -0.038 0.078-0.089 0.152-0.138 0.218 -0.347 0.554-0.683 1.095-1.02 1.626 -1.415-0.436-2.841-0.958-4.158-1.548 -0.088-0.039-0.168-0.078-0.257-0.114 -0.691-0.313-1.336-0.637-1.94-0.98 0.385-0.608 0.792-1.216 1.197-1.825 0.07-0.094 0.139-0.198 0.218-0.303 1.712-2.521 3.554-4.984 5.443-7.399 0.436-0.563 0.881-1.123 1.328-1.683 0.732-0.933 1.483-1.855 2.235-2.775 5.505-6.743 6.702-8.398 8.859-10.681C45.252 183.757 46.806 184.327 48.399 184.868zM43.154 182.938c-2.722 2.521-4.514 4.708-9.047 10.241 1.425-3.317 3.316-7.444 5.79-11.571C40.966 182.064 42.045 182.513 43.154 182.938zM35.532 179.629c-2.483 3.558-4.74 7.324-6.135 11.317 2.098-3.767 4.463-7.37 6.622-11.089 1.108 0.533 2.247 1.046 3.406 1.542 -2.041 2.976-4.188 6.989-6.86 13.683 -2.644 3.319-5.137 6.78-7.295 10.424 -3.583-1.209-8.789-3.045-9.481-3.303 -1.575-0.513-3.713-1.53-5.592-2.528 -0.09-0.048-0.168-0.096-0.259-0.133 -0.959-0.522-1.83-1.026-2.502-1.454 1.099-1.065 2.207-2.113 3.336-3.129 0.168-0.161 0.345-0.322 0.523-0.475 6.623-5.991 13.699-11.251 22.161-15.892C34.126 178.944 34.82 179.288 35.532 179.629zM5.326 190.289c5.265-5.6 13.708-10.716 25.307-13.196 0.743 0.418 1.504 0.826 2.287 1.225 -7.898 3.736-15.372 8.729-22.488 15.577 -0.435-0.313-0.9-0.639-1.366-0.972 -0.098-0.065-0.207-0.143-0.307-0.21C7.552 191.858 6.335 191.004 5.326 190.289zM4.475 196.232c0.029 0.019 0.059 0.049 0.089 0.067 0 0-0.01 0.01-0.021 0.019C4.523 196.281 4.503 196.251 4.475 196.232zM3.257 202.271c-0.12-0.076-0.248-0.162-0.367-0.237 -0.822-0.53-1.643-1.046-2.435-1.513 1.366-1.501 2.98-2.747 4.494-3.918 0.03-0.026 0.07-0.047 0.1-0.085 1.287-0.979 2.503-1.92 3.404-2.91 0.466 0.287 0.94 0.57 1.406 0.846 -1.039 1.019-2.079 2.085-3.098 3.187 -0.089 0.086-0.169 0.173-0.248 0.267 0.198 0.171 0.406 0.332 0.614 0.485 0.307 0.237 0.634 0.447 0.96 0.628 0.484 0.257 0.96 0.533 1.426 0.817 -1.505 1.103-2.91 2.547-4.069 3.929C4.732 203.27 3.998 202.768 3.257 202.271zM3.108 207.55c0.703-1.01 1.555-2.17 2.494-3.32 0.07-0.077 0.129-0.15 0.188-0.229 1.217-1.454 2.583-2.891 4-4.003 1.009 0.6 2.019 1.206 3.116 1.701 1.744 0.771 3.515 1.455 5.326 2.082 2.197 0.763 4.493 1.531 6.818 2.084 -0.335 0.581-0.661 1.16-0.979 1.75 -0.038 0.058-0.068 0.113-0.099 0.17 0.118 0.077 0.237 0.162 0.357 0.24 0.563 0.37 1.187 0.721 1.85 1.054 -1.296 1.646-2.544 3.966-3.751 6.361 -3.652-1.17-7.304-2.368-10.827-3.841 -1.882-0.828-3.761-1.616-5.583-2.567 -0.098-0.047-0.445-0.229-0.93-0.477 0.238-0.94 0.415-1.891 0.514-2.861 -0.188 0.931-0.465 1.834-0.771 2.729C4.336 208.156 3.722 207.852 3.108 207.55zM180.986 226.366c-3.603 0.037-8.088 0.22-13.421 0.419 -6.868 0.267-15.162 0.569-24.814 0.705 -6.083 0.084-12.925 0.388-20.694 0.691 -9.314 0.354-19.982 0.704-32.334 0.647 -6.205-0.018-12.838-0.151-19.934-0.428 -8.324-0.332-17.292-0.864-26.961-1.693 -6.948-0.588-11.887-0.958-15.569-1.188 -9.315-0.574-18.201-0.425-24.288-0.809 0-0.004 0-0.007 0-0.011 -0.068-2.271-0.119-4.543 0.059-6.799 0.099-3.089 1.208-5.961 1.95-8.909 0.594 0.362 1 0.618 1.039 0.637 1.782 1.056 3.722 1.893 5.642 2.663 3.493 1.398 7.047 2.405 10.708 3.263 -0.168 0.342-0.336 0.684-0.503 1.027 -0.029 0.056-0.218 0.425-0.445 0.911 -0.03 0.048-0.06 0.104-0.09 0.162 0.07 0.037 0.139 0.066 0.208 0.094 1.248 0.533 2.515 0.998 3.831 1.418 1.178 0.322 2.355 0.646 3.533 0.95 0.09 0.031 0.178 0.048 0.267 0.066 0.041-0.057 0.071-0.104 0.101-0.161 1.703-3.032 3.058-6.209 4.82-8.452 0.048-0.067 0.098-0.144 0.168-0.209 0.177-0.237 0.375-0.457 0.584-0.666 0.552 0.313 1.216 0.656 1.968 1.018 0.01 0 0.021 0.01 0.039 0.01 2 0.969 4.603 2.033 7.315 2.9 -0.03 0.466-0.04 0.932-0.06 1.396 0 0.105-0.01 0.22-0.01 0.335 0.179 0.067 0.367 0.131 0.555 0.189 2.276 0.741 4.611 1.368 6.947 1.968 0.148 0.038 0.287 0.076 0.436 0.116 0.029-0.096 0.059-0.201 0.089-0.307 0.188-0.685 0.376-1.377 0.563-2.072 1.287 0.874 2.91 1.798 7.712 2.53 1.196 0.179 2.425 0.351 3.661 0.475 0.148 0.019 0.296 0.028 0.435 0.048 2.138 0.199 4.306 0.285 6.434 0.151 -0.119 0.466-0.218 0.932-0.328 1.398 -0.009 0.047-0.019 0.096-0.029 0.152 0.208 0.019 0.425 0.059 0.644 0.085 1.305 0.21 2.613 0.513 3.929 0.695 2.712 0.407 9.304 0.189 14.856-1.15 -0.019 0.722-0.019 1.426-0.029 2.11 0 0.028 0 0.065 0 0.095 0.167 0.019 0.346 0.027 0.514 0.037 2.684 0.229 5.385 0.429 8.037 0.105 0.178-0.019 0.356-0.047 0.545-0.075 0-0.067 0-0.144 0-0.209 0.029-0.573 0.048-1.074 0.048-1.504 0.781 0.085 1.573 0.246 2.337 0.361 1.632 0.267 6.856 0.657 11.239-0.333 0.121 0.572 0.262 1.142 0.42 1.702 0.028 0.095 0.049 0.182 0.074 0.266l0.321 0.021c0.366 0.027 0.632 0.047 0.703 0.057 2.235 0.199 4.502-0.067 6.709-0.629l0.457-0.122c-0.011-0.104-0.029-0.21-0.051-0.314 -0.129-0.866-0.277-1.73-0.456-2.691 0.367-0.029 0.685-0.038 0.901-0.058 8.176-0.809 4.037-0.151 11.987-2.179 5.986-1.521 9.146-2.851 11.471-4.269 0.267 0.438 0.516 0.876 0.771 1.313 0.019 0.048 0.051 0.104 0.08 0.152 0.157-0.048 0.306-0.104 0.466-0.152 2.8-0.97 5.403-2.369 8.075-3.623 0.109-0.047 0.228-0.105 0.336-0.152 0.545-0.257 1.101-0.504 1.664-0.742 1.296 2.272 3.117 4.26 4.929 6.249 1.021 1.102 2.228 2.205 3.128 3.431 0.07 0.097 0.139 0.191 0.198 0.286 0.167-0.01 0.327-0.021 0.484-0.029 3.147-0.207 6.147-0.808 9.036-2.177 0.17-0.084 0.339-0.172 0.507-0.256 -0.042-0.059-0.081-0.115-0.12-0.162 -0.349-0.466-0.693-0.925-1.07-1.38 2.351-1.321 2.844-1.74 4.683-2.814 0.663 0.742 1.307 1.456 1.91 2.103 0.04 0.065 0.099 0.122 0.157 0.179 0.102-0.01 0.211-0.027 0.308-0.047 2.187-0.456 3.901-2.148 5.672-3.813 0.06-0.047 0.109-0.105 0.168-0.161 -0.028-0.037-0.059-0.084-0.1-0.123 -1.198-1.531-2.791-3.071-4.137-4.154 2.998-1.494 5.514-2.341 8.324-4.404 0.108-0.074 0.217-0.162 0.327-0.247 -0.031-0.037-0.062-0.086-0.089-0.125 -0.437-0.579-0.901-1.149-1.375-1.72 1.127-0.522 2.393-1.75 3.998-3.243 -0.179 1.816-0.278 3.634-0.082 5.429 0.625 5.517 4.219 7.049 3.378 18.552 -0.13 1.751-0.109 3.491-0.12 5.23C191.488 226.366 186.232 226.31 180.986 226.366z"
                      data-colored="true" data-filltype="sd3" data-stroketype="none" fill="#6ab4c0" stroke-width="none"
                      opacity="1" stroke="none"></path>
            </g>
            <g id="svga-group-head" data-updown="0" data-leftright="0" data-dist="0" data-scaleX="1" data-scaleY="1"
               data-rotate="0" transform="rotate(-1e-7 100 150)">
                <g id="svga-group-ears-left" data-updown="0" data-leftright="3.0000002" data-dist="0" data-scaleX="1"
                   data-scaleY="1" data-rotate="0" transform="translate(3.0000001000000003 0)" style="display:none;">
                    <path id="SvgjsPath5024"
                          d="M47.001 83.974c-1.376-2.313-5.638-7.997-9.98-6.603 -2.749 0.882-3.293 3.765-3.735 6.311 -0.588 3.386 0.471 10.083 1.389 12.503 0.881 2.325 3.533 6.816 5.264 8.527 2.13 2.1 4.775 8.793 5.194 9.487 0.66 1.097 1.536 2.745 4.122 2.538 2.853-0.229 4.584-1.742 5.856-1.999C58.253 114.109 50.582 89.995 47.001 83.974z"
                          data-colored="true" data-filltype="tone" data-stroketype="sd3" fill="#ffd0bc" stroke="#d17f5b"
                          stroke-width="1.5" opacity="1"></path>
                    <path id="SvgjsPath5025"
                          d="M44.197 97.997c-0.132-0.548 0.007-1.47 0.142-2.362 0.124-0.812 0.24-1.579 0.169-2.121 -0.267-2.032-1.773-5.893-2.757-7.985 -1.132-2.407-2.963-5.439-5.262-6.221 -0.95-0.324-1.575 0.063-1.938 0.456 -0.266 0.289-0.325 0.627-0.238 0.667 0.086 0.04 0.285-0.24 0.572-0.504 0.235-0.216 0.579-0.402 1.051-0.363 -0.19 1.011-1.167 6.49-0.744 10.225 0.333 2.938 1.593 5.131 1.79 5.46 0.029 0.346 0.077 0.685 0.148 1.014 0.929 4.287 4.971 9.163 6.378 10.758 0.259 0.295 0.531 0.47 0.598 0.398 0.066-0.072-0.094-0.364-0.353-0.66 -1.388-1.585-5.391-6.442-6.289-10.579 -0.952-4.389 2.318-10.896 3.048-12.272 0.371 0.646 0.687 1.267 0.93 1.785 0.19 0.406 0.402 0.881 0.619 1.395 -0.429 0.718-3.434 5.958-2.338 10.153 0.406 1.546 2.235 3.54 3.447 4.086 0.667 0.301 0.919 0.75 1.209 1.271 0.336 0.604 0.718 1.288 1.828 1.784 0.225 0.102 0.429 0.142 0.61 0.142 0.313 0 0.551-0.126 0.725-0.276 0.018 0.266 0.017 0.604 0.009 0.917 -0.012 0.404 0.042 0.737 0.137 0.745 0.094 0.008 0.196-0.313 0.207-0.717 0.016-0.496 0.013-1.11-0.072-1.403 -0.248-0.865-1.008-1.841-1.813-2.875C45.221 99.896 44.403 98.844 44.197 97.997zM36.95 94.196c-2.177-6.731 0.656-12.54 1.144-13.464 0.85 0.775 1.6 1.811 2.21 2.824C39.86 84.365 37.041 89.669 36.95 94.196zM46.341 104.042c-1.004-0.447-1.339-1.051-1.666-1.633 -0.293-0.527-0.598-1.072-1.369-1.42 -0.168-0.075-0.352-0.191-0.542-0.323 -2.486-5.906 0.272-8.488 0.963-9.017 0.211 0.722 0.369 1.384 0.439 1.915 0.063 0.488-0.052 1.263-0.167 2.012 -0.142 0.929-0.286 1.89-0.137 2.512 0.226 0.926 1.069 2.009 1.884 3.057 0.723 0.929 1.466 1.888 1.721 2.67C47.359 103.972 47.017 104.345 46.341 104.042z"
                          data-colored="true" data-filltype="sd3" data-stroketype="none" fill="#d17f5b"
                          stroke-width="none" opacity="1" stroke="none"></path>
                </g>
                <g id="svga-group-ears-right" data-updown="0" data-leftright="-3.0000002" data-dist="0" data-scaleX="1"
                   data-scaleY="1" data-rotate="0" transform="translate(-3.0000001000000003 0)" style="display:none;">
                    <path id="SvgjsPath5026"
                          d="M152.736 83.974c1.377-2.313 5.639-7.997 9.98-6.603 2.75 0.882 3.293 3.765 3.736 6.311 0.588 3.386-0.471 10.083-1.389 12.503 -0.881 2.325-3.533 6.816-5.266 8.527 -2.129 2.1-4.775 8.793-5.193 9.487 -0.658 1.097-1.535 2.745-4.121 2.538 -2.854-0.229-4.584-1.742-5.857-1.999C141.484 114.109 149.156 89.995 152.736 83.974z"
                          data-colored="true" data-filltype="tone" data-stroketype="sd3" fill="#ffd0bc" stroke="#d17f5b"
                          stroke-width="1.5" opacity="1"></path>
                    <path id="SvgjsPath5027"
                          d="M153.727 100.913c-0.805 1.033-1.564 2.009-1.813 2.875 -0.086 0.293-0.088 0.907-0.072 1.403 0.012 0.404 0.113 0.725 0.207 0.717s0.148-0.341 0.137-0.745c-0.008-0.313-0.008-0.651 0.01-0.917 0.174 0.15 0.412 0.276 0.725 0.276 0.182 0 0.385-0.04 0.609-0.142 1.109-0.496 1.492-1.18 1.828-1.784 0.289-0.52 0.543-0.969 1.209-1.271 1.213-0.546 3.041-2.54 3.447-4.086 1.096-4.194-1.908-9.435-2.338-10.153 0.217-0.513 0.43-0.988 0.619-1.395 0.244-0.518 0.559-1.139 0.93-1.785 0.73 1.377 4 7.883 3.049 12.272 -0.896 4.137-4.9 8.994-6.289 10.579 -0.258 0.296-0.418 0.588-0.352 0.66 0.066 0.071 0.338-0.104 0.598-0.398 1.406-1.596 5.449-6.471 6.379-10.758 0.07-0.329 0.117-0.668 0.146-1.014 0.197-0.329 1.459-2.523 1.791-5.46 0.422-3.735-0.555-9.214-0.744-10.225 0.473-0.039 0.814 0.146 1.051 0.363 0.287 0.264 0.486 0.544 0.572 0.504s0.027-0.378-0.238-0.667c-0.363-0.393-0.988-0.779-1.938-0.456 -2.299 0.782-4.131 3.814-5.262 6.221 -0.984 2.093-2.49 5.953-2.758 7.985 -0.072 0.542 0.045 1.309 0.17 2.121 0.135 0.892 0.273 1.814 0.141 2.362C155.336 98.844 154.518 99.896 153.727 100.913zM159.434 83.555c0.611-1.013 1.361-2.049 2.211-2.824 0.488 0.925 3.32 6.733 1.145 13.464C162.697 89.669 159.879 84.365 159.434 83.555zM152.27 103.816c0.254-0.782 0.998-1.741 1.721-2.67 0.816-1.048 1.658-2.131 1.885-3.057 0.148-0.622 0.004-1.583-0.137-2.512 -0.115-0.749-0.23-1.524-0.166-2.012 0.068-0.531 0.227-1.193 0.438-1.915 0.691 0.529 3.449 3.111 0.965 9.017 -0.191 0.132-0.375 0.248-0.543 0.323 -0.771 0.348-1.074 0.893-1.369 1.42 -0.326 0.582-0.662 1.186-1.666 1.633C152.721 104.345 152.379 103.972 152.27 103.816z"
                          data-colored="true" data-filltype="sd3" data-stroketype="none" fill="#d17f5b"
                          stroke-width="none" opacity="1" stroke="none"></path>
                </g>
                <g id="svga-group-faceshape-wrap" data-updown="0" data-leftright="0" data-dist="0"
                   data-scaleX="0.9599995800000001" data-scaleY="0.9997995800000001" data-rotate="0"
                   transform="matrix(0.9599996900000001 0 0 0.9997996900000001 3.9945107850995214 0.01603531689774229)">
                    <g id="svga-group-faceshape-single" data-updown="0" data-leftright="0" data-dist="0" data-scaleX="1"
                       data-scaleY="1" data-rotate="0">
                        <path id="SvgjsPath7571"
                              d="M144.004 125.052c-6.87 10.737-23.072 30.026-34.468 34.218 -4.474 1.646-14.594 1.646-19.067 0 -11.396-4.192-27.596-23.481-34.467-34.218 -6.753-10.551-14.852-47.803-14.863-47.856 -1.3-4.912-1.996-10.066-2.004-15.382C39.082 28.339 66.289 1.168 99.907 1.116c33.621-0.052 60.913 27.032 60.963 60.506 0.009 5.316-0.669 10.473-1.952 15.389C158.901 77.063 150.78 114.46 144.004 125.052z"
                              data-colored="true" data-filltype="tone" data-stroketype="none" fill="#ffd0bc"
                              stroke-width="none" opacity="1"></path>
                        <path id="SvgjsPath7572"
                              d="M110.152 1.969c26.994 6.24 47.097 30.337 47.052 59.111 -0.009 5.315-0.704 10.471-2.004 15.382 -0.012 0.053-7.377 37.307-14.13 47.856 -6.872 10.735-22.339 29.292-33.734 33.484 -1.476 0.544-5.027 1.092-7.334 1.092 -2.307 0-5.857-0.548-7.333-1.092 -11.396-4.192-26.863-22.749-33.734-33.484 -6.753-10.55-14.119-47.803-14.13-47.856 -1.3-4.911-1.996-10.066-2.004-15.382C42.756 32.307 62.857 8.209 89.853 1.969 61.03 6.788 39.087 31.751 39.134 61.813c0.008 5.315 0.704 10.47 2.004 15.382 0.012 0.053 8.11 37.306 14.863 47.856 6.871 10.736 23.072 30.025 34.467 34.218 2.239 0.824 5.889 1.235 9.537 1.232 3.646 0.001 7.292-0.408 9.53-1.232 11.396-4.192 27.596-23.481 34.468-34.218 6.753-10.551 14.852-47.803 14.862-47.856 1.3-4.912 1.996-10.066 2.004-15.382C160.918 31.751 138.975 6.788 110.152 1.969z"
                              data-colored="true" data-filltype="sd05" data-stroketype="none" fill="#f7c1aa"
                              stroke-width="none" opacity="1"></path>
                        <path id="SvgjsPath7573"
                              d="M144.004 125.052c-6.87 10.737-23.072 30.026-34.468 34.218 -4.474 1.646-14.594 1.646-19.067 0 -11.396-4.192-27.596-23.481-34.467-34.218 -6.753-10.551-14.852-47.803-14.863-47.856 -1.3-4.912-1.996-10.066-2.004-15.382C39.082 28.339 66.289 1.168 99.907 1.116c33.621-0.052 60.913 27.032 60.963 60.506 0.009 5.316-0.669 10.473-1.952 15.389C158.901 77.063 150.78 114.46 144.004 125.052z"
                              data-colored="true" data-filltype="none" data-stroketype="sd3" fill="none"
                              stroke="#d17f5b" stroke-width="1.5" opacity="1"></path>
                    </g>
                </g>
                <g id="svga-group-mouth-single" data-updown="2.0000002" data-leftright="-5.2635580254447884e-17"
                   data-dist="0" data-scaleX="0.89999958" data-scaleY="0.89999958" data-rotate="0"
                   transform="matrix(0.89999947 0 0 0.89999947 9.988102634539374 13.880021999019675) translate(9.999999994736442e-8 2.0000002)">
                    <path id="SvgjsPath7605"
                          d="M99.825 142.068c-3.24 0-4.753-2.802-4.753-2.802s4.797 0.781 9.279-0.064C104.352 139.202 102.675 142.068 99.825 142.068z"
                          data-colored="false" data-filltype="gradient" data-stroketype="none" data-fromskin="true"
                          fill="url(#SvgjsLinearGradient7606)" opacity="1"></path>
                    <path id="SvgjsPath7609"
                          d="M95.211 139.349c-0.132-0.039-0.23-0.149-0.208-0.285 0.021-0.137 0.151-0.224 0.286-0.209 3.612 0.857 5.963 0.661 8.766-0.043 0.145-0.035 0.27 0.062 0.297 0.195s-0.063 0.256-0.193 0.296C101.098 140.207 98.142 140.241 95.211 139.349zM85.447 132.958c0.313-0.144 0.582-0.086 1.073-0.115 1.419-0.249 3.128-0.323 4.54-0.611 1.348-0.274 2.774-0.662 4.158-0.597 1.488 0.071 2.879 0.669 4.353 0.829 1.401 0.151 2.708-0.229 4.053-0.557 1.542-0.376 3.01-0.287 4.56 0.006 1.938 0.363 3.774 0.857 5.689 1.038 0.582 0.055 0.365 0.413 0.032 0.454 -1.713 0.205-3.431-0.068-5.194-0.249 -1.425-0.146-2.868-0.329-4.274 0.021 -1.518 0.379-3.437 0.822-4.605 0.808 -1.3-0.017-2.521-0.538-3.784-0.807 -1.551-0.327-3.091-0.02-4.647 0.143 -1.938 0.201-3.672 0.34-5.579 0.047C85.312 133.29 85.306 133.023 85.447 132.958z"
                          data-colored="true" data-filltype="sd3" data-stroketype="none" data-fromskin="true"
                          fill="#d17f5b" stroke-width="none" opacity="1"></path>
                </g>
                <g id="svga-group-eyes-left" data-updown="1.0000000999999998" data-leftright="3.0000003" data-dist="0"
                   data-scaleX="0.89999958" data-scaleY="0.89999958" data-rotate="0"
                   transform="matrix(0.89999969 0 0 0.89999969 7.715423880601207 8.59992670462178) translate(3.0000003 0.9999999999999999)">
                    <g id="svga-group-eyesback-left">
                        <path id="SvgjsPath7505"
                              d="M60.632 83.957c1.226-1.179 9.091-2.674 13.631-2.075 7.183 0.947 13 7.285 13 7.285s-4.836 3.083-13.61 3.56C67.873 93.042 62.061 89.309 60.632 83.957z"
                              data-colored="false" data-filltype="gradient" data-stroketype="none"
                              fill="url(#SvgjsRadialGradient7506)" opacity="1"></path>
                    </g>
                    <g id="svga-group-eyesiriswrapper-left" transform="translate(-1 0.25)">
                        <g id="svga-group-eyesiriscontrol-left" data-updown="-1.6365788271696354e-16" data-leftright="0"
                           data-dist="0" data-scaleX="1" data-scaleY="1" data-rotate="0"
                           transform="translate(0 9.999999983634211e-8)">
                            <g id="svga-group-eyesiris-left" data-updown="0" data-leftright="0" data-dist="0"
                               data-scaleX="0.79999916" data-scaleY="0.79999916" data-rotate="0"
                               transform="matrix(0.79999927 0 0 0.79999927 15.0013548035733 17.399962801624596)">
                                <path id="SvgjsPath6876"
                                      d="M83.206 89.25c-1.231 4.522-5.896 7.187-10.429 5.944 -4.528-1.241-7.203-5.918-5.97-10.442 1.23-4.526 5.905-7.19 10.434-5.947C81.768 80.045 84.439 84.723 83.206 89.25z"
                                      data-colored="true" data-filltype="tone" data-stroketype="sd3" fill="#341e0c"
                                      stroke="#060300" stroke-width="0.5" opacity="1"></path>
                                <path id="SvgjsPath6877"
                                      d="M73.962 81.918l-0.221-0.395c-0.776 0.308-1.524 0.631-2.232 0.973l0.524 1.267 -0.066 0.732 -2.021-1.189c-0.66 0.367-1.273 0.75-1.867 1.14l0.005 0.013 -0.692 0.78 1.107 1.132 -1.491 0.813 0.563 0.931 2.633 0.262 -2.468 1.673 2.641-0.146L68.984 92.3l3.255-1.969 -0.875 3.349 1.883-3.093 0.363 3.319 0.544-2.936 0.5-0.061 0.709 3.329 0.216-0.998c0.284-0.074 1.018 0.997 1.297 0.922l-0.829-3.621 1.817 3.621 -0.737-3.756 2.236 2.905c0.08-0.025 0.278-1.204 0.357-1.228l-1.392-2.081 2.53 0.763 -1.518-1.643 -1.219-1.009 5.083 1.137 -2.83-1.723 2-0.818 -4.329-0.437 4.281-2.27 -3.875 0.988 -1.043-0.565 -0.256-0.501 0.074-1.199 0.086-1.967 -1.768 3.113 -0.156-2.279 -0.222-0.597c-0.354 0.124-0.702 0.245-1.043 0.375L73.962 81.918z"
                                      data-colored="true" data-filltype="hl1" data-stroketype="none" fill="#432b16"
                                      stroke-width="none" opacity="1"></path>
                                <path id="SvgjsPath6878"
                                      d="M83.303 85.237c-7.429 0.338-11.206 1.927-16.591 3.727 -1.038-4.574 1.839-9.12 6.42-10.149C77.712 77.786 82.267 80.661 83.303 85.237z"
                                      data-colored="true" data-filltype="sd1" data-stroketype="none" fill="#251305"
                                      stroke-width="none" opacity="0.9"></path>
                                <path id="SvgjsPath6879"
                                      d="M76.234,84.165c-1.869-0.536-3.777,0.532-4.258,2.395c-0.484,1.853,0.64,3.793,2.51,4.329c1.871,0.537,3.781-0.532,4.264-2.386C79.237,86.639,78.107,84.7,76.234,84.165z"
                                      data-colored="false" data-filltype="#000000" data-stroketype="none" fill="#000000"
                                      stroke-width="none" opacity="0.8"></path>
                                <path id="SvgjsPath6880"
                                      d="M76.234,84.165c-1.869-0.536-3.777,0.532-4.258,2.395c-0.484,1.853,0.64,3.793,2.51,4.329c1.871,0.537,3.781-0.532,4.264-2.386C79.237,86.639,78.107,84.7,76.234,84.165z"
                                      data-colored="true" data-filltype="none" data-stroketype="sd3" fill="none"
                                      stroke="#060300" stroke-width="0.75" opacity="1"></path>
                                <path id="SvgjsPath6881"
                                      d="M68.812 92.044c0.868 1.378 2.021 2.416 3.653 2.762 1.879 0.398 2.094-2.101 0.748-2.387 -1.02-0.215-1.667-0.715-2.199-1.561C70.039 89.31 68.029 90.803 68.812 92.044L68.812 92.044z"
                                      data-colored="false" data-filltype="#ffffff" data-stroketype="none" fill="#ffffff"
                                      stroke-width="none" opacity="0.5"></path>
                                <path id="SvgjsPath6882"
                                      d="M76.468 83.449c1.316 0.265 2.082 1.087 2.747 2.323 1.222 2.272 4.676 0.252 3.453-2.019 -1.073-1.995-2.86-3.703-5.138-4.162C74.615 79.004 74.206 82.993 76.468 83.449L76.468 83.449z"
                                      data-colored="false" data-filltype="gradient" data-stroketype="none"
                                      fill="url(#SvgjsLinearGradient6883)" opacity="1"></path>
                            </g>
                        </g>
                    </g>
                    <g id="svga-group-eyesfront-left">
                        <path id="SvgjsPath7530"
                              d="M55.332 88c0 13.808 8.06 24.999 18 24.999s18-11.191 18-24.999c0-13.809-8.06-25.001-18-25.001S55.332 74.191 55.332 88zM60.632 83.957c1.226-1.179 9.091-2.674 13.631-2.075 7.183 0.947 13 7.285 13 7.285s-4.836 3.083-13.61 3.56C67.873 93.042 62.061 89.309 60.632 83.957z"
                              data-colored="true" data-filltype="tone" data-stroketype="none" data-fromskin="true"
                              fill="#ffd0bc" stroke-width="none" opacity="1"></path>
                        <path id="SvgjsPath7531"
                              d="M74.182 96.592c9.412 2.223 18.451-1.61 20.194-8.565 1.738-6.956-4.478-14.395-13.892-16.622 -9.414-2.224-18.453 1.609-20.195 8.565C58.55 86.927 64.765 94.365 74.182 96.592zM60.632 83.957c1.226-1.179 9.091-2.674 13.631-2.075 7.183 0.947 13 7.285 13 7.285s-4.836 3.083-13.61 3.56C67.873 93.042 62.061 89.309 60.632 83.957z"
                              data-colored="false" data-filltype="gradient" data-stroketype="none" data-fromskin="true"
                              fill="url(#SvgjsRadialGradient7532)" opacity="1"></path>
                        <path id="SvgjsPath7536"
                              d="M60.632 83.957c1.226-1.179 9.091-2.674 13.631-2.075 7.183 0.947 13 7.285 13 7.285s-4.836 3.083-13.61 3.56C67.873 93.042 62.061 89.309 60.632 83.957z"
                              data-colored="false" data-filltype="gradient" data-stroketype="none"
                              fill="url(#SvgjsRadialGradient7537)" opacity="1"></path>
                        <path id="SvgjsPath7540"
                              d="M87.433 83.657c-6.502-4.251-4.054-3.09-16.23-6.703 3.344 0.5 9.572 2.066 11.707 3.32C84.073 80.928 86.433 82.783 87.433 83.657z"
                              data-colored="true" data-filltype="sd3" data-stroketype="none" data-fromskin="true"
                              fill="#d17f5b" stroke-width="none" opacity="1"></path>
                        <path id="SvgjsPath7541"
                              d="M55.34 82.979c0 0 2.084 1.306 3.713 1.307 0.129 0.766 2.241 4.259 5.873 6.344 5.49 3.154 11.897 2.18 18.014 0.643 2.995-0.746 2.81-1.52 7.773-2.07 -3.897-1.57-3.485-2.497-8.891-5.423 2.468 0.471 5.783 2.315 5.783 2.315 -1.237-1.452-9.917-6.796-23.826-7.508 0 0 4.649 1.088 6.399 1.769 -8.05 1.097-10.242-0.113-10.669-0.435 0.357 0.302 1.188 1.24 3.004 1.852 -1.878 0.143-5.312-0.867-5.312-0.867s0.867 0.826 2.628 1.965C58.323 83.595 55.34 82.979 55.34 82.979zM60.632 84.074c1.226-1.137 9.091-2.58 13.631-2.001 7.183 0.913 13 7.026 13 7.026s-4.836 2.974-13.61 3.434C67.873 92.836 62.061 89.236 60.632 84.074z"
                              data-colored="true" data-filltype="tone" data-stroketype="none" fill="#000000"
                              stroke-width="none" opacity="1"></path>
                    </g>
                </g>
                <g id="svga-group-eyes-right" data-updown="1.0000000999999998" data-leftright="-3.0000003" data-dist="0"
                   data-scaleX="0.89999958" data-scaleY="0.89999958" data-rotate="0"
                   transform="matrix(0.89999969 0 0 0.89999969 12.284686947675155 8.59992670462178) translate(-3.0000003 0.9999999999999999)">
                    <g id="svga-group-eyesback-right">
                        <path id="SvgjsPath7513"
                              d="M139.368 83.957c-1.226-1.179-9.091-2.674-13.631-2.075 -7.183 0.947-13 7.285-13 7.285s4.836 3.083 13.61 3.56C132.127 93.042 137.939 89.309 139.368 83.957z"
                              data-colored="false" data-filltype="gradient" data-stroketype="none"
                              fill="url(#SvgjsRadialGradient7514)" opacity="1"></path>
                    </g>
                    <g id="svga-group-eyesiriswrapper-right" transform="translate(1 0.25)">
                        <g id="svga-group-eyesiriscontrol-right" data-updown="-1.6365788271696354e-16"
                           data-leftright="0" data-dist="0" data-scaleX="1" data-scaleY="1" data-rotate="0"
                           transform="translate(0 9.999999983634211e-8)">
                            <g id="svga-group-eyesiris-right" data-updown="0" data-leftright="0" data-dist="0"
                               data-scaleX="0.79999916" data-scaleY="0.79999916" data-rotate="0"
                               transform="matrix(0.79999927 0 0 0.79999927 25.000091249999997 17.399962801624596)">
                                <path id="SvgjsPath6886"
                                      d="M133.199 89.25c-1.231 4.522-5.896 7.187-10.429 5.944 -4.528-1.241-7.203-5.918-5.97-10.442 1.23-4.526 5.905-7.19 10.434-5.947C131.761 80.045 134.433 84.723 133.199 89.25z"
                                      data-colored="true" data-filltype="tone" data-stroketype="sd3" fill="#341e0c"
                                      stroke="#060300" stroke-width="0.5" opacity="1"></path>
                                <path id="SvgjsPath6887"
                                      d="M123.955 81.918l-0.221-0.395c-0.776 0.308-1.524 0.631-2.232 0.973l0.524 1.267 -0.066 0.732 -2.021-1.189c-0.66 0.367-1.273 0.75-1.867 1.14l0.005 0.013 -0.692 0.78 1.107 1.132L117 87.182l0.563 0.931 2.633 0.262 -2.468 1.673 2.641-0.146 -1.392 2.398 3.255-1.969 -0.875 3.349 1.883-3.093 0.363 3.319 0.544-2.936 0.5-0.061 0.709 3.329 0.216-0.998c0.284-0.074 1.018 0.997 1.297 0.922l-0.829-3.621 1.817 3.621 -0.737-3.756 2.236 2.905c0.08-0.025 0.278-1.204 0.357-1.228l-1.392-2.081 2.53 0.763 -1.518-1.643 -1.219-1.009 5.083 1.137 -2.83-1.723 2-0.818 -4.329-0.437 4.281-2.27 -3.875 0.988 -1.043-0.565 -0.256-0.501 0.074-1.199 0.086-1.967 -1.768 3.113 -0.156-2.279 -0.222-0.597c-0.354 0.124-0.702 0.245-1.043 0.375L123.955 81.918z"
                                      data-colored="true" data-filltype="hl1" data-stroketype="none" fill="#432b16"
                                      stroke-width="none" opacity="1"></path>
                                <path id="SvgjsPath6888"
                                      d="M133.296 85.237c-7.429 0.338-11.206 1.927-16.591 3.727 -1.038-4.574 1.839-9.12 6.42-10.149C127.705 77.786 132.26 80.661 133.296 85.237z"
                                      data-colored="true" data-filltype="sd1" data-stroketype="none" fill="#251305"
                                      stroke-width="none" opacity="0.9"></path>
                                <path id="SvgjsPath6889"
                                      d="M126.229,84.165c-1.869-0.536-3.777,0.532-4.259,2.395c-0.484,1.853,0.641,3.793,2.509,4.329c1.873,0.537,3.78-0.532,4.266-2.386C129.229,86.639,128.101,84.7,126.229,84.165z"
                                      data-colored="false" data-filltype="#000000" data-stroketype="none" fill="#000000"
                                      stroke-width="none" opacity="0.8"></path>
                                <path id="SvgjsPath6890"
                                      d="M126.229,84.165c-1.869-0.536-3.777,0.532-4.259,2.395c-0.484,1.853,0.641,3.793,2.509,4.329c1.873,0.537,3.78-0.532,4.266-2.386C129.229,86.639,128.101,84.7,126.229,84.165z"
                                      data-colored="true" data-filltype="none" data-stroketype="sd3" fill="none"
                                      stroke="#060300" stroke-width="0.75" opacity="1"></path>
                                <path id="SvgjsPath6891"
                                      d="M118.805 92.044c0.868 1.378 2.021 2.416 3.653 2.762 1.879 0.398 2.094-2.101 0.748-2.387 -1.02-0.215-1.667-0.715-2.199-1.561C120.032 89.31 118.022 90.803 118.805 92.044L118.805 92.044z"
                                      data-colored="false" data-filltype="#ffffff" data-stroketype="none" fill="#ffffff"
                                      stroke-width="none" opacity="0.5"></path>
                                <path id="SvgjsPath6892"
                                      d="M126.461 83.449c1.316 0.265 2.082 1.087 2.747 2.323 1.222 2.272 4.676 0.252 3.453-2.019 -1.073-1.995-2.86-3.703-5.138-4.162C124.608 79.004 124.199 82.993 126.461 83.449L126.461 83.449z"
                                      data-colored="false" data-filltype="gradient" data-stroketype="none"
                                      fill="url(#SvgjsLinearGradient6893)" opacity="1"></path>
                            </g>
                        </g>
                    </g>
                    <g id="svga-group-eyesfront-right">
                        <path id="SvgjsPath7551"
                              d="M126.668 62.999c-9.94 0-18 11.193-18 25.001 0 13.808 8.06 24.999 18 24.999s18-11.191 18-24.999C144.668 74.191 136.608 62.999 126.668 62.999zM126.348 92.727c-8.774-0.476-13.61-3.56-13.61-3.56s5.817-6.338 13-7.285c4.54-0.6 12.405 0.896 13.631 2.075C137.939 89.309 132.127 93.042 126.348 92.727z"
                              data-colored="true" data-filltype="tone" data-stroketype="none" data-fromskin="true"
                              fill="#ffd0bc" stroke-width="none" opacity="1"></path>
                        <path id="SvgjsPath7552"
                              d="M139.711 79.971c-1.742-6.956-10.781-10.79-20.195-8.565 -9.414 2.227-15.63 9.666-13.892 16.622 1.743 6.955 10.782 10.788 20.194 8.565C135.235 94.365 141.45 86.927 139.711 79.971zM126.348 92.727c-8.774-0.476-13.61-3.56-13.61-3.56s5.817-6.338 13-7.285c4.54-0.6 12.405 0.896 13.631 2.075C137.939 89.309 132.127 93.042 126.348 92.727z"
                              data-colored="false" data-filltype="gradient" data-stroketype="none" data-fromskin="true"
                              fill="url(#SvgjsRadialGradient7553)" opacity="1"></path>
                        <path id="SvgjsPath7557"
                              d="M139.368 83.957c-1.226-1.179-9.091-2.674-13.631-2.075 -7.183 0.947-13 7.285-13 7.285s4.836 3.083 13.61 3.56C132.127 93.042 137.939 89.309 139.368 83.957z"
                              data-colored="false" data-filltype="gradient" data-stroketype="none"
                              fill="url(#SvgjsRadialGradient7558)" opacity="1"></path>
                        <path id="SvgjsPath7561"
                              d="M112.567 83.657c6.502-4.251 4.054-3.09 16.23-6.703 -3.344 0.5-9.572 2.066-11.707 3.32C115.927 80.928 113.567 82.783 112.567 83.657z"
                              data-colored="true" data-filltype="sd3" data-stroketype="none" data-fromskin="true"
                              fill="#d17f5b" stroke-width="none" opacity="1"></path>
                        <path id="SvgjsPath7562"
                              d="M140.17 82.871c1.761-1.139 2.628-1.965 2.628-1.965s-3.434 1.009-5.312 0.867c1.815-0.612 2.646-1.55 3.004-1.852 -0.427 0.321-2.619 1.531-10.669 0.435 1.75-0.681 6.399-1.769 6.399-1.769 -13.909 0.712-22.589 6.056-23.826 7.508 0 0 3.315-1.844 5.783-2.315 -5.405 2.926-4.993 3.854-8.891 5.423 4.964 0.551 4.778 1.325 7.773 2.07 6.116 1.537 12.523 2.511 18.014-0.643 3.632-2.085 5.744-5.579 5.873-6.344 1.629-0.001 3.713-1.307 3.713-1.307S141.677 83.595 140.17 82.871zM126.348 92.533c-8.774-0.459-13.61-3.434-13.61-3.434s5.817-6.113 13-7.026c4.54-0.579 12.405 0.864 13.631 2.001C137.939 89.236 132.127 92.836 126.348 92.533z"
                              data-colored="true" data-filltype="tone" data-stroketype="none" fill="#000000"
                              stroke-width="none" opacity="1"></path>
                    </g>
                </g>
                <g id="svga-group-facehighlight-single" data-updown="0" data-leftright="0" data-dist="0" data-scaleX="1"
                   data-scaleY="1" data-rotate="0">
                    <path id="SvgjsPath2753"
                          d="M140.204 113.007c0.035 22.275-17.995 40.365-40.273 40.396 -22.274 0.036-40.361-17.993-40.396-40.272C59.501 90.857 77.53 72.77 99.808 72.735 122.083 72.701 140.171 90.73 140.204 113.007z"
                          data-colored="false" data-filltype="gradient" data-stroketype="none" data-fromskin="true"
                          fill="url(#SvgjsRadialGradient2754)" opacity="1"></path>
                    <path id="SvgjsPath2757"
                          d="M135,55.999c0,19.329-15.671,35-35,35c-19.329,0-35-15.671-35-35s15.671-35,35-35C119.329,20.999,135,36.67,135,55.999z"
                          data-colored="false" data-filltype="gradient" data-stroketype="none" data-fromskin="true"
                          fill="url(#SvgjsRadialGradient2758)" opacity="1"></path>
                </g>
                <g id="svga-group-eyebrows-left" data-updown="3.0000002999999995"
                   data-leftright="3.8570248764199485e-16" data-dist="0" data-scaleX="1.1500006300000003"
                   data-scaleY="1.1500006300000003" data-rotate="1e-7"
                   transform="matrix(1.1500005200000003 0 0 1.1500005200000003 -11.026463872677866 -10.201911038147855) rotate(1e-7 72.93950271606445 72.51400013896485) translate(3.8570248764199485e-16 3.0000001999999997)">
                    <path id="SvgjsPath7567"
                          d="M59.396 69.48c16.138-1.701 18.92 1.72 27.556 5.214 0.474 0.186 1.583 0.391 1.88-0.098 0.787-1.312-3.254-3.205-4.65-3.819C75.041 66.529 69.36 66.685 59.396 69.48z"
                          data-colored="true" data-filltype="#000000" data-stroketype="none" fill="#080806"
                          stroke-width="none" opacity="1"></path>
                </g>
                <g id="svga-group-eyebrows-right" data-updown="3.0000002999999995"
                   data-leftright="-3.8570248764199485e-16" data-dist="0" data-scaleX="1.1500006300000003"
                   data-scaleY="1.1500006300000003" data-rotate="1e-7"
                   transform="matrix(1.1500005200000003 0 0 1.1500005200000003 -18.97364041342547 -10.201911038147855) rotate(1e-7 127.0054931640625 71.61299916240235) translate(-3.8570248764199485e-16 3.0000001999999997)">
                    <path id="SvgjsPath7568"
                          d="M140.604 69.48c-5.06-0.533-9.441-1.2-17.854 1.08 -4.62 1.032-10.657 5.557-11.581 4.036 -1.089-1.815 11.254-8.648 22.768-6.707C137.227 68.468 136.765 68.403 140.604 69.48z"
                          data-colored="true" data-filltype="#000000" data-stroketype="none" fill="#080806"
                          stroke-width="none" opacity="1"></path>
                </g>
                <g id="svga-group-nose-single" data-updown="3.0000002999999995" data-leftright="-0.5000001"
                   data-dist="0" data-scaleX="1.1000004200000002" data-scaleY="1.1000004200000002" data-rotate="0"
                   transform="matrix(1.1000005300000002 0 0 1.1000005300000002 -9.8963521740409 -11.202209364773893) translate(-0.5000001999999999 3.0000002999999995)">
                    <path id="SvgjsPath7569"
                          d="M100.906,119.814c-0.402,0.434-0.73,0.381-1.108-0.07c0,0-4.82-3.077-4.208-4.488c0.967-2.233,9.735,0,9.735,0L100.906,119.814z"
                          data-colored="true" data-filltype="sd1" data-stroketype="none" data-fromskin="true"
                          fill="#f0b399" stroke-width="none" opacity="1"></path>
                    <path id="SvgjsPath7570"
                          d="M94.389,113.263c0,0,4.937-12.754,5.366-15.484c0.814,4.431-1.917,14.293-2.125,16.306c-0.251,2.444,2.645,5.497,2.645,5.497c0.238,0.544,0.062,0.682-0.395,0.313l-5.077-3.354C93.601,115.627,93.601,114.756,94.389,113.263z M102.579,115.924c0.7,0.143,0.847,0.395,0.793,0.655c-0.054,0.264-0.354,0.625-0.986,0.295c-0.695-0.36-2.005-0.525-2.005-0.525S101.879,115.78,102.579,115.924z"
                          data-colored="true" data-filltype="sd3" data-stroketype="none" data-fromskin="true"
                          fill="#d17f5b" stroke-width="none" opacity="1"></path>
                </g>
                <g id="svga-group-hair-front" data-updown="0" data-leftright="0" data-dist="0"
                   data-scaleX="0.9599995800000001" data-scaleY="0.9997995800000001" data-rotate="0"
                   transform="matrix(0.9599996900000001 0 0 0.9997996900000001 3.8209290031445846 0.0141894595485752)">
                    <path id="SvgjsPath7498"
                          d="M137.933 141.731c16.512-55.946-2.844-86.784-5.085-96.474 -0.461-1.994-2.839-7.675-2.839-7.675 -8.857-4.884-13.91-5.96-24.344-5.96 -7.02 0-10.784 0.161-17.606 2.384 -7.164 7.132-27.936 32.674-36.394 51.778 4.185 15.866 6.826 68.128 4.833 72.716 -15.408 0.498-9.962-129.099-9.962-129.099 5.36 0 103.2-4.161 108.719-4.161C155.255 25.241 161.143 139.85 137.933 141.731z"
                          data-colored="true" data-filltype="tone" data-stroketype="none" fill="#3b3128"
                          stroke-width="none" opacity="0.1" stroke="none"></path>
                    <path id="SvgjsPath7499"
                          d="M129.421 235.813c7.562-15.873 5.54-26.495 3.584-36.774 -1.463-7.688-2.978-15.637-0.401-25.709 -0.845-13.438 2.629-24.662 6.307-36.547 7.017-22.68 14.97-48.384-6.036-96.463l-0.026-0.062 -0.061-0.033c-8.857-4.884-19.055-7.465-29.488-7.465 -7.02 0-14.039 1.127-20.861 3.351 -7.164 7.132-24.063 29.375-32.521 48.479 0.245 3.976 0.862 8.197 1.927 13.381 4.34 21.321 4.5 38.71 4.654 55.53 0.23 25.185 0.45 48.987 15.491 81.027 -1.855-1.622-3.654-3.18-5.397-4.688 -18.63-16.117-30.938-26.765-34.354-51.049l-0.398 0.021c0 0-0.33 9.248-0.47 13.14C21.141 141.693 19.924 101.158 25.877 60.5 30.869 26.402 62.752-6.334 88.302-6.334c5.36 0 10.53 0.952 15.365 2.83l0.073 0.028 0.072-0.029c6.084-2.401 11.969-3.619 17.488-3.619 16.125 0 29.904 7.554 39.849 27.521 11.614 23.322 17.796 59.631 16.534 97.126 -1.229 36.535-9.174 68.096-21.295 84.732 0.656-3.462 0.867-5.002 1.26-8.908l-0.388-0.089c-7.468 20.085-17.243 30.866-26.698 41.292C130.182 234.974 129.8 235.394 129.421 235.813z"
                          data-colored="true" data-filltype="tone" data-stroketype="none" fill="#3b3128"
                          stroke-width="none" opacity="1" stroke="none"></path>
                    <path id="SvgjsPath7500"
                          d="M50.023 86.038c0.295 3.558 0.885 7.374 1.822 11.934 4.341 21.321 4.5 38.712 4.654 55.53 0.231 25.185 0.45 48.987 15.491 81.027 -1.855-1.623-3.654-3.18-5.397-4.688 -9.569-8.279-17.466-15.118-23.351-23.1 -9.281-17.978-12.373-31.131-12.373-60.673 4.5 24.167 5.667 36.329 23.74 60.667C36.699 171.857 29.855 120.033 50.023 86.038zM175.502 121.842C173.57 134.101 170.613 161.006 166 173c2.684-17.925 2.144-23.32 2-41 -4 23-9.352 50.397-20 68 3.834-15.765 7.255-28.928 7.255-48.595C150.202 170.072 141.482 173.074 140 187c3.888-36.515 20.87-75.267 3.842-113.642 5.986 28.08 0.275 46.59-4.933 63.424 -3.679 11.885-7.15 23.11-6.308 36.547 -2.574 10.071-1.061 18.021 0.402 25.709 1.956 10.28 3.979 20.901-3.584 36.773 0.379-0.419 0.76-0.839 1.143-1.261 9.455-10.426 19.23-21.207 26.698-41.292l0.388 0.089c-0.393 3.906-0.604 5.446-1.26 8.908C168.029 186.278 173.814 156.535 175.502 121.842zM37.27 72.427c-2.445 5.423-6.514 62.265-3.284 74.552 0.046 0.17-0.056-0.172-0.268-0.912C28.817 130.232 34.444 77.602 37.27 72.427zM28.995 149.658c0.151 1.726 0.322 2.77 0.297 2.562 -0.132-0.51-1.95-44.056-1.492-44.315 0.1-0.021 0.069 0.018 0.102 0.025C26.832 108.215 27.775 136.716 28.995 149.658zM161.813 133.315c-1.464 16.704-5.294 35.469-2.028 18.988 5.737-27.943 7.126-52.795 0.201-80.288C162.865 85.764 164.776 96.6 161.813 133.315z"
                          data-colored="true" data-filltype="sd1" data-stroketype="none" fill="#2c2219"
                          stroke-width="none" opacity="1" stroke="none"></path>
                    <path id="SvgjsPath7501"
                          d="M127 29c16.888 6.402 32 75 26 115 10.155-44 7.566-81.265-11-119 16.968 27.907 24.125 38.909 26.371 82.435 3.32-19.596 2.846-43.368-0.37-69.895 -2.007-6.258-4.298-12.015-6.852-17.143C151.206 0.43 137.427-7.124 121.302-7.124c-5.521 0-11.403 1.218-17.489 3.619l-0.071 0.029 -0.073-0.028c-4.835-1.878-10.005-2.83-15.365-2.83 -12.584 0-27.104 8.274-39.002 20.577C32.418 39.738 27.122 71.139 28 101c1-24 13-48 28-66 -11 26-19 53-20 81 6-39 35.469-88.265 58-96 6.9-2.369 15.467-1.286 17.615 6.42 1.188 1.846 1.794 4.125 1.385 6.58 1.407-1.126 2.791-1.964 4.165-2.536C120.504 27.823 124.108 27.904 127 29z"
                          data-colored="true" data-filltype="hl05" data-stroketype="none" fill="#433931"
                          stroke-width="none" opacity="1" stroke="none"></path>
                    <path id="SvgjsPath7502"
                          d="M113 33c1-6-5-11.6-10-11.6 -8.118 0-16.148 7.781-21.182 15.339 0.212-0.22 0.42-0.433 0.619-0.63 6.822-2.224 13.841-3.351 20.861-3.351 10.435 0 20.63 2.582 29.488 7.465l0.06 0.033 0.027 0.062c0.054 0.123 0.102 0.24 0.152 0.362 -0.271-3.492-4.157-7.681-6.063-9.05C121.964 28.63 117.881 28.408 113 33z"
                          data-colored="true" data-filltype="sd2" data-stroketype="none" fill="#1c150e"
                          stroke-width="none" opacity="1" stroke="none"></path>
                    <path id="SvgjsPath7503"
                          d="M123.605 15.551c14.693 2.885 21.418 18.935 25.36 33.284C149.686 51.544 142.26 19.955 123.605 15.551zM167.8 60.71c-2.621-21.61-11.549-43.651-30.488-54.378C163.85 22.934 168.197 63.544 167.8 60.71zM91.438 18.545c1.918-0.426-12.385 1.221-23.378 15.036 -7.164 8.71-13.558 21.986-16.138 27.16C59.841 44.582 73.947 22.662 91.438 18.545zM75.803 6.583C59.858 11.72 49.913 23.31 44.498 37.629 55.194 12.346 80.312 5.185 75.803 6.583zM111.399 5.315C107.242-3.4 99.008-7.734 86.591-6.171c12.168-0.83 20.242 4.56 23.477 11.712 -6.828-7.43-19.214 1.181-18.223 0.847 0.978-0.692 13.933-4.741 18.745 0.193 2.196 4.651 3.396 10.396 3.765 16.96 0.41 8.729 0.354-4.552-0.186-8.375 -0.458-3.457-1.292-6.551-2.495-9.251 4.005-5.099 11.348-5.508 17.675-2.897l0.041-0.091C123.153-0.222 114.057-0.279 111.399 5.315z"
                          data-colored="true" data-filltype="tone" data-stroketype="none" fill="#3b3128"
                          stroke-width="none" opacity="1" stroke="none"></path>
                    <path id="SvgjsPath7504"
                          d="M114.04 32.379c5.321-4.434 12.993-3.73 18.039 6.7l0.61 1.32c31.857 72.917-2.776 93.617-0.28 132.88 -6.107 23.896 10.536 35.066-3.79 63.72 9.811-10.893 20.781-22.021 28.83-43.67 -0.429 4.271-0.652 5.762-1.42 9.75 38.854-51.466 30.84-240.344-52.29-206.77 -26.87-12.574-69.464 14.093-78.06 64.16 -7.504 43.708-3.863 86.184 5.83 133.16 0.025-0.661 0.53-14.811 0.53-14.811 3.785 26.906 18.251 36.949 40.54 56.49 -25.454-53.516-9.508-83.19-20.54-137.379 -0.9-4.38-1.64-8.8-1.94-13.26 8.343-18.843 25.079-41.048 32.4-48.37l1.21-1.21c0.099-0.095 5.39-5.147 5.63-5.37 8.201-3.25 17.274-4.018 22.341 3.593 -3.037-7.992-13.058-8.04-20.73-5.043 8.445-7.445 18.682-10.292 22.191 4.081 0.103 0.419 0.082 1.196 0.082 1.196S113.665 32.692 114.04 32.379zM175.077 118.061c-0.38 12.364-2.541 54.771-17.658 82.27 1.066-4.51 1.76-8.328 2.021-12.801 4.745-14.82 5.854-26.1 6.028-27.1 -5.55 27.37-15.529 51.351-34.619 73.569 13.535-29.831-2.641-35.97 1.67-59.33 0.967 11.022 4.291 21.701 7.739 32.05 0.49-9.871 2.533-21.996 7.271-30.71 -1.799 2.479-7.063 14.054-7.93 26.21 -14.464-50.55 5.344-49.98 8.17-108.66 2.604 21.148-0.119 28.44-0.119 28.44 5.72-19.17 0.543-32.426-0.826-43.12 -1.693-13.216-10.355-34.177-11.654-36.99 -4.865-10.169-12.197-16.503-21.13-10.39 -8.374-24.158-29.294-0.563-35.459 6.21 -8.888 9.765-22.52 28.087-29.211 44.29 0 0.01-0.01 0.02-0.01 0.03 -4.833 11.717-6.102 20.844-7.32 28.84 2.306-11.387 4.596-18.222 7.43-24.77 0.18 3.31 0.57 6.61 1.08 9.87 8.997 57.645-6.818 82.899 20.06 136.78 -34.449-32.043-38.365-41.664-39.7-80.58 -0.238 24.988 0.937 10.513-0.14 30.7 -5.768-39.082-10.682-67.553-2.5-118.52 9.267-57.727 52.276-77.212 75.43-67.42 30.296-12.349 48.97 5.949 61.2 35.04 2.775 6.604 10.469 37.291 5.6 62.41 0 0 2.195-6.328 3.66-18.7C175.565 89.307 175.505 104.127 175.077 118.061z"
                          data-colored="true" data-filltype="sd3" data-stroketype="none" fill="#0d0905"
                          stroke-width="none" opacity="1" stroke="none"></path>
                </g>
                <g id="svga-group-glasses-single" data-updown="0" data-leftright="0" data-dist="0" data-scaleX="1"
                   data-scaleY="1" data-rotate="0">
                    <path id="SvgjsPath4973" d="M100,18.13L100,18.13L100,18.13L100,18.13z" data-colored="true"
                          data-filltype="tone" data-stroketype="none" fill="#26120b" stroke-width="none"
                          opacity="1"></path>
                </g>
            </g>
        </g>
        <rect id="SvgjsRect1033" width="200" height="15" x="0" y="185" fill="#ecf0f1" opacity="0.5"
              style="display:none;"></rect>
        <text id="SvgjsText1034"
              font-family="&quot;Roboto&quot;, &quot;Helvetica Neue&quot;, Helvetica, Arial, sans-serif"
              style="font-size:0.84em;font-family:&quot;Roboto&quot;, &quot;Helvetica Neue&quot;, Helvetica, Arial, sans-serif;text-anchor:middle;font-weight:400;display:none;"
              font-size="0.84em" text-anchor="middle" font-weight="400" fill="#000000" x="100" y="185">
            <tspan id="SvgjsTspan1035" dy="1.2em" x="100"
                   style="font-size:0.84em;font-family:&quot;Roboto&quot;, &quot;Helvetica Neue&quot;, Helvetica, Arial, sans-serif;text-anchor:middle;font-weight:400;">
                Created on svgAvatars.com
            </tspan>
        </text>
    </g>
    <defs id="SvgjsDefs1001">
        <radialGradient id="SvgjsRadialGradient2754" cx="100" cy="113" r="40" gradientUnits="userSpaceOnUse"
                        class="svga-on-canvas-facehighlight-gradient-single-0">
            <stop id="SvgjsStop2755" stop-opacity="0.5" stop-color="#ffe2d6" offset="0" data-stoptype="hl1"></stop>
            <stop id="SvgjsStop2756" stop-opacity="0" stop-color="#ffd0bc" offset="0.9" data-stoptype="tone"></stop>
        </radialGradient>
        <radialGradient id="SvgjsRadialGradient2758" cx="100" cy="57" r="36" gradientUnits="userSpaceOnUse"
                        class="svga-on-canvas-facehighlight-gradient-single-1">
            <stop id="SvgjsStop2759" stop-opacity="0.5" stop-color="#ffe2d6" offset="0" data-stoptype="hl1"></stop>
            <stop id="SvgjsStop2760" stop-opacity="0" stop-color="#ffd0bc" offset="0.9" data-stoptype="tone"></stop>
        </radialGradient>
        <radialGradient id="SvgjsRadialGradient3277" cx="100" cy="100" r="150" gradientUnits="userSpaceOnUse"
                        class="svga-on-canvas-backs-gradient-single-1">
            <stop id="SvgjsStop3278" stop-opacity="0" stop-color="#ffffff" offset="0" data-stoptype="tone"></stop>
            <stop id="SvgjsStop3279" stop-opacity="1" stop-color="#f0d8d8" offset="0.2" data-stoptype="sd1"></stop>
            <stop id="SvgjsStop3280" stop-opacity="0" stop-color="#f0d8d8" offset="1" data-stoptype="sd1"></stop>
        </radialGradient>
        <radialGradient id="SvgjsRadialGradient5494" cx="-558.588" cy="-490.918" r="84.646"
                        gradientTransform="matrix(0.096 -0.0248 0.0245 0.0961 140.5478 120.3577)"
                        gradientUnits="userSpaceOnUse" class="svga-on-canvas-eyesiris-gradient-left-1">
            <stop id="SvgjsStop5495" stop-opacity="0.8" stop-color="#ffffff" offset="0" data-stoptype="#ffffff"></stop>
            <stop id="SvgjsStop5496" stop-opacity="0" stop-color="#ffffff" offset="1" data-stoptype="#ffffff"></stop>
        </radialGradient>
        <radialGradient id="SvgjsRadialGradient5498" cx="-565.337" cy="-492.691" r="84.644"
                        gradientTransform="matrix(0.0991 8.856325e-004 -0.0011 0.0991 130.3774 136.3533)"
                        gradientUnits="userSpaceOnUse" class="svga-on-canvas-eyesiris-gradient-left-2">
            <stop id="SvgjsStop5499" stop-opacity="0.8" stop-color="#ffffff" offset="0" data-stoptype="#ffffff"></stop>
            <stop id="SvgjsStop5500" stop-opacity="0" stop-color="#ffffff" offset="1" data-stoptype="#ffffff"></stop>
        </radialGradient>
        <linearGradient id="SvgjsLinearGradient5504" x1="122.283" y1="93.047" x2="123.61" y2="91.466"
                        gradientTransform="matrix(1 0 0 1 -52 0)" gradientUnits="userSpaceOnUse"
                        class="svga-on-canvas-eyesiris-gradient-left-5">
            <stop id="SvgjsStop5505" stop-opacity="1" stop-color="#ffffff" offset="0" data-stoptype="#ffffff"></stop>
            <stop id="SvgjsStop5506" stop-opacity="0" stop-color="#ffffff" offset="1" data-stoptype="#ffffff"></stop>
        </linearGradient>
        <linearGradient id="SvgjsLinearGradient5512" x1="130" y1="81" x2="126" y2="85"
                        gradientTransform="matrix(1 0 0 1 -50 0)" gradientUnits="userSpaceOnUse"
                        class="svga-on-canvas-eyesiris-gradient-left-7">
            <stop id="SvgjsStop5513" stop-opacity="1" stop-color="#ffffff" offset="0" data-stoptype="#ffffff"></stop>
            <stop id="SvgjsStop5514" stop-opacity="0" stop-color="#ffffff" offset="1" data-stoptype="#ffffff"></stop>
        </linearGradient>
        <radialGradient id="SvgjsRadialGradient5517" cx="-578.76" cy="-490.73" r="84.646"
                        gradientTransform="matrix(0.096 -0.0248 0.0245 0.0961 192.4794 119.8404)"
                        gradientUnits="userSpaceOnUse" class="svga-on-canvas-eyesiris-gradient-right-1">
            <stop id="SvgjsStop5518" stop-opacity="0.8" stop-color="#ffffff" offset="0" data-stoptype="#ffffff"></stop>
            <stop id="SvgjsStop5519" stop-opacity="0" stop-color="#ffffff" offset="1" data-stoptype="#ffffff"></stop>
        </radialGradient>
        <radialGradient id="SvgjsRadialGradient5521" cx="-584.778" cy="-487.329" r="84.644"
                        gradientTransform="matrix(0.0991 8.856325e-004 -0.0011 0.0991 182.3104 135.839)"
                        gradientUnits="userSpaceOnUse" class="svga-on-canvas-eyesiris-gradient-right-2">
            <stop id="SvgjsStop5522" stop-opacity="0.8" stop-color="#ffffff" offset="0" data-stoptype="#ffffff"></stop>
            <stop id="SvgjsStop5523" stop-opacity="0" stop-color="#ffffff" offset="1" data-stoptype="#ffffff"></stop>
        </radialGradient>
        <linearGradient id="SvgjsLinearGradient5527" x1="120.284" y1="93.047" x2="121.611" y2="91.467"
                        gradientUnits="userSpaceOnUse" class="svga-on-canvas-eyesiris-gradient-right-5">
            <stop id="SvgjsStop5528" stop-opacity="1" stop-color="#ffffff" offset="0" data-stoptype="#ffffff"></stop>
            <stop id="SvgjsStop5529" stop-opacity="0" stop-color="#ffffff" offset="1" data-stoptype="#ffffff"></stop>
        </linearGradient>
        <linearGradient id="SvgjsLinearGradient5535" x1="130" y1="81" x2="126" y2="85" gradientUnits="userSpaceOnUse"
                        class="svga-on-canvas-eyesiris-gradient-right-7">
            <stop id="SvgjsStop5536" stop-opacity="1" stop-color="#ffffff" offset="0" data-stoptype="#ffffff"></stop>
            <stop id="SvgjsStop5537" stop-opacity="0" stop-color="#ffffff" offset="1" data-stoptype="#ffffff"></stop>
        </linearGradient>
        <linearGradient id="SvgjsLinearGradient6883" x1="130" y1="81" x2="126" y2="85"
                        gradientTransform="matrix(1 0 0 1 -50 0)" gradientUnits="userSpaceOnUse"
                        class="svga-on-canvas-eyesiris-gradient-left-6">
            <stop id="SvgjsStop6884" stop-opacity="1" stop-color="#ffffff" offset="0" data-stoptype="#ffffff"></stop>
            <stop id="SvgjsStop6885" stop-opacity="0" stop-color="#ffffff" offset="1" data-stoptype="#ffffff"></stop>
        </linearGradient>
        <linearGradient id="SvgjsLinearGradient6893" x1="130" y1="81" x2="126" y2="85" gradientUnits="userSpaceOnUse"
                        class="svga-on-canvas-eyesiris-gradient-right-6">
            <stop id="SvgjsStop6894" stop-opacity="1" stop-color="#ffffff" offset="0" data-stoptype="#ffffff"></stop>
            <stop id="SvgjsStop6895" stop-opacity="0" stop-color="#ffffff" offset="1" data-stoptype="#ffffff"></stop>
        </linearGradient>
        <radialGradient id="SvgjsRadialGradient7506" cx="126.403" cy="87.57" r="15.179"
                        gradientTransform="matrix(-0.9148 0.0479 0.0523 0.9986 184.4314 -6.6017)"
                        gradientUnits="userSpaceOnUse" class="svga-on-canvas-eyesback-gradient-left-0">
            <stop id="SvgjsStop7507" stop-opacity="1" stop-color="#ffffff" offset="0" data-stoptype="#ffffff"></stop>
            <stop id="SvgjsStop7508" stop-opacity="1" stop-color="#fdfefe" offset="0.544"
                  data-stoptype="#fdfefe"></stop>
            <stop id="SvgjsStop7509" stop-opacity="1" stop-color="#f6f8f9" offset="0.74" data-stoptype="#f6f8f9"></stop>
            <stop id="SvgjsStop7510" stop-opacity="1" stop-color="#eaeff2" offset="0.879"
                  data-stoptype="#eaeff2"></stop>
            <stop id="SvgjsStop7511" stop-opacity="1" stop-color="#d9e3e8" offset="0.992"
                  data-stoptype="#d9e3e8"></stop>
            <stop id="SvgjsStop7512" stop-opacity="1" stop-color="#d8e2e7" offset="1" data-stoptype="#d8e2e7"></stop>
        </radialGradient>
        <radialGradient id="SvgjsRadialGradient7514" cx="126.401" cy="87.57" r="15.179"
                        gradientTransform="matrix(0.9148 0.0479 -0.0523 0.9986 15.5691 -6.6017)"
                        gradientUnits="userSpaceOnUse" class="svga-on-canvas-eyesback-gradient-right-0">
            <stop id="SvgjsStop7515" stop-opacity="1" stop-color="#ffffff" offset="0" data-stoptype="#ffffff"></stop>
            <stop id="SvgjsStop7516" stop-opacity="1" stop-color="#fdfefe" offset="0.544"
                  data-stoptype="#fdfefe"></stop>
            <stop id="SvgjsStop7517" stop-opacity="1" stop-color="#f6f8f9" offset="0.74" data-stoptype="#f6f8f9"></stop>
            <stop id="SvgjsStop7518" stop-opacity="1" stop-color="#eaeff2" offset="0.879"
                  data-stoptype="#eaeff2"></stop>
            <stop id="SvgjsStop7519" stop-opacity="1" stop-color="#d9e3e8" offset="0.992"
                  data-stoptype="#d9e3e8"></stop>
            <stop id="SvgjsStop7520" stop-opacity="1" stop-color="#d8e2e7" offset="1" data-stoptype="#d8e2e7"></stop>
        </radialGradient>
        <radialGradient id="SvgjsRadialGradient7522" cx="126.403" cy="87.57" r="15.179"
                        gradientTransform="matrix(-0.9148 0.0479 0.0523 0.9986 184.4314 -6.6017)"
                        gradientUnits="userSpaceOnUse" class="svga-on-canvas-eyesfront-gradient-left-0">
            <stop id="SvgjsStop7523" stop-opacity="1" stop-color="#ffffff" offset="0" data-stoptype="#ffffff"></stop>
            <stop id="SvgjsStop7524" stop-opacity="1" stop-color="#fdfefe" offset="0.544"
                  data-stoptype="#fdfefe"></stop>
            <stop id="SvgjsStop7525" stop-opacity="1" stop-color="#f6f8f9" offset="0.74" data-stoptype="#f6f8f9"></stop>
            <stop id="SvgjsStop7526" stop-opacity="1" stop-color="#eaeff2" offset="0.879"
                  data-stoptype="#eaeff2"></stop>
            <stop id="SvgjsStop7527" stop-opacity="1" stop-color="#d9e3e8" offset="0.992"
                  data-stoptype="#d9e3e8"></stop>
            <stop id="SvgjsStop7528" stop-opacity="1" stop-color="#d8e2e7" offset="1" data-stoptype="#d8e2e7"></stop>
        </radialGradient>
        <radialGradient id="SvgjsRadialGradient7532" cx="122.581" cy="83.48" fx="136.229" fy="83.114" r="16.914"
                        gradientTransform="matrix(0.99 0.1411 0.1085 -0.7608 -52.9892 129.6892)"
                        gradientUnits="userSpaceOnUse" class="svga-on-canvas-eyesfront-gradient-left-3">
            <stop id="SvgjsStop7533" stop-opacity="1" stop-color="#f0b399" offset="0" data-stoptype="sd1"></stop>
            <stop id="SvgjsStop7534" stop-opacity="0.3" stop-color="#f0b399" offset="0.7" data-stoptype="sd1"></stop>
            <stop id="SvgjsStop7535" stop-opacity="0" stop-color="#ffd0bc" offset="1" data-stoptype="tone"></stop>
        </radialGradient>
        <radialGradient id="SvgjsRadialGradient7537" cx="70.243" cy="108.081" r="29.51"
                        gradientTransform="matrix(1.0336 0 0 1.0336 -1.941 1.8777)" gradientUnits="userSpaceOnUse"
                        class="svga-on-canvas-eyesfront-gradient-left-4">
            <stop id="SvgjsStop7538" stop-opacity="0" stop-color="#000000" offset="0.95" data-stoptype="#000000"></stop>
            <stop id="SvgjsStop7539" stop-opacity="0.3" stop-color="#000000" offset="1" data-stoptype="#000000"></stop>
        </radialGradient>
        <radialGradient id="SvgjsRadialGradient7543" cx="126.401" cy="87.57" r="15.179"
                        gradientTransform="matrix(0.9148 0.0479 -0.0523 0.9986 15.5691 -6.6017)"
                        gradientUnits="userSpaceOnUse" class="svga-on-canvas-eyesfront-gradient-right-0">
            <stop id="SvgjsStop7544" stop-opacity="1" stop-color="#ffffff" offset="0" data-stoptype="#ffffff"></stop>
            <stop id="SvgjsStop7545" stop-opacity="1" stop-color="#fdfefe" offset="0.544"
                  data-stoptype="#fdfefe"></stop>
            <stop id="SvgjsStop7546" stop-opacity="1" stop-color="#f6f8f9" offset="0.74" data-stoptype="#f6f8f9"></stop>
            <stop id="SvgjsStop7547" stop-opacity="1" stop-color="#eaeff2" offset="0.879"
                  data-stoptype="#eaeff2"></stop>
            <stop id="SvgjsStop7548" stop-opacity="1" stop-color="#d9e3e8" offset="0.992"
                  data-stoptype="#d9e3e8"></stop>
            <stop id="SvgjsStop7549" stop-opacity="1" stop-color="#d8e2e7" offset="1" data-stoptype="#d8e2e7"></stop>
        </radialGradient>
        <radialGradient id="SvgjsRadialGradient7553" cx="122.581" cy="83.48" fx="136.229" fy="83.114" r="16.914"
                        gradientTransform="matrix(-0.99 0.1411 -0.1085 -0.7608 252.9892 129.6892)"
                        gradientUnits="userSpaceOnUse" class="svga-on-canvas-eyesfront-gradient-right-3">
            <stop id="SvgjsStop7554" stop-opacity="1" stop-color="#f0b399" offset="0" data-stoptype="sd1"></stop>
            <stop id="SvgjsStop7555" stop-opacity="0.3" stop-color="#f0b399" offset="0.7" data-stoptype="sd1"></stop>
            <stop id="SvgjsStop7556" stop-opacity="0" stop-color="#ffd0bc" offset="1" data-stoptype="tone"></stop>
        </radialGradient>
        <radialGradient id="SvgjsRadialGradient7558" cx="70.243" cy="108.081" r="29.509"
                        gradientTransform="matrix(-1.0336 0 0 1.0336 201.941 1.8777)" gradientUnits="userSpaceOnUse"
                        class="svga-on-canvas-eyesfront-gradient-right-4">
            <stop id="SvgjsStop7559" stop-opacity="0" stop-color="#000000" offset="0.95" data-stoptype="#000000"></stop>
            <stop id="SvgjsStop7560" stop-opacity="0.3" stop-color="#000000" offset="1" data-stoptype="#000000"></stop>
        </radialGradient>
        <linearGradient id="SvgjsLinearGradient7575" x1="99.98" y1="171.27" x2="99.98" y2="136.351"
                        gradientUnits="userSpaceOnUse" class="svga-on-canvas-chinshadow-gradient-single-0">
            <stop id="SvgjsStop7576" stop-opacity="0.8" stop-color="#f0b399" offset="0" data-stoptype="sd1"></stop>
            <stop id="SvgjsStop7577" stop-opacity="1" stop-color="#d17f5b" offset="0.7" data-stoptype="sd3"></stop>
        </linearGradient>
        <linearGradient id="SvgjsLinearGradient7606" x1="100" y1="142" x2="100" y2="139" gradientUnits="userSpaceOnUse"
                        class="svga-on-canvas-mouth-gradient-single-0">
            <stop id="SvgjsStop7607" stop-opacity="1" stop-color="#f7c1aa" offset="0.1" data-stoptype="sd05"></stop>
            <stop id="SvgjsStop7608" stop-opacity="1" stop-color="#f0b399" offset="1" data-stoptype="sd1"></stop>
        </linearGradient>
    </defs>
</svg>